<svg width="41" height="41" viewBox="0 0 41 41" fill="none" xmlns="http://www.w3.org/2000/svg">
<circle cx="20.8613" cy="20.2695" r="20" fill="#E20000"/>
<path d="M14.7727 19.0498H14.7729C16.7142 19.0498 18.2881 17.4761 18.2881 15.5347C18.2881 13.5932 16.7142 12.0195 14.7729 12.0195C12.8315 12.0195 11.2578 13.5932 11.2578 15.5347L11.2578 15.5349C11.2596 17.4753 12.832 19.048 14.7727 19.0498ZM14.7732 13.8592C15.6945 13.8594 16.4416 14.6066 16.4416 15.5279C16.4416 16.4494 15.6944 17.1966 14.7729 17.1966C13.8514 17.1966 13.1044 16.4495 13.1043 15.5282C13.106 14.6074 13.852 13.861 14.7732 13.8592Z" fill="white" stroke="white" stroke-width="0.5"/>
<path d="M9.52734 27.5963L9.52734 27.597C9.52879 28.1059 9.94102 28.5181 10.4499 28.5195H10.4506L19.095 28.5195L19.0957 28.5195C19.6045 28.5181 20.0168 28.1059 20.0182 27.597V27.5963C20.0182 24.5647 17.7193 22.1759 14.7729 22.1759C11.8262 22.1759 9.52734 24.5647 9.52734 27.5963ZM18.0653 26.6731H11.4813C11.8509 25.1038 13.1435 24.0224 14.7729 24.0224C16.4029 24.0224 17.7009 25.1046 18.0653 26.6731Z" fill="white" stroke="white" stroke-width="0.5"/>
<path d="M27.5527 26.91H24.6246V22.5179H20.2324V19.5898H24.6246V15.1976H27.5527V19.5898H31.9448V22.5179H27.5527V26.91Z" fill="white"/>
</svg>
