<svg width="20" height="25" viewBox="0 0 20 25" fill="none" xmlns="http://www.w3.org/2000/svg">
<path d="M6.72339 7.59552V0.412785C6.72339 0.184938 6.53845 0 6.31061 0H3.8338C3.60596 0 3.42102 0.184938 3.42102 0.412785V7.59552C1.88622 8.46404 0.943779 10.0723 0.944214 11.8515V24.3553C0.944214 24.5835 1.12915 24.768 1.357 24.768H8.78741C9.01526 24.768 9.2002 24.5835 9.2002 24.3553V11.8519C9.20058 10.0723 8.25819 8.46404 6.72339 7.59552ZM8.37458 23.9424H1.76978V11.8515C1.76896 10.3006 2.63091 8.90619 4.01831 8.21269C4.15826 8.1425 4.24659 7.99969 4.24659 7.84325V0.825618H5.89777V7.84325C5.89777 7.99969 5.98611 8.14293 6.12606 8.21269C7.5135 8.90576 8.37502 10.3002 8.37458 11.8515V23.9424Z" fill="#E94057"/>
<path d="M6.30936 2.06402H3.83255V2.88964H6.30936V2.06402Z" fill="#E94057"/>
<path d="M19.0166 13.3615L18.2776 8.1974C18.2488 7.99432 18.0746 7.8432 17.869 7.8432H12.9154C12.7102 7.8432 12.536 7.99428 12.5063 8.1974L11.7678 13.3389C11.6976 13.8094 11.7232 14.2813 11.8405 14.7329L11.9123 15.0355C12.3127 16.6338 13.7435 17.75 15.3914 17.7505C15.3939 17.7505 15.3955 17.7505 15.3976 17.7505C17.0347 17.7505 18.4631 16.6442 18.8734 15.0508L18.9411 14.7626C19.0612 14.3019 19.0863 13.8297 19.0166 13.3615ZM18.1402 14.5636L18.0721 14.8526C17.7576 16.0732 16.6582 16.9248 15.3976 16.9248C15.3955 16.9248 15.3922 16.9248 15.3922 16.9248C14.1232 16.9248 13.0215 16.0654 12.7148 14.8402L12.6421 14.5339C12.5501 14.1817 12.5311 13.8205 12.5852 13.4585L13.2729 8.66882H17.5111L18.2001 13.4808C18.2538 13.8408 18.2347 14.202 18.1402 14.5636Z" fill="#E94057"/>
<path d="M15.8038 17.3376H14.9782V22.704H15.8038V17.3376Z" fill="#E94057"/>
<path d="M16.2178 22.2912H14.5666C13.4285 22.2912 12.5026 23.2171 12.5026 24.3553C12.5026 24.5835 12.6871 24.768 12.9154 24.768H17.869C18.0973 24.768 18.2818 24.5835 18.2818 24.3553C18.2818 23.2171 17.3559 22.2912 16.2178 22.2912ZM13.3988 23.9424C13.5692 23.4619 14.0287 23.1168 14.5666 23.1168H16.2178C16.7561 23.1168 17.2151 23.4619 17.3856 23.9424H13.3988Z" fill="#E94057"/>
<path d="M18.6933 13.6224H12.0885V14.448H18.6933V13.6224Z" fill="#E94057"/>
<path d="M6.30936 5.77923H3.83255V6.60484H6.30936V5.77923Z" fill="#E94057"/>
<path d="M7.13618 12.7968H3.00819C2.78034 12.7968 2.5954 12.9813 2.5954 13.2096V20.64C2.5954 20.8683 2.78034 21.0528 3.00819 21.0528H7.13618C7.36403 21.0528 7.54897 20.8683 7.54897 20.64V13.2096C7.54897 12.9814 7.36403 12.7968 7.13618 12.7968ZM6.7234 20.2272H3.42097V13.6224H6.7234V20.2272Z" fill="#E94057"/>
</svg>
