<svg width="24" height="18" viewBox="0 0 24 18" fill="none" xmlns="http://www.w3.org/2000/svg">
<path d="M5.99537 7.78027H5.99561C7.93685 7.78027 9.51074 6.20662 9.51074 4.26514C9.51074 2.32366 7.93685 0.75 5.99561 0.75C4.05414 0.75 2.48047 2.32367 2.48047 4.26514L2.48047 4.26537C2.48228 6.20581 4.0547 7.77846 5.99537 7.78027ZM5.99585 2.58972C6.91715 2.58985 7.66429 3.33707 7.66429 4.2584C7.66429 5.17982 6.91702 5.92709 5.99561 5.92709C5.07408 5.92709 4.32705 5.17997 4.32692 4.25865C4.32867 3.33785 5.0747 2.59147 5.99585 2.58972Z" fill="#E94057" stroke="#E94057" stroke-width="0.5"/>
<path d="M0.749999 16.3268L0.750001 16.3275C0.751443 16.8363 1.16367 17.2486 1.67252 17.25H1.67322L10.3176 17.25L10.3183 17.25C10.8272 17.2486 11.2394 16.8363 11.2409 16.3275V16.3268C11.2409 13.2952 8.94196 10.9064 5.99553 10.9064C3.04891 10.9064 0.75 13.2952 0.749999 16.3268ZM9.28799 15.4035H2.70391C3.07358 13.8343 4.36619 12.7529 5.99553 12.7529C7.62559 12.7529 8.9236 13.8351 9.28799 15.4035Z" fill="#E94057" stroke="#E94057" stroke-width="0.5"/>
<path d="M18.7763 15.6405H15.8482V11.2484H11.4561V8.32025H15.8482V3.92809H18.7763V8.32025H23.1685V11.2484H18.7763V15.6405Z" fill="#E94057"/>
</svg>
