<svg width="26" height="26" viewBox="0 0 26 26" fill="none" xmlns="http://www.w3.org/2000/svg">
<path d="M23.0104 4.85998C22.8815 4.69377 22.6422 4.6635 22.476 4.79244C22.3098 4.92137 22.2796 5.1606 22.4085 5.32681C23.5786 6.83543 24.252 8.68348 24.33 10.5779L19.2158 9.20755C19.4293 7.85228 19.5135 6.47565 19.4652 5.11002C19.4373 4.31956 19.3643 3.52493 19.2484 2.73893C19.9669 3.09526 20.6397 3.54681 21.2418 4.08063C21.3992 4.22018 21.6398 4.20565 21.7794 4.04833C21.9189 3.89091 21.9045 3.6502 21.7471 3.51071C20.7521 2.62863 19.5879 1.96385 18.3322 1.54007L18.7002 0.508953C18.771 0.310853 18.6676 0.0929493 18.4696 0.0222612C18.2715 -0.0484269 18.0536 0.0548122 17.9829 0.252911L17.5997 1.32659C13.2884 0.256822 8.7704 2.21709 6.5873 6.11433C6.55789 6.16892 6.53037 6.23865 6.53626 6.33209L6.67124 8.3175C6.69704 8.69653 6.9609 9.01727 7.3279 9.11563L11.089 10.1234C11.4501 10.2203 11.844 10.0779 12.0567 9.76051L12.5456 9.03265L12.6051 9.90747C12.6309 10.2865 12.8947 10.6072 13.2617 10.7056L14.7743 11.1109L12.6444 19.0596L9.08174 19.0493H9.08062C8.8708 19.0493 8.70042 19.2191 8.69976 19.4291C8.69915 19.6394 8.86917 19.8105 9.07956 19.811L16.5383 19.8326H16.542C16.915 19.8326 17.2784 19.68 17.5395 19.4135L20.2238 16.6744C20.7778 16.1092 21.6207 15.9055 22.3715 16.156L23.1879 16.428L18.0977 21.5534C17.8847 21.7679 17.5892 21.8909 17.287 21.8909H2.54381C2.50526 21.3121 2.66558 20.7487 3.08214 20.3336C3.42781 19.9891 3.88642 19.7995 4.37408 19.7995H4.38038L7.30184 19.8102H7.30327C7.51294 19.8102 7.68332 19.6406 7.68413 19.4307C7.68489 19.2204 7.51498 19.0492 7.30464 19.0485L4.38302 19.0378C3.68746 19.0352 3.03603 19.304 2.54442 19.7941C1.92513 20.4114 1.78208 21.258 1.78208 22.1194C1.78208 22.4134 2.02126 22.6526 2.31529 22.6526H3.23124L2.44336 24.3841C2.31595 24.6642 2.31163 24.9692 2.40705 25.2385H0.380862C0.170525 25.2385 0 25.409 0 25.6194C0 25.8298 0.170525 26.0002 0.380862 26.0002H23.8178C24.0281 26.0002 24.1986 25.8298 24.1986 25.6194C24.1986 25.409 24.0281 25.2385 23.8178 25.2385H20.2422C20.3377 24.9692 20.3333 24.6641 20.2059 24.3841L18.9976 21.7283L23.9879 16.7033C24.2641 16.4295 24.1439 15.9404 23.7782 15.8218L22.6124 15.4332C21.5872 15.0916 20.4361 15.3694 19.6798 16.1412L16.9954 18.8803C16.8767 19.0014 16.7115 19.0708 16.5421 19.0708H16.5404L13.4323 19.0618L15.5099 11.3079L17.0227 11.7133C17.3838 11.8103 17.7777 11.6678 17.9905 11.3504L18.4794 10.6225L18.5389 11.4973C18.5647 11.8764 18.8285 12.1971 19.1955 12.2955L22.9566 13.3032C23.3177 13.4001 23.7116 13.2578 23.9243 12.9404L25.0339 11.2884C25.0666 11.2355 25.0986 11.1679 25.0986 11.0745C25.1273 8.83999 24.3859 6.63322 23.0104 4.85998ZM3.48322 25.2385C3.42868 25.2385 3.37566 25.2269 3.32559 25.2042C3.13445 25.1172 3.04969 24.8908 3.13673 24.6995L4.06817 22.6525H4.90556L3.83026 25.0153C3.76856 25.1509 3.63236 25.2385 3.48322 25.2385ZM10.989 25.2385H4.56553L5.74239 22.6526H11.6818L10.989 25.2385ZM11.7776 25.2385L12.4704 22.6526H16.907L18.0839 25.2385H11.7776ZM19.5126 24.6995C19.5996 24.8909 19.5149 25.1172 19.323 25.2045C19.2737 25.227 19.2211 25.2385 19.1666 25.2385C19.0174 25.2385 18.8809 25.1507 18.8191 25.0153L17.7205 22.6014C17.9697 22.5426 18.2061 22.4343 18.4131 22.2831L19.5126 24.6995ZM11.4243 9.33567C11.3941 9.38071 11.3385 9.40153 11.2861 9.38752L7.52498 8.37975C7.47257 8.36574 7.43489 8.31988 7.43119 8.26575L7.33236 6.81197L12.2368 8.1261L11.4243 9.33567ZM12.6108 7.4377L7.5006 6.06843C9.3452 3.14792 12.6632 1.53307 16.0375 1.83405C15.4453 2.48014 14.9015 3.17159 14.4167 3.89822C13.6806 5.00145 13.0742 6.19076 12.6108 7.4377ZM17.3581 10.9256C17.3279 10.9707 17.2723 10.9916 17.2199 10.9775L13.4588 9.96973C13.4064 9.95571 13.3687 9.90986 13.365 9.85572L13.2662 8.40195L18.1706 9.71607L17.3581 10.9256ZM18.4757 9.00919L13.35 7.6358C13.7897 6.46874 14.3603 5.35525 15.0504 4.32103C15.6111 3.48064 16.2544 2.68952 16.9629 1.96517C17.4577 2.06125 17.9469 2.20039 18.4194 2.37883C18.5754 3.28955 18.6716 4.21617 18.7041 5.13694C18.7496 6.42715 18.6725 7.72772 18.4757 9.00919ZM23.2919 12.5156C23.2617 12.5607 23.2061 12.5815 23.1536 12.5675L19.3926 11.5597C19.3402 11.5457 19.3025 11.4998 19.2988 11.4457L19.2 9.99197L24.1044 11.3061L23.2919 12.5156Z" fill="#E94057"/>
</svg>
