<svg width="26" height="26" viewBox="0 0 26 26" fill="none" xmlns="http://www.w3.org/2000/svg">
<path d="M12.9435 2.12893C12.6631 2.12893 12.4357 2.35628 12.4357 2.63674V6.35316C12.4357 6.63362 12.6631 6.86097 12.9435 6.86097C13.2239 6.86097 13.4513 6.63362 13.4513 6.35316V2.63674C13.4513 2.35628 13.2239 2.12893 12.9435 2.12893Z" fill="#E94057"/>
<path d="M13.3026 0.148789C13.2081 0.0543358 13.0771 0 12.9436 0C12.8095 0 12.679 0.0543358 12.5846 0.148789C12.4901 0.243242 12.4358 0.374257 12.4358 0.507811C12.4358 0.641366 12.4901 0.772381 12.5846 0.866834C12.679 0.961287 12.8095 1.01562 12.9436 1.01562C13.0771 1.01562 13.2081 0.961287 13.3026 0.866834C13.397 0.772381 13.4514 0.641366 13.4514 0.507811C13.4514 0.374257 13.397 0.243242 13.3026 0.148789Z" fill="#E94057"/>
<path d="M14.7628 8.44337V7.40627C14.7628 6.54558 14.0626 5.84536 13.2019 5.84536H12.6851C11.8244 5.84536 11.1242 6.54558 11.1242 7.40627V8.44337C10.0159 8.69255 8.9909 9.16451 8.09868 9.80923C8.06415 9.82868 8.03216 9.85239 8.0029 9.87941C5.97186 11.3916 4.65374 13.8103 4.65374 16.5315C4.65374 19.2529 5.97207 21.6721 8.00346 23.1844C8.0317 23.2104 8.06278 23.233 8.09599 23.2519C9.46017 24.2387 11.135 24.8213 12.9435 24.8213C17.5145 24.8213 21.2333 21.1025 21.2333 16.5315C21.2333 12.5854 18.4615 9.27481 14.7628 8.44337ZM7.47453 11.7408C7.34752 12.3747 7.24606 13.0126 7.16999 13.6529C7.1508 13.6568 7.1316 13.6604 7.11241 13.6643L6.17925 13.8559C6.48887 13.0759 6.92985 12.3618 7.47453 11.7408ZM5.85176 18.153C5.73253 17.6314 5.66936 17.0887 5.66936 16.5315C5.66936 15.9923 5.72882 15.4669 5.84064 14.9608C5.84973 14.9595 5.85882 14.9585 5.86796 14.9566L7.06807 14.7102C6.97631 15.936 6.97733 17.1672 7.07107 18.393L5.8641 18.1549C5.85999 18.154 5.85588 18.1537 5.85176 18.153ZM6.19931 19.2562L7.11621 19.4371C7.13571 19.4409 7.15522 19.4444 7.17472 19.4482C7.25028 20.0757 7.35001 20.7008 7.47453 21.3222C6.94138 20.7142 6.50786 20.0171 6.19931 19.2562ZM8.79067 10.5628C9.41188 10.1293 10.1036 9.79019 10.8449 9.56639C10.6004 10.7635 10.4198 11.974 10.3036 13.1904C9.60734 13.2547 8.91179 13.3441 8.21766 13.4592C8.34674 12.4853 8.53819 11.5179 8.79067 10.5628ZM8.10289 14.5096C8.80758 14.3854 9.51385 14.2885 10.221 14.2187C10.1743 14.9342 10.149 15.6509 10.1471 16.3673C10.1449 17.2002 10.1737 18.0336 10.2321 18.8652C9.52218 18.7983 8.81322 18.7051 8.10584 18.5855C7.9863 17.2296 7.98523 15.8656 8.10289 14.5096ZM8.79067 22.5001C8.54083 21.555 8.35065 20.5978 8.22162 19.634C8.91986 19.7453 9.61952 19.8315 10.32 19.8932C10.4417 21.1062 10.6269 22.313 10.8763 23.5059C10.1231 23.2823 9.42061 22.9398 8.79067 22.5001ZM19.7078 13.8559L18.7746 13.6643C18.7226 13.6536 18.6704 13.6436 18.6183 13.6332C18.5369 12.9528 18.4266 12.2753 18.2877 11.6023C18.89 12.2547 19.3748 13.0171 19.7078 13.8559ZM16.9789 10.4823C17.2406 11.4583 17.4384 12.4475 17.5711 13.4435C16.8776 13.3309 16.1828 13.2433 15.4871 13.1814C15.3699 11.9583 15.1869 10.7389 14.9402 9.53603C15.6734 9.74565 16.3595 10.0678 16.9789 10.4823ZM12.1398 7.40627C12.1398 7.10559 12.3845 6.86098 12.6851 6.86098H13.2019C13.5026 6.86098 13.7472 7.10559 13.7472 7.40627V8.28082C13.4826 8.25523 13.2146 8.24172 12.9435 8.24172C12.6724 8.24172 12.4044 8.25523 12.1398 8.28082V7.40627ZM11.9333 9.32782C12.2635 9.28177 12.6007 9.25734 12.9435 9.25734C13.2522 9.25734 13.5564 9.27684 13.8551 9.31432C14.1285 10.564 14.3303 11.834 14.459 13.1087C13.4177 13.0536 12.3754 13.0556 11.3341 13.1141C11.461 11.8406 11.6611 10.5754 11.9333 9.32782ZM13.8237 23.7456L13.8222 23.7525C13.534 23.7873 13.2409 23.8057 12.9435 23.8057C12.612 23.8056 12.2857 23.7829 11.9658 23.7397C11.6883 22.4968 11.4838 21.2357 11.3512 19.9661C11.8818 19.9945 12.4126 20.0092 12.9435 20.0092C13.4432 20.0092 13.9429 19.9964 14.4423 19.9713C14.3079 21.2399 14.1012 22.504 13.8237 23.7456ZM16.9789 22.5806C16.3505 23.0012 15.6533 23.3266 14.908 23.5359C15.1594 22.3379 15.3478 21.1215 15.4707 19.9018C16.1705 19.8424 16.8694 19.7579 17.567 19.6491C17.4343 20.6351 17.238 21.6144 16.9789 22.5806ZM17.6834 18.6017C16.9765 18.7187 16.268 18.8095 15.5586 18.8741C15.5678 18.7434 15.5765 18.6127 15.5842 18.4821C15.6007 18.2021 15.3871 17.9618 15.1071 17.9453C14.8262 17.9287 14.5868 18.1424 14.5704 18.4224C14.56 18.5979 14.5479 18.7734 14.5347 18.9489C13.4436 19.0092 12.3513 19.0076 11.2603 18.9438C11.1424 17.3448 11.1383 15.7362 11.2485 14.1364C12.3474 14.0691 13.4476 14.0674 14.5465 14.1312C14.5605 14.331 14.5731 14.5308 14.5834 14.7306C14.5974 15.0018 14.8217 15.2122 15.0901 15.2122C15.099 15.2122 15.1079 15.2119 15.1168 15.2115C15.3969 15.197 15.6122 14.9581 15.5977 14.6781C15.5896 14.5219 15.58 14.3657 15.5698 14.2095C16.2764 14.2768 16.9822 14.3712 17.6863 14.4927C17.806 15.8596 17.8049 17.2349 17.6834 18.6017ZM18.2877 21.4608C18.4241 20.8 18.5327 20.1349 18.6136 19.4671C18.666 19.457 18.7184 19.4474 18.7707 19.4371L19.6876 19.2562C19.3554 20.0756 18.8781 20.821 18.2877 21.4608ZM20.0229 18.1549L18.7182 18.4122C18.814 17.1735 18.8149 15.929 18.7211 14.6901L20.0189 14.9566C20.0281 14.9585 20.0372 14.9595 20.0463 14.9608C20.1581 15.4669 20.2176 15.9923 20.2176 16.5315C20.2176 17.0888 20.1544 17.6315 20.0352 18.1531C20.0311 18.1537 20.027 18.154 20.0229 18.1549Z" fill="#E94057"/>
<path d="M15.4598 16.1723C15.3654 16.0778 15.2344 16.0235 15.1008 16.0235C14.9672 16.0235 14.8362 16.0778 14.7418 16.1723C14.6473 16.2667 14.593 16.3977 14.593 16.5318C14.593 16.6653 14.6473 16.7959 14.7418 16.8908C14.8362 16.9853 14.9672 17.0391 15.1008 17.0391C15.2344 17.0391 15.3654 16.9853 15.4598 16.8908C15.5543 16.7959 15.6086 16.6653 15.6086 16.5318C15.6086 16.3977 15.5542 16.2672 15.4598 16.1723Z" fill="#E94057"/>
<path d="M4.55857 22.2093C3.77268 22.0017 3.16189 21.3829 2.9645 20.5944C2.90793 20.3684 2.70486 20.2099 2.47187 20.2099C2.23889 20.2099 2.03582 20.3684 1.97925 20.5944C1.78186 21.3829 1.17106 22.0016 0.384769 22.2094C0.158234 22.2694 0 22.4751 0 22.7094C0 22.9438 0.158234 23.1494 0.384769 23.2095C0.384616 23.2095 0.384921 23.2096 0.384769 23.2095C1.17061 23.4171 1.78186 24.036 1.97925 24.8245C2.03587 25.0505 2.23894 25.209 2.47187 25.209C2.70481 25.209 2.90793 25.0505 2.9645 24.8245C3.16184 24.036 3.77268 23.4172 4.55898 23.2095C4.78582 23.1493 4.944 22.9435 4.94375 22.7088C4.94349 22.4742 4.78475 22.2687 4.55857 22.2093ZM2.47187 23.5003C2.25605 23.1931 1.98823 22.9253 1.68086 22.7094C1.98823 22.4936 2.256 22.2257 2.47187 21.9185C2.68769 22.2257 2.95551 22.4935 3.26294 22.7094C2.95551 22.9253 2.68774 23.1931 2.47187 23.5003Z" fill="#E94057"/>
<path d="M8.81736 6.76394C8.80868 6.74561 8.79934 6.72778 8.78989 6.71006C8.78557 6.69894 8.78136 6.68777 8.77618 6.6768L7.01402 2.95332C6.95339 2.8252 6.84193 2.72821 6.70659 2.68591C6.57126 2.64361 6.4244 2.65976 6.30156 2.7305L2.43595 4.95638C2.20662 5.08847 2.11715 5.37447 2.23034 5.61364L3.31426 7.90403C3.06249 7.92256 2.80716 7.9898 2.56555 8.1041C2.16239 8.29494 1.82272 8.60013 1.60908 8.96352C1.35878 9.38932 1.31785 9.85031 1.49675 10.2283C1.67566 10.6063 2.05814 10.867 2.5461 10.9434C2.64837 10.9594 2.75267 10.9673 2.85794 10.9673C3.18127 10.9673 3.51297 10.8926 3.8171 10.7487C4.22264 10.5568 4.55094 10.2514 4.74152 9.88896C4.95419 9.48454 4.97491 9.03873 4.79844 8.66584C4.78996 8.64787 4.78062 8.63035 4.77127 8.61288C4.76686 8.60146 4.76249 8.58998 4.75721 8.57876L3.34879 5.60268L6.33142 3.88526L7.33202 5.99953C7.08664 6.01862 6.83258 6.08474 6.58452 6.20215C6.18131 6.39293 5.84164 6.69818 5.62805 7.06157C5.37775 7.48737 5.33682 7.94836 5.51573 8.32637C5.73977 8.7997 6.27917 9.06437 6.88433 9.06437C7.19552 9.06437 7.52417 8.99435 7.83612 8.84673C8.73723 8.42032 9.16821 7.50545 8.81736 6.76394ZM3.45645 8.91411C3.51033 8.91411 3.56253 8.91909 3.61194 8.92925C3.68948 8.94514 3.82746 8.98856 3.88032 9.10038C3.93328 9.2121 3.87941 9.34631 3.84254 9.41639C3.75504 9.5828 3.58741 9.73382 3.38261 9.83071C3.16811 9.93222 2.91416 9.97315 2.70321 9.9401C2.55935 9.91755 2.44611 9.86022 2.41473 9.79395C2.38339 9.72773 2.41082 9.60382 2.4846 9.47824C2.59276 9.29416 2.78543 9.12369 2.99993 9.02218C3.14978 8.95124 3.30944 8.91411 3.45645 8.91411ZM7.40159 7.92881C6.97294 8.13173 6.50921 8.0517 6.4337 7.89204C6.40236 7.82582 6.42979 7.70187 6.50357 7.57634C6.61174 7.39225 6.8044 7.22183 7.0189 7.12032C7.17779 7.04511 7.33684 7.01226 7.47608 7.01226C7.68246 7.01226 7.84536 7.08452 7.89924 7.19847C7.98963 7.38926 7.796 7.74214 7.40159 7.92881Z" fill="#E94057"/>
<path d="M22.8122 6.00414C22.0262 5.79655 21.4154 5.17773 21.218 4.38925C21.1615 4.16322 20.9583 4.00474 20.7254 4.00474C20.4924 4.00474 20.2894 4.16328 20.2328 4.38925C20.0354 5.17778 19.4247 5.79655 18.6392 6.00404C18.4121 6.06381 18.2535 6.26953 18.2535 6.50434C18.2535 6.739 18.4119 6.94461 18.6387 7.00453C19.4247 7.21213 20.0354 7.83095 20.2328 8.61943C20.2894 8.8454 20.4924 9.00394 20.7254 9.00394C20.9583 9.00394 21.1615 8.8454 21.218 8.61938C21.4154 7.8309 22.0262 7.21208 22.8116 7.00458C23.0384 6.94492 23.197 6.73946 23.1973 6.50495C23.1976 6.27044 23.0396 6.06457 22.8122 6.00414ZM20.7254 7.29521C20.5096 6.98803 20.2419 6.72021 19.9344 6.50434C20.2418 6.28847 20.5096 6.0207 20.7254 5.71342C20.9413 6.0207 21.209 6.28847 21.5164 6.50434C21.209 6.72026 20.9413 6.98803 20.7254 7.29521Z" fill="#E94057"/>
<path d="M25.5133 19.7341C24.5472 19.6938 23.29 19.1584 23.2776 19.153C23.1313 19.0901 22.9641 19.0993 22.8258 19.1781C22.6874 19.2568 22.5939 19.3958 22.5733 19.5536L22.1887 22.4957C21.9622 22.3702 21.6994 22.2822 21.412 22.2446C20.9588 22.1853 20.497 22.2599 20.1116 22.4544C19.6615 22.6816 19.3717 23.0542 19.3165 23.4766C19.2612 23.8991 19.4456 24.3337 19.8221 24.6689C20.1447 24.9559 20.5718 25.1467 21.0249 25.2059C21.1264 25.2191 21.2263 25.2256 21.3244 25.2256C22.204 25.2256 22.9238 24.708 23.0215 23.961C23.0226 23.9528 23.023 23.9447 23.0239 23.9366C23.0248 23.9314 23.026 23.9264 23.0267 23.9212L23.4972 20.3215C24.0184 20.5004 24.7847 20.7203 25.471 20.7489C25.7519 20.7599 25.9879 20.5429 25.9996 20.2627C26.0112 19.9824 25.7935 19.7458 25.5133 19.7341ZM22.0144 23.8293C21.9851 24.0528 21.612 24.2583 21.1565 24.1988C20.9106 24.1667 20.6642 24.0588 20.4974 23.9103C20.3795 23.8053 20.3128 23.6896 20.3235 23.6082C20.3341 23.5269 20.4283 23.4322 20.5692 23.3611C20.7239 23.283 20.9184 23.2409 21.1126 23.2409C21.1689 23.2409 21.2251 23.2445 21.2804 23.2517C21.7359 23.3112 22.0436 23.6057 22.0144 23.8293Z" fill="#E94057"/>
</svg>
