<svg width="24" height="18" viewBox="0 0 24 18" fill="none" xmlns="http://www.w3.org/2000/svg">
<path d="M5.85328 7.78027H5.85352C7.79476 7.78027 9.36865 6.20662 9.36865 4.26514C9.36865 2.32366 7.79476 0.75 5.85352 0.75C3.91205 0.75 2.33838 2.32367 2.33838 4.26514L2.33838 4.26537C2.34019 6.20581 3.91262 7.77846 5.85328 7.78027ZM5.85376 2.58972C6.77506 2.58985 7.5222 3.33707 7.5222 4.2584C7.5222 5.17982 6.77493 5.92709 5.85352 5.92709C4.93199 5.92709 4.18496 5.17997 4.18483 4.25865C4.18658 3.33785 4.93261 2.59147 5.85376 2.58972Z" fill="#333333" stroke="#333333" stroke-width="0.5"/>
<path d="M0.608397 16.3268L0.608399 16.3275C0.609841 16.8363 1.02207 17.2485 1.53091 17.25H1.53162L10.176 17.25L10.1767 17.25C10.6856 17.2485 11.0978 16.8363 11.0993 16.3275V16.3268C11.0993 13.2952 8.80036 10.9064 5.85393 10.9064C2.9073 10.9064 0.608398 13.2952 0.608397 16.3268ZM9.14639 15.4035H2.56231C2.93198 13.8343 4.22459 12.7529 5.85393 12.7529C7.48398 12.7529 8.782 13.8351 9.14639 15.4035Z" fill="#333333" stroke="#333333" stroke-width="0.5"/>
<path d="M18.6342 15.6405H15.7061V11.2484H11.314V8.32026H15.7061V3.9281H18.6342V8.32026H23.0264V11.2484H18.6342V15.6405Z" fill="#333333"/>
</svg>
