lo<svg width="115" height="115" viewBox="0 0 115 115" fill="none" xmlns="http://www.w3.org/2000/svg">
<path d="M114.546 55.6878C114.334 54.4759 113.927 53.3211 113.533 52.162C113.174 51.1081 112.787 50.0602 112.609 48.9596C112.489 48.2389 112.414 47.5116 112.383 46.7817C112.347 45.8611 112.383 44.9375 112.391 44.0154C112.421 42.9358 112.358 41.8555 112.203 40.7867C111.981 39.531 111.494 38.3372 110.773 37.2857C110.235 36.4807 109.687 35.6757 109.084 34.9278C107.591 33.0741 106.499 30.9312 105.875 28.6343C105.676 27.9025 105.42 27.1999 105.187 26.4827C104.532 24.4183 103.223 22.6232 101.457 21.3689C100.663 20.7966 99.8774 20.2126 99.071 19.6579C97.4884 18.5754 96.1218 17.2069 95.0416 15.6227C94.4942 14.825 93.9161 14.0493 93.3511 13.2648C92.092 11.4863 90.285 10.1692 88.2065 9.51499L84.7129 8.38362C83.3199 7.93136 82.0095 7.25616 80.8328 6.38431C80.0527 5.81057 79.2799 5.22951 78.4983 4.6587C77.8049 4.14281 77.0707 3.68417 76.3029 3.28729C75.2053 2.73191 74.0005 2.42083 72.7712 2.37546C71.6486 2.32862 70.5216 2.31691 69.4049 2.3535C67.1398 2.42768 64.8824 2.05261 62.763 1.24993C61.6843 0.828654 60.5744 0.49198 59.4435 0.242961C59.1141 0.172707 58.7804 0.127335 58.4482 0.0687903C58.3501 0.0512269 58.2535 0.0234179 58.1555 0H56.5865L55.6659 0.16978C54.3896 0.405423 53.1777 0.844509 51.9497 1.26018C50.9675 1.6161 49.9614 1.90269 48.9391 2.11786C48.0864 2.26954 47.2218 2.34352 46.3558 2.33886C45.2756 2.34765 44.1955 2.30813 43.1168 2.31837C42.1937 2.31285 41.2728 2.40608 40.3696 2.59646C39.2694 2.8508 38.2268 3.30955 37.296 3.94885C36.4485 4.51966 35.6245 5.12852 34.8005 5.73593C33.7042 6.54384 32.6124 7.36347 31.339 7.87574C30.4433 8.23433 29.5212 8.52851 28.6094 8.84173C27.7312 9.13445 26.853 9.41108 25.9895 9.7199C24.3015 10.3173 22.8258 11.3966 21.745 12.8242C21 13.7975 20.2814 14.7913 19.5774 15.7939C18.5619 17.2565 17.2947 18.5271 15.8349 19.5466C15.0504 20.0926 14.2835 20.6634 13.4931 21.2122C11.5404 22.5564 10.1107 24.5325 9.44474 26.8077C9.15202 27.7751 8.8227 28.7323 8.52266 29.6983C8.03617 31.2713 7.28155 32.7483 6.2921 34.0643C5.70665 34.8385 5.13438 35.6143 4.56796 36.3973C4.01831 37.139 3.54603 37.9349 3.15849 38.7728C2.739 39.684 2.4952 40.6662 2.43985 41.6678C2.3857 42.8123 2.38424 43.9598 2.37399 45.1073C2.36521 46.1743 2.39302 47.2427 2.24958 48.3068C2.09421 49.3064 1.84929 50.29 1.51777 51.2457C1.13723 52.4327 0.749373 53.6183 0.390786 54.8126C0.263451 55.2399 0.216615 55.6907 0.125871 56.1298C0.0936712 56.2762 0.042445 56.4313 0 56.5806V58.1291C0.0484639 58.2286 0.085769 58.3332 0.111235 58.4409C0.276624 59.7581 0.696683 61.0008 1.12113 62.2463C1.49143 63.3425 1.88222 64.4329 2.112 65.5716C2.28947 66.4789 2.37576 67.4017 2.3696 68.3262C2.3696 69.6098 2.3535 70.8919 2.3696 72.174C2.39741 74.0153 2.8643 75.735 3.89762 77.2718C4.53137 78.2144 5.20024 79.1335 5.87643 80.0527C6.81169 81.3129 7.68693 82.6038 8.20652 84.0996C8.49924 84.9485 8.76562 85.8091 9.04956 86.6609C9.26471 87.3122 9.48865 87.9621 9.71112 88.6075C10.3254 90.374 11.4533 91.9167 12.9501 93.0379C13.8371 93.7112 14.7357 94.3713 15.652 95.0021C17.2333 96.0868 18.6016 97.4531 19.6886 99.0329C20.3019 99.9213 20.9415 100.789 21.5913 101.657C22.767 103.256 24.4117 104.449 26.2969 105.07C27.458 105.461 28.6226 105.84 29.7905 106.209C31.3062 106.685 32.7315 107.412 34.0072 108.359C34.9469 109.056 35.8836 109.757 36.8408 110.429C37.8858 111.16 39.004 111.759 40.2627 112.053C41.2632 112.273 42.2858 112.375 43.31 112.359C44.153 112.359 44.9975 112.359 45.8406 112.34C47.7789 112.293 49.7089 112.609 51.5311 113.271C52.6552 113.665 53.7968 114.003 54.9384 114.344C55.3658 114.47 55.8166 114.514 56.2557 114.599C56.3194 114.614 56.382 114.634 56.443 114.659H58.2799L59.2034 114.484C60.3875 114.253 61.5218 113.854 62.6605 113.46C63.7348 113.094 64.8091 112.728 65.9317 112.532C66.798 112.39 67.6752 112.324 68.553 112.337C69.6786 112.337 70.8041 112.364 71.9281 112.337C73.3786 112.314 74.7954 112.105 76.1214 111.459C76.8497 111.104 77.5456 110.686 78.2012 110.211C78.813 109.771 79.4292 109.332 80.019 108.866C81.7255 107.515 83.6817 106.514 85.7754 105.921C86.8424 105.612 87.8948 105.243 88.9383 104.86C90.4905 104.288 91.8518 103.294 92.8681 101.989C93.4756 101.222 94.039 100.42 94.6245 99.6359C95.1148 98.9773 95.5919 98.307 96.1013 97.6644C96.9253 96.6223 97.9586 95.8056 99.0285 95.0299C99.8877 94.4152 100.748 93.7975 101.6 93.1726C103.263 91.9677 104.501 90.2671 105.138 88.3148C105.43 87.4366 105.738 86.5717 105.988 85.6803C106.586 83.5758 107.595 81.6107 108.958 79.899C109.577 79.113 110.155 78.289 110.714 77.465C111.373 76.4888 111.885 75.4394 112.118 74.2743C112.242 73.6915 112.32 73.0998 112.35 72.5048C112.388 71.2915 112.39 70.0752 112.365 68.8619C112.334 66.8897 112.661 64.9284 113.331 63.0732C113.732 61.9287 114.072 60.7636 114.416 59.6001C114.496 59.2501 114.556 58.8958 114.596 58.5389C114.612 58.4423 114.638 58.3457 114.66 58.2462V56.3801C114.619 56.1488 114.585 55.9176 114.546 55.6878ZM89.957 19.3578L91.1733 20.4351L90.6347 21.0088L89.4301 19.9638L89.957 19.3578ZM87.3576 17.3088L88.6749 18.3172L88.1787 18.9188C87.7513 18.5968 87.3357 18.2835 86.8907 17.9513L87.3576 17.3088ZM84.6587 15.4134L86.0389 16.353L85.572 16.997L84.2196 16.0896L84.6587 15.4134ZM78.9169 12.2066L80.3659 12.9472L80.0293 13.657L78.5496 12.9486C78.6827 12.6896 78.7954 12.4642 78.9169 12.2066ZM75.8741 10.8893C76.3907 11.0767 76.8678 11.3094 77.3948 11.5231L77.102 12.2549L75.5857 11.6197L75.8741 10.8893ZM72.7727 9.78869L74.3109 10.298L74.0592 11.0474L72.5414 10.5439L72.7727 9.78869ZM69.5981 8.89149L71.1802 9.29399L70.9812 10.0682L69.4034 9.65696C69.4722 9.40668 69.5322 9.17397 69.6024 8.89881L69.5981 8.89149ZM69.096 30.4374C69.1341 30.5736 69.1707 30.6877 69.1956 30.8048C69.3566 31.5366 69.5132 32.2772 69.6727 33.012C69.8908 34.0175 70.4645 34.7976 71.4129 35.1444C73.3025 35.8353 74.4646 37.2199 75.3325 38.9367C75.8076 39.9189 76.137 40.9652 76.3102 42.0425C76.7493 44.4955 77.2338 46.9441 77.6948 49.3957C78.1827 51.9805 78.6657 54.5662 79.1438 57.1529C79.5829 59.5288 80.018 61.9053 80.4493 64.2822C80.6455 65.3653 80.8387 66.4498 80.9967 67.5402C81.1431 68.5721 80.8826 69.5278 80.3366 70.406C79.8077 71.249 79.0889 71.9567 78.2378 72.4726C78.0938 72.5595 77.9351 72.6191 77.7694 72.6482C75.3969 73.099 73.0244 73.5571 70.646 73.9787C69.74 74.1397 68.8194 74.2275 67.9032 74.3285C66.826 74.4485 65.8468 74.2085 65.014 73.4825C64.5038 73.0202 64.0952 72.457 63.8138 71.8286C63.486 71.1407 63.3352 70.406 63.2035 69.6625C62.7869 67.3285 62.3668 64.995 61.9433 62.662C61.5277 60.3494 61.113 58.0374 60.6992 55.7259C60.3772 53.9344 60.0548 52.1429 59.7318 50.3515C59.704 50.1963 59.6791 50.0426 59.6469 49.8611C59.8782 49.7777 60.086 49.7148 60.2763 49.6299C61.3696 49.1615 61.9243 48.3199 61.9887 47.1417C62.019 46.2276 61.8455 45.3182 61.4808 44.4794C61.398 44.2997 61.3572 44.1035 61.3615 43.9057C61.3658 43.7079 61.4151 43.5137 61.5057 43.3378C61.8785 42.5637 62.0477 41.7073 61.9975 40.8496C61.9441 39.9308 61.5623 39.0618 60.9217 38.401C60.768 38.2356 60.629 38.0585 60.4636 37.8638C60.5792 37.7321 60.73 37.5536 60.8895 37.3852C61.6667 36.5612 61.8921 35.5762 61.7399 34.4829C61.6272 33.6808 61.5072 32.8817 61.3915 32.0796C61.3877 32.0158 61.3877 31.9517 61.3915 31.8879L69.096 30.4374ZM61.2979 30.9058C61.1852 30.7199 60.8237 28.4015 60.5661 26.4315C60.3729 24.9415 60.1416 23.4574 59.9221 21.9338L67.0104 20.6605C67.6427 23.6023 68.272 26.5252 68.9131 29.4788L61.2979 30.9058ZM66.4015 8.18603L67.9764 8.51241C67.9178 8.7905 67.8695 9.02614 67.8154 9.28813L66.2288 8.9515L66.4015 8.18603ZM63.1245 7.71767L64.7198 7.91526C64.6935 8.17871 64.6686 8.42606 64.6408 8.71439L63.0205 8.48314C63.0601 8.21969 63.0908 7.98112 63.1245 7.71767ZM59.8533 7.44836L61.4911 7.54642C61.4691 7.82305 61.4501 8.0704 61.4296 8.33678L59.8533 8.23433V7.44836ZM59.7786 16.0837C61.535 15.7647 63.2913 15.448 65.0477 15.1338C65.1251 15.12 65.2033 15.1112 65.2818 15.1075C65.4237 15.0916 65.5664 15.1298 65.6814 15.2145C65.7964 15.2991 65.8753 15.4239 65.9024 15.5641C65.9771 15.8451 66.0297 16.132 66.1 16.4511C65.6609 16.5272 65.2482 16.5975 64.831 16.6706L62.7015 17.0175C62.6676 17.0196 62.6338 17.024 62.6005 17.0307C62.5568 17.0362 62.5148 17.0506 62.4769 17.073C62.439 17.0953 62.4061 17.1252 62.3801 17.1607C62.3542 17.1963 62.3357 17.2367 62.3259 17.2796C62.3161 17.3225 62.3152 17.3669 62.3232 17.4102C62.3312 17.4535 62.3479 17.4946 62.3723 17.5312C62.3968 17.5678 62.4284 17.599 62.4653 17.623C62.5022 17.6469 62.5437 17.6631 62.587 17.6704C62.6304 17.6778 62.6748 17.6763 62.7176 17.6659C63.0103 17.6249 63.2942 17.5722 63.5826 17.5195L66.2332 17.0804C66.2903 17.3454 66.3415 17.581 66.4 17.8488C65.9493 17.9323 65.5321 18.0128 65.1164 18.0874C64.0758 18.2733 63.0366 18.4562 61.996 18.6436C61.6755 18.7007 61.5394 18.85 61.5906 19.0666C61.6418 19.2832 61.8013 19.3403 62.116 19.2847L66.3298 18.5294L66.5376 18.5002C66.624 18.8953 66.7074 19.2803 66.7967 19.6945L59.7713 20.9576C59.6937 20.4453 59.6249 19.9696 59.5503 19.494C59.4259 18.6377 59.3059 17.7801 59.18 16.9238C59.12 16.4321 59.2942 16.1715 59.7786 16.0837ZM56.5777 7.45714C56.8631 7.36347 57.6769 7.3503 58.1804 7.43958V8.15529H56.5777V7.45714ZM53.308 7.54496L54.8799 7.44543V8.23725L53.3036 8.35142L53.308 7.54496ZM51.6014 7.7162C51.6365 7.97966 51.6672 8.21676 51.7024 8.48168L50.0924 8.71586C50.0587 8.44948 50.028 8.20066 49.9914 7.91965L51.6014 7.7162ZM48.3551 8.1831C48.4048 8.45094 48.4502 8.68658 48.5014 8.95296L46.9119 9.2852C46.8578 9.02468 46.808 8.78904 46.7509 8.51534L48.3551 8.1831ZM45.1205 8.90174C45.1893 9.15641 45.2522 9.38912 45.3254 9.66574L43.7813 10.0741C43.7008 9.81943 43.6261 9.58817 43.5398 9.31594C44.0594 9.15348 44.576 9.03639 45.1205 8.90174ZM41.9503 9.81211L42.2196 10.5439L40.6681 11.0547C40.5774 10.7986 40.4954 10.5732 40.4047 10.3229L41.9503 9.81211ZM38.8767 10.8879C38.9703 11.1425 39.0523 11.3694 39.1474 11.6299L37.6941 12.2505C37.5483 12.0273 37.4446 11.7793 37.3882 11.5187L38.8767 10.8879ZM39.1328 33.833C39.6704 33.816 40.2086 33.839 40.7428 33.9018C40.8572 33.92 40.9742 33.9101 41.0839 33.8728C41.1936 33.8356 41.2925 33.7722 41.3721 33.6881C42.2323 32.8066 43.298 32.1528 44.4736 31.7854C45.1308 31.5787 45.8255 31.5189 46.5084 31.6105C47.1913 31.7021 47.8457 31.9427 48.4253 32.3153C49.1567 32.7828 49.8076 33.3655 50.3529 34.0409C50.6969 34.4478 50.7671 34.4712 51.2765 34.2838C51.9583 34.0197 52.667 33.8312 53.3899 33.7218C53.9691 33.6334 54.5595 33.6492 55.1331 33.7686C55.5688 33.8641 55.9791 34.0513 56.3367 34.3178C56.6943 34.5843 56.991 34.924 57.2071 35.3142C57.5235 35.8602 57.741 36.4577 57.8496 37.0793C57.869 37.2119 57.9244 37.3366 58.0099 37.4399C58.0953 37.5431 58.2074 37.6209 58.334 37.6648C58.8089 37.8692 59.2653 38.114 59.6981 38.3966C61.0373 39.326 61.5028 40.6272 61.0695 42.202C60.9353 42.6534 60.7665 43.0938 60.5646 43.5193C60.5105 43.623 60.4799 43.7373 60.4748 43.8541C60.4698 43.971 60.4904 44.0875 60.5353 44.1955C60.8132 44.8345 61.0184 45.5026 61.1471 46.1875C61.2389 46.6523 61.2339 47.1311 61.1325 47.594C61.0707 47.8577 60.9515 48.1046 60.7832 48.3169C60.615 48.5292 60.4019 48.7016 60.1592 48.822C59.7222 49.0307 59.2522 49.1614 58.7702 49.2084C58.2143 49.3046 57.6449 49.2907 57.0943 49.1674C56.7581 49.092 56.4442 48.9391 56.1776 48.7208C55.9111 48.5025 55.6992 48.2249 55.559 47.9101C55.2765 47.3159 55.2151 46.6822 55.1931 45.9782C55.2151 45.7469 55.2297 45.4542 55.2707 45.1644C55.2858 45.0868 55.2802 45.0066 55.2545 44.9318C55.2288 44.8571 55.1839 44.7904 55.1243 44.7385C54.6651 44.291 54.1518 43.9025 53.5963 43.5822C53.2386 43.3863 52.819 43.3365 52.4254 43.4432C51.9673 43.5544 51.5048 43.6495 51.0379 43.7183C50.1808 43.8658 49.3012 43.8107 48.4692 43.5573C48.0047 43.4165 47.5776 43.1735 47.2193 42.846C46.2299 41.902 45.0561 41.6546 43.7549 41.9093C42.9499 42.0659 42.1552 42.2708 41.3531 42.4391C40.4266 42.6338 39.4972 42.6821 38.5942 42.3381C35.7065 41.2346 34.9981 38.4712 35.746 36.3373C36.2948 34.7595 37.5931 33.9311 39.1328 33.833ZM35.8704 12.1963L36.2056 12.9018L34.7551 13.6453C34.6307 13.4053 34.5195 13.1887 34.3892 12.934L35.8704 12.1963ZM32.9329 13.7258L33.3413 14.3932C32.8685 14.6757 32.4089 14.9348 31.923 15.2055L31.5205 14.5337L32.9329 13.7258ZM30.1315 15.409C30.2779 15.6315 30.3965 15.8261 30.5414 16.053L29.2241 16.9648L28.7499 16.3194L30.1315 15.409ZM27.4326 17.2693L27.9025 17.9118L26.6232 18.8778L26.1168 18.2821L27.4326 17.2693ZM24.8215 19.3286L25.3484 19.9286L24.1409 20.9781L23.6228 20.4043L24.8215 19.3286ZM11.1952 37.6604L11.927 37.9941C11.7368 38.4917 11.5055 38.9572 11.2948 39.4826L10.5864 39.206C10.7927 38.6835 10.9874 38.1858 11.1952 37.6604ZM9.98042 40.734L10.7122 40.996L10.2073 42.5489L9.47548 42.3089L9.98042 40.734ZM8.96906 43.8661L9.73893 44.1062C9.6072 44.6199 9.47987 45.1132 9.34229 45.6474L8.5651 45.4849L8.96906 43.8661ZM8.1992 47.0861L8.94857 47.2413C8.84612 47.7784 8.74806 48.2892 8.6456 48.8249L7.86842 48.6961C7.94273 48.1536 8.05324 47.6168 8.1992 47.089V47.0861ZM7.61375 50.3193L8.38361 50.4217C8.31336 50.9676 8.2475 51.4858 8.17871 52.0317L7.38835 51.938C7.45568 51.3965 7.52886 50.8769 7.60643 50.3222L7.61375 50.3193ZM7.22004 53.5978L8.02503 53.6651C7.99283 54.2125 7.96063 54.7233 7.92697 55.2868L7.12197 55.2326C7.14832 54.6823 7.17905 54.1613 7.21272 53.6007L7.22004 53.5978ZM7.07367 56.8953H7.82744V58.495H7.09563C7.06124 57.9635 7.05391 57.4305 7.07367 56.8982V56.8953ZM7.11173 60.1884H7.91379C7.93282 60.4094 7.95477 60.6407 7.96941 60.872C7.98697 61.1647 7.99722 61.4457 8.01039 61.7574L7.27858 61.8218C7.14393 61.2891 7.16442 60.7636 7.11173 60.1914V60.1884ZM7.37225 63.4596L8.16993 63.3835C8.23872 63.9163 8.30458 64.4227 8.37483 64.9642L7.61082 65.1106C7.53179 64.5603 7.45568 64.0422 7.37225 63.4626V63.4596ZM8.19773 68.3437C8.08211 67.8007 7.97087 67.2811 7.85378 66.7337L8.65146 66.6006C8.7583 67.1406 8.85783 67.6441 8.96174 68.174L8.19773 68.3437ZM9.01443 71.5154C8.83106 71 8.68433 70.4723 8.57535 69.9361L9.34082 69.7664C9.47694 70.286 9.6072 70.7909 9.74478 71.3134L9.01443 71.5154ZM9.4784 73.1078L10.2102 72.8736C10.3917 73.383 10.5659 73.8733 10.7503 74.387L9.98042 74.6593L9.4784 73.1078ZM10.5922 76.2107L11.286 75.918C11.4997 76.4141 11.706 76.8898 11.9256 77.4006L11.2099 77.7285C10.9801 77.2367 10.8001 76.7376 10.5922 76.2136V76.2107ZM12.6149 80.6689C12.3661 80.1844 12.1305 79.7219 11.8729 79.2184L12.6047 78.8862C12.8418 79.3677 13.0716 79.8346 13.3146 80.3308L12.6149 80.6689ZM12.6149 36.5041L11.9109 36.1675L12.6149 34.6907L13.3204 35.0596L12.6149 36.5041ZM14.2015 83.5405L13.3848 82.1325L14.0625 81.7607L14.8675 83.1351L14.2015 83.5405ZM14.1078 33.6311L13.398 33.2242L14.2293 31.8103L14.9158 32.2143C14.6362 32.7017 14.3713 33.1539 14.1005 33.6413L14.1078 33.6311ZM15.9988 86.2994C15.6929 85.8457 15.4002 85.4125 15.0928 84.9544L15.7442 84.5153L16.6223 85.8574L15.9988 86.2994ZM15.7647 30.8282L15.1104 30.3891L16.0149 29.0426L16.6692 29.4817L15.7647 30.8282ZM17.9601 88.9661L16.9443 87.6489L17.5883 87.1747L18.566 88.4583L17.9601 88.9661ZM17.6205 28.1659L16.9795 27.6888L17.985 26.4096L18.5982 26.8838C18.2543 27.3302 17.9352 27.7458 17.6103 28.1732L17.6205 28.1659ZM20.0794 91.4718L18.9978 90.2307L19.6096 89.7126L20.6561 90.9171L20.0794 91.4718ZM19.6403 25.6294L19.0432 25.1333L20.1057 23.879L20.719 24.4117L19.6403 25.6294ZM22.389 93.8195C21.9616 93.4624 21.6074 93.0496 21.2005 92.6486L21.7099 92.1612L22.8617 93.3087L22.389 93.8195ZM21.8035 23.1647L21.2825 22.6671L22.4036 21.5108L22.9232 22.0626C22.528 22.4534 22.1577 22.8193 21.7977 23.172L21.8035 23.1647ZM24.801 96.0369L23.5482 94.9611L24.0868 94.3757L25.306 95.45L24.801 96.0369ZM27.3653 98.0859L26.0802 97.0951L26.5632 96.473L27.8424 97.4493L27.3653 98.0859ZM30.1008 99.9887L28.7148 99.0783L29.1538 98.3933L30.4974 99.3008L30.1008 99.9887ZM30.7638 84.2123H29.6266L28.9987 86.3243H30.0232L29.5505 87.8567H28.5538L28.2757 88.8447H26.7359L27.017 87.8567H25.7129L25.4319 88.8447H23.8965L24.179 87.8567H23.0535L23.5262 86.3243H24.6386L25.2518 84.2123H24.2683L24.741 82.6799H25.7012L26.1095 81.3012H27.6317L27.235 82.6799H28.5391L28.9475 81.3012H30.4711L30.0745 82.6799H31.2454L30.7638 84.2123ZM32.908 101.666C32.4265 101.41 31.9757 101.136 31.4898 100.864L31.8908 100.185L33.3091 100.993C33.1773 101.212 33.0559 101.417 32.908 101.666ZM35.8441 103.194L34.3526 102.462C34.4858 102.208 34.6 101.992 34.7244 101.757L36.1675 102.489L35.8441 103.194ZM36.9974 88.8651C36.4119 89.3423 35.5035 89.5809 34.2721 89.5809C33.0407 89.5809 32.2026 89.3633 31.7576 88.9281C31.4239 88.6032 31.2571 88.1528 31.2571 87.5772C31.2591 87.3389 31.2827 87.1013 31.3273 86.8673L31.361 86.6814H33.4584L33.4349 86.8278C33.42 86.8971 33.4121 86.9677 33.4115 87.0386C33.4115 87.5742 33.7974 87.8416 34.5692 87.8406C35.3411 87.8396 35.7275 87.5991 35.7284 87.119C35.7253 86.9883 35.6867 86.8609 35.6169 86.7503C35.547 86.6397 35.4485 86.5502 35.3318 86.4912C35.0317 86.3123 34.7087 86.1749 34.3717 86.0828C33.9955 85.9745 33.6179 85.8486 33.2417 85.7052C32.8695 85.565 32.539 85.3323 32.2816 85.029C32.0126 84.709 31.8713 84.3008 31.885 83.883C31.885 81.9315 33.1388 80.9557 35.6465 80.9557C36.5627 80.9557 37.2555 81.1284 37.7248 81.4739C37.9522 81.6362 38.1357 81.8526 38.2586 82.1035C38.3815 82.3544 38.44 82.632 38.4288 82.9111C38.4302 83.1297 38.4011 83.3475 38.3425 83.5581C38.3068 83.7135 38.2455 83.8619 38.161 83.9971L38.0688 84.1435H36.008C36.0931 84.0532 36.1595 83.947 36.2035 83.8309C36.2474 83.7149 36.268 83.5913 36.2641 83.4673C36.2641 82.9638 35.9333 82.7106 35.2747 82.7106C34.4434 82.7106 34.0277 82.9746 34.0277 83.5024C34.0286 83.6339 34.0662 83.7624 34.1363 83.8736C34.2064 83.9849 34.3062 84.0743 34.4243 84.1318C34.7244 84.3008 35.048 84.4241 35.3845 84.4977C35.7684 84.5894 36.1474 84.7003 36.5202 84.8299C36.8959 84.9581 37.2297 85.1857 37.4862 85.4886C37.7603 85.824 37.9015 86.2486 37.8829 86.6814C37.8829 87.6581 37.5877 88.3861 36.9974 88.8651ZM38.8781 104.511L37.3604 103.886C37.4701 103.624 37.558 103.412 37.6633 103.154L39.1445 103.763C39.0538 104.017 38.9718 104.243 38.8781 104.508V104.511ZM41.9781 105.628L40.4062 105.092L40.6667 104.343L42.221 104.845L41.9781 105.628ZM42.8197 89.4169L42.8885 87.5889H40.9448L40.374 89.4169H38.1493L41.1424 81.0333H44.9844L45.0312 89.4169H42.8197ZM45.1615 106.512C44.6185 106.42 44.1208 106.237 43.5822 106.095C43.6481 105.831 43.7081 105.597 43.7754 105.332L45.3298 105.771C45.2668 106.025 45.2156 106.251 45.1585 106.509L45.1615 106.512ZM38.6059 70.9607C37.1086 70.668 35.623 70.3021 34.1316 69.9713C33.031 69.7283 32.3299 69.0316 31.9684 67.9969C31.584 66.9459 31.5124 65.8062 31.762 64.7154C32.0445 63.5109 32.3167 62.3048 32.5919 61.1003C32.6138 61.0051 32.6197 60.9056 32.6358 60.79C32.5085 60.7446 32.3958 60.7007 32.2801 60.6641C31.0214 60.2719 29.8564 59.7054 28.8582 58.8287C27.962 58.0782 27.346 57.0465 27.1106 55.9015C26.9785 55.2249 26.9785 54.5291 27.1106 53.8524C27.6478 51.0379 28.1981 48.2263 28.7353 45.4132C28.8377 44.8775 28.968 44.3652 29.3207 43.9262C29.8432 43.2734 30.4799 42.8109 31.3346 42.7772C31.782 42.7728 32.2285 42.8165 32.6665 42.9075C33.8726 43.1241 35.0727 43.3671 36.2758 43.5983C36.3622 43.6144 36.4515 43.6173 36.5612 43.629L36.873 42.322C36.9842 42.3908 37.0691 42.4421 37.1511 42.4962C38.253 43.2475 39.6059 43.536 40.9184 43.2997C41.7483 43.1636 42.5635 42.9411 43.3905 42.7772C43.7972 42.6917 44.2095 42.636 44.6243 42.6104C44.9685 42.5885 45.3135 42.6378 45.6379 42.7551C45.9622 42.8725 46.2589 43.0554 46.5094 43.2924C47.2725 44.0049 48.2508 44.4435 49.2903 44.5394C50.1223 44.6203 50.9617 44.5709 51.7785 44.3931C52.0712 44.333 52.3756 44.2774 52.6669 44.1969C52.7464 44.168 52.8314 44.1575 52.9156 44.1661C52.9997 44.1747 53.0808 44.2023 53.1528 44.2467C53.5626 44.5219 53.9622 44.8131 54.3647 45.0971C54.4803 45.1776 54.4481 45.2903 54.4408 45.403C54.3821 46.0762 54.4235 46.7544 54.5637 47.4154C54.67 47.8869 54.8646 48.3338 55.1375 48.7327C55.7098 49.545 56.5294 49.9036 57.4866 50.0177C57.5422 50.0251 57.5978 50.028 57.6871 50.0353C57.6769 50.1495 57.6769 50.2563 57.6578 50.3617C57.1309 53.2011 56.6099 56.042 56.0713 58.8785C55.5834 61.4613 55.0804 64.0421 54.5623 66.621C54.3384 67.7436 54.0764 68.8604 53.8202 69.9771C53.5641 71.0939 52.8908 71.8798 51.8839 72.395C51.1573 72.7565 50.3685 72.9761 49.5596 73.042C49.4366 73.0504 49.313 73.0421 49.1923 73.0171C45.662 72.3379 42.1303 71.6618 38.603 70.9578L38.6059 70.9607ZM48.3668 107.204L46.7568 106.912L46.9251 106.139L48.5058 106.442C48.4517 106.702 48.4107 106.931 48.3639 107.201L48.3668 107.204ZM51.5736 107.676L49.9973 107.477C50.0412 107.21 50.0792 106.98 50.1246 106.708L50.8901 106.808L51.6731 106.901C51.6937 107.163 51.6587 107.426 51.5706 107.673L51.5736 107.676ZM51.8517 88.8066C51.234 89.3218 50.3627 89.5799 49.2376 89.5809C48.1126 89.5818 47.332 89.3218 46.8958 88.8007C46.5817 88.4417 46.4246 87.9474 46.4246 87.3181C46.4274 87.0095 46.4583 86.7019 46.5168 86.3989L47.4608 81.0304H49.5567L48.62 86.3521C48.5878 86.5525 48.5722 86.7551 48.5732 86.958C48.5732 87.5006 48.8991 87.7723 49.5508 87.7733C49.8879 87.7904 50.2193 87.6825 50.4817 87.4703C50.7149 87.2683 50.8784 86.8956 50.972 86.3521L51.9146 81.0304H54.0105L53.0665 86.3989C52.8723 87.4869 52.4664 88.2885 51.8487 88.8037L51.8517 88.8066ZM54.9048 107.948L53.2714 107.851C53.2919 107.592 53.308 107.362 53.3285 107.095C53.87 107.071 54.3852 107.166 54.9575 107.172C54.9355 107.453 54.9136 107.684 54.9018 107.945L54.9048 107.948ZM58.1774 107.995C57.6443 108.029 57.1096 108.031 56.5762 108.002V107.239H58.1774V107.995ZM56.7592 86.3433L56.2235 89.4169H54.1159L55.5956 81.0333H61.4413L61.1134 82.8511H57.3622L57.0695 84.527H60.1679L59.8533 86.3433H56.7592ZM59.846 107.96V107.181L61.4252 107.055C61.4486 107.31 61.472 107.55 61.4984 107.825C60.9524 107.924 60.4168 107.892 59.843 107.957L59.846 107.96ZM63.1596 107.677C63.1245 107.405 63.0952 107.168 63.063 106.907L64.6408 106.707L64.7696 107.478L63.1596 107.677ZM66.4015 107.213L66.2683 106.434L67.8446 106.13C67.9047 106.391 67.9573 106.614 68.0188 106.879L66.4015 107.213ZM66.564 82.8511L65.4106 89.4169H63.3001L64.4534 82.8511H61.5774L61.9038 81.0333H69.7517L69.4254 82.8511H66.564ZM69.6083 106.5C69.5512 106.247 69.5 106.016 69.4429 105.768L70.9826 105.329C71.0514 105.58 71.1158 105.82 71.1905 106.093L69.6083 106.5ZM71.4656 89.4169H69.2263L70.706 81.0333H74.087C74.972 81.0333 75.6009 81.2285 75.9736 81.6188C76.2559 81.9212 76.4064 82.3235 76.3922 82.737C76.3911 82.901 76.3755 83.0646 76.3453 83.2258L76.1829 84.1347C76.1144 84.572 75.9483 84.9882 75.697 85.3525C75.5015 85.6334 75.2395 85.8617 74.9344 86.0169L75.9897 89.414H73.6479L72.6687 86.2819H71.9472L71.4656 89.4169ZM72.7829 105.629L72.5472 104.852C72.8063 104.763 73.0449 104.677 73.2791 104.596C73.5132 104.516 73.7679 104.437 74.0475 104.346C74.1382 104.584 74.2231 104.81 74.3241 105.078L72.7829 105.629ZM75.8887 104.514C75.7789 104.24 75.6882 104.017 75.596 103.766L77.0757 103.162L77.4138 103.876L75.8887 104.514ZM78.895 103.197C78.7823 102.961 78.6769 102.743 78.5539 102.489L79.9985 101.782C80.1259 102.019 80.2415 102.234 80.3747 102.484L78.895 103.197ZM79.1409 87.5933L78.57 89.4213H76.341L79.3341 81.0377H83.1761L83.2229 89.4213H81.0099L81.0802 87.5933H79.1409ZM81.8076 101.717C81.6773 101.479 81.5573 101.259 81.4197 101.003C81.91 100.722 82.3637 100.464 82.8394 100.194L83.2449 100.876L81.8076 101.717ZM82.8526 15.2319L81.468 14.4254L81.8207 13.7449C82.3228 13.9888 82.8083 14.2656 83.2741 14.5733C83.1263 14.7884 82.9916 14.9992 82.8482 15.2246L82.8526 15.2319ZM84.6382 100.03L84.1991 99.3564L85.5427 98.4401C85.6891 98.6568 85.8355 98.8573 85.9818 99.0871L84.6382 100.03ZM87.3386 98.1269L86.8585 97.5005L88.1436 96.5243C88.3119 96.7262 88.4656 96.9136 88.6368 97.1229L87.3386 98.1269ZM89.897 96.0779L89.3891 95.4924L90.6025 94.4181C90.7679 94.6084 90.9274 94.7884 91.1177 95.0036C90.7282 95.3789 90.3198 95.7341 89.8941 96.0676L89.897 96.0779ZM91.507 83.9401C91.4561 84.1564 91.384 84.3672 91.2918 84.5694L91.1747 84.7787H89.1023C89.3045 84.4977 89.4107 84.1589 89.4052 83.8127C89.4052 83.1151 89.1125 82.7658 88.527 82.7648C87.7464 82.7648 87.2771 83.219 87.119 84.1274L86.7224 86.3624C86.6849 86.5661 86.6658 86.7728 86.6653 86.98C86.6653 87.5157 86.9815 87.7835 87.6137 87.7835C88.246 87.7835 88.6515 87.465 88.83 86.8278H87.8757L88.1085 85.5354H91.1938L91.0123 86.5234L90.9537 86.86C90.6269 88.669 89.3925 89.5735 87.2508 89.5735C86.1482 89.5735 85.3876 89.3174 84.969 88.8051C84.6821 88.448 84.5387 87.9601 84.5387 87.3415C84.5413 87.0251 84.5726 86.7097 84.6324 86.3989L85.0392 84.0703C85.4042 81.99 86.677 80.9499 88.8578 80.9499C89.7594 80.9499 90.4424 81.1421 90.9069 81.5266C91.1378 81.7173 91.3213 81.9592 91.4427 82.233C91.5641 82.5068 91.6202 82.8051 91.6065 83.1043C91.6049 83.3831 91.5676 83.6606 91.4953 83.9298L91.507 83.9401ZM92.3617 93.7917L91.848 93.297L92.9384 92.2095L93.4434 92.713L92.3617 93.7917ZM93.0043 23.2569L91.8948 22.1226L92.3822 21.6001L93.5531 22.7329L93.0043 23.2569ZM94.6391 91.5172L94.0537 90.983C94.4181 90.5703 94.765 90.1795 95.1294 89.7653C95.3373 89.9365 95.5246 90.0917 95.7456 90.2717L94.6391 91.5172ZM95.1631 25.6763L94.083 24.4659L94.683 23.9273L95.7559 25.1743L95.1631 25.6763ZM107.626 55.2019H106.84C106.808 54.6911 106.774 54.1774 106.737 53.63L107.484 53.5656C107.604 54.1042 107.541 54.6428 107.626 55.2019ZM107.342 51.9263L106.573 52.0375C106.506 51.5048 106.44 50.9969 106.373 50.4744C106.609 50.328 106.868 50.3749 107.141 50.3368C107.209 50.8681 107.273 51.376 107.342 51.9292V51.9263ZM106.872 48.661L106.104 48.8337C106 48.3038 105.9 47.793 105.795 47.253L106.569 47.0832C106.672 47.6159 106.768 48.118 106.872 48.661ZM106.199 45.4498L105.432 45.662L104.993 44.0784L105.754 43.8749C105.903 44.4062 106.045 44.9083 106.199 45.4498ZM105.29 42.2825L104.53 42.5474C104.356 42.0308 104.191 41.5361 104.015 41.0077L104.759 40.7267L105.29 42.2825ZM104.17 39.2089L103.438 39.4797L102.824 37.9985L103.523 37.7058C103.764 38.1957 103.98 38.6974 104.17 39.2089ZM102.143 34.7273L102.853 36.1675L102.156 36.5437C101.918 36.0636 101.686 35.5982 101.439 35.0961L102.143 34.7273ZM96.7906 89.0115L96.1467 88.5139C96.4804 88.0748 96.7965 87.6635 97.1273 87.2332L97.7581 87.703L96.7906 89.0115ZM97.1522 28.2083L96.1759 26.9321L96.817 26.4491L97.8035 27.7297L97.1522 28.2083ZM98.7387 86.3492L98.1064 85.9101L98.9846 84.5767L99.655 85.0041L98.7387 86.3492ZM99.0051 30.878L98.0903 29.5256L98.7724 29.0865L99.6798 30.4301L99.0051 30.878ZM100.53 83.5786L99.8569 83.1687L100.662 81.7944L101.335 82.1574L100.53 83.5786ZM100.662 33.6413L99.8467 32.2626L100.527 31.8498L101.373 33.2652L100.662 33.6413ZM102.126 80.7128L101.417 80.3366C101.665 79.8536 101.902 79.3882 102.149 78.8964L102.856 79.2214C102.616 79.7204 102.38 80.1976 102.126 80.7113V80.7128ZM103.541 77.7416L102.822 77.4343C103.023 76.9323 103.216 76.4493 103.425 75.9224L104.173 76.2151L103.541 77.7416ZM104.763 74.6534L104.002 74.4017L104.548 72.8502L105.28 73.1137C105.116 73.6201 104.946 74.1148 104.763 74.649V74.6534ZM105.767 71.5271L105.022 71.2885C105.157 70.7675 105.285 70.2728 105.423 69.743L106.203 69.9391C106.054 70.4792 105.915 70.9826 105.767 71.5227V71.5271ZM106.566 68.3071L105.796 68.1403C105.899 67.6075 105.995 67.104 106.098 66.5669L106.872 66.6913L106.566 68.3071ZM107.152 65.0608L106.372 64.973C106.443 64.4081 106.506 63.9016 106.573 63.363L107.359 63.4538C107.285 63.9982 107.217 64.512 107.147 65.0623L107.152 65.0608ZM107.522 61.7589H106.746C106.778 61.2218 106.809 60.7124 106.841 60.1811H107.604C107.578 60.7183 107.548 61.2291 107.518 61.7604L107.522 61.7589ZM107.668 58.4789C107.416 58.535 107.154 58.54 106.9 58.4936V56.907H107.668V58.4789Z" fill="black"/>
<path d="M81.266 83.0692H80.5328L79.6136 86.0257H81.1387L81.266 83.0692Z" fill="black"/>
<path d="M26.1607 86.3243H27.478L28.0913 84.2123H26.7872L26.1607 86.3243Z" fill="black"/>
<path d="M41.4219 86.0257H42.947L43.0758 83.0692H42.3411L41.4219 86.0257Z" fill="black"/>
<path d="M73.8733 84.5767C74.0594 84.3584 74.1551 84.0773 74.1411 83.7908C74.1411 83.1614 73.8762 82.8482 73.3493 82.8482H72.4712L72.1682 84.8738H72.9834C73.3971 84.8738 73.6938 84.7748 73.8733 84.5767Z" fill="black"/>
<path d="M70.466 37.8375C70.8231 38.1097 71.1875 38.3732 71.5344 38.6586C72.0528 39.0746 72.5096 39.562 72.8912 40.1061C73.1256 40.4371 73.2849 40.8152 73.3581 41.2141C73.5293 42.1991 73.7181 43.1797 73.9026 44.1618C74.3904 46.7671 74.8783 49.3723 75.3662 51.9775C75.4467 52.4078 75.5257 52.8382 75.6208 53.267C75.6335 53.3457 75.6764 53.4164 75.7403 53.4639C75.8043 53.5115 75.8843 53.5322 75.9633 53.5217C76.136 53.4968 76.24 53.3592 76.2385 53.1382C76.2312 53.0914 76.2224 53.024 76.2107 52.9582C75.4921 49.1162 74.7632 45.2756 74.0665 41.4307C73.9273 40.5842 73.5484 39.7954 72.9746 39.1577C72.3206 38.4431 71.5836 37.8093 70.7792 37.2696C70.733 37.2378 70.684 37.2104 70.6328 37.1877C70.5663 37.1572 70.4913 37.1508 70.4206 37.1695C70.3499 37.1882 70.2878 37.2308 70.245 37.2901C70.2035 37.351 70.1841 37.4243 70.19 37.4978C70.1958 37.5712 70.2266 37.6405 70.2772 37.6941C70.3366 37.7463 70.3997 37.7942 70.466 37.8375Z" fill="black"/>
<path d="M31.5454 47.4447C31.1868 49.4938 30.8136 51.5341 30.4901 53.5846C30.3218 54.656 30.6101 55.6161 31.4356 56.3655C31.9686 56.8369 32.6095 57.1697 33.3017 57.3344C33.3504 57.3399 33.3995 57.3399 33.4481 57.3344C34.2268 53.9227 35.001 50.5227 35.7811 47.1022C34.7888 46.8827 33.833 46.6383 32.8641 46.467C32.2011 46.3558 31.661 46.7875 31.5454 47.4447Z" fill="black"/>
<path d="M49.4396 68.474C49.4667 68.4005 49.4863 68.3245 49.4982 68.2471L50.732 62.1687C51.6102 57.8403 52.4883 53.5129 53.3665 49.1864C53.3823 49.1329 53.3931 49.078 53.3987 49.0225C53.4061 48.9491 53.3877 48.8754 53.3465 48.8142C53.3054 48.753 53.2441 48.7081 53.1733 48.6873C53.0974 48.6628 53.0149 48.6685 52.9431 48.7035C52.8714 48.7384 52.8159 48.7997 52.7884 48.8747C52.7625 48.9489 52.7434 49.0253 52.7313 49.103C52.4113 50.6778 52.0917 52.2522 51.7726 53.8261C50.8603 58.3077 49.948 62.7888 49.0357 67.2694C48.9639 67.6222 48.8966 67.9749 48.8278 68.3276C48.8199 68.4024 48.8388 68.4777 48.8812 68.5398C48.9235 68.602 48.9866 68.6472 49.0591 68.6672C49.1352 68.6909 49.2175 68.684 49.2886 68.6479C49.3597 68.6118 49.4139 68.5494 49.4396 68.474Z" fill="black"/>
<path d="M50.7086 48.4985C50.72 48.421 50.7029 48.342 50.6603 48.2763C50.6178 48.2106 50.5527 48.1626 50.4773 48.1414C50.401 48.1186 50.3189 48.1263 50.2482 48.1629C50.1775 48.1995 50.1237 48.2621 50.0982 48.3375C50.0749 48.4008 50.0568 48.4659 50.0441 48.5322L48.56 55.7595C47.7794 59.5766 46.9988 63.3938 46.2182 67.2109C46.1816 67.3865 46.1406 67.5636 46.1216 67.7407C46.1129 67.7822 46.1126 67.825 46.1208 67.8666C46.129 67.9081 46.1455 67.9477 46.1692 67.9827C46.193 68.0178 46.2236 68.0478 46.2591 68.0708C46.2947 68.0939 46.3345 68.1095 46.3763 68.1169C46.4606 68.1264 46.5454 68.1036 46.6136 68.0531C46.6818 68.0026 46.7282 67.9281 46.7436 67.8446C46.7597 67.7919 46.7729 67.7363 46.7846 67.6822C47.3993 64.6779 48.014 61.6735 48.6288 58.6692C49.2435 55.6649 49.8631 52.6508 50.4876 49.627C50.5607 49.242 50.6369 48.8571 50.7086 48.4985Z" fill="black"/>
<path d="M42.9763 46.5753C42.9036 46.561 42.8282 46.5734 42.7639 46.6102C42.6996 46.647 42.6508 46.7059 42.6265 46.7758C42.5976 46.8607 42.5761 46.9478 42.5621 47.0364L41.6092 51.7273C40.6881 56.2635 39.767 60.8007 38.8459 65.3389C38.7859 65.6317 38.7303 65.9332 38.6805 66.1922C38.6805 66.4191 38.7786 66.5479 38.9396 66.5742C39.018 66.5879 39.0986 66.5711 39.165 66.5273C39.2314 66.4835 39.2785 66.416 39.2967 66.3386C39.3235 66.2528 39.3446 66.1652 39.3597 66.0766C39.707 64.3583 40.0539 62.6405 40.4003 60.9232C41.3126 56.4426 42.2249 51.9624 43.1373 47.4828C43.1812 47.2854 43.213 47.0854 43.2324 46.8841C43.236 46.847 43.2323 46.8095 43.2213 46.7739C43.2104 46.7382 43.1925 46.7051 43.1687 46.6764C43.1449 46.6476 43.1156 46.6239 43.0826 46.6066C43.0496 46.5892 43.0134 46.5786 42.9763 46.5753Z" fill="black"/>
<path d="M40.5408 46.4421C40.5613 46.1933 40.4779 46.0674 40.2979 46.0352C40.2566 46.0254 40.2137 46.0241 40.1719 46.0315C40.13 46.0388 40.0902 46.0546 40.0547 46.0779C40.0192 46.1012 39.9888 46.1315 39.9654 46.167C39.9421 46.2024 39.9262 46.2423 39.9188 46.2841C39.9005 46.3491 39.8858 46.415 39.8749 46.4817C39.7914 46.8768 39.7095 47.272 39.6246 47.6672C38.3561 53.5743 37.0876 59.482 35.8192 65.3902C35.7975 65.4773 35.7867 65.5668 35.787 65.6565C35.7843 65.7306 35.8099 65.803 35.8586 65.8589C35.9072 65.9149 35.9752 65.9503 36.049 65.958C36.1165 65.9717 36.1866 65.9612 36.2471 65.9283C36.3076 65.8954 36.3546 65.8421 36.3797 65.778C36.4143 65.6953 36.4393 65.6088 36.4544 65.5204C36.9549 63.1786 37.455 60.8393 37.9546 58.5024C38.7069 54.9897 39.4612 51.477 40.2174 47.9643C40.3286 47.4447 40.4369 46.9295 40.5408 46.4421Z" fill="black"/>
<path d="M36.6739 38.1683C36.7544 39.5953 37.4057 40.6462 38.723 41.2492C39.1754 41.4512 39.6537 41.5891 40.1442 41.659C40.2656 41.678 40.3886 41.7029 40.5101 41.7132C40.5457 41.7213 40.5827 41.7223 40.6187 41.716C40.6548 41.7097 40.6892 41.6963 40.72 41.6765C40.7508 41.6568 40.7774 41.6311 40.7981 41.6009C40.8189 41.5708 40.8334 41.5368 40.8408 41.5009C40.8584 41.3751 40.7721 41.2726 40.5993 41.2316C40.5113 41.2135 40.4224 41.1998 40.333 41.1907C39.8302 41.127 39.3398 40.9883 38.8781 40.7794C38.4995 40.6161 38.1618 40.3707 37.8897 40.0608C37.6176 39.751 37.4178 39.3845 37.3047 38.9879C37.1669 38.5341 37.125 38.0566 37.1818 37.5858C37.2301 37.2199 37.3135 36.8539 37.3867 36.4954C37.3975 36.4647 37.4021 36.4322 37.4002 36.3998C37.3983 36.3673 37.39 36.3356 37.3757 36.3064C37.3614 36.2772 37.3414 36.2512 37.3169 36.2298C37.2924 36.2085 37.2639 36.1922 37.2331 36.182C37.2022 36.1718 37.1696 36.1678 37.1372 36.1703C37.1048 36.1728 37.0733 36.1818 37.0444 36.1967C37.0155 36.2115 36.9898 36.232 36.9689 36.2569C36.9481 36.2818 36.9324 36.3106 36.9227 36.3417C36.8946 36.4028 36.8745 36.4672 36.8627 36.5334C36.7822 36.9974 36.7047 37.4613 36.6271 37.9253L36.6754 37.9326C36.6739 38.0117 36.6695 38.0907 36.6739 38.1683Z" fill="black"/>
<path d="M42.7479 34.9234C42.8044 34.8689 42.8572 34.8107 42.906 34.7493C43.5515 34.0511 44.2877 33.492 45.2478 33.3354C45.5801 33.2996 45.9152 33.2996 46.2475 33.3354C46.5036 33.353 46.6236 33.3178 46.6514 33.1525C46.6792 32.9871 46.5929 32.8919 46.3338 32.8451C46.1362 32.81 45.9328 32.8012 45.7235 32.7792C45.5186 32.8026 45.3049 32.8114 45.0971 32.8524C44.0154 33.0705 43.1797 33.6867 42.4625 34.4961C42.4328 34.5299 42.4059 34.5661 42.382 34.6044C42.3471 34.6494 42.3306 34.706 42.3358 34.7628C42.3409 34.8195 42.3674 34.8722 42.4099 34.9103C42.4304 34.9345 42.4558 34.9542 42.4844 34.9681C42.513 34.982 42.5442 34.9898 42.576 34.9911C42.6078 34.9923 42.6395 34.9869 42.6691 34.9753C42.6987 34.9637 42.7255 34.946 42.7479 34.9234Z" fill="black"/>
<path d="M51.897 35.623C51.9395 35.6084 51.9775 35.5806 52.02 35.5674C52.451 35.4037 52.8908 35.264 53.3372 35.1488C54.1422 34.9791 54.9253 35.0376 55.6161 35.5601C55.668 35.6019 55.7285 35.6319 55.7932 35.6479C55.9396 35.6787 56.061 35.5791 56.0669 35.3728C56.0313 35.2998 55.9816 35.2346 55.9205 35.181C55.7 35.0271 55.4653 34.8948 55.2195 34.7859C54.6486 34.5697 54.0291 34.5155 53.4294 34.6292C52.8253 34.7179 52.2393 34.9027 51.6936 35.1766C51.5223 35.263 51.4726 35.4006 51.5399 35.5308C51.6072 35.6611 51.7316 35.6816 51.897 35.623Z" fill="black"/>
<path d="M58.2623 48.358C58.6765 48.358 59.1698 48.178 59.644 47.935C59.8167 47.8457 59.8679 47.7096 59.805 47.5794C59.742 47.4491 59.6074 47.4227 59.42 47.4974C59.3688 47.5179 59.322 47.5515 59.2737 47.5691C58.992 47.6791 58.7035 47.771 58.4101 47.8443C57.731 47.9804 57.1617 47.6789 56.8543 47.0539C56.8148 46.9749 56.787 46.8871 56.7431 46.8095C56.7197 46.7575 56.6769 46.7167 56.6239 46.6957C56.5709 46.6746 56.5118 46.675 56.4591 46.6968C56.4043 46.7129 56.3577 46.7492 56.3286 46.7984C56.2995 46.8475 56.2902 46.9059 56.3025 46.9617C56.3125 47.0287 56.3312 47.0942 56.3582 47.1564C56.6465 47.9116 57.3241 48.3697 58.2623 48.358Z" fill="black"/>
</svg>
