<svg width="23" height="23" viewBox="0 0 23 23" fill="none" xmlns="http://www.w3.org/2000/svg">
<path d="M22.5553 6.57852H16.012C16.0657 6.43343 16.0951 6.27667 16.0951 6.11315V5.75787H16.4874C17.2008 5.75787 17.7813 5.17744 17.7813 4.464C17.7813 3.75056 17.2009 3.17013 16.4874 3.17013H13.0401C12.7949 3.17013 12.596 3.36895 12.596 3.61423V6.11319C12.596 6.27671 12.6255 6.43348 12.6792 6.57856H10.7705C10.8013 6.46754 10.818 6.35007 10.818 6.22844V3.88055C10.818 3.54548 10.7091 3.21934 10.5113 2.96225L10.2653 2.64246C10.2008 2.55857 10.1599 2.4542 10.147 2.3406L9.97515 0.822243C10.1022 0.744082 10.1872 0.604192 10.1872 0.444095C10.1872 0.198821 9.98838 0 9.74311 0H7.92974C7.68446 0 7.48564 0.198821 7.48564 0.444095C7.48564 0.604192 7.57064 0.744082 7.69769 0.822243L7.52588 2.3406C7.513 2.4542 7.47214 2.55857 7.40757 2.64246L7.16154 2.96225C6.96378 3.21938 6.85489 3.54548 6.85489 3.88055V6.22839C6.85489 6.35003 6.87168 6.46749 6.90241 6.57852H0.705814C0.46054 6.57852 0.261719 6.77734 0.261719 7.02261V8.89039C0.261719 9.13566 0.46054 9.33448 0.705814 9.33448H1.59449V19.3926C1.59449 19.6378 1.79331 19.8367 2.03859 19.8367H6.39934C5.69061 20.8982 4.39554 21.4419 4.37808 21.4491C4.18126 21.529 4.06864 21.7372 4.10936 21.9457C4.15008 22.1542 4.33279 22.3046 4.5452 22.3046H10.0434C10.2555 22.3046 10.4376 22.1545 10.4787 21.9463C10.5197 21.7382 10.4075 21.53 10.2113 21.4494C10.1933 21.4421 8.89906 20.8984 8.19082 19.8367H15.0719C14.3632 20.8983 13.0681 21.4419 13.0506 21.4491C12.8538 21.5291 12.7412 21.7372 12.7819 21.9457C12.8226 22.1542 13.0053 22.3047 13.2177 22.3047H18.7158C18.9282 22.3047 19.1109 22.1543 19.1517 21.9458C19.1924 21.7373 19.0799 21.5292 18.883 21.4492C18.865 21.4419 17.5678 20.902 16.8604 19.8367H21.2225C21.4677 19.8367 21.6666 19.6379 21.6666 19.3926V9.33444H22.5553C22.8005 9.33444 22.9994 9.13562 22.9994 8.89034V7.02257C22.9994 6.77734 22.8005 6.57852 22.5553 6.57852ZM16.8931 4.46396C16.8931 4.68765 16.7111 4.86964 16.4874 4.86964H16.0951V4.05823H16.4874C16.7111 4.05823 16.8931 4.24022 16.8931 4.46396ZM13.4842 4.05823H15.2069V6.11311C15.2069 6.3646 15.0024 6.56924 14.7508 6.56924H13.9403C13.6888 6.56924 13.4842 6.36464 13.4842 6.11311V4.05823H13.4842ZM9.08887 0.888191L9.26455 2.44048C9.2956 2.7148 9.39822 2.97193 9.56139 3.18399L9.80737 3.50378C9.88637 3.60645 9.92985 3.74026 9.92985 3.88055V6.22839C9.92985 6.41314 9.81297 6.56924 9.67454 6.56924H7.99853C7.86015 6.56924 7.74322 6.41314 7.74322 6.22839V3.88055C7.74322 3.7403 7.78669 3.6065 7.8657 3.50378L8.11173 3.18399C8.27484 2.97184 8.37752 2.71475 8.40856 2.44048L8.58424 0.888191H9.08887ZM8.46407 21.4164H6.12542C6.15149 21.3955 6.17769 21.3742 6.20385 21.3525C6.67272 20.9634 7.03844 20.5345 7.29512 20.0771C7.55163 20.5345 7.91708 20.9633 8.3856 21.3524C8.41176 21.3741 8.43796 21.3954 8.46407 21.4164ZM17.1366 21.4164H14.7979C14.824 21.3955 14.8502 21.3742 14.8764 21.3525C15.3453 20.9634 15.711 20.5345 15.9677 20.0771C16.2241 20.5345 16.5896 20.9633 17.0582 21.3524C17.0843 21.3741 17.1105 21.3954 17.1366 21.4164ZM22.1112 8.44625H13.5999C13.3547 8.44625 13.1558 8.64507 13.1558 8.89034C13.1558 9.13562 13.3547 9.33444 13.5999 9.33444H20.7785V18.9484H16.4716C16.4342 18.7834 16.4133 18.6102 16.4122 18.4289L16.4126 18.0321H17.7938C18.039 18.0321 18.2379 17.8333 18.2379 17.588C18.2379 17.3427 18.039 17.1439 17.7938 17.1439H16.4134L16.4155 14.7647H17.8074C18.5233 14.7647 19.1057 14.1822 19.1057 13.4663C19.1057 12.7504 18.5233 12.1679 17.8074 12.1679H14.1361C13.4202 12.1679 12.8378 12.7504 12.8378 13.4663C12.8378 14.1822 13.4202 14.7647 14.1361 14.7647H15.5273L15.5252 17.1439H14.1302C13.885 17.1439 13.6861 17.3427 13.6861 17.588C13.6861 17.8333 13.885 18.0321 14.1302 18.0321H15.5244L15.5241 18.4075C15.524 18.4096 15.5238 18.4116 15.5238 18.4136C15.5238 18.6004 15.5024 18.7787 15.4635 18.9484H7.79953C7.76182 18.7833 7.74077 18.6101 7.73962 18.4289L7.73997 18.032H9.1212C9.36647 18.032 9.56529 17.8332 9.56529 17.5879C9.56529 17.3427 9.36647 17.1439 9.1212 17.1439H7.74073L7.74282 14.7646H9.13474C9.85067 14.7646 10.4331 14.1822 10.4331 13.4663C10.4331 12.7503 9.85067 12.1679 9.13474 12.1679H5.4635C4.74757 12.1679 4.16514 12.7503 4.16514 13.4663C4.16514 14.1822 4.74757 14.7646 5.4635 14.7646H6.85462L6.85254 17.1439H5.45763C5.21236 17.1439 5.01354 17.3427 5.01354 17.5879C5.01354 17.8332 5.21236 18.032 5.45763 18.032H6.85178L6.85147 18.4074C6.85143 18.4095 6.85116 18.4115 6.85116 18.4136C6.85116 18.6003 6.82976 18.7786 6.7909 18.9483H2.48268V9.33444H9.69186C9.93713 9.33444 10.136 9.13562 10.136 8.89034C10.136 8.64507 9.93713 8.44625 9.69186 8.44625H1.14991V7.46666H22.1112V8.44625ZM14.1361 13.8765C13.9099 13.8765 13.7259 13.6925 13.7259 13.4663C13.7259 13.2402 13.9099 13.0562 14.1361 13.0562H17.8073C18.0335 13.0562 18.2175 13.2402 18.2175 13.4663C18.2175 13.6925 18.0334 13.8765 17.8073 13.8765H14.1361ZM5.4635 13.8765C5.23732 13.8765 5.05333 13.6925 5.05333 13.4663C5.05333 13.2402 5.23736 13.0562 5.4635 13.0562H9.13474C9.36092 13.0562 9.54491 13.2402 9.54491 13.4663C9.54491 13.6925 9.36088 13.8765 9.13474 13.8765H5.4635Z" fill="#E94057"/>
<path d="M11.3842 9.25956C11.5484 9.36899 11.7711 9.35531 11.9207 9.22657C12.0536 9.11221 12.107 8.92387 12.054 8.7568C11.9973 8.57819 11.8294 8.45113 11.6418 8.44647C11.4531 8.44176 11.2784 8.56158 11.2137 8.73851C11.1448 8.92716 11.2153 9.14898 11.3842 9.25956Z" fill="#E94057"/>
</svg>
