<svg width="63" height="66" viewBox="0 0 63 66" fill="none" xmlns="http://www.w3.org/2000/svg">
<path fill-rule="evenodd" clip-rule="evenodd" d="M3.43314 20.9114C3.43314 21.7655 2.74065 22.458 1.88649 22.458C1.03212 22.458 0.339844 21.7655 0.339844 20.9114V14.4155C0.339844 13.5611 1.03212 12.8688 1.88649 12.8688H8.38199C9.23636 12.8688 9.92864 13.5611 9.92864 14.4155C9.92864 15.2696 9.23636 15.9621 8.38199 15.9621H3.43314V20.9114ZM24.7769 54.1127C23.9225 54.1127 23.2302 53.4202 23.2302 52.5661C23.2302 51.7117 23.9225 51.0194 24.7769 51.0194H26.1173C26.9714 51.0194 27.6639 51.7117 27.6639 52.5661C27.6639 53.4202 26.9714 54.1127 26.1173 54.1127H24.7769ZM25.9111 33.4908C25.9111 34.3449 25.2186 35.0374 24.3644 35.0374C23.5101 35.0374 22.8178 34.3449 22.8178 33.4908V32.1503C22.8178 31.296 23.5101 30.6037 24.3644 30.6037C25.2186 30.6037 25.9111 31.296 25.9111 32.1503V33.4908ZM35.3972 50.8132C34.5428 50.8132 33.8505 50.1207 33.8505 49.2666C33.8505 48.4122 34.5428 47.7199 35.3972 47.7199H36.7376C37.5918 47.7199 38.2842 48.4122 38.2842 49.2666C38.2842 50.1207 37.5918 50.8132 36.7376 50.8132H35.3972ZM3.48469 40.8116H10.6818C10.6611 40.9116 10.6508 41.0149 10.6508 41.1209V45.7608C10.6508 46.615 11.3431 47.3075 12.1975 47.3075C13.0516 47.3075 13.7441 46.615 13.7441 45.7608V41.1209C13.7441 41.0149 13.7338 40.9116 13.7132 40.8116H27.3546V42.5644H19.2089C18.3546 42.5644 17.6623 43.2567 17.6623 44.1111C17.6623 44.9652 18.3546 45.6577 19.2089 45.6577H28.9013C29.7554 45.6577 30.4479 44.9652 30.4479 44.1111V40.8116H36.222V45.3484C36.222 46.2025 36.9143 46.895 37.7687 46.895C38.6229 46.895 39.3153 46.2025 39.3153 45.3484V40.8116H49.9872C50.8414 40.8116 51.5338 40.1191 51.5338 39.2649C51.5338 38.4105 50.8414 37.7183 49.9872 37.7183H42.9242V34.7281H44.4708C45.325 34.7281 46.0175 34.0356 46.0175 33.1814C46.0175 32.3271 45.325 31.6348 44.4708 31.6348H36.7376C35.8832 31.6348 35.1909 32.3271 35.1909 33.1814C35.1909 34.0356 35.8832 34.7281 36.7376 34.7281H39.8309V37.7183H30.4479V33.697C30.4479 32.8426 29.7554 32.1503 28.9013 32.1503C28.0469 32.1503 27.3546 32.8426 27.3546 33.697V37.7183H3.48469C2.63032 37.7183 1.93805 38.4105 1.93805 39.2649C1.93805 40.1191 2.63032 40.8116 3.48469 40.8116ZM30.2417 21.8394C30.2417 20.985 30.934 20.2927 31.7883 20.2927C32.6425 20.2927 33.335 20.985 33.335 21.8394V29.985C33.335 30.8392 32.6425 31.5317 31.7883 31.5317C30.934 31.5317 30.2417 30.8392 30.2417 29.985V21.8394ZM21.0649 22.458H24.5706V21.8394C24.5706 20.985 25.2629 20.2927 26.1173 20.2927C26.9714 20.2927 27.6639 20.985 27.6639 21.8394V26.9948C27.6639 27.849 26.9714 28.5415 26.1173 28.5415C25.2629 28.5415 24.5706 27.849 24.5706 26.9948V25.5513H21.0649V26.2731C21.0649 27.1272 20.3724 27.8197 19.5183 27.8197C18.6639 27.8197 17.9716 27.1272 17.9716 26.2731V21.8394C17.9716 20.985 18.6639 20.2927 19.5183 20.2927C20.3724 20.2927 21.0649 20.985 21.0649 21.8394V22.458ZM8.69132 34.625C7.83737 34.625 7.14468 33.9325 7.14468 33.0783C7.14468 32.224 7.83737 31.5317 8.69132 31.5317H20.1369C20.9911 31.5317 21.6836 32.224 21.6836 33.0783C21.6836 33.9325 20.9911 34.625 20.1369 34.625H8.69132ZM42.4086 55.1438V56.6905C42.4086 57.5446 43.1009 58.2371 43.9553 58.2371C44.8094 58.2371 45.5019 57.5446 45.5019 56.6905V47.4106C45.5019 46.5568 44.8094 45.8639 43.9553 45.8639C43.1009 45.8639 42.4086 46.5568 42.4086 47.4106V52.0505H37.2531C36.3988 52.0505 35.7065 52.7434 35.7065 53.5972C35.7065 54.4513 36.3988 55.1438 37.2531 55.1438H42.4086ZM26.6328 58.2371H31.2728C32.1269 58.2371 32.8194 57.5446 32.8194 56.6905V48.751C32.8194 47.8966 32.1269 47.2044 31.2728 47.2044C30.4184 47.2044 29.7261 47.8966 29.7261 48.751V55.1438H26.6328C25.7785 55.1438 25.0862 55.8361 25.0862 56.6905C25.0862 57.5446 25.7785 58.2371 26.6328 58.2371ZM18.0747 48.8541C18.0747 47.9997 18.767 47.3075 19.6214 47.3075C20.4755 47.3075 21.168 47.9997 21.168 48.8541V53.3909C21.168 54.2451 20.4755 54.9376 19.6214 54.9376C18.767 54.9376 18.0747 54.2451 18.0747 53.3909V48.8541ZM8.69174 48.6479H15.1877C16.0418 48.6479 16.7343 49.3402 16.7343 50.1945V56.6905C16.7343 57.5446 16.0418 58.2371 15.1877 58.2371H8.69174C7.83737 58.2371 7.14509 57.5446 7.14509 56.6905V50.1945C7.14509 49.3402 7.83737 48.6479 8.69174 48.6479ZM13.641 51.7412H10.2384V55.1438H13.641V51.7412ZM38.2842 20.2927H44.7802C45.6343 20.2927 46.3268 20.985 46.3268 21.8394V28.3353C46.3268 29.1894 45.6343 29.8819 44.7802 29.8819H38.2842C37.4299 29.8819 36.7376 29.1894 36.7376 28.3353V21.8394C36.7376 20.985 37.4299 20.2927 38.2842 20.2927ZM43.2335 23.386H39.8309V26.7886H43.2335V23.386ZM8.69174 20.2927C7.83737 20.2927 7.14509 20.985 7.14509 21.8394V28.3353C7.14509 29.1894 7.83737 29.8819 8.69174 29.8819H15.1877C16.0418 29.8819 16.7343 29.1894 16.7343 28.3353V21.8394C16.7343 20.985 16.0418 20.2927 15.1877 20.2927H8.69174ZM13.641 23.386V26.7886H10.2384V23.386H13.641ZM50.0388 57.6185C50.0388 56.7641 50.731 56.0718 51.5854 56.0718C52.4396 56.0718 53.132 56.7641 53.132 57.6185V64.1144C53.132 64.9685 52.4396 65.661 51.5854 65.661H45.0897C44.2357 65.661 43.543 64.9685 43.543 64.1144C43.543 63.26 44.2357 62.5677 45.0897 62.5677H50.0388V57.6185ZM0.339844 57.6185V64.1144C0.339844 64.9685 1.03212 65.661 1.88649 65.661H8.38199C9.23636 65.661 9.92864 64.9685 9.92864 64.1144C9.92864 63.26 9.23636 62.5677 8.38199 62.5677H3.43314V57.6185C3.43314 56.7641 2.74065 56.0718 1.88649 56.0718C1.03212 56.0718 0.339844 56.7641 0.339844 57.6185ZM53.132 20.9114V14.4155C53.132 13.5611 52.4396 12.8688 51.5854 12.8688H45.0897C44.2357 12.8688 43.543 13.5611 43.543 14.4155C43.543 15.2696 44.2357 15.9621 45.0897 15.9621H50.0388V20.9114C50.0388 21.7655 50.731 22.458 51.5854 22.458C52.4396 22.458 53.132 21.7655 53.132 20.9114Z" fill="#E20000"/>
<path d="M61.2056 17.2992V12.4522C61.2056 5.9505 55.9333 0.661011 49.4527 0.661011C42.9722 0.661011 37.6999 5.9505 37.6999 12.4522V17.2535C36.9691 17.5332 36.2461 18.1642 36.2461 19.4142V26.0152C36.2461 33.3212 42.1707 39.265 49.4528 39.265C56.735 39.265 62.6594 33.3212 62.6594 26.0152V19.4142C62.6594 18.2282 61.9541 17.5994 61.2056 17.2992ZM51.9629 31.4829C52.0042 31.7027 51.8557 31.8825 51.6328 31.8825H47.3224C47.0995 31.8825 46.951 31.7027 46.9923 31.4829L47.6827 27.8121C47.1557 27.33 46.825 26.6357 46.825 25.8639C46.825 24.4079 48.0015 23.2276 49.4527 23.2276C50.904 23.2276 52.0804 24.4079 52.0804 25.8639C52.0804 26.6147 51.7671 27.2917 51.2649 27.7719L51.9629 31.4829ZM57.153 17.0639H41.7524V12.4522C41.7524 8.19247 45.2067 4.7268 49.4527 4.7268C53.6986 4.7268 57.153 8.19247 57.153 12.4522V17.0639Z" fill="#E20000"/>
</svg>
