<svg width="15" height="22" viewBox="0 0 15 22" fill="none" xmlns="http://www.w3.org/2000/svg">
<path d="M7.50001 16.7573C7.28864 16.7573 7.09081 16.6534 6.97081 16.4794L0.113657 6.53656C-0.0219862 6.33989 -0.0373719 6.08425 0.073714 5.8727C0.184757 5.6612 0.403971 5.52873 0.642857 5.52873H14.3572C14.596 5.52873 14.8152 5.6612 14.9263 5.8727C15.0374 6.08425 15.022 6.33989 14.8864 6.53656L8.02921 16.4794C7.90916 16.6534 7.71134 16.7573 7.50001 16.7573ZM1.86707 6.81445L7.49996 14.9821L13.1329 6.81445H1.86707Z" fill="white"/>
<path d="M7.49961 21.943C7.14458 21.943 6.85674 21.6552 6.85674 21.3002V16.1144C6.85674 15.7594 7.14458 15.4716 7.49961 15.4716C7.85464 15.4716 8.14247 15.7594 8.14247 16.1144V21.3002C8.14247 21.6552 7.85464 21.943 7.49961 21.943Z" fill="white"/>
<path d="M12.3 21.943H2.70001C2.34499 21.943 2.05716 21.6552 2.05716 21.3001C2.05716 20.9451 2.34499 20.6573 2.70001 20.6573H12.3C12.6551 20.6573 12.9429 20.9451 12.9429 21.3001C12.9429 21.6552 12.6551 21.943 12.3 21.943Z" fill="white"/>
<path d="M7.49925 12.3003C7.40295 12.3003 7.30523 12.2786 7.21313 12.2327C6.89535 12.0744 6.76601 11.6885 6.92432 11.3707L12.41 0.356392C12.5683 0.038606 12.9542 -0.090737 13.2721 0.0675774C13.5899 0.225849 13.7192 0.611821 13.5609 0.929607L8.07516 11.9439C7.96275 12.1696 7.73544 12.3003 7.49925 12.3003Z" fill="white"/>
<path d="M11.5491 10.8855C11.4266 10.8855 11.3028 10.8506 11.1931 10.7775L10.2293 10.1351C9.82097 9.86276 9.29349 9.86276 8.88536 10.135C8.04377 10.696 6.9564 10.696 6.11494 10.135C5.70677 9.86289 5.1792 9.86289 4.77103 10.135L3.80709 10.7775C3.51163 10.9744 3.11254 10.8945 2.91562 10.5991C2.71869 10.3037 2.79857 9.90454 3.09399 9.70766L4.05785 9.06523C4.89922 8.50427 5.98667 8.50427 6.82813 9.06527C7.23635 9.33742 7.76383 9.33742 8.17209 9.06527C9.01355 8.50414 10.101 8.50419 10.9425 9.06532L11.9062 9.70766C12.2017 9.90454 12.2815 10.3037 12.0846 10.5991C11.9608 10.785 11.7569 10.8855 11.5491 10.8855Z" fill="white"/>
</svg>
