<svg width="28" height="28" viewBox="0 0 28 28" fill="none" xmlns="http://www.w3.org/2000/svg">
<path d="M20.037 6.86055L4.73047 6.89063V25.2656C4.73047 26.4737 5.70992 27.4531 6.91797 27.4531H17.8555C19.0635 27.4531 20.043 26.4737 20.043 25.2656V6.87149L20.037 6.86055Z" fill="#95E7EE"/>
<path d="M20.043 25.2656V6.87149L20.037 6.86055L4.73047 6.89063V25.2656H20.043Z" fill="#FEC652"/>
<path d="M25.5117 11.5391V20.8906C25.5117 22.0987 24.5323 23.0781 23.3242 23.0781H20.043V20.8906H23.3242V11.5391H20.043V9.35156H23.3242C24.5323 9.35156 25.5117 10.331 25.5117 11.5391Z" fill="#95E7EE"/>
<path d="M21.0793 4.46852C21.4955 6.31548 19.5903 7.79319 17.8008 6.88297V11.5002C17.8008 12.104 17.3113 12.594 16.707 12.594C16.1027 12.594 15.6133 12.104 15.6133 11.5002V9.31273C15.6133 8.5575 15.6406 7.16406 13.207 7.16406C13.0096 7.16406 12.8209 7.24391 12.6842 7.38555C12.1871 7.89961 11.4904 8.21898 10.7188 8.21898C9.97227 8.21898 9.29578 7.91984 8.8025 7.43477C8.62586 7.26141 8.38797 7.16406 8.12875 7.16406C7.92039 7.16406 7.73008 7.28273 7.63875 7.46977C7.11047 8.55148 6.01289 9.3018 4.73047 9.31273V13.6757C4.70312 14.2915 4.21367 14.7815 3.60938 14.7815C3.00508 14.7815 2.48828 14.2915 2.48828 13.6877C2.48828 12.972 2.48828 7.88424 2.48828 7.12523C2.48828 4.52375 4.7857 2.45273 7.45172 2.79453C8.1982 1.46398 9.62664 0.546875 11.2656 0.546875C12.5617 0.546875 13.726 1.12602 14.5272 2.0218C14.8575 1.81289 15.2491 1.69531 15.668 1.69531C16.6223 1.69531 17.4338 2.30617 17.7324 3.1582C18.2022 2.8432 18.801 2.70539 19.4327 2.84102C20.2355 3.01273 20.8994 3.66789 21.0793 4.46852Z" fill="#FFE5CB"/>
</svg>
