<svg width="23" height="26" viewBox="0 0 23 26" fill="none" xmlns="http://www.w3.org/2000/svg">
<path d="M12.9966 22.7424C12.7212 22.7424 12.4977 22.9659 12.4977 23.2413C12.4977 23.5167 12.7212 23.7402 12.9966 23.7402C13.272 23.7402 13.4955 23.5167 13.4955 23.2413C13.4955 22.9659 13.272 22.7424 12.9966 22.7424Z" fill="#E94057"/>
<path d="M5.98751 10.2209C5.71199 10.2209 5.48865 10.4442 5.48865 10.7198V20.2481C5.48865 20.5236 5.71199 20.747 5.98751 20.747C6.26304 20.747 6.48638 20.5236 6.48638 20.2481V10.7198C6.48638 10.4442 6.26304 10.2209 5.98751 10.2209Z" fill="#E94057"/>
<path d="M9.97848 10.2209C9.70296 10.2209 9.47961 10.4442 9.47961 10.7198V20.2481C9.47961 20.5236 9.70296 20.747 9.97848 20.747C10.254 20.747 10.4773 20.5236 10.4773 20.2481V10.7198C10.4773 10.4442 10.254 10.2209 9.97848 10.2209Z" fill="#E94057"/>
<path d="M20.0057 8.26081H17.5113V6.75129C18.2933 6.16507 18.665 5.17422 18.4446 4.1959C18.2384 3.27848 17.4811 2.52978 16.5604 2.33288C16.071 2.22787 15.5781 2.26504 15.1289 2.4358C14.6786 1.72576 13.8877 1.27668 13.0215 1.27668C12.6951 1.27668 12.376 1.33999 12.0811 1.46181C11.2461 0.674153 10.1452 0.229065 9.00566 0.229065C7.49829 0.229065 6.09249 0.996969 5.26267 2.25341C2.6551 2.10914 0.5 4.17789 0.5 6.72879V12.7152C0.5 13.5404 1.18255 14.2118 2.02154 14.2118C2.20557 14.2118 2.38192 14.1783 2.54535 14.1173V23.2767C2.54535 24.652 3.66431 25.771 5.03968 25.771H15.017C16.3924 25.771 17.5113 24.652 17.5113 23.2767V21.7801H20.0057C21.381 21.7801 22.5 20.6611 22.5 19.2857V10.7551C22.5 9.37976 21.381 8.26081 20.0057 8.26081ZM16.5136 22.7778H14.9916C14.716 22.7778 14.4927 23.0011 14.4927 23.2767C14.4927 23.5522 14.716 23.7705 14.9916 23.7705H16.4278C16.2219 24.3512 15.6673 24.7733 15.017 24.7733H5.03968C4.38936 24.7733 3.83482 24.3562 3.62889 23.7755H11.0016C11.2771 23.7755 11.5005 23.5522 11.5005 23.2767C11.5005 23.0011 11.2771 22.7778 11.0016 22.7778H3.54308V12.7042V9.18401C4.66368 9.01484 5.63403 8.3091 6.14417 7.26312C6.24823 7.26312 6.33992 7.29914 6.40902 7.36694C6.97204 7.92058 7.71704 8.22544 8.5068 8.22544C9.32534 8.22544 10.0894 7.90142 10.6587 7.31276C10.6891 7.28123 10.7321 7.26312 10.7766 7.26312C11.5532 7.26312 12.0614 7.429 12.2871 7.75605C12.4731 8.02569 12.4729 8.40034 12.4728 8.7014V10.7198C12.4728 11.3701 12.8899 11.9246 13.4705 12.1306V20.2481C13.4705 20.5236 13.6939 20.747 13.9694 20.747C14.2449 20.747 14.4682 20.5236 14.4682 20.2481V12.1305C15.0489 11.9246 15.466 11.3701 15.466 10.7197V7.20451C15.8154 7.27425 16.1721 7.2747 16.5136 7.20486V22.7778ZM15.1932 6.06315C15.0386 5.98448 14.8542 5.99181 14.7063 6.08256C14.5583 6.17325 14.4682 6.33428 14.4682 6.50779V10.7197C14.4682 10.9948 14.2444 11.2186 13.9693 11.2186C13.6943 11.2186 13.4705 10.9948 13.4705 10.7197V8.7017C13.4706 8.3088 13.4709 7.715 13.1082 7.18939C12.6852 6.57623 11.9008 6.26534 10.7766 6.26534C10.4628 6.26534 10.1582 6.3945 9.94109 6.61949C9.56185 7.01169 9.05246 7.22765 8.5068 7.22765C7.98034 7.22765 7.48377 7.02447 7.10823 6.65511C6.85216 6.40373 6.50979 6.26534 6.14417 6.26534C5.76608 6.26534 5.41468 6.48469 5.2489 6.82417C4.83075 7.68042 3.98428 8.21735 3.03993 8.22544C2.7661 8.22778 2.5453 8.45042 2.5453 8.7243V12.6915C2.52774 12.9853 2.29931 13.214 2.02154 13.214C1.73764 13.214 1.49773 12.9856 1.49773 12.7152V6.72879C1.49773 4.80337 3.07325 3.24411 5.0101 3.24411C5.1606 3.24411 5.31191 3.25369 5.46312 3.27309C5.66491 3.29899 5.86211 3.19971 5.96163 3.02236C6.58302 1.91483 7.74942 1.2268 9.00566 1.2268C9.98992 1.2268 10.9389 1.65657 11.6091 2.40597C11.7715 2.58765 12.0415 2.62537 12.2476 2.49501C12.4757 2.35069 12.7434 2.27441 13.0215 2.27441C13.6566 2.27441 14.2242 2.67655 14.434 3.27499C14.485 3.42066 14.6006 3.53455 14.7471 3.58334C14.8935 3.63213 15.0544 3.61038 15.1826 3.52437C15.5226 3.29639 15.9376 3.21972 16.3514 3.30851C16.8901 3.42375 17.3506 3.87862 17.4711 4.41495C17.7551 5.67528 16.4632 6.70913 15.1932 6.06315ZM17.5113 11.254H19.5068V18.7869H17.5113V11.254ZM21.5023 19.2857C21.5023 20.111 20.8309 20.7823 20.0057 20.7823H17.5113V19.7846H20.0057C20.2812 19.7846 20.5045 19.5613 20.5045 19.2857V10.7551C20.5045 10.4796 20.2812 10.2563 20.0057 10.2563H17.5113V9.25854H20.0057C20.8309 9.25854 21.5023 9.92991 21.5023 10.7551V19.2857Z" fill="#E94057"/>
</svg>
