<svg width="53" height="65" viewBox="0 0 53 65" fill="none" xmlns="http://www.w3.org/2000/svg">
<path d="M47.7344 8.125H36.5625V6.09375C36.5625 2.72822 33.8343 0 30.4688 0H22.3438C18.9782 0 16.25 2.72822 16.25 6.09375V8.125H5.07812C2.2736 8.125 0 10.3986 0 13.2031V17.2656C0 18.3875 0.909365 19.2969 2.03125 19.2969H50.7812C51.9031 19.2969 52.8125 18.3875 52.8125 17.2656V13.2031C52.8125 10.3986 50.5389 8.125 47.7344 8.125ZM20.3125 6.09375C20.3125 4.97402 21.224 4.0625 22.3438 4.0625H30.4688C31.5885 4.0625 32.5 4.97402 32.5 6.09375V8.125H20.3125V6.09375Z" fill="#E20000"/>
<path d="M3.85349 23.3594C3.49104 23.3594 3.20222 23.6623 3.21949 24.0244L4.89527 59.1957C5.05015 62.4508 7.72378 65 10.9814 65H41.8285C45.0861 65 47.7597 62.4508 47.9146 59.1957L49.5904 24.0244C49.6077 23.6623 49.3188 23.3594 48.9564 23.3594H3.85349ZM34.5299 28.4375C34.5299 27.3152 35.4389 26.4062 36.5612 26.4062C37.6835 26.4062 38.5924 27.3152 38.5924 28.4375V54.8438C38.5924 55.966 37.6835 56.875 36.5612 56.875C35.4389 56.875 34.5299 55.966 34.5299 54.8438V28.4375ZM24.3737 28.4375C24.3737 27.3152 25.2827 26.4062 26.4049 26.4062C27.5272 26.4062 28.4362 27.3152 28.4362 28.4375V54.8438C28.4362 55.966 27.5272 56.875 26.4049 56.875C25.2827 56.875 24.3737 55.966 24.3737 54.8438V28.4375ZM14.2174 28.4375C14.2174 27.3152 15.1264 26.4062 16.2487 26.4062C17.371 26.4062 18.2799 27.3152 18.2799 28.4375V54.8438C18.2799 55.966 17.371 56.875 16.2487 56.875C15.1264 56.875 14.2174 55.966 14.2174 54.8438V28.4375Z" fill="#E20000"/>
</svg>
