<svg width="18" height="17" viewBox="0 0 18 17" fill="none" xmlns="http://www.w3.org/2000/svg">
<path d="M13.4121 9.45599C12.6879 9.45599 11.98 9.67075 11.3778 10.0731C10.7757 10.4754 10.3064 11.0473 10.0292 11.7164C9.75208 12.3855 9.67956 13.1217 9.82085 13.832C9.96213 14.5423 10.3109 15.1947 10.823 15.7068C11.3351 16.2189 11.9875 16.5676 12.6978 16.7089C13.4081 16.8502 14.1443 16.7777 14.8134 16.5006C15.4825 16.2234 16.0543 15.7541 16.4567 15.1519C16.859 14.5498 17.0738 13.8418 17.0738 13.1176C17.0727 12.1469 16.6865 11.2162 16.0001 10.5297C15.3136 9.84326 14.3829 9.45712 13.4121 9.45599ZM10.9068 13.1176C10.9076 12.4534 11.1718 11.8166 11.6415 11.347C12.1111 10.8773 12.7479 10.6131 13.4121 10.6123C13.8752 10.614 14.3286 10.7453 14.7209 10.9913L11.2858 14.4264C11.0398 14.0341 10.9085 13.5807 10.9068 13.1176ZM13.4121 15.623C12.9491 15.6213 12.4957 15.49 12.1034 15.2439L15.5384 11.8089C15.7845 12.2012 15.9158 12.6546 15.9175 13.1176C15.9167 13.7819 15.6525 14.4187 15.1828 14.8883C14.7132 15.358 14.0764 15.6222 13.4121 15.623Z" fill="#333333"/>
<path d="M6.47415 7.5288C8.49642 7.5288 10.1358 5.88943 10.1358 3.86716C10.1358 1.84488 8.49642 0.205505 6.47415 0.205505C4.45188 0.205505 2.8125 1.84488 2.8125 3.86716C2.8125 5.88943 4.45188 7.5288 6.47415 7.5288Z" fill="#333333"/>
<path d="M11.5543 8.66971C11.1393 8.06562 10.6039 7.55384 9.98175 7.1665C9.53192 7.64589 8.9886 8.02799 8.38533 8.28918C7.78207 8.55038 7.13166 8.68514 6.47427 8.68514C5.81689 8.68514 5.16648 8.55038 4.56321 8.28918C3.95994 8.02799 3.41662 7.64589 2.9668 7.1665C2.21259 7.62888 1.58971 8.27713 1.1578 9.04919C0.725878 9.82124 0.499385 10.6912 0.500001 11.5759V13.1176C0.501111 13.2706 0.56238 13.4171 0.670565 13.5252C0.778751 13.6334 0.925163 13.6947 1.07816 13.6958H8.63272C8.49937 12.6534 8.71333 11.596 9.24147 10.6875C9.76962 9.77889 10.5825 9.06972 11.5543 8.66971Z" fill="#333333"/>
</svg>
