<svg width="23" height="62" viewBox="0 0 23 62" fill="none" xmlns="http://www.w3.org/2000/svg">
<path d="M19.7711 24.2377C17.7202 22.1868 16.7547 19.29 17.1648 16.4188C17.4501 14.4215 17.2216 12.3844 16.5008 10.4999L14.3955 4.99492H8.07454L5.96918 10.4998C5.24841 12.3843 5.0199 14.4215 5.30523 16.4187C5.71544 19.2899 4.7498 22.1867 2.69888 24.2376C0.970764 25.9657 0 28.3095 0 30.7533V56.4426C0 59.2012 2.23635 61.4375 4.99492 61.4375H17.4751C20.2337 61.4375 22.47 59.2012 22.47 56.4426V30.7535C22.47 28.3096 21.4993 25.9658 19.7711 24.2377V24.2377Z" fill="#D1A184"/>
<path d="M16.5009 10.4998L14.3954 4.99492H8.07447L5.96911 10.4998C5.33226 12.165 5.08039 13.9494 5.22712 15.7201L11.2361 21.7291L17.2426 15.7226C17.3897 13.9511 17.1381 12.1659 16.5009 10.4998V10.4998Z" fill="#8AA8BD"/>
<path d="M11.4859 0H8.81486C7.71136 0 6.81689 0.894465 6.81689 1.99797V4.99492H11.4859H15.6557V1.99797C15.6557 0.894465 14.7612 0 13.6577 0H11.4859Z" fill="#E2E9EE"/>
<path d="M11.2351 30.7535C5.03013 30.7535 0 35.7836 0 41.9884V45.2076C0.000124873 51.4124 5.03013 56.4426 11.2351 56.4426C17.44 56.4426 22.47 51.4124 22.47 45.2076V41.9884C22.47 35.7835 17.44 30.7535 11.2351 30.7535Z" fill="#FFCD69"/>
<path d="M0 39.6021H22.47V47.594H0V39.6021Z" fill="#FF7D97"/>
</svg>
