<svg width="29" height="32" viewBox="0 0 29 32" fill="none" xmlns="http://www.w3.org/2000/svg">
<path opacity="0.4" fill-rule="evenodd" clip-rule="evenodd" d="M9.44864 4.89622H19.2087V2.62376H9.44864V4.89622ZM7.22891 2.71708V2.72839C6.46702 2.79768 5.71332 2.94899 4.98005 3.17666V3.16818C4.95825 3.17735 4.93773 3.1844 4.91803 3.19117C4.89217 3.20006 4.86774 3.20846 4.84376 3.2205C4.78515 3.23464 4.72791 3.25585 4.67339 3.28272C4.51256 3.33504 4.35173 3.39726 4.20045 3.4609C4.16024 3.47645 4.12003 3.49448 4.07983 3.51251C4.03962 3.53054 3.99941 3.54857 3.95921 3.56413C3.90401 3.59029 3.84643 3.61892 3.78884 3.64756L3.78884 3.64756C3.73125 3.6762 3.67367 3.70483 3.61847 3.73099L3.34588 3.88796C3.29548 3.91366 3.24882 3.94381 3.20122 3.97457L3.20122 3.97457C3.17287 3.99289 3.14419 4.01142 3.11418 4.02937C2.70393 4.2938 2.32367 4.60349 1.98021 4.9556L1.95976 4.97682C1.91466 5.02939 1.86975 5.08041 1.82545 5.13073L1.82542 5.13076C1.75058 5.21577 1.67747 5.29881 1.60812 5.38408L1.58768 5.40387C0.472792 6.94242 -0.0860158 8.83873 0.0107533 10.7605V11.37H2.21191V10.7548C2.21191 8.07653 3.06511 6.4093 4.9637 5.55518C5.68878 5.24832 6.45476 5.05883 7.23436 4.98954H7.25481V2.72698L7.22891 2.71708ZM27.0073 5.37559L27.0168 5.39539C28.1304 6.93534 28.6864 8.83307 28.5883 10.7548V11.37H26.3885V10.7393C26.4349 9.60517 26.2072 8.47671 25.7248 7.45715C25.2614 6.58465 24.5199 5.90729 23.6245 5.53962C22.9116 5.23276 22.1566 5.04186 21.3865 4.97398V2.72273C22.1484 2.79344 22.9021 2.94333 23.6367 3.171V3.15969C23.678 3.17842 23.7095 3.18956 23.7636 3.20867L23.773 3.21201C23.7981 3.22088 23.8215 3.22975 23.8447 3.23852C23.8768 3.25072 23.9085 3.26271 23.9434 3.27423C24.0941 3.32367 24.235 3.38195 24.38 3.44191L24.4054 3.45241C24.4724 3.47591 24.5354 3.50506 24.5922 3.53132C24.6106 3.53983 24.6283 3.54803 24.6453 3.55564C24.7652 3.60796 24.8879 3.67018 24.986 3.7225C25.0515 3.75646 25.1152 3.7928 25.175 3.82689C25.2073 3.84532 25.2385 3.86309 25.2682 3.87947C25.317 3.90644 25.3595 3.93529 25.4003 3.96303C25.4301 3.9833 25.4591 4.00297 25.489 4.02088C25.9006 4.28673 26.2849 4.59783 26.6325 4.94712L26.6447 4.96833C26.7729 5.09701 26.8942 5.23276 27.0073 5.37559Z" fill="#C1C1C1"/>
<path d="M21.4507 1.13912V6.14657C21.4507 6.77749 20.9387 7.28852 20.3066 7.28852C19.6746 7.28852 19.1626 6.77749 19.1626 6.14657V1.15054C19.1569 0.519614 19.666 0.00430925 20.2981 2.69425e-05C20.9301 -0.00425537 21.4464 0.502485 21.4507 1.13341V1.13912Z" fill="#C1C1C1"/>
<path d="M9.43791 1.15727V6.15234C9.43791 6.786 8.92535 7.29978 8.29319 7.29978C7.66104 7.29978 7.1499 6.786 7.1499 6.15234V1.15727C7.1499 0.523612 7.66104 0.011261 8.29319 0.011261C8.92535 0.011261 9.43791 0.523612 9.43791 1.15727Z" fill="#C1C1C1"/>
<path fill-rule="evenodd" clip-rule="evenodd" d="M0 23.6906V11.37H28.6001V23.6906C28.6001 29.0633 25.5996 31.7778 19.6532 31.7778H8.93326C3.00048 31.7778 0 29.0633 0 23.6906ZM6.4502 18.2195C6.4502 18.9649 7.03665 19.5697 7.7595 19.5697C8.49598 19.5697 9.08243 18.9508 9.0688 18.2054C9.0688 17.46 8.48234 16.8552 7.77313 16.8552H7.7595C7.03665 16.8552 6.4502 17.474 6.4502 18.2195ZM12.9829 18.2195C12.9829 18.9649 13.583 19.5697 14.3059 19.5697C15.0287 19.5697 15.6152 18.9649 15.6152 18.2054C15.6152 17.4741 15.0287 16.8693 14.3059 16.8552H14.2922C13.5694 16.8693 12.9829 17.4741 12.9829 18.2195ZM20.839 19.5697C20.1161 19.5697 19.5296 18.9649 19.5296 18.2195C19.5296 17.4741 20.1025 16.8693 20.839 16.8693C21.5618 16.8693 22.1483 17.4741 22.1483 18.2195C22.1483 18.9649 21.5618 19.5697 20.839 19.5697ZM20.8393 25.3362C20.1165 25.3362 19.53 24.7314 19.5164 23.986C19.5164 23.2406 20.1028 22.6358 20.8257 22.6358H20.8393C21.5622 22.6358 22.1486 23.2406 22.1486 23.986C22.1486 24.7314 21.5622 25.3362 20.8393 25.3362ZM14.3059 25.3362C13.583 25.3362 12.9829 24.7314 12.9829 23.986C12.9829 23.2406 13.5694 22.6358 14.2922 22.6217H14.3059C15.0287 22.6358 15.6015 23.2406 15.6152 23.9719C15.6152 24.7314 15.0287 25.3362 14.3059 25.3362ZM7.75968 25.3362C7.03684 25.3362 6.45038 24.7314 6.45038 23.986C6.43674 23.2406 7.0232 22.6217 7.75968 22.6217C8.48253 22.6217 9.06898 23.2265 9.06898 23.9719C9.06898 24.7174 8.48253 25.3362 7.75968 25.3362Z" fill="#C1C1C1"/>
</svg>
