<svg width="24" height="24" viewBox="0 0 24 24" fill="none" xmlns="http://www.w3.org/2000/svg">
<path d="M24 12C24 18.6274 18.6274 24 12 24C5.37258 24 0 18.6274 0 12C0 5.37258 5.37258 0 12 0C18.6274 0 24 5.37258 24 12Z" fill="white"/>
<path d="M20.4905 3.51049C15.8111 -1.17016 8.19473 -1.17016 3.51533 3.51049C1.24862 5.77871 0 8.79375 0 12.0003C0 15.2069 1.24862 18.222 3.51533 20.4893C5.8555 22.8301 8.92922 24 12.0029 24C15.0766 24 18.1503 22.8301 20.4904 20.4893C25.1698 15.8086 25.1698 8.19204 20.4905 3.51049ZM19.1758 19.1743C15.2207 23.1305 8.78508 23.1305 4.82996 19.1743C2.91472 17.2585 1.85946 14.7103 1.85946 12.0003C1.85946 9.29035 2.91472 6.74216 4.82996 4.82547C8.78508 0.869283 15.2207 0.87022 19.1758 4.82547C23.13 8.78166 23.13 15.219 19.1758 19.1743Z" fill="#E94057"/>
<path d="M16.0097 14.5708L13.3776 11.9418L16.0097 9.31272C16.3723 8.95004 16.3723 8.36136 16.0107 7.99769C15.6471 7.63314 15.0586 7.63407 14.6951 7.99675L12.0612 10.6277L9.42722 7.99675C9.0637 7.63407 8.47518 7.63314 8.11166 7.99769C7.74908 8.36131 7.74908 8.94999 8.1126 9.31272L10.7447 11.9418L8.1126 14.5708C7.74908 14.9335 7.74908 15.5222 8.11166 15.8859C8.29298 16.0681 8.5319 16.1583 8.76994 16.1583C9.00797 16.1583 9.24596 16.0672 9.42727 15.8868L12.0612 13.2558L14.6951 15.8868C14.8765 16.0681 15.1144 16.1583 15.3525 16.1583C15.5905 16.1583 15.8294 16.0672 16.0107 15.8859C16.3732 15.5222 16.3732 14.9335 16.0097 14.5708Z" fill="#E94057"/>
</svg>
