<svg width="27" height="39" viewBox="0 0 27 39" fill="none" xmlns="http://www.w3.org/2000/svg">
<path d="M13.0077 29.0631C12.6411 29.0631 12.298 28.8829 12.0898 28.5812L0.197121 11.3367C-0.0381318 10.9956 -0.064816 10.5522 0.127846 10.1853C0.320434 9.81853 0.700629 9.58878 1.11494 9.58878H24.9004C25.3147 9.58878 25.6948 9.81853 25.8875 10.1853C26.0801 10.5522 26.0534 10.9956 25.8182 11.3367L13.9255 28.5812C13.7173 28.8829 13.3742 29.0631 13.0077 29.0631ZM3.23816 11.8187L13.0076 25.9843L22.777 11.8187H3.23816Z" fill="white"/>
<path d="M13.0075 38.057C12.3918 38.057 11.8926 37.5578 11.8926 36.942V27.9481C11.8926 27.3323 12.3918 26.8331 13.0075 26.8331C13.6233 26.8331 14.1225 27.3323 14.1225 27.9481V36.942C14.1225 37.5578 13.6233 38.057 13.0075 38.057Z" fill="white"/>
<path d="M21.3326 38.0569H4.68281C4.06707 38.0569 3.56787 37.5577 3.56787 36.942C3.56787 36.3262 4.06707 35.827 4.68281 35.827H21.3326C21.9484 35.827 22.4476 36.3262 22.4476 36.942C22.4476 37.5577 21.9484 38.0569 21.3326 38.0569Z" fill="white"/>
<path d="M13.0069 21.333C12.8399 21.333 12.6704 21.2954 12.5107 21.2158C11.9595 20.9413 11.7352 20.272 12.0098 19.7208L21.524 0.618109C21.7984 0.0669564 22.4677 -0.15737 23.019 0.117203C23.5702 0.391702 23.7945 1.06111 23.5199 1.61227L14.0058 20.7149C13.8108 21.1064 13.4165 21.333 13.0069 21.333Z" fill="white"/>
<path d="M20.0305 18.8793C19.818 18.8793 19.6032 18.8187 19.4131 18.692L17.7414 17.5778C17.0333 17.1055 16.1184 17.1055 15.4106 17.5776C13.951 18.5507 12.0651 18.5507 10.6057 17.5777C9.8978 17.1057 8.98281 17.1057 8.2749 17.5777L6.60308 18.692C6.09065 19.0335 5.3985 18.895 5.05695 18.3826C4.71541 17.8703 4.85396 17.178 5.36631 16.8365L7.03798 15.7223C8.49722 14.7494 10.3833 14.7494 11.8426 15.7224C12.5506 16.1944 13.4655 16.1944 14.1735 15.7224C15.6329 14.7492 17.519 14.7492 18.9784 15.7224L20.6499 16.8365C21.1623 17.178 21.3008 17.8702 20.9592 18.3826C20.7445 18.7049 20.3908 18.8793 20.0305 18.8793Z" fill="white"/>
</svg>
