<svg width="29" height="29" viewBox="0 0 29 29" fill="none" xmlns="http://www.w3.org/2000/svg">
<g clip-path="url(#clip0_277_63)">
<path d="M20.0019 28.7337L16.4202 27.4884C15.7293 27.2482 15.2663 26.597 15.2663 25.8655V14.5859H13.7325V25.8655C13.7325 26.597 13.2694 27.2482 12.5786 27.4884L8.99704 28.7337C8.85776 28.7924 8.89968 29 9.05085 29H19.9481C20.0992 29 20.1412 28.7924 20.0019 28.7337Z" fill="#E5F9F6"/>
<path d="M13.2403 14.8848L2.55085 3.12487C2.29387 2.84212 2.49444 2.38866 2.87653 2.38866H26.1222C26.5043 2.38866 26.705 2.84212 26.4479 3.12487L15.7584 14.8848C15.0833 15.6274 13.9154 15.6274 13.2403 14.8848Z" fill="#E5F9F6"/>
<path d="M26.124 2.3887H23.3899L12.6367 14.2187L13.2422 14.8847C13.9173 15.6274 15.0851 15.6274 15.7602 14.8847L26.4498 3.12486C26.7068 2.84217 26.5061 2.3887 26.124 2.3887Z" fill="#D6E5E2"/>
<path d="M5.33398 6.1868L13.2403 14.8847C13.9153 15.6274 15.0832 15.6274 15.7583 14.8848L23.6646 6.1868C23.6646 6.1868 5.33398 6.1868 5.33398 6.1868Z" fill="#CDEAE0"/>
<path d="M14.0308 15.3753C14.0449 15.3793 14.0589 15.3837 14.073 15.3873C14.1129 15.3976 14.1531 15.406 14.1934 15.4133C14.2383 15.4215 14.2834 15.4285 14.3286 15.433C14.3764 15.4379 14.4242 15.4402 14.4722 15.441C14.4818 15.4412 14.4915 15.4418 14.5012 15.4418C14.547 15.4418 14.5927 15.4394 14.6384 15.4358C14.6502 15.4348 14.662 15.4343 14.6737 15.4331C15.0752 15.3925 15.4648 15.2098 15.7602 14.8849L23.6665 6.18686H19.9376L12.6367 14.2187L13.2422 14.8847C13.2606 14.905 13.2795 14.9244 13.2986 14.9436C13.3014 14.9463 13.3041 14.9494 13.3068 14.9522C13.5051 15.148 13.7399 15.285 13.9893 15.3634C14.0031 15.3677 14.0169 15.3713 14.0308 15.3753Z" fill="#B6D1C6"/>
<path d="M13.1793 11.8875C13.0728 11.8875 12.9661 11.8483 12.8826 11.7692C12.7098 11.6053 12.7024 11.3322 12.8664 11.1594L23.3191 0.13456C23.483 -0.0383637 23.756 -0.045557 23.9288 0.118304C24.1017 0.282222 24.109 0.555287 23.9451 0.728154L13.4925 11.753C13.4076 11.8424 13.2936 11.8875 13.1793 11.8875Z" fill="#772424"/>
<path d="M16.0885 8.38663C15.3795 7.71451 14.3205 7.68041 13.7232 8.31048C13.1259 8.94055 13.2163 9.99619 13.9253 10.6683C14.6343 11.3404 15.6932 11.3745 16.2906 10.7445C16.8879 10.1144 16.7974 9.05876 16.0885 8.38663Z" fill="#60A83F"/>
<path d="M18.2506 6.10475C17.5416 5.43263 16.4826 5.39853 15.8853 6.02861C15.288 6.65868 15.3785 7.71432 16.0874 8.38644C16.7964 9.05857 17.8553 9.09267 18.4527 8.46259C19.05 7.83252 18.9595 6.77688 18.2506 6.10475Z" fill="#7DC959"/>
<path d="M20.4146 3.82264C19.7057 3.15051 18.6467 3.11642 18.0494 3.74649C17.452 4.37656 17.5425 5.4322 18.2515 6.10432C18.9604 6.77645 20.0194 6.81055 20.6167 6.18048C21.2141 5.5504 21.1236 4.49476 20.4146 3.82264Z" fill="#7DC959"/>
<path d="M16.0887 8.38673C16.7976 9.05877 17.8564 9.09281 18.4538 8.46274C19.0275 7.85765 18.9665 6.8602 18.3329 6.18686H15.7582C15.3083 6.82435 15.4361 7.76798 16.0887 8.38673Z" fill="#60A83F"/>
<path d="M20.002 28.7337L16.4204 27.4884C16.3278 27.4563 16.2396 27.4161 16.1557 27.3699C15.2977 27.2328 13.7013 27.2328 12.8432 27.3699C12.7593 27.4161 12.6712 27.4562 12.5786 27.4884L8.99704 28.7337C8.85776 28.7924 8.89968 29 9.05085 29H19.9481C20.0993 29 20.1413 28.7924 20.002 28.7337Z" fill="#D6E5E2"/>
</g>
<defs>
<clipPath id="clip0_277_63">
<rect width="29" height="29" fill="white"/>
</clipPath>
</defs>
</svg>
