<svg width="191" height="75" viewBox="0 0 191 75" fill="none" xmlns="http://www.w3.org/2000/svg">
<rect x="85" y="45.1699" width="85.6414" height="29.6451" transform="rotate(-6.14663 85 45.1699)" fill="#E94057"/>
<path d="M9.61778 27.336C13.5778 27.336 16.7458 24.624 17.5378 20.544H14.4418C13.7938 22.896 11.8738 24.456 9.61778 24.456C6.40178 24.456 4.26578 22.176 4.26578 18.768C4.26578 15.36 6.40178 13.08 9.61778 13.08C11.6338 13.08 13.5058 14.496 14.2978 16.608H17.4658C16.5058 12.768 13.3618 10.2 9.61778 10.2C4.48178 10.2 1.04978 13.632 1.04978 18.768C1.04978 23.904 4.48178 27.336 9.61778 27.336ZM25.296 27.336C29.208 27.336 31.8 24.792 31.8 21C31.8 17.208 29.208 14.664 25.296 14.664C21.384 14.664 18.792 17.208 18.792 21C18.792 24.792 21.384 27.336 25.296 27.336ZM25.296 24.792C23.112 24.792 21.672 23.28 21.672 21C21.672 18.72 23.112 17.208 25.296 17.208C27.48 17.208 28.92 18.72 28.92 21C28.92 23.28 27.48 24.792 25.296 24.792ZM33.2876 27H36.1676V19.872C36.1676 18.264 37.3436 17.208 39.0956 17.208C40.8476 17.208 42.0236 18.264 42.0236 19.872V27H44.9036V19.536C44.9036 16.608 42.7196 14.664 39.4316 14.664C38.2556 14.664 36.9596 15.144 36.1676 15.888V15H33.2876V27ZM52.455 31.8C56.487 31.8 58.743 29.592 58.743 25.68V15H55.863V16.176C54.975 15.264 53.511 14.664 52.191 14.664C48.567 14.664 46.167 17.136 46.167 20.832C46.167 24.528 48.567 27 52.191 27C53.511 27 54.975 26.4 55.863 25.488V25.68C55.863 27.96 54.639 29.256 52.455 29.256C50.847 29.256 49.551 28.344 49.191 27H46.311C46.719 29.88 49.167 31.8 52.455 31.8ZM52.479 24.456C50.415 24.456 49.047 23.016 49.047 20.832C49.047 18.648 50.415 17.208 52.479 17.208C54.519 17.208 55.863 18.648 55.863 20.832C55.863 23.016 54.519 24.456 52.479 24.456ZM60.9438 27H63.8238V19.896C63.8238 18.288 65.0958 17.208 67.0158 17.208H67.9998V15C67.6638 14.856 67.1598 14.76 66.7278 14.76C65.6238 14.76 64.4478 15.432 63.8238 16.416V15H60.9438V27ZM74.3445 27.336C75.7605 27.336 77.3205 26.688 78.2325 25.704V27H81.1125V15H78.2325V16.296C77.3205 15.312 75.7605 14.664 74.3445 14.664C70.6005 14.664 68.1045 17.208 68.1045 21C68.1045 24.792 70.6005 27.336 74.3445 27.336ZM74.6325 24.792C72.4485 24.792 70.9845 23.28 70.9845 21C70.9845 18.72 72.4485 17.208 74.6325 17.208C76.7925 17.208 78.2325 18.72 78.2325 21C78.2325 23.28 76.7925 24.792 74.6325 24.792ZM88.3299 27.336C89.1219 27.336 89.9379 27.192 90.3699 27V24.936H88.2819C87.6579 24.936 87.2259 24.528 87.2259 23.928V17.4H90.2499V15H87.2259V10.536H84.3459V15H82.4259V17.4H84.3459V23.928C84.3459 25.968 85.9299 27.336 88.3299 27.336ZM103.755 15H100.875V22.128C100.875 23.736 99.6992 24.792 97.9472 24.792C96.1952 24.792 95.0192 23.736 95.0192 22.128V15H92.1392V22.464C92.1392 25.392 94.3232 27.336 97.6112 27.336C98.7872 27.336 100.083 26.856 100.875 26.112V27H103.755V15ZM105.967 27H108.847V10.536H105.967V27ZM116.813 27.336C118.229 27.336 119.789 26.688 120.701 25.704V27H123.581V15H120.701V16.296C119.789 15.312 118.229 14.664 116.813 14.664C113.069 14.664 110.573 17.208 110.573 21C110.573 24.792 113.069 27.336 116.813 27.336ZM117.101 24.792C114.917 24.792 113.453 23.28 113.453 21C113.453 18.72 114.917 17.208 117.101 17.208C119.261 17.208 120.701 18.72 120.701 21C120.701 23.28 119.261 24.792 117.101 24.792ZM130.799 27.336C131.591 27.336 132.407 27.192 132.839 27V24.936H130.751C130.127 24.936 129.695 24.528 129.695 23.928V17.4H132.719V15H129.695V10.536H126.815V15H124.895V17.4H126.815V23.928C126.815 25.968 128.399 27.336 130.799 27.336ZM135.077 13.176H137.957V10.536H135.077V13.176ZM135.077 27H137.957V15H135.077V27ZM146.187 27.336C150.099 27.336 152.691 24.792 152.691 21C152.691 17.208 150.099 14.664 146.187 14.664C142.275 14.664 139.683 17.208 139.683 21C139.683 24.792 142.275 27.336 146.187 27.336ZM146.187 24.792C144.003 24.792 142.563 23.28 142.563 21C142.563 18.72 144.003 17.208 146.187 17.208C148.371 17.208 149.811 18.72 149.811 21C149.811 23.28 148.371 24.792 146.187 24.792ZM154.178 27H157.058V19.872C157.058 18.264 158.234 17.208 159.986 17.208C161.738 17.208 162.914 18.264 162.914 19.872V27H165.794V19.536C165.794 16.608 163.61 14.664 160.322 14.664C159.146 14.664 157.85 15.144 157.058 15.888V15H154.178V27ZM172.86 27.336C176.196 27.336 178.428 25.752 178.428 23.376C178.428 21.192 177.156 20.28 173.148 19.44C171.444 19.056 170.892 18.744 170.892 18.24C170.892 17.544 171.684 17.064 172.86 17.064C173.916 17.064 174.876 17.616 175.236 18.432L177.876 17.784C177.18 15.912 175.164 14.664 172.86 14.664C169.956 14.664 168.012 16.152 168.012 18.384C168.012 20.376 169.116 21.168 172.596 21.96C174.828 22.392 175.548 22.8 175.548 23.376C175.548 24.312 174.468 24.936 172.86 24.936C171.252 24.936 170.1 24.12 170.004 22.92H167.292C167.388 25.56 169.62 27.336 172.86 27.336ZM180.651 21.336H183.195L183.699 10.536H180.147L180.651 21.336ZM180.147 27H183.699V23.448H180.147V27ZM186.417 21.336H188.961L189.465 10.536H185.913L186.417 21.336ZM185.913 27H189.465V23.448H185.913V27ZM27.06 62H30.276V45.536H27.06V62ZM38.0565 62.336C38.8485 62.336 39.6645 62.192 40.0965 62V59.936H38.0085C37.3845 59.936 36.9525 59.528 36.9525 58.928V52.4H39.9765V50H36.9525V45.536H34.0725V50H32.1525V52.4H34.0725V58.928C34.0725 60.968 35.6565 62.336 38.0565 62.336ZM41.6313 52.664C43.7673 52.664 45.1833 51.224 45.1833 49.088V45.536H41.6313V49.088H42.8793C42.8793 49.832 42.3753 50.336 41.6313 50.336V52.664ZM50.3287 62.336C53.6647 62.336 55.8967 60.752 55.8967 58.376C55.8967 56.192 54.6247 55.28 50.6167 54.44C48.9127 54.056 48.3607 53.744 48.3607 53.24C48.3607 52.544 49.1527 52.064 50.3287 52.064C51.3847 52.064 52.3447 52.616 52.7047 53.432L55.3447 52.784C54.6487 50.912 52.6327 49.664 50.3287 49.664C47.4247 49.664 45.4807 51.152 45.4807 53.384C45.4807 55.376 46.5847 56.168 50.0647 56.96C52.2967 57.392 53.0167 57.8 53.0167 58.376C53.0167 59.312 51.9367 59.936 50.3287 59.936C48.7207 59.936 47.5687 59.12 47.4727 57.92H44.7607C44.8567 60.56 47.0887 62.336 50.3287 62.336ZM68.907 62.336C70.323 62.336 71.883 61.688 72.795 60.704V62H75.675V50H72.795V51.296C71.883 50.312 70.323 49.664 68.907 49.664C65.163 49.664 62.667 52.208 62.667 56C62.667 59.792 65.163 62.336 68.907 62.336ZM69.195 59.792C67.011 59.792 65.547 58.28 65.547 56C65.547 53.72 67.011 52.208 69.195 52.208C71.355 52.208 72.795 53.72 72.795 56C72.795 58.28 71.355 59.792 69.195 59.792Z" fill="black"/>
<path d="M95.8892 62H98.7692V53.912C98.7692 52.88 99.6332 52.208 100.953 52.208C102.273 52.208 103.137 52.88 103.137 53.912V62H106.017V53.912C106.017 52.88 106.881 52.208 108.201 52.208C109.521 52.208 110.385 52.88 110.385 53.912V62H113.265V53.624C113.265 51.248 111.345 49.664 108.489 49.664C107.169 49.664 105.729 50.24 104.889 51.104C104.073 50.24 102.801 49.664 101.697 49.664C100.545 49.664 99.4892 50.168 98.7692 51.08V50H95.8892V62ZM121.243 62.336C122.659 62.336 124.219 61.688 125.131 60.704V62H128.011V50H125.131V51.296C124.219 50.312 122.659 49.664 121.243 49.664C117.499 49.664 115.003 52.208 115.003 56C115.003 59.792 117.499 62.336 121.243 62.336ZM121.531 59.792C119.347 59.792 117.883 58.28 117.883 56C117.883 53.72 119.347 52.208 121.531 52.208C123.691 52.208 125.131 53.72 125.131 56C125.131 58.28 123.691 59.792 121.531 59.792ZM135.228 62.336C136.02 62.336 136.836 62.192 137.268 62V59.936H135.18C134.556 59.936 134.124 59.528 134.124 58.928V52.4H137.148V50H134.124V45.536H131.244V50H129.324V52.4H131.244V58.928C131.244 60.968 132.828 62.336 135.228 62.336ZM144.593 62.336C147.857 62.336 150.377 60.248 150.881 57.128H148.121C147.761 58.736 146.345 59.792 144.593 59.792C142.409 59.792 140.969 58.28 140.969 56C140.969 53.72 142.409 52.208 144.593 52.208C146.321 52.208 147.713 53.216 148.097 54.752H150.857C150.329 51.704 147.833 49.664 144.593 49.664C140.681 49.664 138.089 52.208 138.089 56C138.089 59.792 140.681 62.336 144.593 62.336ZM152.608 62H155.488V54.872C155.488 53.264 156.664 52.208 158.416 52.208C160.168 52.208 161.344 53.264 161.344 54.872V62H164.224V54.536C164.224 51.608 162.04 49.664 158.752 49.664C157.576 49.664 156.28 50.144 155.488 50.888V45.536H152.608V62Z" fill="white"/>
</svg>
