<svg width="55" height="62" viewBox="0 0 55 62" fill="none" xmlns="http://www.w3.org/2000/svg">
<path d="M47.2086 0H12.3262C8.25052 0.00184524 4.94662 3.30528 4.94524 7.38095V10.5695H1.47619C0.660595 10.5695 0 11.2306 0 12.0457C0 12.8608 0.660595 13.5219 1.47619 13.5219H4.93001V23.2057H1.47619C0.660595 23.2057 0 23.8663 0 24.6819C0 25.497 0.660595 26.1581 1.47619 26.1581H4.93001V35.8419H1.47619C0.660595 35.8419 0 36.503 0 37.3181C0 38.1337 0.660595 38.7943 1.47619 38.7943H4.93001V48.4781H1.47619C0.660595 48.4781 0 49.1392 0 49.9543C0 50.7694 0.660595 51.4305 1.47619 51.4305H4.93001V54.619C4.93186 58.6947 8.2353 61.9982 12.311 62H47.1933C51.269 61.9982 54.5734 58.6947 54.5743 54.619V7.38095C54.5803 3.30805 51.2815 0.00276786 47.2086 0ZM51.6371 54.619C51.6298 57.0617 49.6512 59.0407 47.2086 59.0476H12.3262C9.88356 59.0407 7.90454 57.0617 7.89762 54.619V51.4305H11.3514C12.167 51.4305 12.8276 50.7694 12.8276 49.9543C12.8276 49.1392 12.167 48.4781 11.3514 48.4781H7.89762V38.7943H11.3514C12.167 38.7943 12.8276 38.1337 12.8276 37.3181C12.8276 36.503 12.167 35.8419 11.3514 35.8419H7.89762V26.1581H11.3514C12.167 26.1581 12.8276 25.497 12.8276 24.6819C12.8276 23.8663 12.167 23.2057 11.3514 23.2057H7.89762V13.5219H11.3514C12.167 13.5219 12.8276 12.8608 12.8276 12.0457C12.8276 11.2306 12.167 10.5695 11.3514 10.5695H7.89762V7.38095C7.90454 4.93832 9.88356 2.9593 12.3262 2.95238H47.2086C49.6512 2.9593 51.6298 4.93832 51.6371 7.38095V54.619Z" fill="#E94057"/>
<path d="M29.7601 30.5719C33.714 30.5719 36.9196 27.3667 36.9196 23.4124C36.9196 19.458 33.714 16.2529 29.7601 16.2529C25.8058 16.2529 22.6006 19.458 22.6006 23.4124C22.6043 27.3649 25.8071 30.5682 29.7601 30.5719ZM29.7601 19.1905C32.0833 19.1905 33.9673 21.0745 33.9673 23.3976C33.9673 25.7208 32.0833 27.6048 29.7601 27.6048C27.4365 27.6048 25.553 25.7208 25.553 23.3976C25.5571 21.0763 27.4379 19.1946 29.7601 19.1905Z" fill="#E94057"/>
<path d="M29.7595 32.9486C23.6185 32.9486 18.8057 37.9233 18.8057 44.2857C18.808 45.0999 19.4676 45.7596 20.2819 45.7619H39.2366C40.0508 45.7596 40.7105 45.0999 40.7128 44.2857C40.7128 37.9233 35.9 32.9486 29.7595 32.9486ZM21.8761 42.8095C22.5114 38.7795 25.6852 35.901 29.7595 35.901C33.8333 35.901 37.0223 38.7795 37.6423 42.8095H21.8761Z" fill="#E94057"/>
</svg>
