<svg width="6" height="6" viewBox="0 0 6 6" fill="none" xmlns="http://www.w3.org/2000/svg">
<path d="M5.67314 4.71393L3.91841 2.96122L5.67314 1.20851C5.91487 0.966721 5.91487 0.574268 5.67377 0.331825C5.43142 0.0887886 5.03907 0.0894136 4.79673 0.3312L3.04077 2.08516L1.28482 0.3312C1.04247 0.0894136 0.650122 0.0887886 0.407776 0.331825C0.166054 0.574237 0.166054 0.96669 0.4084 1.20851L2.16314 2.96122L0.4084 4.71393C0.166054 4.95571 0.166054 5.34817 0.407776 5.59061C0.528652 5.71211 0.687935 5.77225 0.846624 5.77225C1.00531 5.77225 1.16397 5.71149 1.28485 5.5912L3.0408 3.83724L4.79676 5.5912C4.91764 5.71211 5.07629 5.77225 5.23498 5.77225C5.39367 5.77225 5.55295 5.71149 5.67383 5.59061C5.91549 5.34817 5.91549 4.95571 5.67314 4.71393Z" fill="#E94057"/>
</svg>
