<svg width="38" height="38" viewBox="0 0 38 38" fill="none" xmlns="http://www.w3.org/2000/svg">
<path d="M18.8305 6.5255C18.4206 6.5255 18.0884 6.19326 18.0884 5.78341V0.742091C18.0884 0.332234 18.4206 0 18.8305 0C19.2403 0 19.5726 0.332234 19.5726 0.742091V5.78341C19.5726 6.19319 19.2403 6.5255 18.8305 6.5255Z" fill="white"/>
<path d="M20.8792 3.63558H16.7825C16.1071 3.63558 15.5596 4.1831 15.5596 4.85847V6.75399C15.5596 7.42937 16.1071 7.97688 16.7825 7.97688H20.8792C21.5546 7.97688 22.1021 7.42937 22.1021 6.75399V4.85855C22.1021 4.1831 21.5546 3.63558 20.8792 3.63558Z" fill="white"/>
<path d="M28.2395 28.5869C33.4382 23.3881 33.4382 14.9593 28.2395 9.76055C23.0407 4.56181 14.6119 4.56181 9.41315 9.76055C4.21441 14.9593 4.21441 23.3881 9.41315 28.5869C14.6119 33.7856 23.0407 33.7856 28.2395 28.5869Z" fill="#EBEBEB"/>
<path d="M18.8303 5.85969C18.3446 5.85969 17.8651 5.8864 17.3928 5.93716C22.6392 6.57024 26.705 11.0371 26.705 16.4541C26.705 22.3053 21.9617 27.0486 16.1106 27.0486C10.6935 27.0486 6.22659 22.9828 5.59359 17.7364C5.5429 18.2087 5.51611 18.6881 5.51611 19.1739C5.51611 26.5272 11.4771 32.4881 18.8303 32.4881C26.1836 32.4881 32.1446 26.5271 32.1446 19.1739C32.1446 11.8207 26.1836 5.85969 18.8303 5.85969Z" fill="#E3E3E3"/>
<path d="M32.1437 19.1717C32.1426 11.8195 26.1821 5.85969 18.8295 5.85969C18.8085 5.85969 18.7876 5.86036 18.7666 5.8605V19.1717H32.1437Z" fill="white"/>
<path d="M32.1437 19.1717C32.1426 11.8195 26.1821 5.85969 18.8295 5.85969C18.8085 5.85969 18.7876 5.86036 18.7666 5.8605V19.1717H32.1437Z" fill="white"/>
<path d="M18.844 19.1718H5.51611V19.1739C5.51611 26.5271 11.4771 32.4881 18.8303 32.4881C18.8349 32.4881 18.8394 32.488 18.844 32.488V19.1718Z" fill="white"/>
<path d="M18.7685 5.85999C17.2291 5.87617 15.6751 6.58338 14.2949 8.04486C13.2611 9.13959 12.4322 10.5444 11.8232 12.1315C13.9931 11.3159 16.4064 10.9237 18.7956 10.9211L18.7685 5.85999Z" fill="white"/>
<path d="M11.8236 12.1316C11.7057 12.1765 11.5882 12.2222 11.4717 12.2696C7.5246 13.8766 5.41313 16.5535 5.47955 19.2674L10.6022 19.2313C10.5926 16.7392 11.0125 14.2715 11.8236 12.1316Z" fill="white"/>
<path d="M18.7954 10.9063C16.4062 10.9089 13.9929 11.3059 11.8231 12.1315C11.012 14.2715 10.592 16.7392 10.6017 19.2312L18.839 19.1732L18.7954 10.9063Z" fill="#EBEBEB"/>
<path d="M11.8271 26.1427C11.872 26.2605 11.9173 26.3781 11.9647 26.4944C13.5611 30.4156 16.2134 32.5247 18.9089 32.4872L18.8819 27.3639C16.4052 27.3685 13.9544 26.9489 11.8271 26.1427Z" fill="#EBEBEB"/>
<path d="M18.8818 27.3639C17.4417 27.3666 16.0109 27.2249 14.6468 26.9481C13.6574 26.8114 12.7116 26.5384 11.8291 26.148C11.8733 26.264 11.9179 26.3798 11.9645 26.4944C13.561 30.4155 16.2133 32.5247 18.9088 32.4871L18.8818 27.3639Z" fill="#E3E3E3"/>
<path d="M32.1824 19.0793C32.1678 17.5379 31.4522 15.9815 29.9707 14.5994C28.8625 13.5656 27.4402 12.7367 25.8335 12.1279C26.6609 14.3024 27.0583 16.7212 27.0592 19.1154L32.1824 19.0793Z" fill="#E3E3E3"/>
<path d="M25.6962 11.7802C24.103 7.91446 21.4583 5.83171 18.7686 5.85999L18.7956 10.9211C21.2667 10.9185 23.7113 11.3333 25.8338 12.1279C25.789 12.0115 25.7436 11.8952 25.6962 11.7802Z" fill="#EBEBEB"/>
<path d="M18.9093 32.4871C20.4432 32.4657 21.9912 31.7496 23.3663 30.2755C24.4002 29.1673 25.2293 27.7449 25.8382 26.1381C23.6733 26.9618 21.2663 27.3595 18.8823 27.3638L18.9093 32.4871Z" fill="white"/>
<path d="M18.9093 32.4871C20.4432 32.4657 21.9912 31.7496 23.3663 30.2755C24.4002 29.1673 25.2293 27.7449 25.8382 26.1381C23.6733 26.9618 21.2663 27.3595 18.8823 27.3638L18.9093 32.4871Z" fill="white"/>
<path d="M25.8341 12.1279C23.7117 11.3236 21.2671 10.9037 18.7959 10.9064L18.81 13.5846L18.8395 19.1732L27.0597 19.1154C27.0589 16.7212 26.6615 14.3024 25.8341 12.1279Z" fill="white"/>
<path d="M25.8338 12.1279C26.4318 13.4546 26.7051 14.9044 26.7051 16.4542C26.7051 17.375 26.5874 18.2684 26.3667 19.1203L27.0596 19.1154C27.0587 16.7212 26.6612 14.3024 25.8338 12.1279C25.8537 12.1353 25.814 12.1204 25.8338 12.1279Z" fill="white"/>
<path d="M27.0591 19.1154C27.06 21.5813 26.6406 24.0201 25.8379 26.1381C25.9557 26.0933 26.0732 26.048 26.1896 26.0006C30.0996 24.4087 32.2077 21.7668 32.1824 19.0792L27.0591 19.1154Z" fill="white"/>
<path d="M27.0587 19.1153L18.8384 19.1732L18.8816 27.3639C21.2655 27.3595 23.6726 26.9619 25.8375 26.1382C26.6401 24.0201 27.0596 21.5812 27.0587 19.1153Z" fill="#EBEBEB"/>
<path d="M18.8789 26.6825L18.8825 27.3639C21.2664 27.3596 23.6735 26.9619 25.8384 26.1382C26.6411 24.0202 27.0605 21.5813 27.0596 19.1154L26.3667 19.1203C25.4142 22.7948 22.539 25.6943 18.8789 26.6825Z" fill="#E3E3E3"/>
<path d="M5.479 19.2673C5.51611 20.7837 6.23304 22.3116 7.68999 23.6708C8.79823 24.7047 10.2205 25.5337 11.8273 26.1427C11.0086 23.9913 10.6109 21.6006 10.6017 19.2313L5.479 19.2673Z" fill="#EBEBEB"/>
<path d="M10.6016 19.2312C10.6108 21.6006 11.0086 23.9912 11.8272 26.1426C13.9543 26.9488 16.4052 27.3684 18.882 27.3638L18.8388 19.1732L10.6016 19.2312Z" fill="white"/>
<path d="M18.8789 26.6824C17.9964 26.9207 17.0685 27.0486 16.1107 27.0486C15.6142 27.0486 15.1258 27.0141 14.6475 26.948C16.0115 27.2248 17.4423 27.3666 18.8824 27.3639L18.8789 26.6824Z" fill="white"/>
<path d="M12.9954 23.2723C12.6229 23.2723 12.3019 22.9926 12.2589 22.6137C12.2141 22.2185 12.1785 21.8175 12.1534 21.4219C12.1274 21.0129 12.4378 20.6602 12.8469 20.6343C13.2552 20.6081 13.6086 20.9187 13.6346 21.3278C13.6582 21.699 13.6915 22.0754 13.7336 22.4465C13.7798 22.8537 13.4871 23.2213 13.0799 23.2675C13.0515 23.2706 13.0233 23.2723 12.9954 23.2723Z" fill="white"/>
<path d="M13.0248 16.9639C12.9993 16.9639 12.9737 16.9626 12.9478 16.9599C12.5401 16.9179 12.2437 16.5533 12.2857 16.1457C12.3635 15.391 12.4678 14.5978 12.5958 13.7883C12.6597 13.3835 13.0398 13.1075 13.4446 13.1712C13.8494 13.2352 14.1257 13.6153 14.0617 14.0201C13.9379 14.8032 13.8371 15.5695 13.7621 16.2977C13.7227 16.6797 13.4004 16.9639 13.0248 16.9639Z" fill="white"/>
<path d="M4.43014 30.1187L5.0397 31.8328C5.06582 31.9062 5.11747 31.9644 5.1827 31.9937L6.70554 32.6798C6.92067 32.7767 6.92067 33.1196 6.70554 33.2165L5.1827 33.9026C5.11747 33.932 5.06582 33.9901 5.0397 34.0635L4.43014 35.7776C4.34406 36.0198 4.03943 36.0198 3.95335 35.7776L3.3438 34.0635C3.31767 33.9901 3.26602 33.932 3.20079 33.9026L1.67795 33.2165C1.46282 33.1196 1.46282 32.7767 1.67795 32.6798L3.20079 31.9937C3.26602 31.9643 3.31767 31.9061 3.3438 31.8328L3.95335 30.1187C4.03943 29.8766 4.34399 29.8766 4.43014 30.1187Z" fill="white"/>
<path d="M33.6865 4.5637L34.296 6.27778C34.3222 6.35118 34.3738 6.40936 34.439 6.43874L35.9619 7.12488C36.177 7.2218 36.177 7.56464 35.9619 7.66156L34.439 8.3477C34.3738 8.37709 34.3222 8.43527 34.296 8.50858L33.6865 10.2227C33.6003 10.4648 33.2958 10.4648 33.2097 10.2227L32.6001 8.50858C32.574 8.43519 32.5224 8.37701 32.4571 8.3477L30.9343 7.66156C30.7192 7.56464 30.7192 7.22187 30.9343 7.12488L32.4571 6.43874C32.5224 6.40936 32.574 6.35118 32.6001 6.27778L33.2097 4.5637C33.2959 4.32156 33.6004 4.32156 33.6865 4.5637Z" fill="white"/>
<path d="M32.1475 30.0892L32.5997 31.3607C32.6191 31.4151 32.6574 31.4582 32.7057 31.4801L33.8353 31.989C33.995 32.0609 33.995 32.3151 33.8353 32.387L32.7057 32.896C32.6574 32.9178 32.6191 32.9609 32.5997 33.0154L32.1475 34.2868C32.0836 34.4665 31.8578 34.4665 31.7939 34.2868L31.3417 33.0154C31.3223 32.9609 31.284 32.9178 31.2357 32.896L30.106 32.387C29.9464 32.3151 29.9464 32.0609 30.106 31.989L31.2357 31.4801C31.284 31.4582 31.3223 31.4151 31.3417 31.3607L31.7939 30.0892C31.8578 29.9097 32.0836 29.9097 32.1475 30.0892Z" fill="white"/>
<path d="M37.4331 25.9058C37.6021 25.1905 37.1594 24.4736 36.4441 24.3045C35.7288 24.1354 35.0119 24.5782 34.8428 25.2935C34.6737 26.0088 35.1165 26.7257 35.8318 26.8948C36.5471 27.0639 37.264 26.6211 37.4331 25.9058Z" fill="white"/>
<path d="M4.84882 9.69385C5.01937 8.97856 4.57777 8.26045 3.86248 8.08989C3.14719 7.91934 2.42907 8.36094 2.25852 9.07623C2.08797 9.79152 2.52956 10.5096 3.24486 10.6802C3.96015 10.8507 4.67826 10.4091 4.84882 9.69385Z" fill="white"/>
<path d="M3.02728 28.6304C3.34438 28.6304 3.60144 28.3733 3.60144 28.0562C3.60144 27.7391 3.34438 27.4821 3.02728 27.4821C2.71018 27.4821 2.45312 27.7391 2.45312 28.0562C2.45312 28.3733 2.71018 28.6304 3.02728 28.6304Z" fill="white"/>
<path d="M26.2773 34.8452C26.5944 34.8452 26.8514 34.5882 26.8514 34.2711C26.8514 33.954 26.5944 33.6969 26.2773 33.6969C25.9602 33.6969 25.7031 33.954 25.7031 34.2711C25.7031 34.5882 25.9602 34.8452 26.2773 34.8452Z" fill="white"/>
</svg>
