<svg width="72" height="72" viewBox="0 0 72 72" fill="none" xmlns="http://www.w3.org/2000/svg">
<path d="M36 71C55.33 71 71 55.33 71 36C71 16.67 55.33 1 36 1C16.67 1 1 16.67 1 36C1 55.33 16.67 71 36 71Z" fill="white" stroke="#E20000"/>
<path d="M43.191 19.7837L42.9562 33.1948C42.9166 34.1447 42.6551 35.0722 42.1925 35.9029C41.7299 36.7336 41.0791 37.4443 40.2923 37.9782C40.1515 39.1287 39.9976 40.247 39.839 41.2802C39.659 42.4672 39.4696 43.5296 39.2905 44.4042C39.3705 44.4707 39.4423 44.5465 39.5042 44.6301C39.5954 44.751 39.6613 44.8891 39.698 45.0361C39.7346 45.1831 39.7412 45.3359 39.7175 45.4855L39.6905 47.0468C39.7091 47.1943 39.6979 47.344 39.6575 47.4871C39.6171 47.6301 39.5483 47.7636 39.4552 47.8795C39.3258 48.04 39.1617 48.1689 38.9752 48.2567C38.7887 48.3446 38.5847 48.3889 38.3786 48.3865L34.6039 48.3226C34.2624 48.3165 33.9374 48.175 33.7001 47.9294C33.4628 47.6838 33.3326 47.3541 33.3382 47.0126L33.3673 45.3074C33.3707 45.1206 33.4141 44.9367 33.4947 44.7682C33.5753 44.5997 33.6911 44.4504 33.8344 44.3306C33.7407 43.7816 33.6467 43.1553 33.5552 42.4726L33.5516 42.4582C33.3691 41.0951 33.1951 39.5015 33.0519 37.8532C32.2829 37.2919 31.6563 36.558 31.2224 35.7106C30.7885 34.8631 30.5595 33.9257 30.5536 32.9737L30.792 19.5668C30.7989 19.2479 30.8737 18.9342 31.0114 18.6465C31.1491 18.3587 31.3465 18.1037 31.5905 17.8982C31.8964 17.6341 32.2603 17.4459 32.6528 17.3491C32.8815 17.2922 33.1168 17.2656 33.3525 17.2698L40.7106 17.3984C41.3555 17.4056 41.975 17.6512 42.4497 18.0879C42.6868 18.3015 42.8756 18.5633 43.0034 18.8558C43.1312 19.1482 43.1952 19.4646 43.191 19.7837ZM34.9873 45.4733L34.9539 45.4816L34.9157 45.4912L34.8762 45.501L34.853 46.8024L38.1762 46.8622L38.1994 45.5607L38.1827 45.5547L38.1648 45.5491L38.117 45.5305L38.097 45.5215L38.0531 45.4982L38.0355 45.4887C38.0164 45.4782 37.9982 45.4662 37.9809 45.4528L37.9606 45.4375L37.9275 45.4115L37.906 45.3915L37.8776 45.3643L37.8585 45.3437L37.8314 45.3111L37.8152 45.3025C37.8036 45.2863 37.7917 45.269 37.78 45.2529C37.7675 45.2331 37.7562 45.2131 37.7457 45.1916L37.7434 45.1821C37.7389 45.1641 37.7272 45.148 37.7201 45.1295L37.7153 45.1104C37.7115 45.0948 37.7076 45.0793 37.7037 45.0638C37.6998 45.0482 37.6998 45.0482 37.698 45.0411C37.6963 45.0339 37.6909 45.0124 37.6873 44.9981C37.6838 44.9837 37.6832 44.9813 37.6808 44.9718C37.6784 44.9622 37.6742 44.9455 37.6706 44.9312C37.6671 44.9168 37.6662 44.9132 37.6638 44.9037C37.6614 44.8941 37.6611 44.8625 37.6623 44.8419C37.6635 44.8213 37.6642 44.7983 37.6663 44.7762L37.6621 44.7594L37.6603 44.7523C37.6633 44.7287 37.6675 44.7048 37.6732 44.6818C37.8289 44.0085 37.9907 43.1509 38.1532 42.184L35.1484 42.9332C35.2415 43.5762 35.3364 44.1553 35.4293 44.6398C35.4349 44.6625 35.4403 44.684 35.4388 44.7085C35.4388 44.7085 35.4403 44.7144 35.4409 44.7168C35.4415 44.7192 35.4432 44.7264 35.4444 44.7312C35.4456 44.7359 35.4468 44.7763 35.4462 44.7993C35.4456 44.8222 35.4441 44.8417 35.4426 44.8611L35.4393 44.8885L35.4321 44.9309L35.4258 44.9566L35.4147 44.9987L35.4078 45.022L35.3911 45.0668L35.3833 45.0865L35.3609 45.134L35.3531 45.1486C35.3426 45.1677 35.331 45.1871 35.3178 45.2056L35.3047 45.2241L35.2789 45.2584L35.2553 45.2859L35.2365 45.3071L35.2081 45.3358L35.1917 45.3513L35.157 45.3802L35.1451 45.3832C35.1048 45.4135 35.0616 45.4396 35.016 45.4611L34.9873 45.4733ZM33.9179 36.6031L34.8176 36.6186C34.9172 36.6203 35.0155 36.6417 35.1068 36.6814C35.1982 36.7211 35.2808 36.7785 35.35 36.8501C35.4192 36.9218 35.4736 37.0064 35.5101 37.099C35.5466 37.1917 35.5645 37.2907 35.5627 37.3903C35.561 37.4899 35.5396 37.5881 35.4999 37.6795C35.4601 37.7708 35.4028 37.8534 35.3312 37.9226C35.2595 37.9918 35.1749 38.0462 35.0822 38.0827C34.9896 38.1192 34.8906 38.1371 34.791 38.1353L34.5999 38.1322C34.7043 39.2889 34.8227 40.4053 34.9478 41.421L38.4185 40.5557C38.5667 39.5518 38.7104 38.4741 38.8419 37.3728C38.8588 37.223 38.9201 37.0816 39.0178 36.9668C39.1156 36.852 39.2454 36.769 39.3906 36.7284C39.8929 36.4216 40.3261 36.0141 40.6629 35.5315C40.9997 35.0489 41.2329 34.5017 41.3476 33.9245L32.146 33.7619C32.3444 34.9035 32.98 35.9227 33.9179 36.6031ZM32.2609 22.1955L32.0858 32.2478L41.4542 32.4132L41.6293 22.3609L32.2609 22.1955ZM41.4202 19.1961C41.2187 19.0141 40.9572 18.913 40.6857 18.9122L33.3277 18.7836C33.0563 18.7752 32.7913 18.8674 32.5839 19.0426C32.5014 19.1097 32.4341 19.1935 32.3865 19.2885C32.3389 19.3835 32.312 19.4876 32.3076 19.5938L32.2884 20.6823L41.659 20.8459L41.6782 19.7574C41.6775 19.6508 41.6541 19.5457 41.6097 19.4489C41.5652 19.3521 41.5006 19.2659 41.4202 19.1961Z" fill="#E20000"/>
<path d="M37.7271 37.8246C37.7236 38.0254 37.6405 38.2166 37.4961 38.3561C37.3517 38.4956 37.1578 38.5721 36.957 38.5687L36.9403 38.5728C36.8405 38.5712 36.7421 38.5499 36.6506 38.5103C36.5591 38.4706 36.4763 38.4133 36.4069 38.3416C36.2668 38.1969 36.19 38.0024 36.1933 37.801C36.1966 37.5996 36.2797 37.4077 36.4245 37.2676C36.5692 37.1275 36.7637 37.0507 36.9651 37.054L36.9819 37.0498C37.0818 37.0514 37.1804 37.0727 37.272 37.1126C37.3637 37.1524 37.4465 37.21 37.5158 37.282C37.5851 37.3541 37.6394 37.4391 37.6757 37.5322C37.7119 37.6254 37.7294 37.7247 37.7271 37.8246Z" fill="#E20000"/>
<path d="M39.7514 27.5119C39.7418 28.0444 39.5835 28.5636 39.2942 29.0108C39.005 29.458 38.5963 29.8154 38.1146 30.0425C37.6328 30.2696 37.0971 30.3573 36.5681 30.2958C36.0391 30.2343 35.5378 30.026 35.1209 29.6945C34.7041 29.363 34.3884 28.9214 34.2094 28.4198C34.0304 27.9181 33.9954 27.3764 34.1083 26.8559C34.2211 26.3354 34.4774 25.8569 34.848 25.4744C35.2187 25.092 35.6889 24.8208 36.2056 24.6917V24.6917C36.4477 24.6315 36.6966 24.6031 36.946 24.6073C37.321 24.6137 37.691 24.6939 38.035 24.8433C38.3789 24.9928 38.6901 25.2085 38.9506 25.4783C39.2111 25.748 39.4159 26.0664 39.5533 26.4154C39.6907 26.7643 39.758 27.1369 39.7514 27.5119ZM37.8574 26.5323C37.736 26.4054 37.5906 26.3038 37.4297 26.2333C37.2688 26.1627 37.0956 26.1247 36.92 26.1214C36.8023 26.1191 36.6848 26.1321 36.5705 26.1603C36.2842 26.2319 36.0295 26.3959 35.8459 26.6269C35.6623 26.858 35.56 27.1431 35.555 27.4382C35.5499 27.7333 35.6423 28.0218 35.8179 28.259C35.9935 28.4962 36.2424 28.6688 36.5261 28.7502C36.8098 28.8315 37.1124 28.817 37.3869 28.7089C37.6615 28.6007 37.8928 28.405 38.0449 28.1521C38.1969 27.8992 38.2613 27.6032 38.228 27.3099C38.1947 27.0167 38.0656 26.7427 37.8607 26.5303L37.8574 26.5323Z" fill="#E20000"/>
<path d="M36.854 56.479C36.6581 56.479 36.4702 56.4012 36.3316 56.2626C36.1931 56.1241 36.1152 55.9362 36.1152 55.7402V53.7886C36.1373 53.6097 36.224 53.445 36.3591 53.3255C36.4941 53.2061 36.6682 53.1401 36.8485 53.1401C37.0288 53.1401 37.2028 53.2061 37.3379 53.3255C37.473 53.445 37.5597 53.6097 37.5817 53.7886V55.7464C37.5801 55.9394 37.5031 56.1241 37.3671 56.261C37.2311 56.3979 37.047 56.4761 36.854 56.479Z" fill="#E20000"/>
<path d="M34.3325 52.7986L33.3351 54.4978C33.2252 54.639 33.0677 54.7355 32.8919 54.7694C32.7162 54.8032 32.5341 54.7721 32.3795 54.6818C32.225 54.5915 32.1085 54.4482 32.0517 54.2785C31.9948 54.1088 32.0015 53.9242 32.0706 53.759L33.0679 52.0598C33.1779 51.9186 33.3354 51.8221 33.5112 51.7883C33.6869 51.7544 33.869 51.7855 34.0235 51.8758C34.1781 51.9661 34.2946 52.1094 34.3514 52.2792C34.4082 52.4489 34.4015 52.6335 34.3325 52.7986Z" fill="#E20000"/>
<path d="M41.3755 54.7601C41.2075 54.8571 41.008 54.884 40.8203 54.8352C40.6325 54.7864 40.4715 54.6656 40.372 54.499L39.3746 52.7998C39.31 52.7168 39.2638 52.6208 39.2392 52.5185C39.2146 52.4161 39.2122 52.3096 39.2321 52.2062C39.252 52.1029 39.2938 52.0049 39.3546 51.919C39.4155 51.8331 39.494 51.7611 39.5849 51.708C39.6758 51.6549 39.777 51.6219 39.8817 51.611C39.9864 51.6002 40.0923 51.6119 40.1921 51.6454C40.292 51.6788 40.3835 51.7332 40.4606 51.8049C40.5377 51.8766 40.5986 51.9639 40.6392 52.061L41.6366 53.7603C41.7324 53.928 41.7587 54.1265 41.7099 54.3134C41.6611 54.5003 41.5411 54.6606 41.3755 54.7601Z" fill="#E20000"/>
<path d="M57.2179 18.2985L53.9376 21.5824L57.2179 24.8601C57.3341 24.9761 57.4264 25.1139 57.4894 25.2656C57.5524 25.4173 57.5849 25.5799 57.5851 25.7441C57.5853 25.9084 57.5531 26.0711 57.4904 26.2229C57.4277 26.3747 57.3357 26.5126 57.2197 26.6289C57.1037 26.7452 56.9659 26.8374 56.8142 26.9005C56.6626 26.9635 56.5 26.996 56.3357 26.9962C56.1715 26.9963 56.0088 26.9641 55.857 26.9015C55.7052 26.8388 55.5672 26.7468 55.4509 26.6308L52.1756 23.3456L48.8893 26.6308C48.6545 26.8644 48.3365 26.9952 48.0052 26.9944C47.674 26.9936 47.3566 26.8612 47.1229 26.6264C46.8893 26.3916 46.7585 26.0736 46.7593 25.7424C46.7601 25.4111 46.8925 25.0938 47.1273 24.8601L50.4038 21.5824L47.1273 18.2985C46.9133 18.0609 46.7987 17.7503 46.8069 17.4307C46.8152 17.1112 46.9457 16.8069 47.1716 16.5807C47.3975 16.3545 47.7015 16.2235 48.0211 16.2148C48.3407 16.2062 48.6514 16.3204 48.8893 16.534L52.1756 19.813L55.4509 16.534C55.6852 16.3013 56.0022 16.1709 56.3325 16.1713C56.6627 16.1718 56.9793 16.303 57.213 16.5364C57.4467 16.7697 57.5784 17.0862 57.5793 17.4164C57.5802 17.7467 57.4503 18.0638 57.2179 18.2985Z" fill="#E20000"/>
<path d="M25.4586 45.0475L22.1784 48.3314L25.4586 51.6092C25.5749 51.7252 25.6671 51.863 25.7301 52.0147C25.7931 52.1663 25.8257 52.3289 25.8258 52.4932C25.826 52.6574 25.7938 52.8201 25.7311 52.9719C25.6684 53.1237 25.5765 53.2617 25.4604 53.378C25.3444 53.4942 25.2066 53.5865 25.055 53.6495C24.9033 53.7125 24.7407 53.745 24.5764 53.7452C24.4122 53.7454 24.2495 53.7132 24.0977 53.6505C23.9459 53.5878 23.8079 53.4958 23.6917 53.3798L20.4164 50.0947L17.13 53.3798C16.8952 53.6135 16.5772 53.7443 16.2459 53.7435C15.9147 53.7427 15.5973 53.6103 15.3637 53.3755C15.13 53.1407 14.9992 52.8227 15 52.4914C15.0008 52.1602 15.1332 51.8428 15.368 51.6092L18.6445 48.3314L15.368 45.0475C15.154 44.8099 15.0394 44.4994 15.0476 44.1798C15.0559 43.8602 15.1864 43.556 15.4123 43.3297C15.6382 43.1035 15.9423 42.9726 16.2618 42.9639C16.5814 42.9552 16.8921 43.0694 17.13 43.283L20.4164 46.562L23.6917 43.283C23.926 43.0503 24.2429 42.9199 24.5732 42.9204C24.9034 42.9208 25.22 43.0521 25.4537 43.2854C25.6874 43.5188 25.8191 43.8352 25.82 44.1655C25.8209 44.4957 25.691 44.8129 25.4586 45.0475Z" fill="#E20000"/>
</svg>
