<svg width="86" height="87" viewBox="0 0 86 87" fill="none" xmlns="http://www.w3.org/2000/svg">
<path d="M51.9247 77.5561C70.5961 72.5532 81.6764 53.3614 76.6735 34.6901C71.6705 16.0188 52.4787 4.93837 33.8074 9.94133C15.1361 14.9443 4.0557 34.1361 9.05867 52.8074C14.0616 71.4787 33.2534 82.5591 51.9247 77.5561Z" fill="#E20000"/>
<path d="M45.615 26.2238L48.8592 39.2387C49.0668 40.1665 49.0542 41.1301 48.8224 42.0522C48.5905 42.9743 48.1459 43.8293 47.5241 44.5485C47.6859 45.6963 47.8266 46.8164 47.9408 47.8554C48.0742 49.0485 48.1663 50.1238 48.2196 51.0149C48.3141 51.0584 48.403 51.1131 48.4845 51.1778C48.6039 51.271 48.7033 51.3873 48.7767 51.5198C48.8502 51.6523 48.8961 51.7982 48.9119 51.9489L49.2899 53.4639C49.3461 53.6016 49.374 53.7491 49.372 53.8978C49.37 54.0464 49.3381 54.1931 49.2782 54.3292C49.1947 54.5177 49.0695 54.6847 48.9121 54.8178C48.7547 54.9509 48.5692 55.0465 48.3695 55.0976L44.7068 56.0128C44.3754 56.0952 44.0248 56.0428 43.732 55.8669C43.4393 55.6911 43.2282 55.4063 43.1452 55.075L42.732 53.4204C42.6869 53.2391 42.6813 53.0502 42.7155 52.8666C42.7497 52.6829 42.823 52.5088 42.9304 52.3559C42.6978 51.8499 42.4449 51.2693 42.1798 50.6335L42.1726 50.6206C41.6435 49.3512 41.063 47.8569 40.4981 46.3018C39.61 45.9586 38.8148 45.412 38.1764 44.7057C37.5379 43.9994 37.074 43.1533 36.822 42.2352L33.5823 29.2234C33.5065 28.9136 33.4975 28.5912 33.556 28.2776C33.6145 27.9641 33.7392 27.6666 33.9217 27.405C34.1488 27.0707 34.4517 26.7947 34.8057 26.5997C35.0119 26.4855 35.2323 26.3989 35.4611 26.342L42.6017 24.5618C43.2265 24.4018 43.8884 24.4787 44.46 24.7776C44.7443 24.9227 44.9944 25.1267 45.1936 25.3761C45.3927 25.6255 45.5364 25.9145 45.615 26.2238ZM44.3398 53.1613L44.3096 53.178L44.2751 53.1971L44.2396 53.2168L44.554 54.4799L47.7794 53.6775L47.465 52.4144L47.4473 52.413L47.4286 52.4121L47.3776 52.4066L47.356 52.4031L47.3075 52.3919L47.2881 52.3872C47.2669 52.3821 47.2462 52.3752 47.226 52.3667L47.2025 52.3572L47.1637 52.3407L47.1378 52.3269L47.1034 52.308L47.0796 52.293L47.0449 52.2686L47.0271 52.2644C47.0117 52.2518 46.9957 52.2382 46.9803 52.2256C46.963 52.2098 46.9469 52.1934 46.9313 52.1753L46.9265 52.1667C46.9175 52.1506 46.9021 52.138 46.8904 52.1219L46.8809 52.1047C46.8731 52.0907 46.8653 52.0767 46.8576 52.0627C46.8498 52.0487 46.8498 52.0487 46.8462 52.0423C46.8427 52.0358 46.8319 52.0164 46.8248 52.0035C46.8176 51.9906 46.8164 51.9884 46.8116 51.9798C46.8068 51.9712 46.7985 51.9561 46.7913 51.9432C46.7842 51.9303 46.7824 51.927 46.7776 51.9184C46.7728 51.9098 46.7644 51.8793 46.7602 51.8591C46.756 51.8389 46.7507 51.8165 46.747 51.7946L46.7386 51.7795L46.735 51.7731C46.7318 51.7495 46.7297 51.7253 46.7292 51.7016C46.7054 51.011 46.6397 50.1407 46.5464 49.1647L43.8379 50.6661C44.0942 51.2631 44.3358 51.7979 44.5509 52.2418C44.5622 52.2623 44.573 52.2817 44.5779 52.3057C44.5779 52.3057 44.5808 52.3111 44.582 52.3133C44.5832 52.3154 44.5868 52.3219 44.5892 52.3262C44.5916 52.3305 44.6032 52.3691 44.6085 52.3915C44.6139 52.4139 44.6174 52.433 44.621 52.4521L44.6249 52.4795L44.629 52.5223L44.6295 52.5488L44.6297 52.5923L44.6291 52.6166L44.6245 52.6642L44.6221 52.6852L44.6127 52.7369L44.609 52.753C44.6038 52.7742 44.5976 52.796 44.5897 52.8172L44.5818 52.8385L44.5658 52.8783L44.5501 52.911L44.5374 52.9363L44.5174 52.9713L44.5056 52.9906L44.4796 53.0275L44.4688 53.0335C44.4378 53.0731 44.4027 53.1095 44.3643 53.1421L44.3398 53.1613ZM41.0109 44.8701L41.8841 44.6522C41.9807 44.6282 42.0812 44.6233 42.1797 44.6381C42.2782 44.6528 42.3728 44.6868 42.4582 44.7381C42.5436 44.7894 42.618 44.857 42.6773 44.9371C42.7365 45.0172 42.7794 45.1082 42.8035 45.2048C42.8276 45.3015 42.8324 45.4019 42.8177 45.5004C42.8029 45.5989 42.7689 45.6936 42.7176 45.779C42.6663 45.8643 42.5987 45.9388 42.5186 45.998C42.4385 46.0572 42.3476 46.1001 42.2509 46.1242L42.0655 46.1707C42.4657 47.2609 42.8691 48.3086 43.2528 49.2574L46.3813 47.5232C46.2645 46.5152 46.1244 45.437 45.9664 44.3392C45.944 44.1901 45.9666 44.0377 46.0313 43.9015C46.096 43.7653 46.1999 43.6515 46.3296 43.5747C46.7354 43.1485 47.0484 42.6427 47.2488 42.0894C47.4493 41.536 47.5328 40.9472 47.4942 40.3599L38.5642 42.5844C39.0512 43.6357 39.9289 44.4557 41.0109 44.8701ZM35.6815 31.3823L38.1141 41.1374L47.2061 38.8725L44.7735 29.1173L35.6815 31.3823ZM43.7524 26.1145C43.5107 25.9909 43.2319 25.961 42.9695 26.0304L35.8288 27.8106C35.5645 27.8727 35.3325 28.0304 35.1775 28.2533C35.1151 28.3394 35.0718 28.4378 35.0504 28.5419C35.029 28.646 35.03 28.7535 35.0532 28.8572L35.3164 29.9136L44.41 27.6463L44.1468 26.5899C44.1186 26.4872 44.0688 26.3917 44.0008 26.3097C43.9328 26.2277 43.8481 26.1612 43.7524 26.1145Z" fill="white"/>
<path d="M45.0066 45.0642C45.0552 45.259 45.0244 45.4652 44.921 45.6373C44.8176 45.8095 44.6501 45.9335 44.4553 45.9822L44.4402 45.9905C44.3435 46.0148 44.2429 46.0197 44.1442 46.0051C44.0456 45.9904 43.9508 45.9565 43.8652 45.9052C43.6924 45.8017 43.5679 45.6337 43.5189 45.4383C43.47 45.2429 43.5006 45.0361 43.6042 44.8633C43.7078 44.6905 43.8757 44.5659 44.0711 44.517L44.0862 44.5086C44.1831 44.4843 44.2839 44.4794 44.3827 44.4941C44.4816 44.5089 44.5765 44.5431 44.6621 44.5948C44.7476 44.6464 44.8221 44.7145 44.8812 44.795C44.9404 44.8756 44.983 44.9671 45.0066 45.0642Z" fill="white"/>
<path d="M44.2929 34.5789C44.4215 35.0958 44.4029 35.6383 44.2392 36.1451C44.0756 36.6519 43.7734 37.1029 43.3668 37.4469C42.9602 37.7909 42.4655 38.0144 41.9386 38.0919C41.4117 38.1694 40.8736 38.098 40.3851 37.8856C39.8967 37.6732 39.4774 37.3285 39.1747 36.8902C38.872 36.452 38.698 35.9378 38.6723 35.4059C38.6466 34.8739 38.7702 34.3453 39.0292 33.88C39.2883 33.4146 39.6723 33.031 40.138 32.7725V32.7725C40.3563 32.6517 40.5893 32.5599 40.8313 32.4994C41.1952 32.4085 41.5734 32.3902 41.9443 32.4455C42.3152 32.5009 42.6716 32.6287 42.993 32.8219C43.3145 33.015 43.5948 33.2696 43.8178 33.571C44.0408 33.8725 44.2023 34.215 44.2929 34.5789ZM42.2099 34.1229C42.0598 34.0318 41.8931 33.9712 41.7194 33.9448C41.5457 33.9183 41.3686 33.9264 41.1981 33.9687C41.0838 33.9968 40.9737 34.0399 40.8706 34.0967C40.6126 34.2399 40.409 34.4642 40.2914 34.7349C40.1739 35.0056 40.1489 35.3075 40.2204 35.5939C40.2918 35.8802 40.4558 36.1349 40.6868 36.3186C40.9178 36.5023 41.2029 36.6046 41.498 36.6098C41.793 36.6149 42.0816 36.5226 42.3188 36.3471C42.5561 36.1716 42.7288 35.9227 42.8102 35.639C42.8916 35.3554 42.8772 35.0528 42.7691 34.7781C42.6611 34.5035 42.4655 34.2722 42.2126 34.1201L42.2099 34.1229Z" fill="white"/>
<path d="M48.9913 63.3089C48.8021 63.3596 48.6004 63.3331 48.4308 63.2351C48.2611 63.1371 48.1372 62.9758 48.0865 62.7865L47.5814 60.9014C47.5564 60.7228 47.5975 60.5413 47.6971 60.3909C47.7966 60.2406 47.9477 60.1319 48.1218 60.0852C48.296 60.0385 48.4812 60.0572 48.6426 60.1376C48.8039 60.218 48.9303 60.3547 48.9979 60.5218L49.5046 62.4129C49.5531 62.5997 49.5265 62.798 49.4305 62.9655C49.3346 63.1329 49.177 63.2562 48.9913 63.3089Z" fill="white"/>
<path d="M45.6031 60.4065L45.0795 62.306C45.0099 62.4708 44.8827 62.6048 44.7217 62.683C44.5607 62.7612 44.3768 62.7782 44.2041 62.731C44.0315 62.6838 43.8819 62.5755 43.783 62.4263C43.6842 62.2771 43.6429 62.097 43.6669 61.9197L44.1904 60.0202C44.2601 59.8553 44.3873 59.7214 44.5483 59.6432C44.7093 59.565 44.8932 59.5479 45.0659 59.5951C45.2385 59.6424 45.3881 59.7506 45.487 59.8999C45.5858 60.0491 45.6271 60.2291 45.6031 60.4065Z" fill="white"/>
<path d="M52.914 60.4783C52.7768 60.6154 52.5911 60.6931 52.3971 60.6945C52.2031 60.696 52.0163 60.621 51.8771 60.4859L50.4739 59.1027C50.3899 59.0392 50.3205 58.9585 50.2702 58.866C50.22 58.7734 50.1901 58.6712 50.1826 58.5662C50.175 58.4612 50.1901 58.3558 50.2266 58.2571C50.2631 58.1583 50.3204 58.0685 50.3944 57.9937C50.4685 57.9188 50.5577 57.8607 50.656 57.8232C50.7544 57.7856 50.8597 57.7695 50.9647 57.776C51.0698 57.7824 51.1723 57.8113 51.2654 57.8606C51.3584 57.9099 51.4398 57.9785 51.5042 58.0618L52.9074 59.445C53.0433 59.5821 53.1201 59.7671 53.1214 59.9603C53.1226 60.1534 53.0482 60.3394 52.914 60.4783Z" fill="white"/>
<path d="M58.7795 21.1588L56.461 25.1798L60.4778 27.4969C60.6201 27.5788 60.7449 27.688 60.845 27.8182C60.9451 27.9484 61.0186 28.0971 61.0613 28.2557C61.104 28.4143 61.115 28.5798 61.0937 28.7426C61.0725 28.9055 61.0193 29.0626 60.9373 29.2049C60.8554 29.3472 60.7462 29.472 60.616 29.5721C60.4858 29.6723 60.3371 29.7458 60.1785 29.7884C60.0199 29.8311 59.8544 29.8421 59.6916 29.8209C59.5287 29.7996 59.3716 29.7465 59.2293 29.6645L55.2154 27.339L52.8912 31.3628C52.7249 31.6492 52.4516 31.8579 52.1314 31.9428C51.8112 32.0278 51.4704 31.9821 51.184 31.8158C50.8975 31.6494 50.6888 31.3761 50.6039 31.0559C50.5189 30.7358 50.5647 30.395 50.731 30.1085L53.0475 26.0944L49.0327 23.7704C48.7646 23.5963 48.5734 23.326 48.4987 23.0152C48.4239 22.7044 48.4713 22.3767 48.6309 22.0997C48.7906 21.8228 49.0504 21.6176 49.3568 21.5265C49.6632 21.4354 49.9929 21.4653 50.278 21.61L54.301 23.9267L56.6161 19.9117C56.7822 19.6263 57.0546 19.4183 57.3737 19.3333C57.6928 19.2482 58.0326 19.2931 58.3187 19.458C58.6048 19.6229 58.814 19.8945 58.9003 20.2132C58.9867 20.532 58.9432 20.872 58.7795 21.1588Z" fill="white"/>
<path d="M35.0256 55.2163L32.7071 59.2373L36.7239 61.5544C36.8662 61.6363 36.991 61.7455 37.0911 61.8757C37.1912 62.0059 37.2647 62.1546 37.3074 62.3132C37.3501 62.4718 37.3611 62.6373 37.3398 62.8001C37.3185 62.963 37.2654 63.1201 37.1834 63.2624C37.1015 63.4047 36.9923 63.5295 36.8621 63.6296C36.7319 63.7298 36.5832 63.8032 36.4246 63.8459C36.266 63.8886 36.1005 63.8996 35.9377 63.8784C35.7748 63.8571 35.6177 63.8039 35.4754 63.722L31.4614 61.3965L29.1373 65.4203C28.971 65.7067 28.6977 65.9154 28.3775 66.0003C28.0573 66.0853 27.7165 66.0396 27.4301 65.8732C27.1436 65.7069 26.9349 65.4336 26.85 65.1134C26.765 64.7933 26.8107 64.4525 26.9771 64.166L29.2936 60.1519L25.2788 57.8279C25.0107 57.6538 24.8195 57.3835 24.7448 57.0727C24.67 56.7618 24.7173 56.4342 24.877 56.1572C25.0367 55.8802 25.2965 55.6751 25.6029 55.584C25.9093 55.4929 26.239 55.5228 26.5241 55.6675L30.5471 57.9842L32.8622 53.9692C33.0283 53.6838 33.3007 53.4758 33.6198 53.3908C33.9389 53.3057 34.2787 53.3506 34.5648 53.5155C34.8509 53.6804 35.0601 53.952 35.1464 54.2707C35.2328 54.5895 35.1893 54.9295 35.0256 55.2163Z" fill="white"/>
</svg>
