<svg width="92" height="92" viewBox="0 0 92 92" fill="none" xmlns="http://www.w3.org/2000/svg">
<g filter="url(#filter0_d_155_333)">
<path d="M46 76C65.33 76 81 60.33 81 41C81 21.67 65.33 6 46 6C26.67 6 11 21.67 11 41C11 60.33 26.67 76 46 76Z" fill="white"/>
<path d="M46 76C65.33 76 81 60.33 81 41C81 21.67 65.33 6 46 6C26.67 6 11 21.67 11 41C11 60.33 26.67 76 46 76Z" stroke="#E20000"/>
</g>
<path d="M53.1913 24.7837L52.9564 38.1948C52.9169 39.1447 52.6553 40.0722 52.1927 40.9029C51.7301 41.7336 51.0793 42.4443 50.2925 42.9782C50.1518 44.1287 49.9978 45.247 49.8392 46.2802C49.6593 47.4672 49.4699 48.5296 49.2907 49.4042C49.3708 49.4707 49.4425 49.5465 49.5044 49.6301C49.5956 49.751 49.6616 49.8891 49.6982 50.0361C49.7348 50.1831 49.7415 50.3359 49.7177 50.4855L49.6907 52.0468C49.7094 52.1943 49.6982 52.344 49.6577 52.4871C49.6173 52.6301 49.5485 52.7636 49.4555 52.8795C49.326 53.04 49.1619 53.1689 48.9754 53.2567C48.7889 53.3446 48.585 53.3889 48.3789 53.3865L44.6041 53.3226C44.2627 53.3165 43.9376 53.175 43.7003 52.9294C43.463 52.6838 43.3329 52.3541 43.3384 52.0126L43.3676 50.3074C43.3709 50.1206 43.4144 49.9367 43.4949 49.7682C43.5755 49.5997 43.6914 49.4504 43.8347 49.3306C43.7409 48.7816 43.647 48.1553 43.5554 47.4726L43.5519 47.4582C43.3694 46.0951 43.1954 44.5015 43.0522 42.8532C42.2832 42.2919 41.6566 41.558 41.2227 40.7106C40.7888 39.8631 40.5597 38.9257 40.5539 37.9737L40.7923 24.5668C40.7992 24.2479 40.874 23.9342 41.0116 23.6465C41.1493 23.3587 41.3467 23.1037 41.5907 22.8982C41.8966 22.6341 42.2606 22.4459 42.653 22.3491C42.8818 22.2922 43.1171 22.2656 43.3528 22.2698L50.7108 22.3984C51.3558 22.4056 51.9753 22.6512 52.4499 23.0879C52.687 23.3015 52.8758 23.5633 53.0036 23.8558C53.1315 24.1482 53.1954 24.4646 53.1913 24.7837ZM44.9876 50.4733L44.9541 50.4816L44.9159 50.4912L44.8765 50.501L44.8533 51.8024L48.1765 51.8622L48.1997 50.5607L48.183 50.5547L48.165 50.5491L48.1173 50.5305L48.0973 50.5215L48.0534 50.4982L48.0358 50.4887C48.0167 50.4782 47.9985 50.4662 47.9811 50.4528L47.9608 50.4375L47.9277 50.4115L47.9062 50.3915L47.8779 50.3643L47.8588 50.3437L47.8316 50.3111L47.8155 50.3025C47.8039 50.2863 47.7919 50.269 47.7803 50.2529C47.7678 50.2331 47.7564 50.2131 47.746 50.1916L47.7436 50.1821C47.7391 50.1641 47.7275 50.148 47.7203 50.1295L47.7156 50.1104C47.7117 50.0948 47.7078 50.0793 47.704 50.0638C47.7001 50.0482 47.7001 50.0482 47.6983 50.0411C47.6965 50.0339 47.6911 50.0124 47.6876 49.9981C47.684 49.9837 47.6834 49.9813 47.681 49.9718C47.6786 49.9622 47.6745 49.9455 47.6709 49.9312C47.6673 49.9168 47.6664 49.9132 47.664 49.9037C47.6617 49.8941 47.6614 49.8625 47.6626 49.8419C47.6638 49.8213 47.6644 49.7983 47.6665 49.7762L47.6623 49.7594L47.6605 49.7523C47.6636 49.7287 47.6677 49.7048 47.6734 49.6818C47.8292 49.0085 47.991 48.1509 48.1534 47.184L45.1487 47.9332C45.2417 48.5762 45.3366 49.1553 45.4295 49.6398C45.4352 49.6625 45.4405 49.684 45.439 49.7085C45.439 49.7085 45.4405 49.7144 45.4411 49.7168C45.4417 49.7192 45.4435 49.7264 45.4447 49.7312C45.4459 49.7359 45.447 49.7763 45.4464 49.7993C45.4458 49.8222 45.4443 49.8417 45.4428 49.8611L45.4395 49.8885L45.4323 49.9309L45.426 49.9566L45.4149 49.9987L45.4081 50.022L45.3913 50.0668L45.3835 50.0865L45.3611 50.134L45.3533 50.1486C45.3429 50.1677 45.3312 50.1871 45.318 50.2056L45.3049 50.2241L45.2792 50.2584L45.2556 50.2859L45.2368 50.3071L45.2084 50.3358L45.1919 50.3513L45.1573 50.3802L45.1453 50.3832C45.1051 50.4135 45.0618 50.4396 45.0163 50.4611L44.9876 50.4733ZM43.9181 41.6031L44.8179 41.6186C44.9175 41.6203 45.0158 41.6417 45.1071 41.6814C45.1984 41.7211 45.2811 41.7785 45.3502 41.8501C45.4194 41.9218 45.4738 42.0064 45.5103 42.099C45.5468 42.1917 45.5647 42.2907 45.5629 42.3903C45.5612 42.4899 45.5399 42.5881 45.5001 42.6795C45.4604 42.7708 45.4031 42.8534 45.3314 42.9226C45.2597 42.9918 45.1752 43.0462 45.0825 43.0827C44.9898 43.1192 44.8908 43.1371 44.7912 43.1353L44.6001 43.1322C44.7045 44.2889 44.823 45.4053 44.948 46.421L48.4188 45.5557C48.5669 44.5518 48.7106 43.4741 48.8421 42.3728C48.8591 42.223 48.9203 42.0816 49.0181 41.9668C49.1158 41.852 49.2456 41.769 49.3909 41.7284C49.8931 41.4216 50.3263 41.0141 50.6631 40.5315C51 40.0489 51.2331 39.5017 51.3478 38.9245L42.1463 38.7619C42.3446 39.9035 42.9802 40.9227 43.9181 41.6031ZM42.2611 27.1955L42.086 37.2478L51.4545 37.4132L51.6296 27.3609L42.2611 27.1955ZM51.4204 24.1961C51.219 24.0141 50.9574 23.913 50.686 23.9122L43.3279 23.7836C43.0565 23.7752 42.7916 23.8674 42.5841 24.0426C42.5017 24.1097 42.4344 24.1935 42.3867 24.2885C42.3391 24.3835 42.3122 24.4876 42.3079 24.5938L42.2887 25.6823L51.6592 25.8459L51.6784 24.7574C51.6777 24.6508 51.6544 24.5457 51.6099 24.4489C51.5654 24.3521 51.5008 24.2659 51.4204 24.1961Z" fill="#E20000"/>
<path d="M47.7273 42.8246C47.7238 43.0254 47.6407 43.2166 47.4963 43.3561C47.3519 43.4956 47.158 43.5721 46.9572 43.5686L46.9405 43.5728C46.8408 43.5712 46.7424 43.5499 46.6508 43.5102C46.5593 43.4706 46.4765 43.4133 46.4072 43.3416C46.2671 43.1968 46.1902 43.0024 46.1935 42.801C46.1968 42.5995 46.28 42.4077 46.4247 42.2676C46.5695 42.1275 46.764 42.0507 46.9654 42.054L46.9821 42.0498C47.082 42.0514 47.1806 42.0727 47.2723 42.1125C47.3639 42.1524 47.4468 42.21 47.516 42.282C47.5853 42.3541 47.6397 42.4391 47.6759 42.5322C47.7122 42.6253 47.7296 42.7247 47.7273 42.8246Z" fill="#E20000"/>
<path d="M49.7516 32.5119C49.7421 33.0444 49.5837 33.5636 49.2945 34.0108C49.0052 34.458 48.5966 34.8154 48.1148 35.0425C47.6331 35.2696 47.0974 35.3573 46.5683 35.2958C46.0393 35.2343 45.538 35.026 45.1212 34.6945C44.7044 34.363 44.3886 33.9214 44.2097 33.4198C44.0307 32.9181 43.9957 32.3764 44.1085 31.8559C44.2214 31.3354 44.4776 30.8569 44.8483 30.4744C45.2189 30.092 45.6892 29.8208 46.2059 29.6917V29.6917C46.4479 29.6315 46.6968 29.6031 46.9463 29.6073C47.3212 29.6137 47.6913 29.6939 48.0352 29.8433C48.3792 29.9928 48.6903 30.2085 48.9508 30.4783C49.2114 30.748 49.4162 31.0664 49.5536 31.4154C49.691 31.7643 49.7583 32.1369 49.7516 32.5119ZM47.8577 31.5323C47.7362 31.4054 47.5909 31.3038 47.43 31.2333C47.2691 31.1627 47.0958 31.1247 46.9202 31.1214C46.8025 31.1191 46.6851 31.1321 46.5708 31.1603C46.2845 31.2319 46.0298 31.3959 45.8461 31.6269C45.6625 31.858 45.5603 32.1431 45.5552 32.4382C45.5501 32.7333 45.6426 33.0218 45.8181 33.259C45.9937 33.4962 46.2426 33.6688 46.5263 33.7502C46.81 33.8315 47.1126 33.817 47.3872 33.7089C47.6618 33.6007 47.893 33.405 48.0451 33.1521C48.1972 32.8992 48.2615 32.6032 48.2282 32.3099C48.1949 32.0167 48.0658 31.7427 47.861 31.5303L47.8577 31.5323Z" fill="#E20000"/>
<path d="M46.8545 61.479C46.6586 61.479 46.4707 61.4012 46.3321 61.2626C46.1936 61.1241 46.1157 60.9362 46.1157 60.7402V58.7886C46.1378 58.6097 46.2245 58.445 46.3595 58.3255C46.4946 58.2061 46.6687 58.1401 46.849 58.1401C47.0293 58.1401 47.2033 58.2061 47.3384 58.3255C47.4735 58.445 47.5602 58.6097 47.5822 58.7886V60.7464C47.5806 60.9394 47.5036 61.1241 47.3676 61.261C47.2316 61.3979 47.0475 61.4761 46.8545 61.479Z" fill="#E20000"/>
<path d="M44.3327 57.7986L43.3354 59.4978C43.2254 59.639 43.0679 59.7355 42.8922 59.7694C42.7164 59.8032 42.5343 59.7721 42.3798 59.6818C42.2252 59.5915 42.1087 59.4482 42.0519 59.2785C41.9951 59.1088 42.0018 58.9242 42.0708 58.759L43.0682 57.0598C43.1781 56.9186 43.3356 56.8221 43.5114 56.7883C43.6872 56.7544 43.8692 56.7855 44.0238 56.8758C44.1783 56.9661 44.2948 57.1094 44.3517 57.2792C44.4085 57.4489 44.4018 57.6335 44.3327 57.7986Z" fill="#E20000"/>
<path d="M51.376 59.7601C51.208 59.8571 51.0085 59.884 50.8207 59.8352C50.633 59.7864 50.472 59.6656 50.3725 59.499L49.3751 57.7998C49.3104 57.7168 49.2643 57.6208 49.2397 57.5185C49.2151 57.4161 49.2127 57.3096 49.2326 57.2062C49.2525 57.1029 49.2943 57.0049 49.3551 56.919C49.4159 56.8331 49.4945 56.7611 49.5854 56.708C49.6763 56.6549 49.7775 56.6219 49.8822 56.611C49.9869 56.6002 50.0928 56.6119 50.1926 56.6454C50.2924 56.6788 50.384 56.7332 50.4611 56.8049C50.5382 56.8766 50.5991 56.9639 50.6397 57.061L51.6371 58.7603C51.7329 58.928 51.7592 59.1265 51.7104 59.3134C51.6616 59.5003 51.5416 59.6606 51.376 59.7601Z" fill="#E20000"/>
<path d="M67.2179 23.2984L63.9376 26.5824L67.2179 29.8601C67.3341 29.9761 67.4264 30.1139 67.4894 30.2656C67.5524 30.4173 67.5849 30.5799 67.5851 30.7441C67.5853 30.9084 67.5531 31.071 67.4904 31.2228C67.4277 31.3747 67.3357 31.5126 67.2197 31.6289C67.1037 31.7452 66.9659 31.8374 66.8142 31.9004C66.6626 31.9634 66.5 31.996 66.3357 31.9961C66.1715 31.9963 66.0088 31.9641 65.857 31.9014C65.7052 31.8387 65.5672 31.7468 65.4509 31.6307L62.1756 28.3456L58.8893 31.6307C58.6545 31.8644 58.3365 31.9952 58.0052 31.9944C57.674 31.9936 57.3566 31.8612 57.1229 31.6264C56.8893 31.3916 56.7585 31.0736 56.7593 30.7424C56.7601 30.4111 56.8925 30.0938 57.1273 29.8601L60.4038 26.5824L57.1273 23.2984C56.9133 23.0609 56.7987 22.7503 56.8069 22.4307C56.8152 22.1111 56.9457 21.8069 57.1716 21.5807C57.3975 21.3545 57.7015 21.2235 58.0211 21.2148C58.3407 21.2061 58.6514 21.3204 58.8893 21.534L62.1756 24.813L65.4509 21.534C65.6852 21.3013 66.0022 21.1708 66.3325 21.1713C66.6627 21.1717 66.9793 21.303 67.213 21.5364C67.4467 21.7697 67.5784 22.0862 67.5793 22.4164C67.5802 22.7466 67.4503 23.0638 67.2179 23.2984Z" fill="#E20000"/>
<path d="M35.4586 50.0475L32.1784 53.3314L35.4586 56.6092C35.5749 56.7252 35.6671 56.863 35.7301 57.0146C35.7931 57.1663 35.8257 57.3289 35.8258 57.4932C35.826 57.6574 35.7938 57.8201 35.7311 57.9719C35.6684 58.1237 35.5765 58.2617 35.4604 58.3779C35.3444 58.4942 35.2066 58.5865 35.055 58.6495C34.9033 58.7125 34.7407 58.745 34.5764 58.7452C34.4122 58.7454 34.2495 58.7132 34.0977 58.6505C33.9459 58.5878 33.8079 58.4958 33.6917 58.3798L30.4164 55.0946L27.13 58.3798C26.8952 58.6134 26.5772 58.7443 26.2459 58.7435C25.9147 58.7426 25.5973 58.6103 25.3637 58.3755C25.13 58.1407 24.9992 57.8227 25 57.4914C25.0008 57.1602 25.1332 56.8428 25.368 56.6092L28.6445 53.3314L25.368 50.0475C25.154 49.8099 25.0394 49.4994 25.0476 49.1798C25.0559 48.8602 25.1864 48.5559 25.4123 48.3297C25.6382 48.1035 25.9423 47.9726 26.2618 47.9639C26.5814 47.9552 26.8921 48.0694 27.13 48.283L30.4164 51.562L33.6917 48.283C33.926 48.0503 34.2429 47.9199 34.5732 47.9204C34.9034 47.9208 35.22 48.0521 35.4537 48.2854C35.6874 48.5188 35.8191 48.8352 35.82 49.1655C35.8209 49.4957 35.691 49.8129 35.4586 50.0475Z" fill="#E20000"/>
<defs>
<filter id="filter0_d_155_333" x="0.5" y="0.5" width="91" height="91" filterUnits="userSpaceOnUse" color-interpolation-filters="sRGB">
<feFlood flood-opacity="0" result="BackgroundImageFix"/>
<feColorMatrix in="SourceAlpha" type="matrix" values="0 0 0 0 0 0 0 0 0 0 0 0 0 0 0 0 0 0 127 0" result="hardAlpha"/>
<feOffset dy="5"/>
<feGaussianBlur stdDeviation="5"/>
<feComposite in2="hardAlpha" operator="out"/>
<feColorMatrix type="matrix" values="0 0 0 0 1 0 0 0 0 0.904167 0 0 0 0 0.904167 0 0 0 1 0"/>
<feBlend mode="normal" in2="BackgroundImageFix" result="effect1_dropShadow_155_333"/>
<feBlend mode="normal" in="SourceGraphic" in2="effect1_dropShadow_155_333" result="shape"/>
</filter>
</defs>
</svg>
