<svg width="23" height="15" viewBox="0 0 23 15" fill="none" xmlns="http://www.w3.org/2000/svg">
<path d="M20.785 0.149994H1.26499C0.969602 0.151048 0.686609 0.268862 0.477734 0.477737C0.268859 0.686612 0.151048 0.9696 0.149994 1.26499V13.535C0.151048 13.8304 0.268859 14.1134 0.477734 14.3223C0.686609 14.5311 0.969602 14.6489 1.26499 14.65H20.785C21.0804 14.6489 21.3634 14.5311 21.5723 14.3223C21.7811 14.1134 21.8989 13.8304 21.9 13.535V1.26499C21.8989 0.9696 21.7811 0.686612 21.5723 0.477737C21.3634 0.268862 21.0804 0.151048 20.785 0.149994ZM20.366 0.985992L11.666 7.51099C11.4756 7.63646 11.2525 7.70332 11.0245 7.70332C10.7965 7.70332 10.5734 7.63646 10.383 7.51099L1.68299 0.985992H20.366ZM15.719 7.94199L20.459 13.798C20.459 13.804 20.47 13.808 20.475 13.814H1.57499L1.59099 13.798L6.33099 7.94199C6.40075 7.8558 6.4334 7.74543 6.42177 7.63515C6.41015 7.52488 6.35519 7.42375 6.26899 7.354C6.1828 7.28424 6.07242 7.25159 5.96215 7.26321C5.85188 7.27484 5.75075 7.3298 5.68099 7.41599L0.986994 13.217V1.51699L9.88699 8.188C10.2224 8.42157 10.6213 8.54679 11.03 8.54679C11.4387 8.54679 11.8376 8.42157 12.173 8.188L21.073 1.51699V13.217L16.379 7.41699C16.3092 7.3308 16.2081 7.27584 16.0978 7.26421C15.9876 7.25259 15.8772 7.28524 15.791 7.355C15.7048 7.42475 15.6498 7.52588 15.6382 7.63615C15.6266 7.74643 15.6592 7.8568 15.729 7.94299L15.719 7.94199Z" fill="#E94057" stroke="#E94057" stroke-width="0.3"/>
</svg>
