<svg width="62" height="62" viewBox="0 0 62 62" fill="none" xmlns="http://www.w3.org/2000/svg">
<path d="M31 0C13.8802 0 0 13.8802 0 31C0 48.1218 13.8802 62 31 62C48.1218 62 62 48.1237 62 31C62 13.8802 48.1216 0 31 0ZM31 56.1874C17.0888 56.1874 5.8126 44.9112 5.8126 31C5.8126 17.0888 17.0888 5.8126 31 5.8126C44.9112 5.8126 56.1874 17.0888 56.1874 31C56.1874 44.9112 44.9112 56.1874 31 56.1874ZM31.002 13.5954C28.7816 13.5954 27.1017 14.7541 27.1017 16.6257V33.7919C27.1017 35.6654 28.7814 36.8202 31.002 36.8202C33.1681 36.8202 34.9022 35.617 34.9022 33.7919V16.6257C34.902 14.7985 33.1681 13.5954 31.002 13.5954ZM31.002 40.6875C28.8688 40.6875 27.1327 42.4236 27.1327 44.5585C27.1327 46.6898 28.8688 48.4259 31.002 48.4259C33.1351 48.4259 34.8693 46.6898 34.8693 44.5585C34.8691 42.4234 33.1351 40.6875 31.002 40.6875Z" fill="#E94057"/>
</svg>
