<svg width="45" height="66" viewBox="0 0 45 66" fill="none" xmlns="http://www.w3.org/2000/svg">
<path d="M42.2509 28.7551V20.6101C42.2509 9.68453 33.3912 0.796021 22.5012 0.796021C11.6111 0.796021 2.75151 9.68453 2.75151 20.6101V28.6782C1.5235 29.1483 0.308594 30.2086 0.308594 32.3092V43.4016C0.308594 55.6785 10.2643 65.6667 22.5014 65.6667C34.7384 65.6667 44.6938 55.6785 44.6938 43.4016V32.3092C44.6938 30.316 43.5087 29.2594 42.2509 28.7551ZM26.7193 52.5895C26.7888 52.9588 26.5392 53.2609 26.1646 53.2609H18.9213C18.5468 53.2609 18.2972 52.9588 18.3667 52.5895L19.5267 46.4211C18.6413 45.6109 18.0856 44.4442 18.0856 43.1472C18.0856 40.7006 20.0625 38.7173 22.5012 38.7173C24.9398 38.7173 26.9168 40.7006 26.9168 43.1472C26.9168 44.409 26.3902 45.5465 25.5464 46.3534L26.7193 52.5895ZM35.4409 28.3596H9.56151V20.6101C9.56151 13.452 15.3662 7.62821 22.5012 7.62821C29.636 7.62821 35.4409 13.452 35.4409 20.6101V28.3596Z" fill="#E20000"/>
</svg>
