<svg width="22" height="19" viewBox="0 0 22 19" fill="none" xmlns="http://www.w3.org/2000/svg">
<path d="M17.8803 8.16428L6.31939 8.16429C5.7683 8.16429 5.32152 8.61106 5.32152 9.16215C5.32152 9.71323 5.7683 10.16 6.31939 10.16L17.8803 10.16L16.5901 11.4502C16.2004 11.8399 16.2004 12.4717 16.5901 12.8614C16.9797 13.2511 17.6116 13.2511 18.0013 12.8614L20.9947 9.86783C21.0181 9.84448 21.0402 9.82 21.0611 9.79446C21.0702 9.78335 21.0781 9.77157 21.0867 9.7602C21.0976 9.74556 21.109 9.73126 21.1191 9.71603C21.1284 9.70212 21.1365 9.68769 21.145 9.67345C21.1532 9.65975 21.1618 9.64637 21.1693 9.63227C21.1771 9.61764 21.1837 9.6026 21.1908 9.5877C21.1977 9.57313 21.205 9.55876 21.2111 9.54386C21.2171 9.52929 21.222 9.51446 21.2273 9.49969C21.2331 9.48372 21.2392 9.46796 21.2441 9.45166C21.2486 9.43689 21.2519 9.42192 21.2556 9.40695C21.2598 9.39039 21.2644 9.37389 21.2678 9.35699C21.2711 9.33976 21.2732 9.32234 21.2757 9.30497C21.2778 9.29014 21.2807 9.2755 21.2821 9.26047C21.2853 9.22827 21.287 9.19587 21.287 9.16354C21.287 9.16308 21.2871 9.16254 21.2871 9.16208C21.2871 9.16161 21.287 9.16108 21.287 9.16062C21.287 9.12822 21.2853 9.09589 21.2821 9.06362C21.2807 9.04879 21.2779 9.03435 21.2758 9.01965C21.2733 9.00209 21.2712 8.98453 21.2678 8.9671C21.2644 8.95033 21.2598 8.9341 21.2556 8.91767C21.2519 8.90257 21.2485 8.88733 21.244 8.87237C21.2391 8.85633 21.2331 8.84083 21.2275 8.82513C21.2221 8.8101 21.2172 8.795 21.2111 8.78023C21.205 8.7656 21.1979 8.75156 21.1911 8.73726C21.1839 8.72202 21.1771 8.70666 21.1692 8.69169C21.1618 8.67805 21.1535 8.66508 21.1456 8.65184C21.1369 8.63714 21.1286 8.6223 21.119 8.608C21.1093 8.59343 21.0984 8.57979 21.088 8.56576C21.079 8.55372 21.0706 8.54128 21.0609 8.52957C21.041 8.50535 21.0199 8.48214 20.9979 8.45985C20.9969 8.45879 20.996 8.45759 20.9949 8.45652L18.0013 5.46287C17.8064 5.26803 17.5511 5.17057 17.2957 5.17057C17.0404 5.17063 16.785 5.26802 16.5902 5.46281C16.2005 5.85251 16.2005 6.48428 16.5901 6.87398L17.8803 8.16428Z" fill="#E20000"/>
<path d="M0.997323 18.1429L13.6369 18.1429C14.188 18.1429 14.6348 17.6962 14.6348 17.1451L14.6348 13.1536C14.6348 12.6026 14.188 12.1558 13.6369 12.1558C13.0858 12.1558 12.639 12.6026 12.639 13.1536L12.639 16.1472L1.99518 16.1472L1.99518 2.17709L12.639 2.17709L12.639 5.17074C12.639 5.72183 13.0858 6.16861 13.6369 6.16861C14.188 6.16861 14.6348 5.72183 14.6348 5.17074L14.6348 1.17923C14.6348 0.628145 14.188 0.18137 13.6369 0.18137L0.997321 0.181371C0.446236 0.181371 -0.000539404 0.628146 -0.000539355 1.17923L-0.00053796 17.1451C-0.000537911 17.6962 0.446238 18.1429 0.997323 18.1429Z" fill="#E20000"/>
</svg>
