<svg width="20" height="20" viewBox="0 0 20 20" fill="none" xmlns="http://www.w3.org/2000/svg">
<path d="M9.87676 0.226715C4.55597 0.226715 0.227051 4.55563 0.227051 9.87643C0.227051 15.1972 4.55597 19.5261 9.87676 19.5261C15.1976 19.5261 19.5265 15.1972 19.5265 9.87643C19.5265 4.55563 15.1976 0.226715 9.87676 0.226715ZM11.3613 14.3301H8.39219C8.19532 14.3301 8.00652 14.2519 7.86732 14.1127C7.72811 13.9735 7.64991 13.7847 7.64991 13.5879C7.64991 13.391 7.72811 13.2022 7.86732 13.063C8.00652 12.9238 8.19532 12.8456 8.39219 12.8456H11.3613C11.5582 12.8456 11.747 12.9238 11.8862 13.063C12.0254 13.2022 12.1036 13.391 12.1036 13.5879C12.1036 13.7847 12.0254 13.9735 11.8862 14.1127C11.747 14.2519 11.5582 14.3301 11.3613 14.3301ZM13.5882 11.361H6.16533C5.96847 11.361 5.77967 11.2828 5.64046 11.1436C5.50125 11.0044 5.42305 10.8156 5.42305 10.6187C5.42305 10.4218 5.50125 10.233 5.64046 10.0938C5.77967 9.95463 5.96847 9.87643 6.16533 9.87643H13.5882C13.7851 9.87643 13.9739 9.95463 14.1131 10.0938C14.2523 10.233 14.3305 10.4218 14.3305 10.6187C14.3305 10.8156 14.2523 11.0044 14.1131 11.1436C13.9739 11.2828 13.7851 11.361 13.5882 11.361ZM15.0728 8.39186H4.68076C4.4839 8.39186 4.29509 8.31365 4.15589 8.17445C4.01668 8.03524 3.93848 7.84644 3.93848 7.64957C3.93848 7.4527 4.01668 7.2639 4.15589 7.12469C4.29509 6.98549 4.4839 6.90728 4.68076 6.90728H15.0728C15.2696 6.90728 15.4584 6.98549 15.5976 7.12469C15.7368 7.2639 15.815 7.4527 15.815 7.64957C15.815 7.84644 15.7368 8.03524 15.5976 8.17445C15.4584 8.31365 15.2696 8.39186 15.0728 8.39186Z" fill="white"/>
</svg>
