<svg width="22" height="22" viewBox="0 0 22 22" fill="none" xmlns="http://www.w3.org/2000/svg">
<path d="M10.0584 20.244H2.59556C2.31828 20.244 2.06562 20.1154 1.90226 19.8913C1.73885 19.6671 1.69386 19.387 1.77877 19.1229C2.62662 16.4869 5.21231 14.6459 8.06664 14.6459C9.39476 14.6459 10.6702 15.0459 11.755 15.8025C12.1436 16.0735 12.6782 15.9782 12.9493 15.5897C13.2203 15.2011 13.125 14.6664 12.7364 14.3954C12.1994 14.0208 11.6257 13.7153 11.0256 13.482C11.824 12.756 12.3538 11.7394 12.4458 10.601C13.6565 9.42163 15.2435 8.77538 16.9448 8.77538C18.2729 8.77538 19.5483 9.17533 20.6332 9.93193C21.0217 10.2029 21.5564 10.1077 21.8275 9.7191C22.0984 9.33054 22.0032 8.79588 21.6146 8.52483C21.0776 8.15027 20.5039 7.84472 19.9037 7.61144C20.7845 6.81059 21.3383 5.65611 21.3383 4.37469C21.3383 1.96251 19.3758 0 16.9636 0C14.5513 0 12.5888 1.96251 12.5888 4.37478C12.5888 5.65099 13.1382 6.80135 14.0128 7.60182C13.8931 7.64788 13.7743 7.69686 13.6564 7.74877C13.1196 7.98497 12.6148 8.27492 12.1455 8.61601C11.498 7.00833 9.92203 5.87061 8.08537 5.87061C5.67311 5.87061 3.71064 7.83312 3.71064 10.2454C3.71064 11.5179 4.25677 12.6652 5.12689 13.4654C2.80022 14.3373 0.913676 16.2098 0.145652 18.5977C-0.109067 19.3897 0.0258553 20.2295 0.515871 20.9018C1.0058 21.5741 1.76377 21.9597 2.5956 21.9597H10.0584C10.5322 21.9597 10.9162 21.5756 10.9162 21.1019C10.9162 20.6281 10.5321 20.244 10.0584 20.244ZM16.9636 1.71557C18.4299 1.71557 19.6228 2.90847 19.6228 4.37473C19.6228 5.841 18.4299 7.0339 16.9636 7.0339C15.4974 7.0339 14.3045 5.841 14.3045 4.37473C14.3045 2.90847 15.4974 1.71557 16.9636 1.71557ZM8.08542 7.58613C9.55168 7.58613 10.7446 8.77903 10.7446 10.2453C10.7446 11.7116 9.55168 12.9045 8.08542 12.9045C6.61915 12.9045 5.42625 11.7116 5.42625 10.2453C5.42625 8.77903 6.61915 7.58613 8.08542 7.58613Z" fill="white"/>
<path d="M21.6235 14.0113C21.2383 13.7356 20.7024 13.8242 20.4267 14.2095L16.1985 20.1154C16.0831 20.2493 15.9384 20.2782 15.8608 20.2834C15.7811 20.2889 15.6261 20.2785 15.4932 20.152L12.756 17.5237C12.4142 17.1955 11.8712 17.2067 11.5432 17.5484C11.215 17.89 11.2261 18.4331 11.5678 18.7612L14.3077 21.3921C14.7181 21.7827 15.2659 22 15.8294 22C15.8779 22 15.9264 21.9985 15.975 21.9952C16.5889 21.9543 17.1621 21.6557 17.5476 21.1761C17.5576 21.1637 17.5671 21.151 17.5765 21.1381L21.8217 15.2081C22.0974 14.8229 22.0087 14.2871 21.6235 14.0113Z" fill="white"/>
</svg>
