<svg width="28" height="25" viewBox="0 0 28 25" fill="none" xmlns="http://www.w3.org/2000/svg">
<path d="M27.0022 2.5315V15.4703C27.0022 16.8654 25.8659 18.0018 24.4707 18.0018H7.0315C6.91899 18.0018 6.80648 17.9905 6.70522 17.9793C5.52385 17.833 4.60126 16.8654 4.51125 15.6728L4.5 15.4703V2.5315C4.5 1.13636 5.63636 0 7.0315 0H24.4707C25.8659 0 27.0022 1.13636 27.0022 2.5315Z" fill="#ECEFF1"/>
<path d="M15.8917 0H7.0315C5.63636 0 4.5 1.13636 4.5 2.5315V15.4703L4.51125 15.6728C4.60126 16.8654 5.52385 17.833 6.70522 17.9793C6.80648 17.9905 6.91899 18.0018 7.0315 18.0018H15.8917V0Z" fill="#CDD0D2"/>
<path d="M27.0021 12.3088V15.4703C27.0021 16.8655 25.8657 18.0018 24.4706 18.0018H7.03136C6.91885 18.0018 6.80634 17.9906 6.70508 17.9793L18.2937 6.3907C19.0588 5.62563 20.3189 5.62563 21.084 6.3907L27.0021 12.3088Z" fill="#388E3C"/>
<path d="M19.5932 5.8208C19.1196 5.8433 18.6526 6.03457 18.2937 6.39236L6.70508 17.981C6.80634 17.9922 6.91885 18.0035 7.03136 18.0035H19.5932V5.8208Z" fill="#317C34"/>
<path d="M20.3186 18.0019H7.03099C6.91848 18.0019 6.80597 17.9907 6.70471 17.9794C5.52334 17.8332 4.60075 16.8656 4.51074 15.673L9.85502 10.3287C10.6201 9.56361 11.8802 9.56361 12.6453 10.3287L20.3186 18.0019Z" fill="#4CAF50"/>
<path d="M11.2502 9.75488C10.7439 9.75488 10.2376 9.94615 9.85502 10.3287L4.51074 15.673C4.60075 16.8656 5.52334 17.8332 6.70471 17.9794C6.80597 17.9907 6.91848 18.0019 7.03099 18.0019H11.3087V9.75601C11.2895 9.75488 11.2693 9.75488 11.2502 9.75488Z" fill="#429846"/>
<path d="M10.1252 3.37549C8.88422 3.37549 7.875 4.38471 7.875 5.62571C7.875 6.86671 8.88422 7.87593 10.1252 7.87593C11.3662 7.87593 12.3754 6.86671 12.3754 5.62571C12.3754 4.38471 11.3662 3.37549 10.1252 3.37549Z" fill="#FFC107"/>
<path d="M10.1252 3.37549C8.88422 3.37549 7.875 4.38471 7.875 5.62571C7.875 6.86671 8.88422 7.87593 10.1252 7.87593C10.1488 7.87593 10.1725 7.87593 10.195 7.8748V3.37661C10.1725 3.37549 10.1488 3.37549 10.1252 3.37549Z" fill="#DEA806"/>
<path d="M7.03128 19.6893C5.22998 19.6893 3.62782 18.5361 3.04614 16.8192L3.00676 16.6898C2.8695 16.2353 2.81211 15.8527 2.81211 15.4702V7.80029L0.0825959 16.9103C-0.268439 18.2503 0.531515 19.6398 1.87377 20.01L19.2714 24.6691C19.4885 24.7253 19.7057 24.7523 19.9194 24.7523C21.04 24.7523 22.0639 24.0086 22.3508 22.9128L23.3634 19.6893H7.03128Z" fill="#ECEFF1"/>
<path d="M2.81211 7.80029L0.0825959 16.9103C-0.268439 18.2503 0.531515 19.6398 1.87377 20.01L10.4077 22.2951L11.2696 19.6893H7.03128C5.22998 19.6893 3.62782 18.5361 3.04614 16.8192L3.00676 16.6898C2.8695 16.2352 2.81211 15.8527 2.81211 15.4702V7.80029Z" fill="#CDD0D2"/>
</svg>
