<svg width="32" height="33" viewBox="0 0 32 33" fill="none" xmlns="http://www.w3.org/2000/svg">
<path d="M31.9903 16.8643C32.0098 15.7305 31.8941 14.5984 31.6459 13.4925H16.3187V19.6149H25.3151C25.1447 20.6881 24.7612 21.7155 24.1878 22.6351C23.6144 23.5548 22.8628 24.3477 21.9783 24.9663L21.9477 25.1713L26.7944 28.9645L27.1308 28.9986C28.7354 27.4317 29.9971 25.5423 30.8344 23.4522C31.6717 21.3622 32.0661 19.1179 31.992 16.8643" fill="#E94057"/>
<path d="M16.3187 32.9935C20.2953 33.1069 24.1638 31.6767 27.1292 28.997L21.9783 24.9647C20.3077 26.0966 18.3292 26.6732 16.3187 26.6141C14.2543 26.6031 12.2458 25.9348 10.5788 24.7043C8.9117 23.4738 7.67086 21.7436 7.0326 19.7596L6.84105 19.7759L1.80282 23.7171L1.73682 23.9026C3.09399 26.6357 5.17674 28.9334 7.75219 30.5389C10.3276 32.1443 13.2943 32.9942 16.3203 32.9935" fill="#E94057"/>
<path d="M7.03099 19.7613C6.67431 18.711 6.49052 17.6088 6.48692 16.4984C6.49359 15.3897 6.67117 14.2889 7.01328 13.2355L7.00362 13.0175L1.90101 9.01286L1.74004 9.09256C0.596416 11.3885 0.000747681 13.9231 0.000747681 16.4935C0.000747681 19.0639 0.596416 21.5985 1.74004 23.8944L7.03582 19.7515" fill="#E94057"/>
<path d="M16.3187 6.37943C18.6576 6.34291 20.9197 7.22319 22.6302 8.83556L27.237 4.28115C24.2809 1.48367 20.3684 -0.0498473 16.3187 0.00162107C13.2921 0.00109763 10.325 0.85141 7.7492 2.45746C5.17344 4.06352 3.09059 6.36198 1.7336 9.09581L7.00684 13.2355C7.65254 11.2523 8.89795 9.52406 10.5675 8.29429C12.237 7.06453 14.2463 6.39533 16.3123 6.38106" fill="#E94057"/>
</svg>
