<svg width="22" height="22" viewBox="0 0 22 22" fill="none" xmlns="http://www.w3.org/2000/svg">
<path d="M21.999 10.3555H20.6882C20.5662 8.47278 19.9103 6.69452 18.772 5.17841L18.3261 4.58441L16.4336 6.47693L17.3451 7.38842L18.1637 6.56978C18.8756 7.71529 19.2948 9.00323 19.396 10.3555H18.1318V11.6446H19.396C19.2948 12.9968 18.8756 14.2848 18.1637 15.4303L17.3451 14.6116L16.4336 15.5231L18.3261 17.4157L18.772 16.8217C19.9103 15.3055 20.5662 13.5272 20.6882 11.6445H21.999V10.3555Z" fill="#333333"/>
<path d="M14.6132 17.3461L15.4318 18.1647C14.2863 18.8767 12.9983 19.2959 11.6461 19.397V18.1328H10.357V19.397C9.0048 19.2959 7.71681 18.8766 6.57131 18.1647L7.38995 17.3461L6.47845 16.4346L4.58594 18.3271L5.17994 18.773C6.69609 19.9113 8.47435 20.5672 10.357 20.6892V22H11.6461V20.6892C13.5288 20.5672 15.307 19.9113 16.8231 18.773L17.4171 18.3271L15.5246 16.4346L14.6132 17.3461Z" fill="#333333"/>
<path d="M4.6539 14.6116L3.83526 15.4302C3.12336 14.2847 2.70415 12.9968 2.60305 11.6445H3.86719V10.3555H2.60305C2.70415 9.00324 3.1234 7.71525 3.83526 6.56975L4.6539 7.38839L5.5654 6.47689L3.67293 4.58438L3.227 5.17838C2.08871 6.69453 1.43279 8.47279 1.31085 10.3555H0V11.6445H1.31085C1.43279 13.5272 2.08871 15.3055 3.227 16.8216L3.67293 17.4156L5.5654 15.5231L4.6539 14.6116Z" fill="#333333"/>
<path d="M7.38991 4.6539L6.57127 3.83526C7.71677 3.12335 9.00476 2.70415 10.357 2.60305V3.86719H11.646V2.60305C12.9983 2.70415 14.2863 3.1234 15.4318 3.83526L14.6131 4.6539L15.5246 5.5654L17.4171 3.67292L16.8231 3.22699C15.307 2.08871 13.5287 1.43279 11.646 1.31085V-1.90735e-06H10.357V1.31085C8.47431 1.43279 6.69605 2.08871 5.17994 3.22695L4.58594 3.67288L6.47845 5.56535L7.38991 4.6539Z" fill="#333333"/>
<path d="M11.002 7.87647C9.75809 7.87647 8.74609 8.88847 8.74609 10.1323C8.74609 11.3762 9.75809 12.3882 11.002 12.3882C12.2458 12.3882 13.2578 11.3762 13.2578 10.1323C13.2578 8.88847 12.2458 7.87647 11.002 7.87647ZM11.002 11.0991C10.4689 11.0991 10.0352 10.6654 10.0352 10.1323C10.0352 9.59926 10.4689 9.16554 11.002 9.16554C11.535 9.16554 11.9688 9.59926 11.9688 10.1323C11.9688 10.6654 11.535 11.0991 11.002 11.0991Z" fill="#333333"/>
<path d="M11.002 5.29835C8.33647 5.29835 6.16797 7.46689 6.16797 10.1323C6.16797 11.4236 6.67079 12.6375 7.58383 13.5505L11.002 16.9686L14.4201 13.5505C15.3331 12.6375 15.8359 11.4235 15.8359 10.1323C15.8359 7.46685 13.6674 5.29835 11.002 5.29835ZM13.5086 12.639L11.002 15.1456L8.49533 12.639C7.82579 11.9694 7.45703 11.0792 7.45703 10.1323C7.45703 8.17764 9.0473 6.58737 11.002 6.58737C12.9566 6.58737 14.5469 8.17764 14.5469 10.1323C14.5469 11.0792 14.1782 11.9695 13.5086 12.639Z" fill="#333333"/>
</svg>
