<svg width="13" height="18" viewBox="0 0 13 18" fill="none" xmlns="http://www.w3.org/2000/svg">
<path d="M11.9876 7.81172V5.64952C11.9876 2.74919 9.63574 0.389618 6.74483 0.389618C3.85393 0.389618 1.50202 2.74919 1.50202 5.64952V7.79131C1.17603 7.9161 0.853516 8.19758 0.853516 8.7552V11.6998C0.853516 14.9589 3.49639 17.6104 6.74488 17.6104C9.99337 17.6104 12.6362 14.9589 12.6362 11.6998V8.7552C12.6362 8.2261 12.3215 7.94561 11.9876 7.81172ZM7.86459 14.1389C7.88303 14.2369 7.81677 14.3171 7.71734 14.3171H5.79452C5.69509 14.3171 5.62883 14.2369 5.64727 14.1389L5.95523 12.5014C5.72017 12.2863 5.57265 11.9766 5.57265 11.6323C5.57265 10.9828 6.09746 10.4563 6.74483 10.4563C7.39221 10.4563 7.91701 10.9828 7.91701 11.6323C7.91701 11.9673 7.77723 12.2692 7.55324 12.4834L7.86459 14.1389ZM10.1798 7.70675H3.30982V5.64952C3.30982 3.74931 4.85075 2.20331 6.74483 2.20331C8.63887 2.20331 10.1798 3.74931 10.1798 5.64952V7.70675Z" fill="#C1C1C1"/>
</svg>
