<svg width="46" height="46" viewBox="0 0 46 46" fill="none" xmlns="http://www.w3.org/2000/svg">
<path d="M39.264 6.73637C30.282 -2.24463 15.719 -2.24563 6.736 6.73637C-2.246 15.7184 -2.245 30.2814 6.736 39.2644C15.718 48.2444 30.281 48.2454 39.264 39.2644C48.245 30.2814 48.244 15.7194 39.264 6.73637ZM25.999 33.0004C25.999 34.6574 24.656 36.0004 22.999 36.0004C21.342 36.0004 19.999 34.6574 19.999 33.0004V21.0004C19.999 19.3434 21.342 18.0004 22.999 18.0004C24.656 18.0004 25.999 19.3434 25.999 21.0004V33.0004ZM22.946 15.8724C21.218 15.8724 20.066 14.6484 20.102 13.1374C20.066 11.5534 21.218 10.3664 22.981 10.3664C24.745 10.3664 25.861 11.5544 25.898 13.1374C25.897 14.6484 24.746 15.8724 22.946 15.8724Z" fill="white"/>
</svg>
