<svg width="23" height="31" viewBox="0 0 23 31" fill="none" xmlns="http://www.w3.org/2000/svg">
<g clip-path="url(#clip0_339_1354)">
<path d="M29.2384 25.5825L17.6584 14.0025L4.12915 0.473244H3.07183L2.85594 1.02183C2.28613 2.46981 2.04266 3.95079 2.15196 5.30446C2.27655 6.8475 2.86275 8.18341 3.84727 9.16793L14.4089 19.7296L15.802 18.3365L25.5662 29.2548C26.5376 30.2261 28.2094 30.2838 29.2384 29.2548C30.2509 28.2423 30.2509 26.595 29.2384 25.5825Z" fill="#C1C1C1"/>
<path d="M9.51404 17.2852L1.2422 25.557C0.229813 26.5694 0.229813 28.2168 1.2422 29.2292C2.20394 30.1909 3.8677 30.2758 4.91435 29.2292L13.1863 20.9573L9.51404 17.2852Z" fill="#C1C1C1"/>
<path d="M28.7522 5.38992L24.0599 10.0821L22.8358 8.85806L27.5281 4.16579L26.304 2.94172L21.6118 7.63393L20.3877 6.40986L25.08 1.71765L23.856 0.493637L17.7356 6.61399C16.9869 7.36272 16.5398 8.35688 16.4766 9.41345C16.4606 9.68114 16.4 9.94445 16.2993 10.1949L20.2751 14.1707C20.5255 14.0699 20.7889 14.0093 21.0565 13.9933C22.1131 13.9303 23.1073 13.4831 23.856 12.7343L29.9763 6.61404L28.7522 5.38992Z" fill="#C1C1C1"/>
</g>
<defs>
<clipPath id="clip0_339_1354">
<rect width="29.5318" height="29.5318" fill="white" transform="translate(0.474121 0.473999)"/>
</clipPath>
</defs>
</svg>
