<svg width="30" height="30" viewBox="0 0 30 30" fill="none" xmlns="http://www.w3.org/2000/svg">
<g clip-path="url(#clip0_339_1354)">
<path d="M28.7643 25.1085L17.1843 13.5285L3.65503 -0.000756264H2.59771L2.38182 0.547831C1.812 1.99581 1.56854 3.47679 1.67784 4.83046C1.80243 6.3735 2.38862 7.70941 3.37315 8.69393L13.9348 19.2556L15.3279 17.8625L25.0921 28.7808C26.0634 29.7521 27.7353 29.8098 28.7643 28.7808C29.7768 27.7683 29.7768 26.121 28.7643 25.1085Z" fill="#C1C1C1"/>
<path d="M9.03992 16.8112L0.768079 25.083C-0.244308 26.0954 -0.244308 27.7428 0.768079 28.7552C1.72982 29.7169 3.39358 29.8018 4.44023 28.7552L12.7121 20.4833L9.03992 16.8112Z" fill="#C1C1C1"/>
<path d="M28.2781 4.91592L23.5858 9.60813L22.3617 8.38406L27.054 3.69179L25.8299 2.46772L21.1377 7.15993L19.9136 5.93586L24.6059 1.24365L23.3819 0.0196371L17.2615 6.13999C16.5128 6.88872 16.0657 7.88288 16.0025 8.93945C15.9865 9.20714 15.9258 9.47045 15.8252 9.72089L19.801 13.6967C20.0514 13.5959 20.3148 13.5353 20.5824 13.5193C21.639 13.4563 22.6331 13.0091 23.3819 12.2603L29.5022 6.14004L28.2781 4.91592Z" fill="#C1C1C1"/>
</g>
<defs>
<clipPath id="clip0_339_1354">
<rect width="29.5318" height="29.5318" fill="white"/>
</clipPath>
</defs>
</svg>
