<svg width="27" height="30" viewBox="0 0 27 30" fill="none" xmlns="http://www.w3.org/2000/svg">
<path d="M16.4621 7.16126C16.3595 7.16126 16.2552 7.14317 16.1535 7.10495C15.699 6.93443 15.4687 6.42792 15.6393 5.97336L17.2375 1.71089C17.6214 0.687561 18.6136 0 19.7065 0H25.5196C26.0051 0 26.3985 0.393448 26.3985 0.878906C26.3985 1.36436 26.0051 1.75781 25.5196 1.75781H19.7065C19.3421 1.75781 19.0116 1.98692 18.8837 2.32819L17.2851 6.59065C17.1528 6.94336 16.818 7.16126 16.4621 7.16126Z" fill="#53433F"/>
<path d="M16.5436 21.7124C17.0492 19.6843 16.5109 17.447 14.9284 15.8645C14.7636 15.6997 14.54 15.607 14.307 15.607C14.0738 15.607 13.8504 15.6997 13.6856 15.8645L6.22771 23.3221C6.06291 23.4872 5.97021 23.7106 5.97021 23.9438C5.97021 24.1768 6.06291 24.4004 6.22771 24.5652C7.42705 25.7645 9.00267 26.3642 10.5781 26.3642C10.9749 26.3642 11.3716 26.3262 11.7625 26.25C11.7978 26.2457 11.8333 26.2392 11.8687 26.2303C11.8758 26.2285 11.8827 26.226 11.8898 26.2239C13.0042 25.9824 14.0639 25.4297 14.9284 24.5652C15.7153 23.7783 16.244 22.8296 16.5146 21.825C16.5221 21.8031 16.529 21.7804 16.5347 21.7573C16.5386 21.7424 16.5407 21.7273 16.5436 21.7124ZM14.2445 17.7914C14.7751 18.5934 15.0145 19.5325 14.9637 20.4586L12.2546 19.7813L14.2445 17.7914ZM9.93124 22.1047L10.5568 24.6062C9.71793 24.6023 8.88022 24.3613 8.15466 23.8813L9.93124 22.1047ZM12.2832 24.2645L11.5728 21.4229L14.5183 22.1592C14.3114 22.5792 14.0344 22.9733 13.6854 23.3221C13.2709 23.7369 12.7932 24.0507 12.2832 24.2645Z" fill="#FFD400"/>
<path d="M16.8976 30H6.01659C4.65634 30 3.52841 28.9792 3.39292 27.6256L1.92967 12.8748C1.88161 12.3919 2.23454 11.9614 2.71749 11.9135C3.20066 11.8655 3.63095 12.2182 3.67902 12.7013L5.14226 27.4514C5.18712 27.9018 5.56317 28.2422 6.01659 28.2422H16.8976C17.351 28.2422 17.7269 27.9018 17.772 27.4507L19.2352 12.7013C19.2833 12.2182 19.7136 11.8657 20.1967 11.9135C20.6797 11.9614 21.0324 12.3919 20.9845 12.8748L19.5213 27.6249C19.3858 28.9792 18.2579 30 16.8976 30Z" fill="#FDBF00"/>
<path d="M7.94141 17.5781C6.48755 17.5781 5.30469 16.3953 5.30469 14.9414V13.9728C5.01675 14.0323 4.72218 14.0625 4.42578 14.0625C2.00261 14.0625 0.03125 12.0911 0.03125 9.66797C0.03125 7.2448 2.00261 5.27344 4.42578 5.27344C4.89796 5.27344 5.36397 5.35034 5.80846 5.49934C6.20282 4.57672 6.82057 3.75343 7.60609 3.11829C8.69145 2.24098 10.059 1.75781 11.457 1.75781C12.855 1.75781 14.2226 2.24098 15.308 3.11829C16.0935 3.75343 16.7112 4.57672 17.1056 5.49934C17.5501 5.35034 18.0161 5.27344 18.4883 5.27344C20.9115 5.27344 22.8828 7.2448 22.8828 9.66797C22.8828 12.0911 20.9115 14.0625 18.4883 14.0625C17.2734 14.0625 16.1283 13.5512 15.3091 12.6814C14.2196 13.5686 12.8626 14.0625 11.457 14.0625C11.1613 14.0625 10.8677 14.0412 10.5781 13.9989V14.9414C10.5781 16.3953 9.39526 17.5781 7.94141 17.5781ZM6.18359 11.8263C6.33397 11.8263 6.48457 11.8648 6.61961 11.9421C6.89359 12.0987 7.0625 12.3898 7.0625 12.7052V14.9414C7.0625 15.426 7.45686 15.8203 7.94141 15.8203C8.42595 15.8203 8.82031 15.426 8.82031 14.9414V12.8767C8.82031 12.5901 8.95993 12.3216 9.19431 12.1571C9.42891 11.9925 9.72875 11.9527 9.99814 12.0499C10.4653 12.2191 10.956 12.3047 11.457 12.3047C12.7108 12.3047 13.9141 11.748 14.758 10.7771C14.9463 10.5606 15.2285 10.4496 15.5142 10.4798C15.7996 10.5103 16.0523 10.678 16.1908 10.9296C16.6586 11.7778 17.5389 12.3047 18.4883 12.3047C19.9421 12.3047 21.125 11.1218 21.125 9.66797C21.125 8.21411 19.9421 7.03125 18.4883 7.03125C17.9852 7.03125 17.4917 7.17865 17.0612 7.45743C16.8207 7.61307 16.5197 7.64168 16.2542 7.53433C15.9887 7.42699 15.7921 7.19696 15.7275 6.91795C15.2631 4.91478 13.5071 3.51563 11.457 3.51563C9.40694 3.51563 7.65096 4.91478 7.18678 6.91795C7.12201 7.19696 6.9254 7.42699 6.66013 7.53433C6.39439 7.64191 6.09341 7.61307 5.85286 7.45743C5.42233 7.17865 4.92886 7.03125 4.42578 7.03125C2.97192 7.03125 1.78906 8.21411 1.78906 9.66797C1.78906 11.1218 2.97192 12.3047 4.42578 12.3047C4.88789 12.3047 5.34154 12.1813 5.73727 11.9481C5.87506 11.8668 6.02933 11.8263 6.18359 11.8263Z" fill="#DEECF1"/>
</svg>
