<svg width="87" height="86" viewBox="0 0 87 86" fill="none" xmlns="http://www.w3.org/2000/svg">
<path d="M34.6901 76.6735C53.3614 81.6764 72.5532 70.5961 77.5561 51.9247C82.5591 33.2534 71.4787 14.0616 52.8074 9.05867C34.1361 4.0557 14.9443 15.1361 9.94133 33.8074C4.93837 52.4787 16.0188 71.6705 34.6901 76.6735Z" fill="#1AC865"/>
<path d="M44.3291 31.7928L40.9739 29.8551C40.7903 29.7506 40.5853 29.689 40.3744 29.675C40.1635 29.6611 39.9522 29.6951 39.7563 29.7746C39.6153 29.8322 39.4873 29.9177 39.3801 30.0259C39.2728 30.1341 39.1885 30.2627 39.132 30.4042L38.3313 31.7915C38.2366 31.9132 38.1672 32.0527 38.1273 32.2017C38.0874 32.3507 38.0777 32.5062 38.0989 32.659C38.1132 32.7647 38.1403 32.8683 38.1796 32.9675C37.5831 33.6617 36.8836 34.5275 36.1335 35.498C35.4772 36.3462 34.7825 37.2731 34.0851 38.2352C33.1128 38.3231 32.1747 38.6377 31.3461 39.1538C30.5174 39.6699 29.8213 40.3731 29.3135 41.2069L22.426 53.1362C22.1181 53.7215 22.0544 54.4048 22.249 55.0369C22.4435 55.6689 22.8804 56.1982 23.464 56.5091L26.7329 58.3971L30.0018 60.2851C30.2115 60.4063 30.4361 60.4996 30.67 60.5624C31.0705 60.6707 31.491 60.6828 31.8971 60.5977C32.218 60.5343 32.5217 60.4034 32.7882 60.2138C33.0547 60.0242 33.2779 59.7801 33.443 59.4977L34.3895 57.8587L40.3267 47.5727C40.7937 46.7163 41.0536 45.7624 41.0856 44.7875C41.1175 43.8125 40.9207 42.8437 40.5108 41.9585C41.2035 40.4042 41.8386 38.8915 42.3494 37.5753L42.3527 37.5629C42.6103 36.9041 42.8371 36.2954 43.028 35.7516C43.2162 35.7151 43.3943 35.6387 43.5504 35.5275C43.7065 35.4162 43.8368 35.2727 43.9326 35.1067L44.8077 33.5906C44.9804 33.2882 45.027 32.93 44.9374 32.5935C44.8478 32.257 44.6293 31.9693 44.3291 31.7928ZM32.1002 58.7142C32.0435 58.8073 31.9676 58.8872 31.8776 58.9488C31.7876 59.0103 31.6856 59.052 31.5783 59.0711C31.3046 59.1252 31.0207 59.0761 30.7811 58.9332L27.5119 57.0465L24.243 55.1585C24.0188 55.0504 23.845 54.8601 23.7575 54.6272C23.67 54.3942 23.6757 54.1365 23.7733 53.9076L24.3314 52.9402L32.6592 57.7483L32.1002 58.7142ZM33.4322 56.4001L25.1043 51.5919L30.2619 42.659L38.5898 47.4672L33.4322 56.4001ZM39.2937 46.0793L31.112 41.3554C31.5018 40.8937 31.9832 40.5179 32.5257 40.2517C33.0682 39.9856 33.66 39.8349 34.2637 39.8091C34.4138 39.8454 34.5713 39.8361 34.7161 39.7823C34.8608 39.7286 34.9863 39.6329 35.0764 39.5075C35.7423 38.5836 36.4059 37.6882 37.0391 36.8617L40.5846 37.8117C40.1907 38.786 39.7425 39.844 39.2611 40.937L39.0909 40.8383C38.9125 40.7353 38.7004 40.7075 38.5014 40.7609C38.3024 40.8143 38.1327 40.9446 38.0298 41.1231C37.9268 41.3015 37.899 41.5136 37.9524 41.7126C38.0058 41.9116 38.1361 42.0813 38.3146 42.1842L39.1141 42.6455C39.6207 43.7232 39.6864 44.9561 39.2971 46.0815L39.2937 46.0793ZM42.681 34.1763L42.6463 34.167L42.5918 34.1524L42.5732 34.1474L42.5169 34.1443L42.5021 34.1403L42.4336 34.1432L42.4117 34.1453L42.365 34.1514L42.3369 34.1571L42.2972 34.1664L42.27 34.1737L42.229 34.188L42.2055 34.1963L42.1513 34.2203L42.1438 34.2183C42.1225 34.2285 42.1021 34.2403 42.0825 34.2537L42.0696 34.2622L42.0252 34.2941L42.0082 34.3081L41.9722 34.3383L41.9529 34.3558L41.9235 34.3864L41.9044 34.4079L41.8784 34.4407L41.8599 34.465C41.8487 34.4819 41.8375 34.4988 41.8276 34.5161C41.8177 34.5334 41.8042 34.559 41.7945 34.5803L41.7905 34.5951C41.7905 34.5951 41.7888 34.6013 41.7878 34.6051C41.7819 34.6274 41.7755 34.6509 41.7621 34.6712C41.602 35.1596 41.4015 35.7195 41.1642 36.3426L38.0835 35.5171C38.7101 34.7301 39.2749 34.0446 39.756 33.5134C39.7712 33.4962 39.7852 33.4787 39.7995 33.46L39.8025 33.4488L39.8058 33.4364C39.8205 33.4165 39.833 33.3946 39.8455 33.3727C39.858 33.3508 39.8644 33.3366 39.8731 33.319C39.8818 33.3014 39.8781 33.3004 39.8808 33.2905C39.8834 33.2806 39.8881 33.2632 39.8917 33.2496C39.8954 33.236 39.8964 33.2323 39.8987 33.2236C39.901 33.2149 39.9067 33.1938 39.9103 33.1802C39.914 33.1666 39.9146 33.1641 39.9166 33.1567C39.9186 33.1492 39.9253 33.1244 39.9296 33.1083L39.9346 33.0897C39.9396 33.0712 39.9449 33.0513 39.9399 33.0301L39.9426 33.0202C39.9436 32.9965 39.9434 32.9726 39.9419 32.9483C39.941 32.9268 39.9386 32.9062 39.9352 32.8841L39.931 32.8603L39.9214 32.8166L39.9141 32.7894L39.902 32.7503L39.8922 32.7224L39.8751 32.682L39.8653 32.6594C39.8559 32.6397 39.8454 32.6196 39.8333 32.6004L39.822 32.5828L39.7938 32.5393L39.7801 32.5211L39.746 32.48L39.7325 32.4658L39.7212 32.4535L40.3895 31.2977L43.3434 33.003L42.681 34.1763Z" fill="white"/>
<path d="M37.3802 39.3851L37.3628 39.3804C37.1843 39.2776 36.9723 39.25 36.7733 39.3035C36.5744 39.3571 36.4049 39.4875 36.3021 39.666C36.1993 39.8445 36.1717 40.0566 36.2252 40.2555C36.2788 40.4544 36.4092 40.6239 36.5877 40.7267L36.6051 40.7314C36.6935 40.7823 36.791 40.8153 36.8922 40.8285C36.9933 40.8416 37.0961 40.8348 37.1945 40.8083C37.293 40.7818 37.3854 40.7361 37.4662 40.6739C37.5471 40.6117 37.6149 40.5342 37.6658 40.4458C37.7167 40.3574 37.7497 40.2598 37.7629 40.1587C37.776 40.0575 37.7692 39.9548 37.7427 39.8563C37.7162 39.7578 37.6705 39.6655 37.6083 39.5846C37.5461 39.5038 37.4686 39.436 37.3802 39.3851Z" fill="white"/>
<path d="M34.7229 48.6094C34.5475 47.9548 34.1507 47.3812 33.5999 46.9865C33.0491 46.5917 32.3784 46.4001 31.7022 46.4444C31.026 46.4887 30.3861 46.7661 29.8915 47.2293C29.3968 47.6925 29.0782 48.3129 28.9897 48.9848C28.9012 49.6567 29.0485 50.3384 29.4063 50.9139C29.7642 51.4893 30.3105 51.9229 30.9522 52.1407C31.5939 52.3585 32.2913 52.3471 32.9255 52.1083C33.5597 51.8696 34.0915 51.4183 34.4303 50.8314C34.6235 50.4988 34.7489 50.1311 34.7991 49.7497C34.8493 49.3683 34.8234 48.9807 34.7229 48.6094ZM33.0856 50.0554C32.9265 50.331 32.6768 50.5429 32.379 50.655C32.0812 50.7672 31.7537 50.7726 31.4524 50.6703C31.151 50.568 30.8945 50.3645 30.7264 50.0942C30.5584 49.824 30.4893 49.5039 30.5308 49.1884C30.5724 48.8729 30.722 48.5815 30.9543 48.364C31.1866 48.1465 31.4871 48.0163 31.8046 47.9955C32.1222 47.9748 32.4371 48.0648 32.6957 48.2502C32.9543 48.4356 33.1406 48.705 33.2229 49.0124C33.2699 49.1874 33.2818 49.3699 33.2581 49.5495C33.2344 49.7291 33.1754 49.9023 33.0846 50.0591L33.0856 50.0554Z" fill="white"/>
<path d="M57.3996 62.5074L57.3954 48.7381C57.3725 47.7621 57.1213 46.8051 56.6617 45.9438C56.202 45.0825 55.547 44.341 54.7489 43.7787C54.6247 42.5965 54.4856 41.4502 54.3436 40.3841C54.1779 39.1682 54.0063 38.0689 53.8368 37.1695C53.9204 37.1031 53.9956 37.027 54.061 36.9427C54.1568 36.8203 54.2269 36.6798 54.2672 36.5297C54.3074 36.3796 54.3169 36.2229 54.2951 36.069L54.2953 34.4672C54.3172 34.3165 54.3084 34.1629 54.2696 34.0155C54.2308 33.8682 54.1627 33.7302 54.0694 33.6098C53.9396 33.4431 53.7736 33.3079 53.584 33.2146C53.3943 33.1212 53.186 33.072 52.9747 33.0708L49.1005 33.07C48.7501 33.0704 48.4141 33.2099 48.1664 33.4578C47.9186 33.7057 47.7794 34.0417 47.7793 34.3922L47.7791 36.1427C47.7791 36.3344 47.8202 36.5238 47.8997 36.6982C47.9793 36.8726 48.0954 37.0278 48.2401 37.1535C48.1348 37.715 48.0269 38.3555 47.9192 39.0598L47.9153 39.0747C47.7035 40.4697 47.5037 42.0977 47.3166 43.7875C46.519 44.3491 45.8641 45.0897 45.4043 45.95C44.9446 46.8103 44.6927 47.7663 44.6689 48.7415L44.6683 62.5042C44.6701 62.8313 44.7413 63.1543 44.8773 63.4517C45.0133 63.7492 45.2109 64.0144 45.4571 64.2298C45.7662 64.5066 46.1364 64.7063 46.5375 64.8128C46.7714 64.8753 47.0126 64.9069 47.2548 64.9067L54.8055 64.907C55.4674 64.911 56.1073 64.6699 56.602 64.2302C56.8494 64.016 57.0485 63.7516 57.1861 63.4546C57.3236 63.1576 57.3964 62.8347 57.3996 62.5074ZM49.4452 36.0021L49.4117 35.9931L49.3733 35.9828L49.3324 35.9718L49.3328 34.6371L52.7436 34.6372L52.7432 35.9719L52.7272 35.977L52.7085 35.9826L52.6584 36.001L52.6374 36.01L52.5916 36.0323L52.573 36.0419C52.5542 36.0528 52.535 36.0649 52.5158 36.077L52.4944 36.0926L52.4606 36.1194L52.4379 36.1399L52.4094 36.1668L52.3891 36.1879L52.3603 36.2213L52.3447 36.2397C52.3323 36.2563 52.3199 36.2729 52.3087 36.2899C52.2953 36.3102 52.2831 36.3308 52.2722 36.3518L52.2695 36.3617C52.2645 36.3803 52.2521 36.3969 52.2447 36.4148C52.2372 36.4327 52.2414 36.4272 52.2394 36.4347C52.2374 36.4421 52.2307 36.4669 52.2264 36.483C52.2221 36.4991 52.2221 36.4991 52.2201 36.5065C52.2181 36.514 52.2125 36.535 52.2085 36.5499C52.2045 36.5648 52.2038 36.5672 52.2015 36.5759C52.1992 36.5846 52.1942 36.6032 52.1905 36.6168C52.1869 36.6304 52.1856 36.6354 52.1829 36.6453C52.1803 36.6552 52.1797 36.687 52.1806 36.7084C52.1815 36.7299 52.1817 36.7539 52.1838 36.7757L52.1795 36.7918L52.1775 36.7993C52.1802 36.8239 52.1845 36.8476 52.1887 36.8713C52.3338 37.5743 52.4865 38.4467 52.6353 39.4429L49.5558 38.6177C49.663 37.9598 49.7695 37.3694 49.8737 36.8713C49.8797 36.849 49.886 36.8255 49.8845 36.8012L49.8885 36.7863L49.8925 36.7714C49.8985 36.7491 49.8954 36.7257 49.8952 36.7017C49.895 36.6778 49.8947 36.6591 49.8926 36.6373L49.8893 36.6098L49.8822 36.5668L49.8762 36.5399L49.8654 36.4959L49.8583 36.4727L49.8426 36.4273L49.8348 36.4066L49.812 36.358L49.8054 36.343C49.7949 36.3225 49.7834 36.303 49.7706 36.2845L49.7572 36.265L49.732 36.2303L49.7088 36.2029L49.6896 36.1804L49.6605 36.1501L49.6433 36.1348L49.609 36.1044L49.5966 36.1011C49.556 36.0692 49.5122 36.0414 49.4661 36.0183L49.4452 36.0021ZM48.1889 45.0824L49.1119 45.0827C49.2139 45.0828 49.315 45.0627 49.4093 45.0237C49.5035 44.9847 49.5892 44.9275 49.6614 44.8554C49.7335 44.7833 49.7908 44.6976 49.8299 44.6034C49.869 44.5092 49.8891 44.4081 49.8891 44.3061C49.8892 44.2041 49.8691 44.1031 49.8301 44.0088C49.7911 43.9145 49.7339 43.8288 49.6618 43.7567C49.5897 43.6845 49.5041 43.6272 49.4098 43.5881C49.3156 43.5491 49.2146 43.5289 49.1125 43.5289L48.9158 43.5293C49.0434 42.3442 49.185 41.2013 49.3322 40.161L52.8777 41.111C53.0116 42.143 53.1398 43.2506 53.2546 44.3837C53.2702 44.5372 53.3311 44.6825 53.4297 44.8012C53.5283 44.9199 53.6599 45.0065 53.8079 45.05C54.3179 45.3741 54.7551 45.8006 55.0918 46.3023C55.4286 46.8041 55.6575 47.3702 55.7643 47.965L46.3167 47.9651C46.5418 46.7965 47.214 45.7619 48.1904 45.0815L48.1889 45.0824ZM46.2291 59.8317L46.229 49.5168L55.8453 49.5168L55.8454 59.8317L46.2291 59.8317ZM55.5708 63.072C55.361 63.2554 55.0908 63.3547 54.8121 63.3508L47.2613 63.3505C46.9829 63.3542 46.7129 63.2549 46.5033 63.0716C46.4199 63.0014 46.3524 62.9143 46.3052 62.816C46.258 62.7177 46.2323 62.6105 46.2297 62.5016L46.2301 61.3847L55.8463 61.3846L55.8459 62.5015C55.8436 62.6103 55.8183 62.7174 55.7716 62.8157C55.7248 62.914 55.6578 63.0012 55.5749 63.0717L55.5708 63.072Z" fill="white"/>
<path d="M52.119 43.8974C52.1191 43.7955 52.099 43.6945 52.06 43.6003C52.021 43.5062 51.9639 43.4205 51.8918 43.3484C51.8197 43.2763 51.7342 43.2192 51.64 43.1801C51.5458 43.1411 51.4448 43.121 51.3429 43.121L51.3255 43.1164C51.2235 43.1163 51.1225 43.1364 51.0282 43.1754C50.9339 43.2144 50.8482 43.2716 50.7761 43.3437C50.7039 43.4158 50.6467 43.5014 50.6076 43.5957C50.5685 43.6899 50.5483 43.7909 50.5483 43.893C50.5483 43.995 50.5683 44.096 50.6073 44.1903C50.6463 44.2846 50.7035 44.3702 50.7757 44.4424C50.8478 44.5146 50.9334 44.5718 51.0276 44.6109C51.1219 44.65 51.2229 44.6702 51.3249 44.6702L51.3423 44.6748C51.4443 44.6749 51.5454 44.6549 51.6397 44.6158C51.7341 44.5768 51.8197 44.5195 51.8919 44.4473C51.9641 44.3751 52.0213 44.2893 52.0602 44.195C52.0992 44.1006 52.1192 43.9995 52.119 43.8974Z" fill="white"/>
<path d="M54.0113 54.5122C54.0113 53.9655 53.8583 53.4298 53.5696 52.9656C53.281 52.5014 52.8682 52.1273 52.3779 51.8855C51.8877 51.6437 51.3395 51.5439 50.7955 51.5974C50.2515 51.651 49.7334 51.8557 49.2997 52.1884C48.8659 52.5211 48.534 52.9685 48.3413 53.48C48.1486 53.9916 48.103 54.5469 48.2095 55.083C48.316 55.6192 48.5704 56.1148 48.944 56.5139C49.3175 56.913 49.7953 57.1996 50.3233 57.3412C50.7573 57.4577 51.2123 57.4727 51.653 57.3852C52.0938 57.2976 52.5085 57.1098 52.865 56.8363C53.2216 56.5628 53.5104 56.2109 53.7092 55.8079C53.908 55.4049 54.0113 54.9615 54.0113 54.5122ZM52.0546 55.4848C51.9272 55.613 51.7756 55.7147 51.6086 55.784C51.4417 55.8532 51.2626 55.8887 51.0818 55.8882C50.9614 55.8883 50.8414 55.8727 50.725 55.8418C50.4327 55.7632 50.1744 55.5904 49.9902 55.3502C49.8061 55.1099 49.7063 54.8156 49.7064 54.5129C49.7066 54.2102 49.8066 53.916 49.991 53.6759C50.1753 53.4358 50.4337 53.2632 50.7262 53.185C51.0186 53.1067 51.3287 53.1271 51.6084 53.243C51.888 53.3589 52.1216 53.5639 52.2729 53.826C52.4243 54.0882 52.4848 54.393 52.4453 54.6931C52.4058 54.9932 52.2683 55.2719 52.0542 55.486L52.0546 55.4848Z" fill="white"/>
<path d="M49.0836 23.5901C48.8854 23.5387 48.6749 23.5677 48.4981 23.6708C48.3212 23.774 48.1922 23.9428 48.1392 24.1406L47.6013 26.1481C47.5479 26.3471 47.5759 26.5592 47.6789 26.7376C47.7819 26.916 47.9516 27.0462 48.1506 27.0995C48.3496 27.1529 48.5616 27.1249 48.74 27.0219C48.9184 26.9189 49.0487 26.7492 49.102 26.5502L49.6399 24.5427C49.6665 24.4436 49.6731 24.3402 49.6595 24.2386C49.6458 24.1369 49.6122 24.0389 49.5604 23.9503C49.5087 23.8618 49.44 23.7843 49.3581 23.7225C49.2763 23.6606 49.183 23.6156 49.0836 23.5901Z" fill="white"/>
<path d="M45.4973 26.6642L44.9423 24.656C44.8876 24.4574 44.7562 24.2888 44.577 24.1871C44.3979 24.0854 44.1857 24.0591 43.9872 24.1138C43.7886 24.1686 43.62 24.3 43.5183 24.4791C43.4166 24.6582 43.3902 24.8704 43.445 25.069L44 27.0772C44.0548 27.2757 44.1862 27.4444 44.3653 27.5461C44.5445 27.6478 44.7566 27.6741 44.9552 27.6193C45.1537 27.5646 45.3224 27.4332 45.4241 27.2541C45.5258 27.0749 45.5521 26.8627 45.4973 26.6642Z" fill="white"/>
<path d="M53.24 26.5884C53.0953 26.4418 52.8982 26.3586 52.6921 26.3571C52.486 26.3557 52.2878 26.4362 52.141 26.5808L50.6563 28.0425C50.5836 28.1141 50.5258 28.1993 50.486 28.2932C50.4463 28.3871 50.4255 28.488 50.4248 28.59C50.424 28.6919 50.4434 28.7931 50.4817 28.8876C50.52 28.9821 50.5766 29.0681 50.6482 29.1408C50.7198 29.2134 50.805 29.2712 50.8989 29.3109C50.9928 29.3507 51.0937 29.3715 51.1957 29.3722C51.2977 29.373 51.3988 29.3536 51.4933 29.3153C51.5878 29.277 51.6738 29.2204 51.7464 29.1488L53.2312 27.6872C53.3041 27.6156 53.362 27.5305 53.4019 27.4365C53.4417 27.3426 53.4627 27.2417 53.4635 27.1396C53.4643 27.0376 53.445 26.9364 53.4067 26.8418C53.3683 26.7472 53.3117 26.6611 53.24 26.5884Z" fill="white"/>
</svg>
