<svg width="72" height="72" viewBox="0 0 72 72" fill="none" xmlns="http://www.w3.org/2000/svg">
<path d="M36 71C55.33 71 71 55.33 71 36C71 16.67 55.33 1 36 1C16.67 1 1 16.67 1 36C1 55.33 16.67 71 36 71Z" fill="white" stroke="#1AC865"/>
<path d="M33.6944 25.1539L29.9521 24.1506C29.7476 24.0972 29.5336 24.0907 29.3263 24.1319C29.119 24.173 28.9237 24.2605 28.7551 24.388C28.6338 24.4802 28.5323 24.5958 28.4567 24.7281C28.3811 24.8603 28.3329 25.0065 28.315 25.1577L27.9006 26.705C27.8406 26.8471 27.8097 26.9998 27.8097 27.154C27.8097 27.3083 27.8406 27.461 27.9006 27.6031C27.9419 27.7014 27.9949 27.7945 28.0584 27.8802C27.662 28.7051 27.2104 29.7225 26.737 30.8541C26.3226 31.8432 25.8915 32.9183 25.4669 34.0281C24.5505 34.3647 23.7258 34.9114 23.0589 35.6244C22.3921 36.3373 21.9016 37.1967 21.627 38.1335L18.0617 51.439C17.9158 52.084 18.0311 52.7605 18.3826 53.3207C18.7341 53.8809 19.2931 54.2791 19.9373 54.4283L23.5835 55.4059L27.2296 56.3835C27.4635 56.4464 27.7046 56.4783 27.9468 56.4784C28.3617 56.4794 28.771 56.3822 29.1412 56.1949C29.4348 56.0506 29.6943 55.8456 29.9026 55.5935C30.111 55.3413 30.2634 55.0478 30.3498 54.7323L30.8399 52.9041L33.9125 41.432C34.1419 40.4839 34.1461 39.4952 33.9246 38.5453C33.7032 37.5953 33.2623 36.7104 32.6373 35.9615C32.9041 34.2808 33.1261 32.6553 33.2788 31.2518V31.2389C33.357 30.5359 33.4186 29.8893 33.4622 29.3145C33.6345 29.2306 33.7868 29.1107 33.9088 28.9628C34.0308 28.815 34.1195 28.6426 34.1691 28.4575L34.622 26.7666C34.7105 26.4298 34.6628 26.0717 34.4892 25.7699C34.3156 25.468 34.03 25.2467 33.6944 25.1539ZM28.85 54.3231C28.8192 54.4276 28.7666 54.5245 28.6956 54.6072C28.6246 54.6899 28.5369 54.7566 28.4382 54.8029C28.1879 54.926 27.9009 54.952 27.6325 54.876L23.9863 53.8997L20.3402 52.9221C20.0957 52.8757 19.8785 52.7369 19.7337 52.5346C19.5889 52.3322 19.5277 52.0818 19.5627 51.8354L19.8514 50.7565L29.1399 53.2454L28.85 54.3231ZM29.5377 51.7431L20.2491 49.2541L22.9189 39.2907L32.2075 41.7797L29.5377 51.7431ZM32.5282 40.2568L23.4026 37.8115C23.6596 37.2646 24.0274 36.777 24.4825 36.3795C24.9376 35.982 25.4703 35.6833 26.0468 35.5022C26.2011 35.4984 26.3508 35.4486 26.4768 35.3592C26.6027 35.2699 26.6991 35.145 26.7537 35.0006C27.1578 33.9357 27.5671 32.8991 27.9648 31.9369H31.6353C31.507 32.9799 31.3479 34.1179 31.1657 35.2982L30.9759 35.2469C30.7768 35.1936 30.5648 35.2216 30.3863 35.3247C30.2079 35.4278 30.0778 35.5976 30.0245 35.7966C29.9713 35.9957 29.9993 36.2077 30.1024 36.3861C30.2055 36.5645 30.3752 36.6947 30.5743 36.7479L31.4659 36.9866C32.2342 37.8964 32.6168 39.0703 32.5321 40.2581L32.5282 40.2568ZM32.7194 27.8827H32.6835H32.627H32.6078L32.5526 27.8943H32.5372L32.4718 27.9148L32.4512 27.9225L32.4076 27.9405L32.382 27.9533L32.346 27.9725L32.3217 27.9867L32.2857 28.011L32.2652 28.0251L32.219 28.0623H32.2113C32.1934 28.0777 32.1767 28.0944 32.1613 28.1124L32.151 28.1239L32.1164 28.1663L32.1036 28.1842L32.0766 28.2227L32.0625 28.2445L32.042 28.2817L32.0292 28.3074L32.0125 28.3459L32.0009 28.3741C31.9945 28.3934 31.9881 28.4126 31.983 28.4318C31.9778 28.4511 31.9714 28.4793 31.9676 28.5024V28.5178C31.9676 28.5178 31.9676 28.5242 31.9676 28.5281C31.9676 28.5512 31.9676 28.5755 31.9599 28.5986C31.9317 29.1118 31.8829 29.7045 31.8149 30.3678H28.6255C29.0271 29.4454 29.3953 28.6371 29.7224 27.9995C29.7327 27.979 29.7417 27.9584 29.7506 27.9366V27.9251V27.9122C29.7596 27.8892 29.766 27.8648 29.7724 27.8404C29.7789 27.816 29.7814 27.8006 29.7853 27.7814C29.7891 27.7621 29.7853 27.7621 29.7853 27.7519C29.7853 27.7416 29.7853 27.7236 29.7853 27.7095C29.7853 27.6954 29.7853 27.6916 29.7853 27.6826C29.7853 27.6736 29.7853 27.6518 29.7853 27.6377C29.7853 27.6236 29.7853 27.621 29.7853 27.6133C29.7853 27.6056 29.7853 27.58 29.7853 27.5633V27.544C29.7853 27.5248 29.7853 27.5043 29.775 27.485V27.4748C29.7699 27.4517 29.7635 27.4286 29.7558 27.4055C29.7493 27.3849 29.7417 27.3657 29.7327 27.3452L29.7224 27.3234L29.7019 27.2836L29.6878 27.2592L29.666 27.2246L29.6493 27.2002L29.6223 27.1656L29.6069 27.1463C29.5928 27.1296 29.5774 27.113 29.5608 27.0976L29.5454 27.0835L29.5069 27.0488L29.4889 27.0347L29.4453 27.0039L29.4286 26.9936L29.4145 26.9847L29.7609 25.6953L33.0555 26.578L32.7194 27.8827Z" fill="#1AC865"/>
<path d="M28.9475 34.2859H28.9295C28.7305 34.2328 28.5185 34.261 28.3402 34.3642C28.1619 34.4674 28.0319 34.6373 27.9789 34.8363C27.9258 35.0354 27.954 35.2473 28.0572 35.4256C28.1604 35.6039 28.3302 35.7339 28.5293 35.787H28.5472C28.6458 35.8133 28.7485 35.8199 28.8497 35.8064C28.9508 35.793 29.0483 35.7598 29.1365 35.7087C29.2248 35.6576 29.3022 35.5896 29.3642 35.5086C29.4262 35.4276 29.4716 35.3352 29.4979 35.2366C29.5242 35.138 29.5308 35.0353 29.5173 34.9341C29.5039 34.833 29.4707 34.7356 29.4196 34.6473C29.3685 34.559 29.3005 34.4816 29.2195 34.4196C29.1385 34.3576 29.0461 34.3122 28.9475 34.2859Z" fill="#1AC865"/>
<path d="M28.7679 43.8837C28.4292 43.2968 27.8974 42.8455 27.2632 42.6068C26.629 42.368 25.9316 42.3565 25.2899 42.5743C24.6482 42.7921 24.1019 43.2257 23.744 43.8011C23.3861 44.3766 23.2389 45.0583 23.3273 45.7302C23.4157 46.4021 23.7344 47.0225 24.229 47.4857C24.7236 47.9489 25.3635 48.2263 26.0398 48.2706C26.716 48.3149 27.3866 48.1234 27.9374 47.7286C28.4882 47.3339 28.8851 46.7603 29.0605 46.1058C29.161 45.7344 29.1869 45.3469 29.1367 44.9654C29.0865 44.584 28.9612 44.2164 28.7679 43.8837ZM27.5607 45.7042C27.4784 46.0116 27.292 46.2809 27.0334 46.4663C26.7748 46.6517 26.4599 46.7417 26.1423 46.7209C25.8248 46.7001 25.5243 46.5699 25.292 46.3523C25.0598 46.1348 24.9101 45.8435 24.8686 45.528C24.8271 45.2125 24.8962 44.8923 25.0643 44.6221C25.2324 44.3519 25.4889 44.1483 25.7903 44.0461C26.0916 43.9439 26.4191 43.9493 26.7169 44.0614C27.0147 44.1736 27.2644 44.3856 27.4234 44.6612C27.5141 44.8181 27.5729 44.9913 27.5964 45.1709C27.62 45.3506 27.6078 45.5331 27.5607 45.708V45.7042Z" fill="#1AC865"/>
<path d="M54.2693 51.439L50.7014 38.1399C50.4267 37.2031 49.9363 36.3437 49.2695 35.6308C48.6026 34.9178 47.7779 34.3711 46.8615 34.0345C46.4356 32.9247 46.0045 31.8535 45.5914 30.8605C45.1167 29.7289 44.6664 28.7115 44.27 27.8866C44.3335 27.8009 44.3865 27.7078 44.4278 27.6095C44.4886 27.4665 44.52 27.3126 44.52 27.1572C44.52 27.0018 44.4886 26.848 44.4278 26.705L44.0134 25.1577C43.9955 25.0065 43.9473 24.8603 43.8717 24.7281C43.7961 24.5958 43.6946 24.4802 43.5733 24.388C43.4047 24.2605 43.2094 24.173 43.0021 24.1319C42.7948 24.0907 42.5808 24.0972 42.3763 24.1506L38.634 25.1526C38.2956 25.2437 38.0071 25.4654 37.832 25.7689C37.6569 26.0725 37.6094 26.4332 37.7 26.7717L38.1529 28.4626C38.2025 28.6478 38.2912 28.8201 38.4132 28.968C38.5351 29.1158 38.6874 29.2358 38.8598 29.3196C38.9034 29.8893 38.965 30.5359 39.0432 31.2441V31.2595C39.1998 32.6617 39.4281 34.2859 39.6847 35.9666C39.0597 36.7155 38.6188 37.6004 38.3973 38.5504C38.1759 39.5004 38.18 40.489 38.4094 41.4371L41.9709 54.7311C42.0573 55.0465 42.2097 55.34 42.418 55.5922C42.6264 55.8443 42.8859 56.0493 43.1795 56.1936C43.5497 56.381 43.959 56.4781 44.3739 56.4771C44.6161 56.477 44.8572 56.4451 45.0911 56.3822L52.3846 54.4283C53.025 54.2608 53.5807 53.8623 53.9447 53.3095C54.1283 53.0386 54.2522 52.7317 54.3081 52.4092C54.3641 52.0867 54.3508 51.756 54.2693 51.439ZM39.7257 27.8956H39.6911H39.6514H39.609L39.2639 26.6062L42.5585 25.7235L42.9036 27.0129L42.8895 27.0219L42.8728 27.0321L42.8292 27.0629L42.8112 27.077L42.7728 27.1104L42.7574 27.1245C42.742 27.1399 42.7266 27.1566 42.7112 27.1733L42.6945 27.1938L42.6688 27.2284L42.6522 27.2541L42.6317 27.2875L42.6175 27.3131L42.5983 27.3529L42.588 27.3747C42.5803 27.3939 42.5726 27.4132 42.5662 27.4324C42.5585 27.4555 42.5521 27.4786 42.547 27.5017V27.512C42.547 27.5312 42.5393 27.5505 42.5367 27.5697C42.5341 27.5889 42.5367 27.5825 42.5367 27.5902C42.5367 27.5979 42.5367 27.6236 42.5367 27.6403C42.5367 27.6569 42.5367 27.6569 42.5367 27.6646C42.5367 27.6723 42.5367 27.6941 42.5367 27.7095C42.5367 27.7249 42.5367 27.7275 42.5367 27.7365C42.5367 27.7455 42.5367 27.7647 42.5367 27.7788C42.5367 27.7929 42.5367 27.7981 42.5367 27.8083C42.5367 27.8186 42.5444 27.8494 42.5508 27.8699C42.5572 27.8904 42.5637 27.9135 42.5714 27.9341V27.9507V27.9584C42.5803 27.9815 42.5906 28.0033 42.6008 28.0251C42.9229 28.6666 43.2962 29.4697 43.6978 30.3935H40.5096C40.4429 29.7302 40.3929 29.1323 40.3647 28.6243C40.3647 28.6012 40.3647 28.5768 40.357 28.5537V28.5383V28.5229C40.357 28.4998 40.348 28.478 40.3416 28.4549C40.3352 28.4318 40.33 28.4139 40.3223 28.3934L40.3121 28.3677L40.2941 28.3279L40.2813 28.3035L40.2595 28.2638L40.2466 28.2432L40.2197 28.2035L40.2069 28.1855L40.1722 28.1445L40.1619 28.1316C40.1466 28.1145 40.1303 28.0987 40.1132 28.0842L40.0952 28.0688L40.0619 28.0418L40.0324 28.0213L40.008 28.0046L39.9721 27.9828L39.9515 27.9725L39.9105 27.952H39.8977C39.8502 27.9317 39.8007 27.9162 39.7501 27.9058L39.7257 27.8956ZM40.8625 36.9917L41.7541 36.7531C41.8526 36.7267 41.9451 36.6812 42.026 36.6191C42.107 36.557 42.1749 36.4796 42.226 36.3913C42.277 36.3029 42.3102 36.2054 42.3236 36.1043C42.3369 36.0031 42.3302 35.9003 42.3038 35.8018C42.2775 35.7032 42.232 35.6108 42.1699 35.5298C42.1078 35.4489 42.0304 35.3809 41.9421 35.3299C41.8537 35.2788 41.7562 35.2457 41.655 35.2323C41.5539 35.2189 41.4511 35.2256 41.3525 35.252L41.1626 35.3033C40.9792 34.1256 40.8201 32.985 40.6931 31.942H44.3636C44.76 32.9042 45.1706 33.9408 45.5747 35.0057C45.6295 35.1499 45.726 35.2745 45.8519 35.3636C45.9778 35.4527 46.1274 35.5023 46.2816 35.506C46.8581 35.6871 47.3908 35.9859 47.8459 36.3834C48.301 36.7809 48.6687 37.2685 48.9258 37.8153L39.8002 40.2606C39.7151 39.0736 40.0967 37.9003 40.8637 36.9904L40.8625 36.9917ZM42.7869 51.7456L40.117 41.7822L49.4056 39.2933L52.0754 49.2567L42.7869 51.7456ZM52.6489 52.4577C52.4937 52.6891 52.2584 52.855 51.9882 52.9234L44.6946 54.8773C44.4267 54.953 44.1402 54.9269 43.8902 54.8042C43.7915 54.7579 43.7037 54.6912 43.6327 54.6085C43.5617 54.5258 43.5092 54.4289 43.4784 54.3244L43.1897 53.2454L52.4783 50.7565L52.767 51.8354C52.7929 51.9411 52.7962 52.0511 52.7765 52.1582C52.7568 52.2652 52.7146 52.3668 52.6528 52.4564L52.6489 52.4577Z" fill="#1AC865"/>
<path d="M44.3519 34.8299C44.3255 34.7314 44.28 34.6391 44.218 34.5582C44.1559 34.4773 44.0786 34.4094 43.9903 34.3584C43.902 34.3074 43.8046 34.2743 43.7035 34.261C43.6024 34.2477 43.4997 34.2544 43.4012 34.2808H43.3833C43.2847 34.3072 43.1923 34.3527 43.1113 34.4148C43.0304 34.4768 42.9624 34.5543 42.9113 34.6426C42.8603 34.7309 42.8272 34.8285 42.8138 34.9296C42.8005 35.0308 42.8071 35.1336 42.8335 35.2321C42.8599 35.3307 42.9054 35.4231 42.9675 35.504C43.0296 35.585 43.107 35.653 43.1953 35.704C43.2837 35.7551 43.3812 35.7882 43.4823 35.8016C43.5835 35.8149 43.6862 35.8082 43.7848 35.7819H43.8028C43.9014 35.7555 43.9938 35.71 44.0748 35.6478C44.1558 35.5857 44.2238 35.5082 44.2748 35.4198C44.3258 35.3314 44.3589 35.2338 44.3721 35.1325C44.3853 35.0313 44.3785 34.9285 44.3519 34.8299Z" fill="#1AC865"/>
<path d="M48.9271 44.5932C48.7856 44.0652 48.4991 43.5873 48.1002 43.2136C47.7012 42.8399 47.2056 42.5854 46.6695 42.4787C46.1334 42.372 45.5781 42.4175 45.0665 42.61C44.5548 42.8025 44.1073 43.1344 43.7745 43.568C43.4417 44.0016 43.2368 44.5197 43.1831 45.0637C43.1294 45.6077 43.229 46.1558 43.4707 46.6462C43.7123 47.1365 44.0864 47.5494 44.5505 47.8382C45.0146 48.127 45.5502 48.2801 46.0969 48.2803C46.5463 48.2805 46.9896 48.1773 47.3927 47.9786C47.7958 47.78 48.1478 47.4912 48.4214 47.1348C48.695 46.7783 48.8829 46.3637 48.9706 45.9229C49.0583 45.4822 49.0434 45.0272 48.9271 44.5932ZM47.2887 46.0391C47.1989 46.1959 47.0788 46.3333 46.9354 46.4435C46.792 46.5536 46.6282 46.6342 46.4535 46.6805C46.3372 46.7118 46.2173 46.7278 46.0969 46.728C45.7942 46.7278 45.4999 46.6278 45.2599 46.4433C45.0198 46.2589 44.8473 46.0005 44.7691 45.7081C44.6908 45.4156 44.7113 45.1055 44.8272 44.8259C44.9432 44.5462 45.1481 44.3127 45.4103 44.1614C45.6725 44.0101 45.9774 43.9496 46.2775 43.9891C46.5776 44.0287 46.8563 44.1662 47.0703 44.3803C47.2844 44.5944 47.4217 44.8731 47.4612 45.1732C47.5007 45.4734 47.4401 45.7781 47.2887 46.0403V46.0391Z" fill="#1AC865"/>
<path d="M36.1641 16C35.9593 16.0017 35.7635 16.0843 35.6194 16.2296C35.4752 16.375 35.3943 16.5715 35.3943 16.7762V18.8546C35.3943 19.0606 35.4761 19.2582 35.6218 19.4039C35.7675 19.5496 35.9651 19.6314 36.1711 19.6314C36.3771 19.6314 36.5747 19.5496 36.7204 19.4039C36.8661 19.2582 36.9479 19.0606 36.9479 18.8546V16.7762C36.9479 16.6736 36.9276 16.5721 36.8881 16.4774C36.8486 16.3827 36.7908 16.2968 36.7179 16.2246C36.645 16.1525 36.5585 16.0954 36.4635 16.0569C36.3684 16.0183 36.2666 15.999 36.1641 16Z" fill="#1AC865"/>
<path d="M33.4956 19.8976L32.4397 18.1015C32.3354 17.9239 32.1649 17.795 31.9655 17.7431C31.7662 17.6913 31.5544 17.7207 31.3768 17.825C31.1992 17.9293 31.0703 18.0999 31.0184 18.2992C30.9666 18.4986 30.996 18.7103 31.1003 18.888L32.1562 20.6841C32.2605 20.8617 32.4311 20.9906 32.6304 21.0425C32.8297 21.0943 33.0415 21.0649 33.2191 20.9606C33.3967 20.8563 33.5256 20.6857 33.5775 20.4864C33.6293 20.287 33.5999 20.0753 33.4956 19.8976Z" fill="#1AC865"/>
<path d="M40.9546 17.8205C40.7768 17.7163 40.5649 17.687 40.3655 17.7389C40.166 17.7909 39.9954 17.9199 39.8911 18.0977L38.8352 19.8938C38.7836 19.9817 38.7497 20.079 38.7357 20.18C38.7216 20.281 38.7276 20.3838 38.7533 20.4825C38.779 20.5812 38.8238 20.6739 38.8853 20.7552C38.9468 20.8366 39.0237 20.9051 39.1117 20.9567C39.1996 21.0083 39.2968 21.0422 39.3979 21.0562C39.4989 21.0703 39.6017 21.0643 39.7004 21.0386C39.7991 21.0129 39.8918 20.9681 39.9731 20.9066C40.0545 20.8451 40.1229 20.7682 40.1746 20.6802L41.2305 18.8841C41.2823 18.7962 41.3162 18.6989 41.3304 18.5978C41.3446 18.4968 41.3387 18.3939 41.3131 18.2951C41.2875 18.1963 41.2427 18.1036 41.1811 18.0221C41.1196 17.9407 41.0426 17.8722 40.9546 17.8205Z" fill="#1AC865"/>
</svg>
