<svg width="12" height="15" viewBox="0 0 12 15" fill="none" xmlns="http://www.w3.org/2000/svg">
<path d="M12 6C12 9.41501 8.78692 12.473 7.06335 13.8677C6.4357 14.3756 5.5643 14.3756 4.93665 13.8677C3.21308 12.473 0 9.41501 0 6C2.37122e-08 4.4087 0.632141 2.88258 1.75736 1.75736C2.88258 0.632141 4.4087 0 6 0C7.5913 0 9.11742 0.632141 10.2426 1.75736C11.3679 2.88258 12 4.4087 12 6Z" fill="#E94057"/>
<path d="M6 8C7.10457 8 8 7.10457 8 6C8 4.89543 7.10457 4 6 4C4.89543 4 4 4.89543 4 6C4 7.10457 4.89543 8 6 8Z" fill="white"/>
</svg>
