<svg width="30" height="30" viewBox="0 0 30 30" fill="none" xmlns="http://www.w3.org/2000/svg">
<path d="M30 14.1211H28.2125C28.0462 11.5538 27.1518 9.1289 25.5996 7.06147L24.9915 6.25147L22.4108 8.83218L23.6538 10.0751L24.7701 8.9588C25.7408 10.5208 26.3125 12.2771 26.4504 14.1211H24.7266V15.879H26.4504C26.3125 17.7229 25.7408 19.4792 24.7701 21.0413L23.6538 19.925L22.4108 21.1679L24.9915 23.7486L25.5996 22.9386C27.1518 20.8711 28.0462 18.4462 28.2125 15.8789H30V14.1211Z" fill="#E94057"/>
<path d="M19.9249 23.6538L21.0412 24.7701C19.4792 25.7409 17.7228 26.3125 15.8789 26.4504V24.7266H14.1211V26.4504C12.2771 26.3125 10.5208 25.7408 8.95875 24.7701L10.0751 23.6538L8.83213 22.4108L6.25142 24.9915L7.06142 25.5996C9.1289 27.1518 11.5538 28.0462 14.1211 28.2125V30H15.8789V28.2125C18.4462 28.0462 20.8711 27.1518 22.9385 25.5996L23.7485 24.9915L21.1678 22.4108L19.9249 23.6538Z" fill="#E94057"/>
<path d="M6.34623 19.9249L5.2299 21.0412C4.25912 19.4792 3.68748 17.7228 3.54961 15.8789H5.27344V14.1211H3.54961C3.68748 12.2771 4.25918 10.5208 5.2299 8.95875L6.34623 10.0751L7.58918 8.83213L5.00853 6.25142L4.40045 7.06142C2.84824 9.1289 1.95381 11.5538 1.78752 14.1211H0V15.8789H1.78752C1.95381 18.4462 2.84824 20.8711 4.40045 22.9385L5.00853 23.7485L7.58918 21.1678L6.34623 19.9249Z" fill="#E94057"/>
<path d="M10.075 6.34623L8.95869 5.2299C10.5207 4.25912 12.2771 3.68748 14.121 3.54961V5.27344H15.8788V3.54961C17.7228 3.68748 19.4791 4.25918 21.0412 5.2299L19.9249 6.34623L21.1678 7.58918L23.7485 5.00853L22.9385 4.40045C20.871 2.84824 18.4461 1.95381 15.8788 1.78752V0H14.121V1.78752C11.5537 1.95381 9.12885 2.84824 7.06142 4.40039L6.25142 5.00848L8.83213 7.58912L10.075 6.34623Z" fill="#E94057"/>
<path d="M15 10.7406C13.3038 10.7406 11.9238 12.1206 11.9238 13.8168C11.9238 15.513 13.3038 16.893 15 16.893C16.6962 16.893 18.0762 15.513 18.0762 13.8168C18.0762 12.1206 16.6962 10.7406 15 10.7406ZM15 15.1352C14.2731 15.1352 13.6816 14.5437 13.6816 13.8168C13.6816 13.0899 14.2731 12.4985 15 12.4985C15.7269 12.4985 16.3184 13.0899 16.3184 13.8168C16.3184 14.5437 15.7269 15.1352 15 15.1352Z" fill="#E94057"/>
<path d="M15 7.22502C11.3653 7.22502 8.4082 10.1821 8.4082 13.8168C8.4082 15.5776 9.09387 17.233 10.3389 18.4779L15 23.139L19.6611 18.4779C20.9061 17.2329 21.5918 15.5776 21.5918 13.8168C21.5918 10.1821 18.6347 7.22502 15 7.22502ZM18.4182 17.235L15 20.6531L11.5819 17.2349C10.6689 16.3219 10.166 15.108 10.166 13.8168C10.166 11.1513 12.3346 8.98278 15 8.98278C17.6654 8.98278 19.834 11.1513 19.834 13.8168C19.834 15.108 19.3312 16.322 18.4182 17.235Z" fill="#E94057"/>
</svg>
