<svg width="13" height="19" viewBox="0 0 13 19" fill="none" xmlns="http://www.w3.org/2000/svg">
<path d="M12.2845 8.18894V5.80335C12.2845 2.60336 9.68959 0 6.5 0C3.31041 0 0.715507 2.60336 0.715507 5.80335V8.16643C0.355834 8.3041 0 8.61467 0 9.2299V12.4788C0 16.0746 2.91593 19 6.50005 19C10.0842 19 13 16.0746 13 12.4788V9.2299C13 8.64614 12.6529 8.33667 12.2845 8.18894ZM7.73545 15.1698C7.75579 15.278 7.68269 15.3665 7.57299 15.3665H5.4515C5.34179 15.3665 5.26869 15.278 5.28904 15.1698L5.62882 13.3631C5.36947 13.1259 5.20671 12.7841 5.20671 12.4043C5.20671 11.6877 5.78574 11.1068 6.5 11.1068C7.21426 11.1068 7.79329 11.6877 7.79329 12.4043C7.79329 12.7738 7.63906 13.107 7.39193 13.3433L7.73545 15.1698ZM10.2899 8.07313H2.71009V5.80335C2.71009 3.70681 4.41022 2.00108 6.5 2.00108C8.58973 2.00108 10.2899 3.70681 10.2899 5.80335V8.07313Z" fill="#E94057"/>
</svg>
