<svg width="23" height="20" viewBox="0 0 23 20" fill="none" xmlns="http://www.w3.org/2000/svg">
<path d="M18.4802 8.96876L6.53257 8.96876C5.96305 8.96876 5.50133 9.43049 5.50133 10C5.50133 10.5695 5.96305 11.0313 6.53257 11.0312L18.4802 11.0312L17.1469 12.3646C16.7442 12.7673 16.7442 13.4202 17.1469 13.823C17.5496 14.2257 18.2025 14.2257 18.6053 13.823L21.6989 10.7293C21.723 10.7052 21.7458 10.6799 21.7674 10.6535C21.7768 10.642 21.785 10.6298 21.7939 10.6181C21.8052 10.6029 21.8169 10.5882 21.8274 10.5724C21.8371 10.558 21.8454 10.5431 21.8542 10.5284C21.8626 10.5143 21.8715 10.5004 21.8793 10.4859C21.8874 10.4707 21.8942 10.4552 21.9015 10.4398C21.9086 10.4247 21.9161 10.4099 21.9225 10.3945C21.9287 10.3794 21.9338 10.3641 21.9392 10.3488C21.9452 10.3323 21.9515 10.316 21.9566 10.2992C21.9612 10.2839 21.9646 10.2685 21.9684 10.253C21.9728 10.2359 21.9776 10.2188 21.981 10.2014C21.9845 10.1836 21.9867 10.1656 21.9892 10.1476C21.9914 10.1323 21.9944 10.1172 21.9959 10.1016C21.9992 10.0683 22.0009 10.0349 22.001 10.0014L22.001 9.99994L22.001 9.99842C22.0009 9.96494 21.9992 9.93153 21.9959 9.89819C21.9944 9.88286 21.9915 9.86794 21.9893 9.85274C21.9867 9.83459 21.9846 9.81644 21.981 9.79843C21.9776 9.78111 21.9728 9.76433 21.9685 9.74735C21.9646 9.73175 21.9611 9.716 21.9565 9.70053C21.9515 9.68396 21.9452 9.66794 21.9394 9.65172C21.9339 9.63618 21.9288 9.62058 21.9224 9.60531C21.9162 9.59019 21.9088 9.57568 21.9018 9.5609C21.8944 9.54516 21.8874 9.52928 21.8791 9.51381C21.8716 9.49972 21.863 9.48631 21.8548 9.47263C21.8458 9.45743 21.8372 9.4421 21.8273 9.42732C21.8173 9.41227 21.806 9.39817 21.7953 9.38367C21.7859 9.37122 21.7772 9.35837 21.7673 9.34627C21.7467 9.32124 21.7249 9.29725 21.7022 9.27422L21.6991 9.27078L18.6053 6.17698C18.4039 5.97561 18.14 5.87489 17.8761 5.87489C17.6123 5.87496 17.3483 5.97561 17.147 6.17691C16.7442 6.57965 16.7442 7.23256 17.1469 7.6353L18.4802 8.96876Z" fill="white"/>
<path d="M1.0332 19.2813L14.0956 19.2813C14.6651 19.2813 15.1268 18.8195 15.1268 18.25L15.1268 14.125C15.1268 13.5555 14.6651 13.0938 14.0956 13.0938C13.5261 13.0938 13.0644 13.5555 13.0644 14.125V17.2188H2.06444L2.06444 2.7813L13.0644 2.7813V5.8751C13.0644 6.44462 13.5261 6.90634 14.0956 6.90634C14.6651 6.90634 15.1268 6.44462 15.1268 5.8751V1.75005C15.1268 1.18053 14.6651 0.718811 14.0956 0.718811L1.0332 0.718812C0.463674 0.718812 0.00195308 1.18053 0.00195312 1.75005L0.00195457 18.25C0.00195462 18.8195 0.463676 19.2813 1.0332 19.2813Z" fill="white"/>
</svg>
