<svg width="15" height="28" viewBox="0 0 15 28" fill="none" xmlns="http://www.w3.org/2000/svg">
<path d="M8.43931 0H6.05995C5.57329 0 5.20348 0.437606 5.28465 0.917408L5.64664 3.05859H8.85256L9.21461 0.917408C9.29577 0.437606 8.92597 0 8.43931 0Z" fill="#E9E8E4"/>
<path d="M13.1612 3.05859H1.33876L0 5.89062V25.0352L1.33876 27.8672H13.1612L14.5 25.0352V5.89062L13.1612 3.05859Z" fill="#7BD1F0"/>
<path d="M0 25.0352L1.33876 27.8672H13.1612L14.5 25.0352H0Z" fill="#E9E8E4"/>
<path d="M14.5 5.89062L13.1612 3.05859H1.33876L0 5.89062H14.5Z" fill="#E9E8E4"/>
<path d="M7.25 19.6543C9.56485 19.6543 11.4414 17.7777 11.4414 15.4629C11.4414 13.148 9.56485 11.2715 7.25 11.2715C4.93515 11.2715 3.05859 13.148 3.05859 15.4629C3.05859 17.7777 4.93515 19.6543 7.25 19.6543Z" fill="white"/>
<path d="M7.40174 0.962891H7.09961C6.78684 0.962891 6.5332 1.21647 6.5332 1.5293C6.5332 1.84212 6.78684 2.0957 7.09961 2.0957H7.40174C7.71451 2.0957 7.96815 1.84212 7.96815 1.5293C7.96815 1.21647 7.71451 0.962891 7.40174 0.962891Z" fill="white"/>
</svg>
