<svg width="23" height="23" viewBox="0 0 23 23" fill="none" xmlns="http://www.w3.org/2000/svg">
<path d="M20.9452 15.996C20.6216 15.8183 20.2152 15.9365 20.0376 16.26C19.8598 16.5836 19.978 16.99 20.3015 17.1677C21.0977 17.6051 21.5544 18.09 21.5544 18.4981C21.5544 18.9972 20.8472 19.7708 18.8624 20.4451C16.9015 21.1114 14.281 21.4782 11.4837 21.4782C8.6864 21.4782 6.06593 21.1114 4.10503 20.4451C2.12017 19.7708 1.41299 18.9972 1.41299 18.4981C1.41299 18.09 1.86965 17.6051 2.66586 17.1676C2.98941 16.9899 3.10759 16.5835 2.92984 16.26C2.75208 15.9365 2.34582 15.8182 2.02218 15.996C1.13444 16.4837 0.0761719 17.3137 0.0761719 18.4981C0.0761719 19.406 0.700556 20.7003 3.67498 21.7109C5.77076 22.4229 8.54394 22.8151 11.4837 22.8151C14.4235 22.8151 17.1966 22.4229 19.2924 21.7109C22.2668 20.7003 22.8912 19.406 22.8912 18.4981C22.8912 17.3137 21.833 16.4837 20.9452 15.996Z" fill="#C1C1C1"/>
<path d="M6.4374 19.4788C7.79427 19.8621 9.58646 20.0732 11.4838 20.0732C13.3812 20.0732 15.1733 19.8622 16.5302 19.4788C18.1902 19.0099 19.0319 18.331 19.0319 17.4613C19.0319 16.5915 18.1902 15.9128 16.5302 15.4439C16.1617 15.3398 15.7609 15.2485 15.3348 15.1706C15.1034 15.5704 14.861 15.9819 14.6075 16.4053C15.0791 16.476 15.5219 16.5628 15.924 16.6652C17.1457 16.9764 17.592 17.3267 17.6838 17.4614C17.592 17.5961 17.1457 17.9464 15.9241 18.2575C14.7677 18.552 13.28 18.72 11.7132 18.735C11.6373 18.7406 11.5608 18.7438 11.4838 18.7438C11.4068 18.7438 11.3303 18.7406 11.2544 18.735C9.68752 18.72 8.19982 18.552 7.04351 18.2575C5.82184 17.9464 5.37556 17.596 5.28381 17.4614C5.37556 17.3267 5.82188 16.9764 7.04356 16.6652C7.44567 16.5628 7.88847 16.476 8.36015 16.4053C8.10664 15.9819 7.86419 15.5703 7.63278 15.1706C7.20669 15.2485 6.80587 15.3398 6.4374 15.4439C4.77738 15.9128 3.93568 16.5916 3.93568 17.4613C3.93568 18.331 4.77738 19.0098 6.4374 19.4788Z" fill="#C1C1C1"/>
<path d="M11.4837 17.4069C12.0787 17.4069 12.6192 17.1037 12.9296 16.5959C15.1046 13.0374 17.6973 8.34755 17.6973 6.21349C17.6973 2.78736 14.9099 0 11.4837 0C8.05755 0 5.27019 2.78736 5.27019 6.21349C5.27019 8.34755 7.86286 13.0374 10.0378 16.5959C10.3482 17.1037 10.8888 17.4069 11.4837 17.4069ZM8.98623 5.78687C8.98623 4.40981 10.1066 3.28947 11.4837 3.28947C12.8608 3.28947 13.9812 4.40981 13.9812 5.78687C13.9812 7.16397 12.8608 8.28432 11.4837 8.28432C10.1066 8.28432 8.98623 7.16402 8.98623 5.78687Z" fill="#C1C1C1"/>
</svg>
