<svg width="49" height="56" viewBox="0 0 49 56" fill="none" xmlns="http://www.w3.org/2000/svg">
<path d="M16.0733 51.0663L0.766233 46.9647L0.0706244 49.5605C-0.257564 50.7858 0.589796 52.0873 1.95357 52.4527L7.12733 53.839L12.3011 55.2253C13.6649 55.5907 15.0495 54.8874 15.3779 53.6619L16.0733 51.0663Z" fill="#FF9822"/>
<path d="M0.766113 46.9647L16.0731 51.0664L20.4316 34.8007L5.12447 30.6991L0.766113 46.9647ZM13.548 41.6729C13.1116 43.3016 11.4375 44.2682 9.8087 43.8318C8.17988 43.3954 7.21328 41.7213 7.6498 40.0924C8.08609 38.4637 9.76021 37.4971 11.389 37.9335C13.0178 38.37 13.9844 40.0442 13.548 41.6729Z" fill="#5FB3B7"/>
<path d="M10.5981 43.9363C12.2844 43.9363 13.6513 42.5693 13.6513 40.8831C13.6513 39.1969 12.2844 37.8299 10.5981 37.8299C8.91189 37.8299 7.54492 39.1969 7.54492 40.8831C7.54492 42.5693 8.91189 43.9363 10.5981 43.9363Z" fill="#FF3855"/>
<path d="M5.12402 30.6991L20.4311 34.8007C21.1912 31.9636 19.8358 28.5871 18.4988 27.7696C18.8686 25.4948 19.2445 22.8738 19.5082 20.5181H12.3267C11.6184 22.2105 10.9194 23.9769 10.313 25.5763C8.74621 25.6156 5.88421 27.8621 5.12402 30.6991Z" fill="#FF9822"/>
<path d="M12.3271 20.5189H19.5086C19.6541 19.2199 19.7656 18.0015 19.8231 16.9664C20.2488 17.0804 20.6905 16.8254 20.8047 16.3996L21.4473 14.0013C21.5573 13.5906 21.3114 13.1646 20.9006 13.0546L15.5915 11.6321C15.1807 11.522 14.6402 11.7535 14.6446 12.1787L14.002 14.5769C13.7817 14.9588 14.143 15.4445 14.5688 15.5585C13.8825 16.9163 13.0991 18.6737 12.3271 20.5189Z" fill="#E9CA92"/>
<path d="M28.6653 16.9655C28.7228 18.0007 28.8342 19.2191 28.9798 20.518H36.1613C35.3891 18.6728 34.6059 16.9153 33.9194 15.5575C34.3453 15.4435 34.7065 14.9578 34.4862 14.5759L33.8436 12.1777C33.8479 11.7525 33.3075 11.521 32.8967 11.6311L27.5875 13.0536C27.1768 13.1637 26.9308 13.5897 27.0409 14.0003L27.6834 16.3986C27.7978 16.8246 28.2396 17.0795 28.6653 16.9655Z" fill="#E9CA92"/>
<path d="M36.1626 20.518H28.981C29.2449 22.8738 29.6208 25.495 29.9904 27.7695C28.6534 28.587 27.298 31.9636 28.0582 34.8006L43.3652 30.699C42.6051 27.8619 39.743 25.6154 38.1764 25.5761C37.5698 23.9768 36.8709 22.2105 36.1626 20.518Z" fill="#FF9822"/>
<path d="M43.3651 30.6991L28.0581 34.8007L32.4166 51.0664L47.7236 46.9647L43.3651 30.6991ZM34.9418 41.6729C34.5054 40.0442 35.4719 38.3699 37.1008 37.9335C38.7295 37.4971 40.4037 38.4637 40.8401 40.0924C41.2765 41.7212 40.3099 43.3954 38.6812 43.8318C37.0524 44.2682 35.3782 43.3016 34.9418 41.6729Z" fill="#5FB3B7"/>
<path d="M37.8906 43.9363C39.5768 43.9363 40.9438 42.5693 40.9438 40.8831C40.9438 39.1969 39.5768 37.8299 37.8906 37.8299C36.2044 37.8299 34.8374 39.1969 34.8374 40.8831C34.8374 42.5693 36.2044 43.9363 37.8906 43.9363Z" fill="#FF3855"/>
<path d="M47.723 46.9647L32.416 51.0664L33.1115 53.662C33.4398 54.8874 34.8246 55.5908 36.1883 55.2254L41.3621 53.8391L46.5359 52.4528C47.8996 52.0874 48.7472 50.7859 48.4188 49.5606L47.723 46.9647Z" fill="#FF9822"/>
<path d="M24.2446 0C23.636 0 23.1426 0.493384 23.1426 1.10204V4.05155C23.1426 4.6602 23.636 5.15359 24.2446 5.15359C24.8532 5.15359 25.3467 4.6602 25.3467 4.05155V1.10204C25.3467 0.493384 24.8533 0 24.2446 0Z" fill="#FF9822"/>
<path d="M18.6573 6.64652C18.8625 6.99631 19.2307 7.19115 19.6089 7.19115C19.7983 7.19115 19.9903 7.14233 20.1654 7.03951C20.6904 6.7316 20.8663 6.05638 20.5584 5.53137L19.0601 2.97705C18.7522 2.45204 18.0768 2.27605 17.5519 2.58407C17.0269 2.89198 16.851 3.5672 17.159 4.09221L18.6573 6.64652Z" fill="#FF9822"/>
<path d="M28.3234 7.03951C28.4987 7.14233 28.6905 7.19115 28.88 7.19115C29.2582 7.19115 29.6264 6.99631 29.8317 6.64652L31.33 4.09221C31.6379 3.5672 31.4619 2.89198 30.937 2.58406C30.4119 2.27604 29.7367 2.45215 29.4288 2.97705L27.9304 5.53148C27.6225 6.05638 27.7984 6.7316 28.3234 7.03951Z" fill="#FF9822"/>
</svg>
