<svg width="24" height="26" viewBox="0 0 24 26" fill="none" xmlns="http://www.w3.org/2000/svg">
<mask id="path-1-outside-1_493:4" maskUnits="userSpaceOnUse" x="0" y="0" width="24" height="26" fill="black">
<rect fill="white" width="24" height="26"/>
<path d="M10.5008 6.54141L8.2353 5.93407C8.11151 5.9017 7.982 5.89781 7.85649 5.9227C7.73099 5.94758 7.61276 6.0006 7.51069 6.07775C7.43726 6.13355 7.37583 6.20357 7.33007 6.28363C7.2843 6.36369 7.25513 6.45215 7.2443 6.54373L6.99344 7.48037C6.95713 7.5664 6.93842 7.65882 6.93842 7.7522C6.93842 7.84557 6.95713 7.938 6.99344 8.02403C7.01841 8.08359 7.05049 8.13991 7.08897 8.19178C6.84898 8.69116 6.5756 9.30705 6.28902 9.99205C6.03816 10.5908 5.77721 11.2417 5.52014 11.9135C4.9654 12.1172 4.46616 12.4482 4.06247 12.8798C3.65878 13.3114 3.36189 13.8316 3.19564 14.3987L1.03733 22.4534C0.949 22.8438 1.01886 23.2534 1.23163 23.5925C1.4444 23.9316 1.78279 24.1726 2.17279 24.2629L6.58725 25.4466C6.72883 25.4846 6.87479 25.5039 7.0214 25.504C7.27258 25.5046 7.52033 25.4458 7.74446 25.3324C7.92215 25.245 8.07926 25.1209 8.20538 24.9683C8.33151 24.8157 8.42377 24.638 8.47606 24.447L10.6328 16.3955C10.7717 15.8216 10.7742 15.2231 10.6401 14.648C10.5061 14.0729 10.2392 13.5372 9.86082 13.0839C10.0224 12.0665 10.1567 11.0825 10.2491 10.2328V10.225C10.2965 9.79944 10.3338 9.40801 10.3602 9.06007C10.4645 9.00929 10.5567 8.93669 10.6306 8.84718C10.7044 8.75768 10.7581 8.65335 10.7881 8.54127L11.0623 7.51765C11.1159 7.31378 11.087 7.09701 10.9819 6.91429C10.8768 6.73156 10.7039 6.5976 10.5008 6.54141ZM7.56816 24.1993C7.54954 24.2626 7.51768 24.3212 7.47471 24.3713C7.43173 24.4213 7.37861 24.4617 7.31886 24.4897C7.16733 24.5642 6.99358 24.58 6.83112 24.534L2.41666 23.3512C2.26866 23.3231 2.13717 23.2391 2.04951 23.1166C1.96186 22.994 1.92479 22.8425 1.94601 22.6933L2.12076 22.0402L7.74368 23.5469L7.56816 24.1993ZM7.98444 22.6374L2.36152 21.1307L3.97772 15.0993L9.60064 16.606L7.98444 22.6374ZM9.79481 15.6841L4.27052 14.2038C4.42612 13.8727 4.64872 13.5776 4.92424 13.337C5.19976 13.0963 5.5222 12.9155 5.87118 12.8058C5.96463 12.8035 6.05526 12.7734 6.13149 12.7193C6.20772 12.6652 6.26608 12.5896 6.29912 12.5022C6.54376 11.8576 6.79151 11.23 7.03227 10.6475H9.25426C9.17659 11.279 9.08029 11.9678 8.97001 12.6824L8.85506 12.6513C8.73456 12.6191 8.6062 12.636 8.4982 12.6984C8.3902 12.7608 8.31142 12.8636 8.27918 12.9841C8.24694 13.1046 8.2639 13.233 8.32631 13.3409C8.38872 13.4489 8.49147 13.5277 8.61197 13.56L9.15174 13.7044C9.61682 14.2552 9.84841 14.9658 9.79713 15.6849L9.79481 15.6841ZM9.91053 8.19333H9.84296L9.80956 8.20033H9.80024L9.76063 8.21275L9.74821 8.21741L9.7218 8.22828L9.70627 8.23605L9.68452 8.2477L9.66976 8.25624L9.64802 8.271L9.63559 8.27954L9.60763 8.30206H9.60297C9.5921 8.31138 9.582 8.32148 9.57268 8.33235L9.56647 8.33935L9.5455 8.36497L9.53773 8.37585L9.52143 8.39914L9.51288 8.41235L9.50046 8.43487L9.49269 8.4504L9.48259 8.4737L9.4756 8.49079C9.47172 8.50244 9.46784 8.51409 9.46473 8.52574C9.46162 8.53739 9.45774 8.55448 9.45541 8.56846V8.57778C9.45541 8.57778 9.45541 8.58166 9.45541 8.58399C9.45541 8.59797 9.45541 8.61272 9.45075 8.6267C9.43366 8.93736 9.40415 9.29617 9.36299 9.6977H7.43225C7.67534 9.13929 7.89823 8.65 8.09628 8.26401C8.10249 8.25158 8.10793 8.23916 8.11336 8.22595V8.2112C8.1188 8.19722 8.12268 8.18246 8.12657 8.16771C8.13045 8.15295 8.132 8.14363 8.13433 8.13198C8.13666 8.12033 8.13433 8.12033 8.13433 8.11412C8.13433 8.1079 8.13433 8.09703 8.13433 8.08848C8.13433 8.07994 8.13433 8.07761 8.13433 8.07218C8.13433 8.06674 8.13433 8.05353 8.13433 8.04499C8.13433 8.03645 8.13433 8.0349 8.13433 8.03024C8.13433 8.02558 8.13433 8.01004 8.13433 7.99995V7.9883C8.13433 7.97665 8.13433 7.96422 8.12812 7.95257V7.94636C8.12502 7.93238 8.12113 7.9184 8.11647 7.90442C8.11259 7.89199 8.10793 7.88035 8.10249 7.86792L8.09628 7.85472L8.08385 7.83064L8.07531 7.81588L8.0621 7.79491L8.05201 7.78016L8.0357 7.75919L8.02638 7.74754C8.01784 7.73744 8.00852 7.72735 7.99842 7.71803L7.9891 7.70948L7.9658 7.68851L7.95493 7.67997L7.92852 7.66133L7.91843 7.65512L7.90988 7.64968L8.11958 6.86915L10.114 7.40348L9.91053 8.19333Z"/>
<path d="M7.62688 12.0696H7.616C7.49551 12.0374 7.36718 12.0545 7.25925 12.117C7.15132 12.1794 7.07264 12.2822 7.04051 12.4027C7.00838 12.5232 7.02543 12.6516 7.08791 12.7595C7.1504 12.8674 7.25319 12.9461 7.37369 12.9782H7.38457C7.44424 12.9942 7.50644 12.9982 7.56765 12.99C7.62886 12.9819 7.68787 12.9618 7.74131 12.9308C7.79475 12.8999 7.84158 12.8587 7.87911 12.8097C7.91665 12.7607 7.94415 12.7047 7.96007 12.6451C7.97598 12.5854 7.97998 12.5232 7.97185 12.462C7.96371 12.4008 7.9436 12.3418 7.91266 12.2883C7.88172 12.2349 7.84056 12.188 7.79152 12.1505C7.74249 12.113 7.68655 12.0855 7.62688 12.0696Z"/>
<path d="M7.51878 17.8797C7.3137 17.5244 6.99178 17.2512 6.60786 17.1067C6.22393 16.9621 5.80177 16.9552 5.41331 17.087C5.02484 17.2189 4.69412 17.4813 4.47748 17.8297C4.26084 18.178 4.17169 18.5908 4.22523 18.9975C4.27877 19.4042 4.47168 19.7798 4.77109 20.0602C5.07051 20.3406 5.45789 20.5085 5.86724 20.5353C6.27659 20.5622 6.68257 20.4462 7.01601 20.2072C7.34945 19.9683 7.58971 19.6211 7.69586 19.2248C7.75673 19 7.77242 18.7654 7.74203 18.5345C7.71163 18.3036 7.63575 18.0811 7.51878 17.8797ZM6.78796 18.9817C6.73814 19.1678 6.62533 19.3309 6.46876 19.4431C6.31219 19.5553 6.12155 19.6098 5.92933 19.5972C5.7371 19.5846 5.55519 19.5058 5.41459 19.3741C5.27399 19.2424 5.1834 19.0661 5.15827 18.8751C5.13313 18.6841 5.175 18.4903 5.27675 18.3267C5.37849 18.1631 5.5338 18.0399 5.71622 17.978C5.89864 17.9161 6.09688 17.9194 6.27716 17.9873C6.45743 18.0552 6.60858 18.1835 6.70485 18.3503C6.75973 18.4453 6.79532 18.5502 6.80958 18.6589C6.82384 18.7677 6.81649 18.8782 6.78796 18.9841V18.9817Z"/>
<path d="M22.9561 22.4534L20.7963 14.4026C20.63 13.8355 20.3331 13.3153 19.9294 12.8837C19.5257 12.4521 19.0265 12.1211 18.4718 11.9174C18.2139 11.2456 17.953 10.5971 17.7029 9.99593C17.4155 9.31093 17.1429 8.69505 16.9029 8.19566C16.9414 8.14377 16.9735 8.08745 16.9985 8.02791C17.0353 7.94134 17.0543 7.84822 17.0543 7.75414C17.0543 7.66006 17.0353 7.56694 16.9985 7.48037L16.7476 6.54373C16.7368 6.45215 16.7076 6.36369 16.6618 6.28363C16.6161 6.20357 16.5546 6.13355 16.4812 6.07775C16.3791 6.0006 16.2609 5.94758 16.1354 5.9227C16.0099 5.89781 15.8804 5.9017 15.7566 5.93407L13.4911 6.54063C13.2863 6.59577 13.1117 6.72996 13.0057 6.91372C12.8997 7.09749 12.8709 7.31581 12.9257 7.52076L13.1999 8.54438C13.2299 8.65646 13.2836 8.76078 13.3575 8.85029C13.4313 8.9398 13.5235 9.0124 13.6278 9.06318C13.6542 9.40801 13.6915 9.79944 13.7389 10.2282V10.2375C13.8336 11.0863 13.9719 12.0696 14.1272 13.087C13.7489 13.5403 13.4819 14.076 13.3479 14.6511C13.2138 15.2262 13.2163 15.8247 13.3552 16.3986L15.5112 24.4462C15.5635 24.6372 15.6557 24.8149 15.7818 24.9675C15.908 25.1202 16.0651 25.2443 16.2428 25.3316C16.4669 25.445 16.7147 25.5038 16.9659 25.5032C17.1125 25.5032 17.2584 25.4838 17.4 25.4458L21.8152 24.2629C22.2029 24.1616 22.5393 23.9203 22.7596 23.5857C22.8708 23.4217 22.9458 23.2359 22.9796 23.0407C23.0135 22.8454 23.0055 22.6452 22.9561 22.4534ZM14.152 8.2011H14.0814L13.8725 7.42057L15.8669 6.88624L16.0758 7.66677L16.0673 7.6722L16.0572 7.67841L16.0308 7.69706L16.0199 7.7056L15.9966 7.72579L15.9873 7.73434C15.978 7.74366 15.9686 7.75375 15.9593 7.76385L15.9492 7.77628L15.9337 7.79724L15.9236 7.81278L15.9112 7.83297L15.9026 7.8485L15.891 7.87258L15.8848 7.88578C15.8801 7.89743 15.8754 7.90908 15.8716 7.92073C15.8669 7.93471 15.863 7.94869 15.8599 7.96267V7.96888C15.8599 7.98053 15.8552 7.99218 15.8537 8.00383C15.8521 8.01548 15.8537 8.0116 15.8537 8.01626C15.8537 8.02092 15.8537 8.03645 15.8537 8.04655C15.8537 8.05665 15.8537 8.05664 15.8537 8.0613C15.8537 8.06596 15.8537 8.07916 15.8537 8.08848C15.8537 8.0978 15.8537 8.09936 15.8537 8.1048C15.8537 8.11023 15.8537 8.12188 15.8537 8.13042C15.8537 8.13897 15.8537 8.14208 15.8537 8.14829C15.8537 8.1545 15.8583 8.17314 15.8622 8.18556C15.8661 8.19799 15.87 8.21197 15.8747 8.2244V8.23915C15.8801 8.25313 15.8863 8.26634 15.8925 8.27954C16.0874 8.66786 16.3135 9.15405 16.5566 9.71323H14.6266C14.5862 9.31171 14.5559 8.94979 14.5388 8.64224C14.5388 8.62826 14.5388 8.6135 14.5342 8.59952V8.58088C14.5342 8.5669 14.5287 8.5537 14.5248 8.53972C14.521 8.52574 14.5178 8.51487 14.5132 8.50244L14.507 8.4869L14.4961 8.46283L14.4883 8.44808L14.4751 8.424L14.4674 8.41157L14.4511 8.3875L14.4433 8.37662L14.4223 8.35177L14.4161 8.344C14.4068 8.33365 14.397 8.32407 14.3866 8.31527L14.3757 8.30595L14.3555 8.28964L14.3377 8.27721L14.3229 8.26712L14.3012 8.25391L14.2639 8.23527H14.2561C14.2274 8.22298 14.1974 8.21362 14.1668 8.20732L14.152 8.2011ZM14.8402 13.7075L15.3799 13.5631C15.4396 13.5471 15.4955 13.5196 15.5446 13.482C15.5936 13.4444 15.6347 13.3975 15.6656 13.3441C15.6965 13.2906 15.7166 13.2315 15.7247 13.1703C15.7327 13.1091 15.7287 13.0469 15.7127 12.9872C15.6968 12.9275 15.6692 12.8716 15.6316 12.8226C15.5941 12.7736 15.5472 12.7324 15.4937 12.7015C15.4402 12.6706 15.3812 12.6506 15.32 12.6425C15.2587 12.6344 15.1965 12.6384 15.1368 12.6544L15.0219 12.6855C14.9108 11.9725 14.8145 11.2821 14.7376 10.6506H16.9596C17.1996 11.2331 17.4481 11.8607 17.6928 12.5053C17.7259 12.5926 17.7844 12.668 17.8606 12.722C17.9368 12.7759 18.0274 12.8059 18.1207 12.8082C18.4697 12.9178 18.7922 13.0987 19.0677 13.3393C19.3432 13.5799 19.5658 13.8751 19.7214 14.2061L14.1971 15.6864C14.1456 14.9679 14.3766 14.2576 14.8409 13.7067L14.8402 13.7075ZM16.0051 22.639L14.3889 16.6075L20.0119 15.1008L21.6281 21.1323L16.0051 22.639ZM21.9752 23.07C21.8813 23.2101 21.7388 23.3105 21.5753 23.3519L17.16 24.5348C16.9978 24.5806 16.8244 24.5648 16.673 24.4905C16.6133 24.4625 16.5602 24.4221 16.5172 24.372C16.4742 24.322 16.4424 24.2633 16.4238 24.2L16.249 23.5469L21.8719 22.0402L22.0467 22.6933C22.0624 22.7573 22.0643 22.8239 22.0524 22.8887C22.0405 22.9535 22.015 23.015 21.9776 23.0692L21.9752 23.07Z"/>
<path d="M16.9521 12.3989C16.9361 12.3393 16.9086 12.2834 16.871 12.2344C16.8335 12.1854 16.7866 12.1443 16.7332 12.1135C16.6797 12.0826 16.6208 12.0626 16.5596 12.0545C16.4984 12.0464 16.4362 12.0505 16.3766 12.0665H16.3657C16.306 12.0824 16.2501 12.11 16.2011 12.1476C16.1521 12.1851 16.1109 12.232 16.08 12.2855C16.0491 12.339 16.0291 12.398 16.021 12.4592C16.0129 12.5205 16.017 12.5827 16.0329 12.6424C16.0489 12.702 16.0764 12.7579 16.114 12.807C16.1516 12.856 16.1985 12.8971 16.2519 12.928C16.3054 12.9589 16.3644 12.979 16.4257 12.9871C16.4869 12.9952 16.5491 12.9911 16.6088 12.9751H16.6197C16.6794 12.9592 16.7353 12.9316 16.7844 12.894C16.8334 12.8564 16.8745 12.8095 16.9054 12.756C16.9363 12.7024 16.9563 12.6433 16.9643 12.5821C16.9723 12.5208 16.9682 12.4585 16.9521 12.3989Z"/>
<path d="M19.722 18.3092C19.6363 17.9895 19.463 17.7002 19.2214 17.474C18.9799 17.2478 18.6799 17.0937 18.3554 17.0292C18.0308 16.9646 17.6947 16.9921 17.385 17.1087C17.0752 17.2252 16.8043 17.4261 16.6029 17.6886C16.4014 17.951 16.2773 18.2647 16.2448 18.594C16.2123 18.9233 16.2727 19.2551 16.4189 19.552C16.5652 19.8488 16.7916 20.0987 17.0726 20.2736C17.3535 20.4484 17.6778 20.5411 18.0087 20.5412C18.2808 20.5413 18.5492 20.4788 18.7932 20.3586C19.0372 20.2383 19.2502 20.0635 19.4159 19.8477C19.5815 19.632 19.6953 19.3809 19.7484 19.1141C19.8014 18.8473 19.7924 18.5719 19.722 18.3092ZM18.7302 19.1844C18.6758 19.2794 18.6031 19.3626 18.5163 19.4293C18.4296 19.4959 18.3304 19.5447 18.2246 19.5728C18.1542 19.5917 18.0816 19.6014 18.0087 19.6015C17.8255 19.6014 17.6474 19.5408 17.502 19.4292C17.3567 19.3175 17.2523 19.1611 17.2049 18.9841C17.1576 18.807 17.1699 18.6193 17.2401 18.45C17.3103 18.2808 17.4344 18.1394 17.5931 18.0478C17.7519 17.9562 17.9364 17.9195 18.1181 17.9435C18.2997 17.9675 18.4685 18.0507 18.598 18.1803C18.7276 18.3099 18.8107 18.4786 18.8347 18.6603C18.8586 18.842 18.8218 19.0257 18.7302 19.1844Z"/>
<path d="M11.9959 1.00002C11.872 1.00105 11.7535 1.051 11.6662 1.13901C11.5789 1.22702 11.5299 1.34595 11.53 1.46989V2.72806C11.53 2.85278 11.5795 2.9724 11.6677 3.06059C11.7559 3.14878 11.8755 3.19832 12.0002 3.19832C12.1249 3.19832 12.2445 3.14878 12.3327 3.06059C12.4209 2.9724 12.4705 2.85278 12.4705 2.72806V1.46989C12.4705 1.4078 12.4582 1.34631 12.4343 1.289C12.4104 1.23169 12.3753 1.17968 12.3312 1.13599C12.2871 1.09229 12.2347 1.05778 12.1772 1.03444C12.1196 1.01111 12.058 0.999407 11.9959 1.00002Z"/>
<path d="M10.3803 3.35948L9.74108 2.27217C9.67795 2.16465 9.57469 2.08661 9.45402 2.05522C9.33335 2.02384 9.20515 2.04167 9.09762 2.1048C8.9901 2.16794 8.91207 2.2712 8.88068 2.39187C8.8493 2.51254 8.86712 2.64074 8.93026 2.74826L9.56944 3.83556C9.63257 3.94308 9.73584 4.02112 9.85651 4.05251C9.97718 4.0839 10.1054 4.06606 10.2129 4.00293C10.3204 3.9398 10.3985 3.83654 10.4298 3.71587C10.4612 3.5952 10.4434 3.467 10.3803 3.35948Z"/>
<path d="M14.8959 2.10208C14.7883 2.039 14.66 2.02123 14.5393 2.05269C14.4186 2.08414 14.3153 2.16225 14.2521 2.26983L13.6129 3.35714C13.5817 3.41038 13.5612 3.46925 13.5527 3.5304C13.5442 3.59155 13.5478 3.65378 13.5634 3.71353C13.5789 3.77328 13.6061 3.82938 13.6433 3.87864C13.6805 3.92789 13.7271 3.96933 13.7803 4.00059C13.8335 4.03185 13.8924 4.05232 13.9536 4.06083C14.0147 4.06933 14.0769 4.06571 14.1367 4.05017C14.1964 4.03463 14.2525 4.00747 14.3018 3.97025C14.3511 3.93302 14.3925 3.88646 14.4237 3.83322L15.0629 2.74592C15.0943 2.6927 15.1149 2.63381 15.1235 2.57263C15.132 2.51145 15.1285 2.44917 15.113 2.38937C15.0975 2.32957 15.0703 2.27341 15.0331 2.22411C14.9958 2.17482 14.9492 2.13335 14.8959 2.10208Z"/>
</mask>
<path d="M10.5008 6.54141L8.2353 5.93407C8.11151 5.9017 7.982 5.89781 7.85649 5.9227C7.73099 5.94758 7.61276 6.0006 7.51069 6.07775C7.43726 6.13355 7.37583 6.20357 7.33007 6.28363C7.2843 6.36369 7.25513 6.45215 7.2443 6.54373L6.99344 7.48037C6.95713 7.5664 6.93842 7.65882 6.93842 7.7522C6.93842 7.84557 6.95713 7.938 6.99344 8.02403C7.01841 8.08359 7.05049 8.13991 7.08897 8.19178C6.84898 8.69116 6.5756 9.30705 6.28902 9.99205C6.03816 10.5908 5.77721 11.2417 5.52014 11.9135C4.9654 12.1172 4.46616 12.4482 4.06247 12.8798C3.65878 13.3114 3.36189 13.8316 3.19564 14.3987L1.03733 22.4534C0.949 22.8438 1.01886 23.2534 1.23163 23.5925C1.4444 23.9316 1.78279 24.1726 2.17279 24.2629L6.58725 25.4466C6.72883 25.4846 6.87479 25.5039 7.0214 25.504C7.27258 25.5046 7.52033 25.4458 7.74446 25.3324C7.92215 25.245 8.07926 25.1209 8.20538 24.9683C8.33151 24.8157 8.42377 24.638 8.47606 24.447L10.6328 16.3955C10.7717 15.8216 10.7742 15.2231 10.6401 14.648C10.5061 14.0729 10.2392 13.5372 9.86082 13.0839C10.0224 12.0665 10.1567 11.0825 10.2491 10.2328V10.225C10.2965 9.79944 10.3338 9.40801 10.3602 9.06007C10.4645 9.00929 10.5567 8.93669 10.6306 8.84718C10.7044 8.75768 10.7581 8.65335 10.7881 8.54127L11.0623 7.51765C11.1159 7.31378 11.087 7.09701 10.9819 6.91429C10.8768 6.73156 10.7039 6.5976 10.5008 6.54141ZM7.56816 24.1993C7.54954 24.2626 7.51768 24.3212 7.47471 24.3713C7.43173 24.4213 7.37861 24.4617 7.31886 24.4897C7.16733 24.5642 6.99358 24.58 6.83112 24.534L2.41666 23.3512C2.26866 23.3231 2.13717 23.2391 2.04951 23.1166C1.96186 22.994 1.92479 22.8425 1.94601 22.6933L2.12076 22.0402L7.74368 23.5469L7.56816 24.1993ZM7.98444 22.6374L2.36152 21.1307L3.97772 15.0993L9.60064 16.606L7.98444 22.6374ZM9.79481 15.6841L4.27052 14.2038C4.42612 13.8727 4.64872 13.5776 4.92424 13.337C5.19976 13.0963 5.5222 12.9155 5.87118 12.8058C5.96463 12.8035 6.05526 12.7734 6.13149 12.7193C6.20772 12.6652 6.26608 12.5896 6.29912 12.5022C6.54376 11.8576 6.79151 11.23 7.03227 10.6475H9.25426C9.17659 11.279 9.08029 11.9678 8.97001 12.6824L8.85506 12.6513C8.73456 12.6191 8.6062 12.636 8.4982 12.6984C8.3902 12.7608 8.31142 12.8636 8.27918 12.9841C8.24694 13.1046 8.2639 13.233 8.32631 13.3409C8.38872 13.4489 8.49147 13.5277 8.61197 13.56L9.15174 13.7044C9.61682 14.2552 9.84841 14.9658 9.79713 15.6849L9.79481 15.6841ZM9.91053 8.19333H9.84296L9.80956 8.20033H9.80024L9.76063 8.21275L9.74821 8.21741L9.7218 8.22828L9.70627 8.23605L9.68452 8.2477L9.66976 8.25624L9.64802 8.271L9.63559 8.27954L9.60763 8.30206H9.60297C9.5921 8.31138 9.582 8.32148 9.57268 8.33235L9.56647 8.33935L9.5455 8.36497L9.53773 8.37585L9.52143 8.39914L9.51288 8.41235L9.50046 8.43487L9.49269 8.4504L9.48259 8.4737L9.4756 8.49079C9.47172 8.50244 9.46784 8.51409 9.46473 8.52574C9.46162 8.53739 9.45774 8.55448 9.45541 8.56846V8.57778C9.45541 8.57778 9.45541 8.58166 9.45541 8.58399C9.45541 8.59797 9.45541 8.61272 9.45075 8.6267C9.43366 8.93736 9.40415 9.29617 9.36299 9.6977H7.43225C7.67534 9.13929 7.89823 8.65 8.09628 8.26401C8.10249 8.25158 8.10793 8.23916 8.11336 8.22595V8.2112C8.1188 8.19722 8.12268 8.18246 8.12657 8.16771C8.13045 8.15295 8.132 8.14363 8.13433 8.13198C8.13666 8.12033 8.13433 8.12033 8.13433 8.11412C8.13433 8.1079 8.13433 8.09703 8.13433 8.08848C8.13433 8.07994 8.13433 8.07761 8.13433 8.07218C8.13433 8.06674 8.13433 8.05353 8.13433 8.04499C8.13433 8.03645 8.13433 8.0349 8.13433 8.03024C8.13433 8.02558 8.13433 8.01004 8.13433 7.99995V7.9883C8.13433 7.97665 8.13433 7.96422 8.12812 7.95257V7.94636C8.12502 7.93238 8.12113 7.9184 8.11647 7.90442C8.11259 7.89199 8.10793 7.88035 8.10249 7.86792L8.09628 7.85472L8.08385 7.83064L8.07531 7.81588L8.0621 7.79491L8.05201 7.78016L8.0357 7.75919L8.02638 7.74754C8.01784 7.73744 8.00852 7.72735 7.99842 7.71803L7.9891 7.70948L7.9658 7.68851L7.95493 7.67997L7.92852 7.66133L7.91843 7.65512L7.90988 7.64968L8.11958 6.86915L10.114 7.40348L9.91053 8.19333Z" fill="white"/>
<path d="M7.62688 12.0696H7.616C7.49551 12.0374 7.36718 12.0545 7.25925 12.117C7.15132 12.1794 7.07264 12.2822 7.04051 12.4027C7.00838 12.5232 7.02543 12.6516 7.08791 12.7595C7.1504 12.8674 7.25319 12.9461 7.37369 12.9782H7.38457C7.44424 12.9942 7.50644 12.9982 7.56765 12.99C7.62886 12.9819 7.68787 12.9618 7.74131 12.9308C7.79475 12.8999 7.84158 12.8587 7.87911 12.8097C7.91665 12.7607 7.94415 12.7047 7.96007 12.6451C7.97598 12.5854 7.97998 12.5232 7.97185 12.462C7.96371 12.4008 7.9436 12.3418 7.91266 12.2883C7.88172 12.2349 7.84056 12.188 7.79152 12.1505C7.74249 12.113 7.68655 12.0855 7.62688 12.0696Z" fill="white"/>
<path d="M7.51878 17.8797C7.3137 17.5244 6.99178 17.2512 6.60786 17.1067C6.22393 16.9621 5.80177 16.9552 5.41331 17.087C5.02484 17.2189 4.69412 17.4813 4.47748 17.8297C4.26084 18.178 4.17169 18.5908 4.22523 18.9975C4.27877 19.4042 4.47168 19.7798 4.77109 20.0602C5.07051 20.3406 5.45789 20.5085 5.86724 20.5353C6.27659 20.5622 6.68257 20.4462 7.01601 20.2072C7.34945 19.9683 7.58971 19.6211 7.69586 19.2248C7.75673 19 7.77242 18.7654 7.74203 18.5345C7.71163 18.3036 7.63575 18.0811 7.51878 17.8797ZM6.78796 18.9817C6.73814 19.1678 6.62533 19.3309 6.46876 19.4431C6.31219 19.5553 6.12155 19.6098 5.92933 19.5972C5.7371 19.5846 5.55519 19.5058 5.41459 19.3741C5.27399 19.2424 5.1834 19.0661 5.15827 18.8751C5.13313 18.6841 5.175 18.4903 5.27675 18.3267C5.37849 18.1631 5.5338 18.0399 5.71622 17.978C5.89864 17.9161 6.09688 17.9194 6.27716 17.9873C6.45743 18.0552 6.60858 18.1835 6.70485 18.3503C6.75973 18.4453 6.79532 18.5502 6.80958 18.6589C6.82384 18.7677 6.81649 18.8782 6.78796 18.9841V18.9817Z" fill="white"/>
<path d="M22.9561 22.4534L20.7963 14.4026C20.63 13.8355 20.3331 13.3153 19.9294 12.8837C19.5257 12.4521 19.0265 12.1211 18.4718 11.9174C18.2139 11.2456 17.953 10.5971 17.7029 9.99593C17.4155 9.31093 17.1429 8.69505 16.9029 8.19566C16.9414 8.14377 16.9735 8.08745 16.9985 8.02791C17.0353 7.94134 17.0543 7.84822 17.0543 7.75414C17.0543 7.66006 17.0353 7.56694 16.9985 7.48037L16.7476 6.54373C16.7368 6.45215 16.7076 6.36369 16.6618 6.28363C16.6161 6.20357 16.5546 6.13355 16.4812 6.07775C16.3791 6.0006 16.2609 5.94758 16.1354 5.9227C16.0099 5.89781 15.8804 5.9017 15.7566 5.93407L13.4911 6.54063C13.2863 6.59577 13.1117 6.72996 13.0057 6.91372C12.8997 7.09749 12.8709 7.31581 12.9257 7.52076L13.1999 8.54438C13.2299 8.65646 13.2836 8.76078 13.3575 8.85029C13.4313 8.9398 13.5235 9.0124 13.6278 9.06318C13.6542 9.40801 13.6915 9.79944 13.7389 10.2282V10.2375C13.8336 11.0863 13.9719 12.0696 14.1272 13.087C13.7489 13.5403 13.4819 14.076 13.3479 14.6511C13.2138 15.2262 13.2163 15.8247 13.3552 16.3986L15.5112 24.4462C15.5635 24.6372 15.6557 24.8149 15.7818 24.9675C15.908 25.1202 16.0651 25.2443 16.2428 25.3316C16.4669 25.445 16.7147 25.5038 16.9659 25.5032C17.1125 25.5032 17.2584 25.4838 17.4 25.4458L21.8152 24.2629C22.2029 24.1616 22.5393 23.9203 22.7596 23.5857C22.8708 23.4217 22.9458 23.2359 22.9796 23.0407C23.0135 22.8454 23.0055 22.6452 22.9561 22.4534ZM14.152 8.2011H14.0814L13.8725 7.42057L15.8669 6.88624L16.0758 7.66677L16.0673 7.6722L16.0572 7.67841L16.0308 7.69706L16.0199 7.7056L15.9966 7.72579L15.9873 7.73434C15.978 7.74366 15.9686 7.75375 15.9593 7.76385L15.9492 7.77628L15.9337 7.79724L15.9236 7.81278L15.9112 7.83297L15.9026 7.8485L15.891 7.87258L15.8848 7.88578C15.8801 7.89743 15.8754 7.90908 15.8716 7.92073C15.8669 7.93471 15.863 7.94869 15.8599 7.96267V7.96888C15.8599 7.98053 15.8552 7.99218 15.8537 8.00383C15.8521 8.01548 15.8537 8.0116 15.8537 8.01626C15.8537 8.02092 15.8537 8.03645 15.8537 8.04655C15.8537 8.05665 15.8537 8.05664 15.8537 8.0613C15.8537 8.06596 15.8537 8.07916 15.8537 8.08848C15.8537 8.0978 15.8537 8.09936 15.8537 8.1048C15.8537 8.11023 15.8537 8.12188 15.8537 8.13042C15.8537 8.13897 15.8537 8.14208 15.8537 8.14829C15.8537 8.1545 15.8583 8.17314 15.8622 8.18556C15.8661 8.19799 15.87 8.21197 15.8747 8.2244V8.23915C15.8801 8.25313 15.8863 8.26634 15.8925 8.27954C16.0874 8.66786 16.3135 9.15405 16.5566 9.71323H14.6266C14.5862 9.31171 14.5559 8.94979 14.5388 8.64224C14.5388 8.62826 14.5388 8.6135 14.5342 8.59952V8.58088C14.5342 8.5669 14.5287 8.5537 14.5248 8.53972C14.521 8.52574 14.5178 8.51487 14.5132 8.50244L14.507 8.4869L14.4961 8.46283L14.4883 8.44808L14.4751 8.424L14.4674 8.41157L14.4511 8.3875L14.4433 8.37662L14.4223 8.35177L14.4161 8.344C14.4068 8.33365 14.397 8.32407 14.3866 8.31527L14.3757 8.30595L14.3555 8.28964L14.3377 8.27721L14.3229 8.26712L14.3012 8.25391L14.2639 8.23527H14.2561C14.2274 8.22298 14.1974 8.21362 14.1668 8.20732L14.152 8.2011ZM14.8402 13.7075L15.3799 13.5631C15.4396 13.5471 15.4955 13.5196 15.5446 13.482C15.5936 13.4444 15.6347 13.3975 15.6656 13.3441C15.6965 13.2906 15.7166 13.2315 15.7247 13.1703C15.7327 13.1091 15.7287 13.0469 15.7127 12.9872C15.6968 12.9275 15.6692 12.8716 15.6316 12.8226C15.5941 12.7736 15.5472 12.7324 15.4937 12.7015C15.4402 12.6706 15.3812 12.6506 15.32 12.6425C15.2587 12.6344 15.1965 12.6384 15.1368 12.6544L15.0219 12.6855C14.9108 11.9725 14.8145 11.2821 14.7376 10.6506H16.9596C17.1996 11.2331 17.4481 11.8607 17.6928 12.5053C17.7259 12.5926 17.7844 12.668 17.8606 12.722C17.9368 12.7759 18.0274 12.8059 18.1207 12.8082C18.4697 12.9178 18.7922 13.0987 19.0677 13.3393C19.3432 13.5799 19.5658 13.8751 19.7214 14.2061L14.1971 15.6864C14.1456 14.9679 14.3766 14.2576 14.8409 13.7067L14.8402 13.7075ZM16.0051 22.639L14.3889 16.6075L20.0119 15.1008L21.6281 21.1323L16.0051 22.639ZM21.9752 23.07C21.8813 23.2101 21.7388 23.3105 21.5753 23.3519L17.16 24.5348C16.9978 24.5806 16.8244 24.5648 16.673 24.4905C16.6133 24.4625 16.5602 24.4221 16.5172 24.372C16.4742 24.322 16.4424 24.2633 16.4238 24.2L16.249 23.5469L21.8719 22.0402L22.0467 22.6933C22.0624 22.7573 22.0643 22.8239 22.0524 22.8887C22.0405 22.9535 22.015 23.015 21.9776 23.0692L21.9752 23.07Z" fill="white"/>
<path d="M16.9521 12.3989C16.9361 12.3393 16.9086 12.2834 16.871 12.2344C16.8335 12.1854 16.7866 12.1443 16.7332 12.1135C16.6797 12.0826 16.6208 12.0626 16.5596 12.0545C16.4984 12.0464 16.4362 12.0505 16.3766 12.0665H16.3657C16.306 12.0824 16.2501 12.11 16.2011 12.1476C16.1521 12.1851 16.1109 12.232 16.08 12.2855C16.0491 12.339 16.0291 12.398 16.021 12.4592C16.0129 12.5205 16.017 12.5827 16.0329 12.6424C16.0489 12.702 16.0764 12.7579 16.114 12.807C16.1516 12.856 16.1985 12.8971 16.2519 12.928C16.3054 12.9589 16.3644 12.979 16.4257 12.9871C16.4869 12.9952 16.5491 12.9911 16.6088 12.9751H16.6197C16.6794 12.9592 16.7353 12.9316 16.7844 12.894C16.8334 12.8564 16.8745 12.8095 16.9054 12.756C16.9363 12.7024 16.9563 12.6433 16.9643 12.5821C16.9723 12.5208 16.9682 12.4585 16.9521 12.3989Z" fill="white"/>
<path d="M19.722 18.3092C19.6363 17.9895 19.463 17.7002 19.2214 17.474C18.9799 17.2478 18.6799 17.0937 18.3554 17.0292C18.0308 16.9646 17.6947 16.9921 17.385 17.1087C17.0752 17.2252 16.8043 17.4261 16.6029 17.6886C16.4014 17.951 16.2773 18.2647 16.2448 18.594C16.2123 18.9233 16.2727 19.2551 16.4189 19.552C16.5652 19.8488 16.7916 20.0987 17.0726 20.2736C17.3535 20.4484 17.6778 20.5411 18.0087 20.5412C18.2808 20.5413 18.5492 20.4788 18.7932 20.3586C19.0372 20.2383 19.2502 20.0635 19.4159 19.8477C19.5815 19.632 19.6953 19.3809 19.7484 19.1141C19.8014 18.8473 19.7924 18.5719 19.722 18.3092ZM18.7302 19.1844C18.6758 19.2794 18.6031 19.3626 18.5163 19.4293C18.4296 19.4959 18.3304 19.5447 18.2246 19.5728C18.1542 19.5917 18.0816 19.6014 18.0087 19.6015C17.8255 19.6014 17.6474 19.5408 17.502 19.4292C17.3567 19.3175 17.2523 19.1611 17.2049 18.9841C17.1576 18.807 17.1699 18.6193 17.2401 18.45C17.3103 18.2808 17.4344 18.1394 17.5931 18.0478C17.7519 17.9562 17.9364 17.9195 18.1181 17.9435C18.2997 17.9675 18.4685 18.0507 18.598 18.1803C18.7276 18.3099 18.8107 18.4786 18.8347 18.6603C18.8586 18.842 18.8218 19.0257 18.7302 19.1844Z" fill="white"/>
<path d="M11.9959 1.00002C11.872 1.00105 11.7535 1.051 11.6662 1.13901C11.5789 1.22702 11.5299 1.34595 11.53 1.46989V2.72806C11.53 2.85278 11.5795 2.9724 11.6677 3.06059C11.7559 3.14878 11.8755 3.19832 12.0002 3.19832C12.1249 3.19832 12.2445 3.14878 12.3327 3.06059C12.4209 2.9724 12.4705 2.85278 12.4705 2.72806V1.46989C12.4705 1.4078 12.4582 1.34631 12.4343 1.289C12.4104 1.23169 12.3753 1.17968 12.3312 1.13599C12.2871 1.09229 12.2347 1.05778 12.1772 1.03444C12.1196 1.01111 12.058 0.999407 11.9959 1.00002Z" fill="white"/>
<path d="M10.3803 3.35948L9.74108 2.27217C9.67795 2.16465 9.57469 2.08661 9.45402 2.05522C9.33335 2.02384 9.20515 2.04167 9.09762 2.1048C8.9901 2.16794 8.91207 2.2712 8.88068 2.39187C8.8493 2.51254 8.86712 2.64074 8.93026 2.74826L9.56944 3.83556C9.63257 3.94308 9.73584 4.02112 9.85651 4.05251C9.97718 4.0839 10.1054 4.06606 10.2129 4.00293C10.3204 3.9398 10.3985 3.83654 10.4298 3.71587C10.4612 3.5952 10.4434 3.467 10.3803 3.35948Z" fill="white"/>
<path d="M14.8959 2.10208C14.7883 2.039 14.66 2.02123 14.5393 2.05269C14.4186 2.08414 14.3153 2.16225 14.2521 2.26983L13.6129 3.35714C13.5817 3.41038 13.5612 3.46925 13.5527 3.5304C13.5442 3.59155 13.5478 3.65378 13.5634 3.71353C13.5789 3.77328 13.6061 3.82938 13.6433 3.87864C13.6805 3.92789 13.7271 3.96933 13.7803 4.00059C13.8335 4.03185 13.8924 4.05232 13.9536 4.06083C14.0147 4.06933 14.0769 4.06571 14.1367 4.05017C14.1964 4.03463 14.2525 4.00747 14.3018 3.97025C14.3511 3.93302 14.3925 3.88646 14.4237 3.83322L15.0629 2.74592C15.0943 2.6927 15.1149 2.63381 15.1235 2.57263C15.132 2.51145 15.1285 2.44917 15.113 2.38937C15.0975 2.32957 15.0703 2.27341 15.0331 2.22411C14.9958 2.17482 14.9492 2.13335 14.8959 2.10208Z" fill="white"/>
<path d="M10.5008 6.54141L8.2353 5.93407C8.11151 5.9017 7.982 5.89781 7.85649 5.9227C7.73099 5.94758 7.61276 6.0006 7.51069 6.07775C7.43726 6.13355 7.37583 6.20357 7.33007 6.28363C7.2843 6.36369 7.25513 6.45215 7.2443 6.54373L6.99344 7.48037C6.95713 7.5664 6.93842 7.65882 6.93842 7.7522C6.93842 7.84557 6.95713 7.938 6.99344 8.02403C7.01841 8.08359 7.05049 8.13991 7.08897 8.19178C6.84898 8.69116 6.5756 9.30705 6.28902 9.99205C6.03816 10.5908 5.77721 11.2417 5.52014 11.9135C4.9654 12.1172 4.46616 12.4482 4.06247 12.8798C3.65878 13.3114 3.36189 13.8316 3.19564 14.3987L1.03733 22.4534C0.949 22.8438 1.01886 23.2534 1.23163 23.5925C1.4444 23.9316 1.78279 24.1726 2.17279 24.2629L6.58725 25.4466C6.72883 25.4846 6.87479 25.5039 7.0214 25.504C7.27258 25.5046 7.52033 25.4458 7.74446 25.3324C7.92215 25.245 8.07926 25.1209 8.20538 24.9683C8.33151 24.8157 8.42377 24.638 8.47606 24.447L10.6328 16.3955C10.7717 15.8216 10.7742 15.2231 10.6401 14.648C10.5061 14.0729 10.2392 13.5372 9.86082 13.0839C10.0224 12.0665 10.1567 11.0825 10.2491 10.2328V10.225C10.2965 9.79944 10.3338 9.40801 10.3602 9.06007C10.4645 9.00929 10.5567 8.93669 10.6306 8.84718C10.7044 8.75768 10.7581 8.65335 10.7881 8.54127L11.0623 7.51765C11.1159 7.31378 11.087 7.09701 10.9819 6.91429C10.8768 6.73156 10.7039 6.5976 10.5008 6.54141ZM7.56816 24.1993C7.54954 24.2626 7.51768 24.3212 7.47471 24.3713C7.43173 24.4213 7.37861 24.4617 7.31886 24.4897C7.16733 24.5642 6.99358 24.58 6.83112 24.534L2.41666 23.3512C2.26866 23.3231 2.13717 23.2391 2.04951 23.1166C1.96186 22.994 1.92479 22.8425 1.94601 22.6933L2.12076 22.0402L7.74368 23.5469L7.56816 24.1993ZM7.98444 22.6374L2.36152 21.1307L3.97772 15.0993L9.60064 16.606L7.98444 22.6374ZM9.79481 15.6841L4.27052 14.2038C4.42612 13.8727 4.64872 13.5776 4.92424 13.337C5.19976 13.0963 5.5222 12.9155 5.87118 12.8058C5.96463 12.8035 6.05526 12.7734 6.13149 12.7193C6.20772 12.6652 6.26608 12.5896 6.29912 12.5022C6.54376 11.8576 6.79151 11.23 7.03227 10.6475H9.25426C9.17659 11.279 9.08029 11.9678 8.97001 12.6824L8.85506 12.6513C8.73456 12.6191 8.6062 12.636 8.4982 12.6984C8.3902 12.7608 8.31142 12.8636 8.27918 12.9841C8.24694 13.1046 8.2639 13.233 8.32631 13.3409C8.38872 13.4489 8.49147 13.5277 8.61197 13.56L9.15174 13.7044C9.61682 14.2552 9.84841 14.9658 9.79713 15.6849L9.79481 15.6841ZM9.91053 8.19333H9.84296L9.80956 8.20033H9.80024L9.76063 8.21275L9.74821 8.21741L9.7218 8.22828L9.70627 8.23605L9.68452 8.2477L9.66976 8.25624L9.64802 8.271L9.63559 8.27954L9.60763 8.30206H9.60297C9.5921 8.31138 9.582 8.32148 9.57268 8.33235L9.56647 8.33935L9.5455 8.36497L9.53773 8.37585L9.52143 8.39914L9.51288 8.41235L9.50046 8.43487L9.49269 8.4504L9.48259 8.4737L9.4756 8.49079C9.47172 8.50244 9.46784 8.51409 9.46473 8.52574C9.46162 8.53739 9.45774 8.55448 9.45541 8.56846V8.57778C9.45541 8.57778 9.45541 8.58166 9.45541 8.58399C9.45541 8.59797 9.45541 8.61272 9.45075 8.6267C9.43366 8.93736 9.40415 9.29617 9.36299 9.6977H7.43225C7.67534 9.13929 7.89823 8.65 8.09628 8.26401C8.10249 8.25158 8.10793 8.23916 8.11336 8.22595V8.2112C8.1188 8.19722 8.12268 8.18246 8.12657 8.16771C8.13045 8.15295 8.132 8.14363 8.13433 8.13198C8.13666 8.12033 8.13433 8.12033 8.13433 8.11412C8.13433 8.1079 8.13433 8.09703 8.13433 8.08848C8.13433 8.07994 8.13433 8.07761 8.13433 8.07218C8.13433 8.06674 8.13433 8.05353 8.13433 8.04499C8.13433 8.03645 8.13433 8.0349 8.13433 8.03024C8.13433 8.02558 8.13433 8.01004 8.13433 7.99995V7.9883C8.13433 7.97665 8.13433 7.96422 8.12812 7.95257V7.94636C8.12502 7.93238 8.12113 7.9184 8.11647 7.90442C8.11259 7.89199 8.10793 7.88035 8.10249 7.86792L8.09628 7.85472L8.08385 7.83064L8.07531 7.81588L8.0621 7.79491L8.05201 7.78016L8.0357 7.75919L8.02638 7.74754C8.01784 7.73744 8.00852 7.72735 7.99842 7.71803L7.9891 7.70948L7.9658 7.68851L7.95493 7.67997L7.92852 7.66133L7.91843 7.65512L7.90988 7.64968L8.11958 6.86915L10.114 7.40348L9.91053 8.19333Z" stroke="white" stroke-width="0.4" mask="url(#path-1-outside-1_493:4)"/>
<path d="M7.62688 12.0696H7.616C7.49551 12.0374 7.36718 12.0545 7.25925 12.117C7.15132 12.1794 7.07264 12.2822 7.04051 12.4027C7.00838 12.5232 7.02543 12.6516 7.08791 12.7595C7.1504 12.8674 7.25319 12.9461 7.37369 12.9782H7.38457C7.44424 12.9942 7.50644 12.9982 7.56765 12.99C7.62886 12.9819 7.68787 12.9618 7.74131 12.9308C7.79475 12.8999 7.84158 12.8587 7.87911 12.8097C7.91665 12.7607 7.94415 12.7047 7.96007 12.6451C7.97598 12.5854 7.97998 12.5232 7.97185 12.462C7.96371 12.4008 7.9436 12.3418 7.91266 12.2883C7.88172 12.2349 7.84056 12.188 7.79152 12.1505C7.74249 12.113 7.68655 12.0855 7.62688 12.0696Z" stroke="white" stroke-width="0.4" mask="url(#path-1-outside-1_493:4)"/>
<path d="M7.51878 17.8797C7.3137 17.5244 6.99178 17.2512 6.60786 17.1067C6.22393 16.9621 5.80177 16.9552 5.41331 17.087C5.02484 17.2189 4.69412 17.4813 4.47748 17.8297C4.26084 18.178 4.17169 18.5908 4.22523 18.9975C4.27877 19.4042 4.47168 19.7798 4.77109 20.0602C5.07051 20.3406 5.45789 20.5085 5.86724 20.5353C6.27659 20.5622 6.68257 20.4462 7.01601 20.2072C7.34945 19.9683 7.58971 19.6211 7.69586 19.2248C7.75673 19 7.77242 18.7654 7.74203 18.5345C7.71163 18.3036 7.63575 18.0811 7.51878 17.8797ZM6.78796 18.9817C6.73814 19.1678 6.62533 19.3309 6.46876 19.4431C6.31219 19.5553 6.12155 19.6098 5.92933 19.5972C5.7371 19.5846 5.55519 19.5058 5.41459 19.3741C5.27399 19.2424 5.1834 19.0661 5.15827 18.8751C5.13313 18.6841 5.175 18.4903 5.27675 18.3267C5.37849 18.1631 5.5338 18.0399 5.71622 17.978C5.89864 17.9161 6.09688 17.9194 6.27716 17.9873C6.45743 18.0552 6.60858 18.1835 6.70485 18.3503C6.75973 18.4453 6.79532 18.5502 6.80958 18.6589C6.82384 18.7677 6.81649 18.8782 6.78796 18.9841V18.9817Z" stroke="white" stroke-width="0.4" mask="url(#path-1-outside-1_493:4)"/>
<path d="M22.9561 22.4534L20.7963 14.4026C20.63 13.8355 20.3331 13.3153 19.9294 12.8837C19.5257 12.4521 19.0265 12.1211 18.4718 11.9174C18.2139 11.2456 17.953 10.5971 17.7029 9.99593C17.4155 9.31093 17.1429 8.69505 16.9029 8.19566C16.9414 8.14377 16.9735 8.08745 16.9985 8.02791C17.0353 7.94134 17.0543 7.84822 17.0543 7.75414C17.0543 7.66006 17.0353 7.56694 16.9985 7.48037L16.7476 6.54373C16.7368 6.45215 16.7076 6.36369 16.6618 6.28363C16.6161 6.20357 16.5546 6.13355 16.4812 6.07775C16.3791 6.0006 16.2609 5.94758 16.1354 5.9227C16.0099 5.89781 15.8804 5.9017 15.7566 5.93407L13.4911 6.54063C13.2863 6.59577 13.1117 6.72996 13.0057 6.91372C12.8997 7.09749 12.8709 7.31581 12.9257 7.52076L13.1999 8.54438C13.2299 8.65646 13.2836 8.76078 13.3575 8.85029C13.4313 8.9398 13.5235 9.0124 13.6278 9.06318C13.6542 9.40801 13.6915 9.79944 13.7389 10.2282V10.2375C13.8336 11.0863 13.9719 12.0696 14.1272 13.087C13.7489 13.5403 13.4819 14.076 13.3479 14.6511C13.2138 15.2262 13.2163 15.8247 13.3552 16.3986L15.5112 24.4462C15.5635 24.6372 15.6557 24.8149 15.7818 24.9675C15.908 25.1202 16.0651 25.2443 16.2428 25.3316C16.4669 25.445 16.7147 25.5038 16.9659 25.5032C17.1125 25.5032 17.2584 25.4838 17.4 25.4458L21.8152 24.2629C22.2029 24.1616 22.5393 23.9203 22.7596 23.5857C22.8708 23.4217 22.9458 23.2359 22.9796 23.0407C23.0135 22.8454 23.0055 22.6452 22.9561 22.4534ZM14.152 8.2011H14.0814L13.8725 7.42057L15.8669 6.88624L16.0758 7.66677L16.0673 7.6722L16.0572 7.67841L16.0308 7.69706L16.0199 7.7056L15.9966 7.72579L15.9873 7.73434C15.978 7.74366 15.9686 7.75375 15.9593 7.76385L15.9492 7.77628L15.9337 7.79724L15.9236 7.81278L15.9112 7.83297L15.9026 7.8485L15.891 7.87258L15.8848 7.88578C15.8801 7.89743 15.8754 7.90908 15.8716 7.92073C15.8669 7.93471 15.863 7.94869 15.8599 7.96267V7.96888C15.8599 7.98053 15.8552 7.99218 15.8537 8.00383C15.8521 8.01548 15.8537 8.0116 15.8537 8.01626C15.8537 8.02092 15.8537 8.03645 15.8537 8.04655C15.8537 8.05665 15.8537 8.05664 15.8537 8.0613C15.8537 8.06596 15.8537 8.07916 15.8537 8.08848C15.8537 8.0978 15.8537 8.09936 15.8537 8.1048C15.8537 8.11023 15.8537 8.12188 15.8537 8.13042C15.8537 8.13897 15.8537 8.14208 15.8537 8.14829C15.8537 8.1545 15.8583 8.17314 15.8622 8.18556C15.8661 8.19799 15.87 8.21197 15.8747 8.2244V8.23915C15.8801 8.25313 15.8863 8.26634 15.8925 8.27954C16.0874 8.66786 16.3135 9.15405 16.5566 9.71323H14.6266C14.5862 9.31171 14.5559 8.94979 14.5388 8.64224C14.5388 8.62826 14.5388 8.6135 14.5342 8.59952V8.58088C14.5342 8.5669 14.5287 8.5537 14.5248 8.53972C14.521 8.52574 14.5178 8.51487 14.5132 8.50244L14.507 8.4869L14.4961 8.46283L14.4883 8.44808L14.4751 8.424L14.4674 8.41157L14.4511 8.3875L14.4433 8.37662L14.4223 8.35177L14.4161 8.344C14.4068 8.33365 14.397 8.32407 14.3866 8.31527L14.3757 8.30595L14.3555 8.28964L14.3377 8.27721L14.3229 8.26712L14.3012 8.25391L14.2639 8.23527H14.2561C14.2274 8.22298 14.1974 8.21362 14.1668 8.20732L14.152 8.2011ZM14.8402 13.7075L15.3799 13.5631C15.4396 13.5471 15.4955 13.5196 15.5446 13.482C15.5936 13.4444 15.6347 13.3975 15.6656 13.3441C15.6965 13.2906 15.7166 13.2315 15.7247 13.1703C15.7327 13.1091 15.7287 13.0469 15.7127 12.9872C15.6968 12.9275 15.6692 12.8716 15.6316 12.8226C15.5941 12.7736 15.5472 12.7324 15.4937 12.7015C15.4402 12.6706 15.3812 12.6506 15.32 12.6425C15.2587 12.6344 15.1965 12.6384 15.1368 12.6544L15.0219 12.6855C14.9108 11.9725 14.8145 11.2821 14.7376 10.6506H16.9596C17.1996 11.2331 17.4481 11.8607 17.6928 12.5053C17.7259 12.5926 17.7844 12.668 17.8606 12.722C17.9368 12.7759 18.0274 12.8059 18.1207 12.8082C18.4697 12.9178 18.7922 13.0987 19.0677 13.3393C19.3432 13.5799 19.5658 13.8751 19.7214 14.2061L14.1971 15.6864C14.1456 14.9679 14.3766 14.2576 14.8409 13.7067L14.8402 13.7075ZM16.0051 22.639L14.3889 16.6075L20.0119 15.1008L21.6281 21.1323L16.0051 22.639ZM21.9752 23.07C21.8813 23.2101 21.7388 23.3105 21.5753 23.3519L17.16 24.5348C16.9978 24.5806 16.8244 24.5648 16.673 24.4905C16.6133 24.4625 16.5602 24.4221 16.5172 24.372C16.4742 24.322 16.4424 24.2633 16.4238 24.2L16.249 23.5469L21.8719 22.0402L22.0467 22.6933C22.0624 22.7573 22.0643 22.8239 22.0524 22.8887C22.0405 22.9535 22.015 23.015 21.9776 23.0692L21.9752 23.07Z" stroke="white" stroke-width="0.4" mask="url(#path-1-outside-1_493:4)"/>
<path d="M16.9521 12.3989C16.9361 12.3393 16.9086 12.2834 16.871 12.2344C16.8335 12.1854 16.7866 12.1443 16.7332 12.1135C16.6797 12.0826 16.6208 12.0626 16.5596 12.0545C16.4984 12.0464 16.4362 12.0505 16.3766 12.0665H16.3657C16.306 12.0824 16.2501 12.11 16.2011 12.1476C16.1521 12.1851 16.1109 12.232 16.08 12.2855C16.0491 12.339 16.0291 12.398 16.021 12.4592C16.0129 12.5205 16.017 12.5827 16.0329 12.6424C16.0489 12.702 16.0764 12.7579 16.114 12.807C16.1516 12.856 16.1985 12.8971 16.2519 12.928C16.3054 12.9589 16.3644 12.979 16.4257 12.9871C16.4869 12.9952 16.5491 12.9911 16.6088 12.9751H16.6197C16.6794 12.9592 16.7353 12.9316 16.7844 12.894C16.8334 12.8564 16.8745 12.8095 16.9054 12.756C16.9363 12.7024 16.9563 12.6433 16.9643 12.5821C16.9723 12.5208 16.9682 12.4585 16.9521 12.3989Z" stroke="white" stroke-width="0.4" mask="url(#path-1-outside-1_493:4)"/>
<path d="M19.722 18.3092C19.6363 17.9895 19.463 17.7002 19.2214 17.474C18.9799 17.2478 18.6799 17.0937 18.3554 17.0292C18.0308 16.9646 17.6947 16.9921 17.385 17.1087C17.0752 17.2252 16.8043 17.4261 16.6029 17.6886C16.4014 17.951 16.2773 18.2647 16.2448 18.594C16.2123 18.9233 16.2727 19.2551 16.4189 19.552C16.5652 19.8488 16.7916 20.0987 17.0726 20.2736C17.3535 20.4484 17.6778 20.5411 18.0087 20.5412C18.2808 20.5413 18.5492 20.4788 18.7932 20.3586C19.0372 20.2383 19.2502 20.0635 19.4159 19.8477C19.5815 19.632 19.6953 19.3809 19.7484 19.1141C19.8014 18.8473 19.7924 18.5719 19.722 18.3092ZM18.7302 19.1844C18.6758 19.2794 18.6031 19.3626 18.5163 19.4293C18.4296 19.4959 18.3304 19.5447 18.2246 19.5728C18.1542 19.5917 18.0816 19.6014 18.0087 19.6015C17.8255 19.6014 17.6474 19.5408 17.502 19.4292C17.3567 19.3175 17.2523 19.1611 17.2049 18.9841C17.1576 18.807 17.1699 18.6193 17.2401 18.45C17.3103 18.2808 17.4344 18.1394 17.5931 18.0478C17.7519 17.9562 17.9364 17.9195 18.1181 17.9435C18.2997 17.9675 18.4685 18.0507 18.598 18.1803C18.7276 18.3099 18.8107 18.4786 18.8347 18.6603C18.8586 18.842 18.8218 19.0257 18.7302 19.1844Z" stroke="white" stroke-width="0.4" mask="url(#path-1-outside-1_493:4)"/>
<path d="M11.9959 1.00002C11.872 1.00105 11.7535 1.051 11.6662 1.13901C11.5789 1.22702 11.5299 1.34595 11.53 1.46989V2.72806C11.53 2.85278 11.5795 2.9724 11.6677 3.06059C11.7559 3.14878 11.8755 3.19832 12.0002 3.19832C12.1249 3.19832 12.2445 3.14878 12.3327 3.06059C12.4209 2.9724 12.4705 2.85278 12.4705 2.72806V1.46989C12.4705 1.4078 12.4582 1.34631 12.4343 1.289C12.4104 1.23169 12.3753 1.17968 12.3312 1.13599C12.2871 1.09229 12.2347 1.05778 12.1772 1.03444C12.1196 1.01111 12.058 0.999407 11.9959 1.00002Z" stroke="white" stroke-width="0.4" mask="url(#path-1-outside-1_493:4)"/>
<path d="M10.3803 3.35948L9.74108 2.27217C9.67795 2.16465 9.57469 2.08661 9.45402 2.05522C9.33335 2.02384 9.20515 2.04167 9.09762 2.1048C8.9901 2.16794 8.91207 2.2712 8.88068 2.39187C8.8493 2.51254 8.86712 2.64074 8.93026 2.74826L9.56944 3.83556C9.63257 3.94308 9.73584 4.02112 9.85651 4.05251C9.97718 4.0839 10.1054 4.06606 10.2129 4.00293C10.3204 3.9398 10.3985 3.83654 10.4298 3.71587C10.4612 3.5952 10.4434 3.467 10.3803 3.35948Z" stroke="white" stroke-width="0.4" mask="url(#path-1-outside-1_493:4)"/>
<path d="M14.8959 2.10208C14.7883 2.039 14.66 2.02123 14.5393 2.05269C14.4186 2.08414 14.3153 2.16225 14.2521 2.26983L13.6129 3.35714C13.5817 3.41038 13.5612 3.46925 13.5527 3.5304C13.5442 3.59155 13.5478 3.65378 13.5634 3.71353C13.5789 3.77328 13.6061 3.82938 13.6433 3.87864C13.6805 3.92789 13.7271 3.96933 13.7803 4.00059C13.8335 4.03185 13.8924 4.05232 13.9536 4.06083C14.0147 4.06933 14.0769 4.06571 14.1367 4.05017C14.1964 4.03463 14.2525 4.00747 14.3018 3.97025C14.3511 3.93302 14.3925 3.88646 14.4237 3.83322L15.0629 2.74592C15.0943 2.6927 15.1149 2.63381 15.1235 2.57263C15.132 2.51145 15.1285 2.44917 15.113 2.38937C15.0975 2.32957 15.0703 2.27341 15.0331 2.22411C14.9958 2.17482 14.9492 2.13335 14.8959 2.10208Z" stroke="white" stroke-width="0.4" mask="url(#path-1-outside-1_493:4)"/>
</svg>
