<svg width="15" height="21" viewBox="0 0 15 21" fill="none" xmlns="http://www.w3.org/2000/svg">
<g clip-path="url(#clip0_139_85)">
<path d="M12.006 -6.70319e-07H2.119C1.58348 -0.0247593 1.05994 0.16353 0.662854 0.523698C0.26577 0.883866 0.0274487 1.38661 0 1.922L0 18.578C0.0274487 19.1134 0.26577 19.6161 0.662854 19.9763C1.05994 20.3365 1.58348 20.5248 2.119 20.5H12.006C12.5415 20.5248 13.0651 20.3365 13.4621 19.9763C13.8592 19.6161 14.0976 19.1134 14.125 18.578V1.922C14.0976 1.38661 13.8592 0.883866 13.4621 0.523698C13.0651 0.16353 12.5415 -0.0247593 12.006 -6.70319e-07ZM7.063 19.219C6.88436 19.2363 6.70407 19.2161 6.53372 19.1596C6.36337 19.1031 6.20671 19.0116 6.07382 18.8909C5.94093 18.7703 5.83474 18.6232 5.76208 18.4591C5.68941 18.295 5.65187 18.1175 5.65187 17.938C5.65187 17.7585 5.68941 17.581 5.76208 17.4169C5.83474 17.2528 5.94093 17.1057 6.07382 16.9851C6.20671 16.8644 6.36337 16.7729 6.53372 16.7164C6.70407 16.6599 6.88436 16.6397 7.063 16.657C7.24127 16.6405 7.42102 16.6613 7.59078 16.7182C7.76053 16.7751 7.91655 16.8668 8.04886 16.9874C8.18117 17.108 8.28687 17.2549 8.35919 17.4186C8.4315 17.5824 8.46886 17.7595 8.46886 17.9385C8.46886 18.1175 8.4315 18.2946 8.35919 18.4584C8.28687 18.6221 8.18117 18.769 8.04886 18.8896C7.91655 19.0102 7.76053 19.1019 7.59078 19.1588C7.42102 19.2157 7.24127 19.2365 7.063 19.22V19.219ZM12.007 14.895C11.9998 15.0287 11.94 15.1542 11.8408 15.244C11.7415 15.3339 11.6108 15.381 11.477 15.375H2.648C2.51423 15.381 2.3835 15.3339 2.28425 15.244C2.18499 15.1542 2.12525 15.0287 2.118 14.895V2.4C2.12525 2.26629 2.18499 2.14085 2.28425 2.05096C2.3835 1.96107 2.51423 1.914 2.648 1.92H11.476C11.6098 1.914 11.7405 1.96107 11.8398 2.05096C11.939 2.14085 11.9988 2.26629 12.006 2.4L12.007 14.895Z" fill="#333333"/>
</g>
<defs>
<clipPath id="clip0_139_85">
<rect width="14.125" height="20.5" fill="white"/>
</clipPath>
</defs>
</svg>
