<svg width="19" height="16" viewBox="0 0 19 16" fill="none" xmlns="http://www.w3.org/2000/svg">
<path d="M2.64499 16H1.35741L2.26788 15.0895C2.7588 14.5986 3.06536 13.9601 3.14778 13.2674C1.86675 12.4268 0.93 11.3207 0.42856 10.0523C-0.072525 8.78489 -0.135494 7.38965 0.246479 6.01742C0.704791 4.37088 1.77974 2.87012 3.27325 1.79154C4.89622 0.61952 6.91663 0 9.1161 0C11.8868 0 14.2223 0.796053 15.8698 2.30204C17.354 3.65881 18.1715 5.48889 18.1715 7.45522C18.1715 8.41053 17.9769 9.34005 17.5933 10.218C17.1963 11.1265 16.615 11.9354 15.8656 12.6222C14.2158 14.1342 11.8819 14.9333 9.11606 14.9333C8.08932 14.9333 7.01793 14.7963 6.06138 14.5447C5.15595 15.4736 3.92904 16 2.64499 16ZM9.1161 1.06667C4.70582 1.06667 1.99965 3.69682 1.27407 6.30347C0.588417 8.76676 1.59916 11.0943 3.97782 12.5298L4.2436 12.6902L4.23542 13.0005C4.21921 13.6146 4.07279 14.2062 3.81071 14.741C4.4489 14.525 5.02799 14.1336 5.48147 13.5978L5.70696 13.3314L6.04136 13.4314C6.97978 13.7121 8.07172 13.8667 9.1161 13.8667C14.6049 13.8667 17.1048 10.5432 17.1048 7.45522C17.1048 5.79207 16.4106 4.24156 15.1501 3.08935C13.7025 1.76612 11.616 1.06667 9.1161 1.06667Z" fill="#C1C1C1"/>
</svg>
