<svg width="30" height="31" viewBox="0 0 30 31" fill="none" xmlns="http://www.w3.org/2000/svg">
<g clip-path="url(#clip0_339_1306)">
<path d="M10.2464 6.01466V20.7577C9.30779 19.9036 8.06121 19.3825 6.69546 19.3825C3.78303 19.3825 1.41357 21.7519 1.41357 24.6644C1.41357 27.5768 3.78303 29.9463 6.69546 29.9463C9.60428 29.9463 11.971 27.5827 11.9771 24.6754H11.9773V14.1405L27.1458 9.58225V17.2043C26.2072 16.3504 24.9606 15.8291 23.5948 15.8291C20.6824 15.8291 18.3129 18.1985 18.3129 21.111C18.3129 24.0234 20.6824 26.3929 23.5948 26.3929C26.4973 26.3929 28.8603 24.0394 28.8763 21.1405H28.8767V0.416008L10.2464 6.01466Z" fill="#C1C1C1"/>
</g>
<defs>
<clipPath id="clip0_339_1306">
<rect width="29.5302" height="29.5302" fill="white" transform="translate(0.375488 0.473999)"/>
</clipPath>
</defs>
</svg>
