<svg width="24" height="24" viewBox="0 0 24 24" fill="none" xmlns="http://www.w3.org/2000/svg">
<path d="M23.0883 5.54494L12.4898 0.174763L12.4854 0.17256C12.0135 -0.0623916 11.4527 -0.0571412 10.9852 0.186623L6.4395 2.59914C6.40256 2.6148 6.36708 2.63378 6.33309 2.65563L0.885802 5.54667C0.339395 5.83277 0 6.39333 0 7.01029V16.9897C0 17.6066 0.339395 18.1671 0.885802 18.4532L10.9807 23.811L10.9852 23.8134C11.2237 23.9377 11.4864 24 11.7492 24C12.0016 24 12.2542 23.9425 12.4854 23.8274L23.0883 18.455C23.6516 18.1733 24.0014 17.6074 24.0014 16.9775V7.02252C24.0014 6.39253 23.6516 5.82658 23.0883 5.54494ZM11.6368 1.43231C11.7057 1.39696 11.7879 1.39626 11.8574 1.43034L21.778 6.45704L17.917 8.37926L8.21804 3.24676L11.6368 1.43231ZM11.0361 22.2489L1.54275 17.2103L1.5382 17.2079C1.45659 17.1653 1.40582 17.0817 1.40582 16.9897V7.64464L11.0361 12.6664V22.2489ZM11.7465 11.4513L2.16913 6.45718L6.71739 4.0433L16.3684 9.1503L11.7465 11.4513ZM22.5955 16.9774C22.5955 17.0715 22.5432 17.1559 22.459 17.1979L12.442 22.2734V12.6754L17.0541 10.3793V12.7867C17.0541 13.1749 17.3689 13.4896 17.7571 13.4896C18.1453 13.4896 18.46 13.1749 18.46 12.7867V9.67932L22.5955 7.62045V16.9774Z" fill="#333333"/>
</svg>
