<svg width="18" height="21" viewBox="0 0 18 21" fill="none" xmlns="http://www.w3.org/2000/svg">
<path d="M14.766 8.361H14.116V5.012C14.0033 3.64604 13.381 2.37241 12.3728 1.44396C11.3646 0.515507 10.0441 0.00012207 8.6735 0.00012207C7.3029 0.00012207 5.98241 0.515507 4.97419 1.44396C3.96596 2.37241 3.34372 3.64604 3.231 5.012V8.361H2.581C1.92359 8.33607 1.28304 8.57243 0.799393 9.01841C0.315745 9.46439 0.0283382 10.0837 0 10.741V18.002C0.0283382 18.6593 0.315745 19.2786 0.799393 19.7246C1.28304 20.1706 1.92359 20.4069 2.581 20.382H14.766C15.4234 20.4069 16.064 20.1706 16.5476 19.7246C17.0313 19.2786 17.3187 18.6593 17.347 18.002V10.741C17.3179 10.084 17.0302 9.46514 16.5468 9.01932C16.0633 8.5735 15.4232 8.33686 14.766 8.361ZM4.779 5.012C4.8575 4.03299 5.30184 3.11947 6.02354 2.45332C6.74524 1.78718 7.69136 1.41728 8.6735 1.41728C9.65564 1.41728 10.6018 1.78718 11.3235 2.45332C12.0452 3.11947 12.4895 4.03299 12.568 5.012V8.361H4.779V5.012ZM15.8 17.994C15.7878 18.2568 15.6725 18.5042 15.4792 18.6826C15.2858 18.861 15.0299 18.956 14.767 18.947H2.581C2.31808 18.956 2.06221 18.861 1.86885 18.6826C1.67549 18.5042 1.56021 18.2568 1.548 17.994V10.741C1.56021 10.4782 1.67549 10.2308 1.86885 10.0524C2.06221 9.87403 2.31808 9.77903 2.581 9.788H14.766C15.0289 9.77903 15.2848 9.87403 15.4782 10.0524C15.6715 10.2308 15.7868 10.4782 15.799 10.741L15.8 17.994Z" fill="#E94057"/>
<path d="M8.674 12.776C8.57628 12.7723 8.47878 12.7878 8.38707 12.8218C8.29537 12.8557 8.21126 12.9074 8.13956 12.9739C8.06786 13.0404 8.00997 13.1204 7.96921 13.2093C7.92845 13.2982 7.9056 13.3943 7.90199 13.492V15.335C7.91905 15.5285 8.00798 15.7086 8.15125 15.8398C8.29452 15.971 8.48173 16.0438 8.676 16.0438C8.87026 16.0438 9.05748 15.971 9.20075 15.8398C9.34402 15.7086 9.43294 15.5285 9.45 15.335V13.492C9.4409 13.2945 9.35433 13.1087 9.20906 12.9746C9.06379 12.8406 8.87154 12.7692 8.674 12.776Z" fill="#E94057"/>
</svg>
