<svg width="22" height="23" viewBox="0 0 22 23" fill="none" xmlns="http://www.w3.org/2000/svg">
<path d="M20.0124 6.51714C19.1339 7.85527 18.3627 9.44554 18.241 9.71896C18.2062 9.79781 18.1513 9.9838 18.0898 10.2113C17.6615 9.60165 17.139 9.09773 16.5146 8.72788C15.6236 8.2004 14.5994 7.98302 13.4937 8.03529C13.7606 7.60829 14.0035 7.16859 14.1203 6.82641C14.4203 5.94893 15.5075 2.32567 16.1435 0.778739C16.779 -0.76819 19.2 0.332717 20.6068 1.1385C22.0137 1.94428 22.0926 2.93721 21.9495 3.21071C21.8067 3.48413 20.8908 5.179 20.0124 6.51714Z" fill="white"/>
<path d="M14.6189 11.5028C12.7478 10.7258 12.3477 11.6683 12.3477 11.6683C11.7548 11.1143 12.169 10.4594 12.169 10.4594C12.169 10.4594 12.0192 10.1788 12.2617 9.89086C12.41 9.71531 12.888 9.07801 13.3062 8.40856C14.412 8.3563 15.4361 8.57367 16.3272 9.10115C16.9516 9.47101 17.4741 9.97459 17.9023 10.5846C17.75 11.1469 17.5545 11.9706 17.5037 12.114C17.4321 12.3154 17.2468 12.5888 17.075 12.6247C16.9037 12.6605 16.8036 12.8261 16.8036 12.8261C16.5823 13.2792 15.8896 13.3079 15.8896 13.3079C15.8896 13.3079 16.4903 12.2798 14.6189 11.5028Z" fill="white"/>
<path d="M0.656671 15.4988C1.22995 15.0471 1.99711 14.8301 2.60857 14.4304C4.18933 13.3971 2.14171 12.4452 1.46392 11.8296C0.312936 10.7843 0.0107195 9.57996 0.487258 8.11745C0.636287 7.65982 0.959297 7.17719 0.8102 7.6344C-0.00448334 10.1358 2.5845 11.3312 3.89938 12.7299C4.38362 13.245 4.31688 13.8035 3.81376 14.3175C2.84036 15.312 -0.0878611 16.1513 1.72721 17.6972C2.99941 18.7805 4.97395 18.8776 6.38413 19.7925C6.57475 19.9162 6.59697 20.2486 6.40527 20.3839C5.0203 21.3596 3.1029 21.1247 1.73832 22.0108C4.09218 22.7243 6.56138 22.2588 8.98198 22.0354C8.97237 21.9663 8.98089 21.9077 8.98089 21.9077C9.28863 20.008 9.31979 19.596 9.17703 18.6461C9.03427 17.6965 9.17703 17.6098 9.17703 17.6098C10.6339 15.5951 12.4038 11.7904 12.4038 11.7904C12.6396 11.3948 13.5752 11.227 14.7321 11.747C15.932 12.2868 15.8463 13.0276 15.8463 13.0276L13.8106 19.0734C13.739 19.2677 13.4105 19.3611 13.4105 19.3611C11.5035 19.9151 9.94903 21.8565 9.74178 22.1587C9.53453 22.4609 9.38469 22.3459 9.38469 22.3459L11.6087 17.3277C11.7786 17.2885 11.9517 17.1398 12.0537 16.9194C12.2013 16.6 12.1427 16.2578 11.9228 16.1547C11.703 16.0516 11.4052 16.2268 11.2576 16.5462C11.1463 16.7868 11.1527 17.04 11.2561 17.1947L9.13578 22.0212C9.15133 22.0197 9.16694 22.0182 9.18248 22.0167C9.65561 21.9757 9.1591 22.5842 7.82977 22.7523C4.86705 23.127 3.70829 23.1038 0.853082 22.4945C0.560137 22.4322 0.554954 22.0553 0.74741 21.8576C2.01184 20.5576 3.86325 20.8348 5.37911 20.1246C3.45066 19.3066 -1.84001 17.466 0.656671 15.4988Z" fill="white"/>
</svg>
