<svg width="24" height="24" viewBox="0 0 24 24" fill="none" xmlns="http://www.w3.org/2000/svg">
<path d="M3.31914 19.8669C3.27962 20.0925 3.35256 20.3233 3.51456 20.4853C3.64754 20.6183 3.82689 20.6912 4.01167 20.6912C4.05198 20.6912 4.09258 20.6878 4.13298 20.6807L9.45419 19.7488L4.2505 14.545L3.31914 19.8669Z" fill="white"/>
<path d="M14.6398 4.67227C14.3653 4.39768 13.9201 4.39768 13.6455 4.67227L5.00586 13.3119L7.34961 15.6556L16.4864 6.51881L14.6398 4.67227Z" fill="white"/>
<path d="M19.3265 9.35911L17.4806 7.51317L8.34375 16.65L10.6869 18.9931L19.3265 10.3535C19.6011 10.0789 19.6011 9.6337 19.3265 9.35911Z" fill="white"/>
<path d="M20.4853 3.51469C18.2188 1.24823 15.2053 0 12 0C8.79469 0 5.78119 1.24823 3.51469 3.51469C1.24823 5.78119 0 8.79469 0 12C0 14.4493 0.729609 16.7861 2.08477 18.7637L2.46033 16.6177C1.77089 15.1963 1.40625 13.6263 1.40625 12C1.40625 6.15858 6.15858 1.40625 12 1.40625C17.8414 1.40625 22.5938 6.15858 22.5938 12C22.5938 17.8414 17.8414 22.5938 12 22.5938C11.6117 22.5938 11.2969 22.9086 11.2969 23.2969C11.2969 23.6852 11.6117 24 12 24C15.2053 24 18.2188 22.7518 20.4853 20.4853C22.7518 18.2188 24 15.2053 24 12C24 8.79469 22.7518 5.78119 20.4853 3.51469Z" fill="white"/>
</svg>
