<svg width="18" height="18" viewBox="0 0 18 18" fill="none" xmlns="http://www.w3.org/2000/svg">
<path d="M10.8622 4.02589C11.6945 4.54772 12.2781 5.43076 12.3844 6.45577C12.7238 6.61436 13.1005 6.70556 13.4999 6.70556C14.958 6.70556 16.1398 5.52376 16.1398 4.06587C16.1398 2.60777 14.958 1.42596 13.4999 1.42596C12.0557 1.42641 10.8842 2.5871 10.8622 4.02589ZM9.13276 9.43106C10.5909 9.43106 11.7727 8.24903 11.7727 6.79115C11.7727 5.33327 10.5906 4.15146 9.13276 4.15146C7.67488 4.15146 6.4924 5.33349 6.4924 6.79137C6.4924 8.24925 7.67488 9.43106 9.13276 9.43106ZM10.2526 9.61099H8.0125C6.14871 9.61099 4.63242 11.1275 4.63242 12.9913V15.7307L4.63939 15.7736L4.82808 15.8327C6.60674 16.3885 8.152 16.5738 9.42389 16.5738C11.9081 16.5738 13.348 15.8655 13.4368 15.8203L13.6131 15.7312H13.632V12.9913C13.6326 11.1275 12.1164 9.61099 10.2526 9.61099ZM14.6201 6.88572H12.3974C12.3733 7.77505 11.9937 8.57587 11.3933 9.15183C13.0499 9.64446 14.2621 11.1807 14.2621 12.9953V13.8395C16.4568 13.7591 17.7215 13.1371 17.8048 13.0953L17.9811 13.0059H18V10.2656C18 8.402 16.4837 6.88572 14.6201 6.88572ZM4.50056 6.70601C5.017 6.70601 5.49749 6.55528 5.90453 6.29852C6.03392 5.45457 6.48634 4.71709 7.13261 4.21481C7.13531 4.16539 7.14002 4.11642 7.14002 4.06655C7.14002 2.60844 5.95799 1.42664 4.50056 1.42664C3.04223 1.42664 1.86065 2.60844 1.86065 4.06655C1.86065 5.52398 3.04223 6.70601 4.50056 6.70601ZM6.87136 9.15183C6.27383 8.57879 5.89555 7.78224 5.86791 6.8983C5.78547 6.89223 5.70393 6.88572 5.61992 6.88572H3.38008C1.51629 6.88572 0 8.402 0 10.2656V13.0054L0.00696368 13.0477L0.195657 13.1072C1.62254 13.5527 2.89599 13.758 4.0021 13.8227V12.9953C4.00255 11.1807 5.21423 9.64491 6.87136 9.15183Z" fill="#333333"/>
</svg>
