<svg width="15" height="22" viewBox="0 0 15 22" fill="none" xmlns="http://www.w3.org/2000/svg">
<path d="M12.006 1.00003H2.119C1.58348 0.975271 1.05994 1.16356 0.662854 1.52373C0.26577 1.8839 0.0274487 2.38664 0 2.92203V19.578C0.0274487 20.1134 0.26577 20.6162 0.662854 20.9763C1.05994 21.3365 1.58348 21.5248 2.119 21.5H12.006C12.5415 21.5248 13.0651 21.3365 13.4621 20.9763C13.8592 20.6162 14.0976 20.1134 14.125 19.578V2.92203C14.0976 2.38664 13.8592 1.8839 13.4621 1.52373C13.0651 1.16356 12.5415 0.975271 12.006 1.00003ZM7.063 20.219C6.88436 20.2363 6.70407 20.2161 6.53372 20.1596C6.36337 20.1031 6.20671 20.0116 6.07382 19.891C5.94093 19.7703 5.83474 19.6232 5.76208 19.4591C5.68941 19.295 5.65187 19.1175 5.65187 18.938C5.65187 18.7586 5.68941 18.5811 5.76208 18.4169C5.83474 18.2528 5.94093 18.1057 6.07382 17.9851C6.20671 17.8645 6.36337 17.773 6.53372 17.7165C6.70407 17.66 6.88436 17.6397 7.063 17.657C7.24127 17.6405 7.42102 17.6613 7.59078 17.7182C7.76053 17.7751 7.91655 17.8668 8.04886 17.9874C8.18117 18.108 8.28687 18.2549 8.35919 18.4187C8.4315 18.5824 8.46886 18.7595 8.46886 18.9385C8.46886 19.1176 8.4315 19.2946 8.35919 19.4584C8.28687 19.6222 8.18117 19.7691 8.04886 19.8897C7.91655 20.0103 7.76053 20.102 7.59078 20.1588C7.42102 20.2157 7.24127 20.2356 7.063 20.219ZM12.007 15.895C11.9998 16.0287 11.94 16.1542 11.8408 16.2441C11.7415 16.334 11.6108 16.381 11.477 16.375H2.648C2.51423 16.381 2.3835 16.334 2.28425 16.2441C2.18499 16.1542 2.12525 16.0287 2.118 15.895V3.40003C2.12525 3.26632 2.18499 3.14088 2.28425 3.05099C2.3835 2.9611 2.51423 2.91403 2.648 2.92003H11.476C11.6098 2.91403 11.7405 2.9611 11.8398 3.05099C11.939 3.14088 11.9988 3.26632 12.006 3.40003L12.007 15.895Z" fill="#E94057"/>
</svg>
