<svg width="9" height="13" viewBox="0 0 9 13" fill="none" xmlns="http://www.w3.org/2000/svg">
<path d="M8.50465 5.60296V3.97071C8.50465 1.78125 6.70818 0 4.5 0C2.29182 0 0.495351 1.78125 0.495351 3.97071V5.58756C0.246346 5.68175 0 5.89425 0 6.3152V8.5381C0 10.9984 2.01872 13 4.50003 13C6.98135 13 9 10.9984 9 8.5381V6.3152C9 5.91578 8.7597 5.70404 8.50465 5.60296ZM5.35531 10.3794C5.36939 10.4534 5.31878 10.5139 5.24284 10.5139H3.77411C3.69817 10.5139 3.64756 10.4534 3.66164 10.3794L3.89687 9.1432C3.71733 8.98086 3.60465 8.74704 3.60465 8.48713C3.60465 7.99684 4.00551 7.59937 4.5 7.59937C4.99449 7.59937 5.39535 7.99684 5.39535 8.48713C5.39535 8.73999 5.28858 8.96795 5.11749 9.12965L5.35531 10.3794ZM7.12378 5.52372H1.87622V3.97071C1.87622 2.53624 3.05323 1.36916 4.5 1.36916C5.94673 1.36916 7.12378 2.53624 7.12378 3.97071V5.52372Z" fill="#E20000"/>
</svg>
