<svg width="16" height="14" viewBox="0 0 16 14" fill="none" xmlns="http://www.w3.org/2000/svg">
<path d="M2.03125 11.4286C2.03125 11.5296 2.07139 11.6265 2.14283 11.6979C2.21427 11.7694 2.31117 11.8095 2.4122 11.8095H3.26935C3.3543 11.8095 3.43682 11.7811 3.50379 11.7288C3.57076 11.6766 3.61832 11.6034 3.63893 11.521L4.23344 9.14285H2.03125V11.4286Z" fill="#E20000"/>
<path d="M4.57227 8.79632C5.82769 8.98746 8.59154 9.97318 10.4135 11.6455V1.56086C8.59154 3.23318 5.82769 4.21889 4.57227 4.41003V8.79632Z" fill="#E20000"/>
<path d="M11.8088 0C11.5395 0.00030249 11.2813 0.107429 11.0908 0.297876C10.9004 0.488324 10.7933 0.74654 10.793 1.01587V12.1905C10.793 12.4599 10.9 12.7183 11.0905 12.9088C11.281 13.0993 11.5394 13.2063 11.8088 13.2063C12.0783 13.2063 12.3367 13.0993 12.5272 12.9088C12.7177 12.7183 12.8247 12.4599 12.8247 12.1905V1.01587C12.8244 0.74654 12.7173 0.488324 12.5268 0.297876C12.3364 0.107429 12.0782 0.00030249 11.8088 0Z" fill="#E20000"/>
<path d="M2.03125 4.44444H4.18998V8.7619H2.03125V4.44444Z" fill="#E20000"/>
<path d="M0 5.5873V7.61905C0.000336108 7.92205 0.120852 8.21254 0.335106 8.4268C0.549361 8.64105 0.839856 8.76157 1.14286 8.7619H1.65079V4.44444H1.14286C0.839856 4.44478 0.549361 4.56529 0.335106 4.77955C0.120852 4.9938 0.000336108 5.2843 0 5.5873Z" fill="#E20000"/>
<path d="M15.6195 6.22221H14.3497C14.2487 6.22221 14.1518 6.26235 14.0803 6.33379C14.0089 6.40523 13.9688 6.50213 13.9688 6.60317C13.9688 6.7042 14.0089 6.8011 14.0803 6.87254C14.1518 6.94398 14.2487 6.98412 14.3497 6.98412H15.6195C15.7206 6.98412 15.8175 6.94398 15.8889 6.87254C15.9604 6.8011 16.0005 6.7042 16.0005 6.60317C16.0005 6.50213 15.9604 6.40523 15.8889 6.33379C15.8175 6.26235 15.7206 6.22221 15.6195 6.22221Z" fill="#E20000"/>
<path d="M13.7231 4.23288C13.7801 4.23288 13.8365 4.21999 13.8878 4.19517L15.0324 3.64492C15.1234 3.60113 15.1934 3.52297 15.2268 3.42763C15.2602 3.33228 15.2544 3.22756 15.2106 3.1365C15.1669 3.04545 15.0887 2.97551 14.9934 2.94208C14.898 2.90865 14.7933 2.91447 14.7022 2.95825L13.5578 3.50853C13.48 3.54593 13.4171 3.60867 13.3796 3.68647C13.3421 3.76427 13.3321 3.85251 13.3514 3.93672C13.3706 4.02093 13.4178 4.0961 13.4854 4.14991C13.553 4.20372 13.6368 4.23298 13.7232 4.23288H13.7231Z" fill="#E20000"/>
<path d="M15.0319 9.56142L13.8875 9.01117C13.7965 8.96819 13.6923 8.96293 13.5975 8.99653C13.5026 9.03013 13.425 9.09986 13.3814 9.19052C13.3378 9.28117 13.3318 9.38538 13.3648 9.48042C13.3977 9.57545 13.4669 9.6536 13.5573 9.6978L14.7017 10.2481C14.7928 10.2919 14.8975 10.2977 14.9928 10.2643C15.0882 10.2308 15.1663 10.1609 15.2101 10.0698C15.2539 9.97877 15.2597 9.87405 15.2263 9.77871C15.1929 9.68336 15.1229 9.6052 15.0319 9.56142Z" fill="#E20000"/>
</svg>
