<svg width="22" height="22" viewBox="0 0 22 22" fill="none" xmlns="http://www.w3.org/2000/svg">
<path fill-rule="evenodd" clip-rule="evenodd" d="M1.28906 3.35156C1.28906 3.70752 1.00048 3.99609 0.644531 3.99609C0.288492 3.99609 0 3.70752 0 3.35156V0.644531C0 0.288492 0.288492 0 0.644531 0H3.35139C3.70743 0 3.99592 0.288492 3.99592 0.644531C3.99592 1.00048 3.70743 1.28906 3.35139 1.28906H1.28906V3.35156ZM10.1836 17.1875C9.82755 17.1875 9.53906 16.8989 9.53906 16.543C9.53906 16.1869 9.82755 15.8984 10.1836 15.8984H10.7422C11.0981 15.8984 11.3867 16.1869 11.3867 16.543C11.3867 16.8989 11.0981 17.1875 10.7422 17.1875H10.1836ZM10.6562 8.59375C10.6562 8.9497 10.3677 9.23828 10.0117 9.23828C9.65568 9.23828 9.36719 8.9497 9.36719 8.59375V8.03516C9.36719 7.67912 9.65568 7.39062 10.0117 7.39062C10.3677 7.39062 10.6562 7.67912 10.6562 8.03516V8.59375ZM14.6094 15.8125C14.2533 15.8125 13.9648 15.5239 13.9648 15.168C13.9648 14.8119 14.2533 14.5234 14.6094 14.5234H15.168C15.5239 14.5234 15.8125 14.8119 15.8125 15.168C15.8125 15.5239 15.5239 15.8125 15.168 15.8125H14.6094ZM1.31055 11.6445H4.30977C4.30117 11.6862 4.29688 11.7293 4.29688 11.7734V13.707C4.29688 14.063 4.58537 14.3516 4.94141 14.3516C5.29736 14.3516 5.58594 14.063 5.58594 13.707V11.7734C5.58594 11.7293 5.58164 11.6862 5.57305 11.6445H11.2578V12.375H7.86328C7.50724 12.375 7.21875 12.6635 7.21875 13.0195C7.21875 13.3755 7.50724 13.6641 7.86328 13.6641H11.9023C12.2583 13.6641 12.5469 13.3755 12.5469 13.0195V11.6445H14.9531V13.5352C14.9531 13.8911 15.2416 14.1797 15.5977 14.1797C15.9536 14.1797 16.2422 13.8911 16.2422 13.5352V11.6445H20.6895C21.0454 11.6445 21.334 11.356 21.334 11C21.334 10.644 21.0454 10.3555 20.6895 10.3555H17.7461V9.10938H18.3906C18.7466 9.10938 19.0352 8.8208 19.0352 8.46484C19.0352 8.1088 18.7466 7.82031 18.3906 7.82031H15.168C14.8119 7.82031 14.5234 8.1088 14.5234 8.46484C14.5234 8.8208 14.8119 9.10938 15.168 9.10938H16.457V10.3555H12.5469V8.67969C12.5469 8.32365 12.2583 8.03516 11.9023 8.03516C11.5463 8.03516 11.2578 8.32365 11.2578 8.67969V10.3555H1.31055C0.954508 10.3555 0.666016 10.644 0.666016 11C0.666016 11.356 0.954508 11.6445 1.31055 11.6445ZM12.4609 3.73828C12.4609 3.38224 12.7494 3.09375 13.1055 3.09375C13.4614 3.09375 13.75 3.38224 13.75 3.73828V7.13281C13.75 7.48877 13.4614 7.77734 13.1055 7.77734C12.7494 7.77734 12.4609 7.48877 12.4609 7.13281V3.73828ZM8.63672 3.99609H10.0977V3.73828C10.0977 3.38224 10.3861 3.09375 10.7422 3.09375C11.0981 3.09375 11.3867 3.38224 11.3867 3.73828V5.88672C11.3867 6.24267 11.0981 6.53125 10.7422 6.53125C10.3861 6.53125 10.0977 6.24267 10.0977 5.88672V5.28516H8.63672V5.58594C8.63672 5.94189 8.34814 6.23047 7.99219 6.23047C7.63615 6.23047 7.34766 5.94189 7.34766 5.58594V3.73828C7.34766 3.38224 7.63615 3.09375 7.99219 3.09375C8.34814 3.09375 8.63672 3.38224 8.63672 3.73828V3.99609ZM3.4803 9.06641C3.12443 9.06641 2.83577 8.77783 2.83577 8.42188C2.83577 8.06584 3.12443 7.77734 3.4803 7.77734H8.25C8.60595 7.77734 8.89453 8.06584 8.89453 8.42188C8.89453 8.77783 8.60595 9.06641 8.25 9.06641H3.4803ZM17.5312 17.6172V18.2617C17.5312 18.6177 17.8197 18.9062 18.1758 18.9062C18.5317 18.9062 18.8203 18.6177 18.8203 18.2617V14.3945C18.8203 14.0387 18.5317 13.75 18.1758 13.75C17.8197 13.75 17.5312 14.0387 17.5312 14.3945V16.3281H15.3828C15.0268 16.3281 14.7383 16.6169 14.7383 16.9727C14.7383 17.3286 15.0268 17.6172 15.3828 17.6172H17.5312ZM10.957 18.9062H12.8906C13.2466 18.9062 13.5352 18.6177 13.5352 18.2617V14.9531C13.5352 14.5971 13.2466 14.3086 12.8906 14.3086C12.5346 14.3086 12.2461 14.5971 12.2461 14.9531V17.6172H10.957C10.601 17.6172 10.3125 17.9057 10.3125 18.2617C10.3125 18.6177 10.601 18.9062 10.957 18.9062ZM7.39062 14.9961C7.39062 14.6401 7.67912 14.3516 8.03516 14.3516C8.39111 14.3516 8.67969 14.6401 8.67969 14.9961V16.8867C8.67969 17.2427 8.39111 17.5312 8.03516 17.5312C7.67912 17.5312 7.39062 17.2427 7.39062 16.8867V14.9961ZM3.48047 14.9102H6.1875C6.54345 14.9102 6.83203 15.1986 6.83203 15.5547V18.2617C6.83203 18.6177 6.54345 18.9062 6.1875 18.9062H3.48047C3.12443 18.9062 2.83594 18.6177 2.83594 18.2617V15.5547C2.83594 15.1986 3.12443 14.9102 3.48047 14.9102ZM5.54297 16.1992H4.125V17.6172H5.54297V16.1992ZM15.8125 3.09375H18.5195C18.8755 3.09375 19.1641 3.38224 19.1641 3.73828V6.44531C19.1641 6.80127 18.8755 7.08984 18.5195 7.08984H15.8125C15.4565 7.08984 15.168 6.80127 15.168 6.44531V3.73828C15.168 3.38224 15.4565 3.09375 15.8125 3.09375ZM17.875 4.38281H16.457V5.80078H17.875V4.38281ZM3.48047 3.09375C3.12443 3.09375 2.83594 3.38224 2.83594 3.73828V6.44531C2.83594 6.80127 3.12443 7.08984 3.48047 7.08984H6.1875C6.54345 7.08984 6.83203 6.80127 6.83203 6.44531V3.73828C6.83203 3.38224 6.54345 3.09375 6.1875 3.09375H3.48047ZM5.54297 4.38281V5.80078H4.125V4.38281H5.54297ZM20.7109 18.6484C20.7109 18.2924 20.9994 18.0039 21.3555 18.0039C21.7114 18.0039 22 18.2924 22 18.6484V21.3555C22 21.7114 21.7114 22 21.3555 22H18.6485C18.2927 22 18.004 21.7114 18.004 21.3555C18.004 20.9994 18.2927 20.7109 18.6485 20.7109H20.7109V18.6484ZM0 18.6484V21.3555C0 21.7114 0.288492 22 0.644531 22H3.35139C3.70743 22 3.99592 21.7114 3.99592 21.3555C3.99592 20.9994 3.70743 20.7109 3.35139 20.7109H1.28906V18.6484C1.28906 18.2924 1.00048 18.0039 0.644531 18.0039C0.288492 18.0039 0 18.2924 0 18.6484ZM22 3.35156V0.644531C22 0.288492 21.7114 0 21.3555 0H18.6485C18.2927 0 18.004 0.288492 18.004 0.644531C18.004 1.00048 18.2927 1.28906 18.6485 1.28906H20.7109V3.35156C20.7109 3.70752 20.9994 3.99609 21.3555 3.99609C21.7114 3.99609 22 3.70752 22 3.35156Z" fill="white"/>
</svg>
