<svg width="20" height="22" viewBox="0 0 20 22" fill="none" xmlns="http://www.w3.org/2000/svg">
<path fill-rule="evenodd" clip-rule="evenodd" d="M1.0667 7.14603C1.0667 7.41847 0.845828 7.63934 0.573389 7.63934C0.300884 7.63934 0.0800781 7.41847 0.0800781 7.14603V5.07412C0.0800781 4.80162 0.300884 4.58081 0.573389 4.58081H2.64516C2.91767 4.58081 3.13847 4.80162 3.13847 5.07412C3.13847 5.34656 2.91767 5.56743 2.64516 5.56743H1.0667V7.14603ZM7.87439 17.7358C7.60188 17.7358 7.38108 17.5149 7.38108 17.2425C7.38108 16.9699 7.60188 16.7491 7.87439 16.7491H8.30192C8.57436 16.7491 8.79524 16.9699 8.79524 17.2425C8.79524 17.5149 8.57436 17.7358 8.30192 17.7358H7.87439ZM8.23615 11.1583C8.23615 11.4307 8.01528 11.6516 7.74284 11.6516C7.47033 11.6516 7.24953 11.4307 7.24953 11.1583V10.7308C7.24953 10.4582 7.47033 10.2374 7.74284 10.2374C8.01528 10.2374 8.23615 10.4582 8.23615 10.7308V11.1583ZM11.2618 16.6834C10.9893 16.6834 10.7685 16.4625 10.7685 16.1901C10.7685 15.9176 10.9893 15.6967 11.2618 15.6967H11.6893C11.9618 15.6967 12.1826 15.9176 12.1826 16.1901C12.1826 16.4625 11.9618 16.6834 11.6893 16.6834H11.2618ZM1.08314 13.4933H3.37868C3.37211 13.5252 3.36882 13.5581 3.36882 13.592V15.0719C3.36882 15.3443 3.58962 15.5652 3.86213 15.5652C4.13457 15.5652 4.35544 15.3443 4.35544 15.0719V13.592C4.35544 13.5581 4.35215 13.5252 4.34557 13.4933H8.69657V14.0524H6.09847C5.82596 14.0524 5.60516 14.2732 5.60516 14.5457C5.60516 14.8181 5.82596 15.039 6.09847 15.039H9.18988C9.46232 15.039 9.6832 14.8181 9.6832 14.5457V13.4933H11.5249V14.9403C11.5249 15.2128 11.7457 15.4336 12.0182 15.4336C12.2906 15.4336 12.5115 15.2128 12.5115 14.9403V13.4933H15.9154C16.1878 13.4933 16.4087 13.2724 16.4087 13C16.4087 12.7275 16.1878 12.5067 15.9154 12.5067H13.6626V11.5529H14.1559C14.4283 11.5529 14.6492 11.3321 14.6492 11.0596C14.6492 10.7871 14.4283 10.5663 14.1559 10.5663H11.6893C11.4168 10.5663 11.196 10.7871 11.196 11.0596C11.196 11.3321 11.4168 11.5529 11.6893 11.5529H12.6759V12.5067H9.6832V11.2241C9.6832 10.9516 9.46232 10.7308 9.18988 10.7308C8.91738 10.7308 8.69657 10.9516 8.69657 11.2241V12.5067H1.08314C0.810639 12.5067 0.589833 12.7275 0.589833 13C0.589833 13.2724 0.810639 13.4933 1.08314 13.4933V13.4933ZM9.61742 7.44201C9.61742 7.16951 9.83823 6.9487 10.1107 6.9487C10.3832 6.9487 10.604 7.16951 10.604 7.44201V10.0401C10.604 10.3126 10.3832 10.5334 10.1107 10.5334C9.83823 10.5334 9.61742 10.3126 9.61742 10.0401V7.44201ZM6.69044 7.63934H7.80861V7.44201C7.80861 7.16951 8.02942 6.9487 8.30192 6.9487C8.57436 6.9487 8.79524 7.16951 8.79524 7.44201V9.08638C8.79524 9.35882 8.57436 9.57969 8.30192 9.57969C8.02942 9.57969 7.80861 9.35882 7.80861 9.08638V8.62596H6.69044V8.85617C6.69044 9.12861 6.46957 9.34948 6.19713 9.34948C5.92463 9.34948 5.70382 9.12861 5.70382 8.85617V7.44201C5.70382 7.16951 5.92463 6.9487 6.19713 6.9487C6.46957 6.9487 6.69044 7.16951 6.69044 7.44201V7.63934ZM2.74382 11.52C2.47145 11.52 2.25051 11.2992 2.25051 11.0267C2.25051 10.7542 2.47145 10.5334 2.74382 10.5334H6.39446C6.6669 10.5334 6.88777 10.7542 6.88777 11.0267C6.88777 11.2992 6.6669 11.52 6.39446 11.52H2.74382ZM13.4981 18.0646V18.5579C13.4981 18.8304 13.7189 19.0513 13.9914 19.0513C14.2639 19.0513 14.4848 18.8304 14.4848 18.5579V15.5981C14.4848 15.3258 14.2639 15.1048 13.9914 15.1048C13.7189 15.1048 13.4981 15.3258 13.4981 15.5981V17.078H11.8538C11.5813 17.078 11.3605 17.299 11.3605 17.5713C11.3605 17.8438 11.5813 18.0646 11.8538 18.0646H13.4981ZM8.46636 19.0513H9.94629C10.2187 19.0513 10.4396 18.8304 10.4396 18.5579V16.0256C10.4396 15.7531 10.2187 15.5323 9.94629 15.5323C9.67379 15.5323 9.45298 15.7531 9.45298 16.0256V18.0646H8.46636C8.19386 18.0646 7.97305 18.2854 7.97305 18.5579C7.97305 18.8304 8.19386 19.0513 8.46636 19.0513ZM5.73671 16.0585C5.73671 15.786 5.95751 15.5652 6.23002 15.5652C6.50246 15.5652 6.72333 15.786 6.72333 16.0585V17.5056C6.72333 17.778 6.50246 17.9989 6.23002 17.9989C5.95751 17.9989 5.73671 17.778 5.73671 17.5056V16.0585ZM2.74396 15.9927H4.81586C5.0883 15.9927 5.30917 16.2135 5.30917 16.486V18.5579C5.30917 18.8304 5.0883 19.0513 4.81586 19.0513H2.74396C2.47145 19.0513 2.25065 18.8304 2.25065 18.5579V16.486C2.25065 16.2135 2.47145 15.9927 2.74396 15.9927ZM4.32255 16.9794H3.23727V18.0646H4.32255V16.9794ZM12.1826 6.9487H14.2545C14.527 6.9487 14.7479 7.16951 14.7479 7.44201V9.51392C14.7479 9.78636 14.527 10.0072 14.2545 10.0072H12.1826C11.9101 10.0072 11.6893 9.78636 11.6893 9.51392V7.44201C11.6893 7.16951 11.9101 6.9487 12.1826 6.9487ZM13.7612 7.93532H12.6759V9.02061H13.7612V7.93532ZM2.74396 6.9487C2.47145 6.9487 2.25065 7.16951 2.25065 7.44201V9.51392C2.25065 9.78636 2.47145 10.0072 2.74396 10.0072H4.81586C5.0883 10.0072 5.30917 9.78636 5.30917 9.51392V7.44201C5.30917 7.16951 5.0883 6.9487 4.81586 6.9487H2.74396ZM4.32255 7.93532V9.02061H3.23727V7.93532H4.32255ZM15.9318 18.8539C15.9318 18.5814 16.1526 18.3606 16.4251 18.3606C16.6975 18.3606 16.9184 18.5814 16.9184 18.8539V20.9258C16.9184 21.1983 16.6975 21.4192 16.4251 21.4192H14.3533C14.0809 21.4192 13.86 21.1983 13.86 20.9258C13.86 20.6533 14.0809 20.4325 14.3533 20.4325H15.9318V18.8539ZM0.0800781 18.8539V20.9258C0.0800781 21.1983 0.300884 21.4192 0.573389 21.4192H2.64516C2.91767 21.4192 3.13847 21.1983 3.13847 20.9258C3.13847 20.6533 2.91767 20.4325 2.64516 20.4325H1.0667V18.8539C1.0667 18.5814 0.845828 18.3606 0.573389 18.3606C0.300884 18.3606 0.0800781 18.5814 0.0800781 18.8539ZM16.9184 7.14603V5.07412C16.9184 4.80162 16.6975 4.58081 16.4251 4.58081H14.3533C14.0809 4.58081 13.86 4.80162 13.86 5.07412C13.86 5.34656 14.0809 5.56743 14.3533 5.56743H15.9318V7.14603C15.9318 7.41847 16.1526 7.63934 16.4251 7.63934C16.6975 7.63934 16.9184 7.41847 16.9184 7.14603Z" fill="#C1C1C1"/>
<path d="M19.4942 5.99392V4.44793C19.4942 2.37418 17.8125 0.687073 15.7455 0.687073C13.6785 0.687073 11.9969 2.37418 11.9969 4.44793V5.97933C11.7638 6.06855 11.5332 6.26981 11.5332 6.66851V8.77394C11.5332 11.1042 13.4229 13 15.7456 13C18.0682 13 19.9579 11.1042 19.9579 8.77394V6.66851C19.9579 6.2902 19.7329 6.08965 19.4942 5.99392ZM16.5462 10.5179C16.5593 10.588 16.512 10.6453 16.4409 10.6453H15.066C14.995 10.6453 14.9476 10.588 14.9608 10.5179L15.181 9.34706C15.0129 9.19329 14.9074 8.97183 14.9074 8.72566C14.9074 8.26128 15.2827 7.88482 15.7455 7.88482C16.2084 7.88482 16.5836 8.26128 16.5836 8.72566C16.5836 8.96515 16.4837 9.18107 16.3235 9.33422L16.5462 10.5179ZM18.2016 5.91886H13.2895V4.44793C13.2895 3.08927 14.3912 1.98388 15.7455 1.98388C17.0998 1.98388 18.2016 3.08927 18.2016 4.44793V5.91886Z" fill="#C1C1C1"/>
</svg>
