<svg width="46" height="46" viewBox="0 0 46 46" fill="none" xmlns="http://www.w3.org/2000/svg">
<path d="M20.2399 13.4707C20.1786 13.9112 19.9658 14.3166 19.6382 14.6172C19.3106 14.9179 18.8885 15.0952 18.4444 15.1187C17.4284 15.2057 16.7303 14.6759 16.3311 13.5143V13.4461L16.3802 13.4613H16.4048C16.664 13.6978 16.7832 14.0289 17.0216 14.2938C17.5268 14.85 18.1417 14.9427 18.8342 14.7686C19.5266 14.5946 19.8899 14.0837 19.9693 13.4159C20.0104 13.1009 19.9625 12.7807 19.8311 12.4915C19.6997 12.2023 19.49 11.9556 19.2258 11.7793C18.9742 11.5901 18.6374 11.5428 18.4217 11.2931C18.4158 11.2776 18.4107 11.2618 18.4066 11.2458C18.4057 11.2357 18.4057 11.2256 18.4066 11.2155H18.4406C19.801 11.645 20.414 12.415 20.2399 13.4707Z" fill="#FEC86A"/>
<path d="M13.0516 40.4202H13.0365L12.9929 40.4334C12.9206 40.4589 12.8445 40.4717 12.7678 40.4713H12.7564L12.711 40.4599C12.3326 40.3521 12.0659 40.0607 11.7386 39.8639C10.7093 39.2377 10.0206 39.4855 9.58736 40.6207C9.55605 40.7724 9.4698 40.9072 9.34519 40.9991C9.29789 40.2934 9.50979 39.7447 10.189 39.3985C10.8966 39.039 11.4453 39.3985 11.9959 39.7353C12.2721 39.9292 12.5339 40.1429 12.7791 40.3748H12.9683L13.0516 40.4202Z" fill="#FEC86A"/>
<path d="M22.0104 29.0474C21.8171 29.5505 21.4845 29.9881 21.0516 30.309C20.6188 30.63 20.1034 30.8211 19.5659 30.86C19.074 30.9167 18.6748 30.7597 18.6086 30.2035C18.5537 29.7229 18.7808 29.4788 19.2803 29.3672C20.7806 29.0304 21.2025 27.9085 20.3776 26.55L20.3057 26.4422C20.3332 26.444 20.3604 26.4484 20.3871 26.4554C20.4028 26.4538 20.4186 26.4538 20.4344 26.4554C21.335 27.4809 21.0474 28.9472 19.8384 29.494C19.6946 29.5602 19.5414 29.5942 19.3938 29.6472C19.1365 29.7418 18.9265 29.8856 19.0002 30.1959C19.0835 30.544 19.3616 30.6027 19.6662 30.5629C20.1237 30.5155 20.5591 30.3422 20.9242 30.0623C21.2892 29.7825 21.5696 29.4069 21.7342 28.9774C21.9514 28.5038 22.057 27.9866 22.0429 27.4658C22.0288 26.9449 21.8953 26.4342 21.6528 25.973C21.5185 25.7157 21.335 25.4754 21.3236 25.1689C21.3236 25.1481 21.3236 25.1273 21.3236 25.1064C21.3417 24.9905 21.3826 24.8793 21.444 24.7793C21.5054 24.6792 21.586 24.5924 21.6812 24.5237L21.7701 24.448C21.8325 24.397 21.8931 24.344 21.9593 24.291C21.9082 24.4121 21.859 24.5351 21.8136 24.658L21.3974 25.0762C22.2999 26.2814 22.6158 27.6058 22.0104 29.0474Z" fill="#FEC86A"/>
<path d="M31.9395 14.9919L31.7598 14.8368C31.8016 14.827 31.8439 14.8195 31.8865 14.8141H31.949C32.1968 14.7857 32.4484 14.7989 32.7058 14.7895C33.9961 14.7327 34.5523 14.0781 34.4085 12.7783C34.3824 12.6244 34.3666 12.4689 34.3612 12.3128C34.3603 12.2965 34.3603 12.28 34.3612 12.2637C34.3643 12.2227 34.3713 12.1822 34.3821 12.1426C34.4313 12.155 34.4794 12.1714 34.5258 12.1918C35.1332 14.2351 34.1853 15.2643 31.9395 14.9919Z" fill="#FEC86A"/>
<path d="M32.8915 20.3784H32.8688C32.8335 20.3812 32.7981 20.3812 32.7629 20.3784C32.566 20.2804 32.3885 20.1477 32.2388 19.9867C30.3979 18.3331 28.048 18.9499 27.2345 21.2998C27.1947 21.419 27.1626 21.5401 27.1247 21.6611C27.1134 21.7236 27.102 21.786 27.0926 21.8503C26.8864 23.099 27.0434 24.3591 27.015 25.6135C27.012 25.8082 26.9898 26.0021 26.9488 26.1924C26.9488 26.1924 26.9488 26.1924 26.9488 26.2076V26.1906C26.9337 24.677 26.9191 23.1634 26.9053 21.6498C27.1853 20.1362 28.0745 19.1902 29.5711 18.878C30.9768 18.5942 32.0628 19.177 32.8783 20.3159C32.8844 20.3364 32.8888 20.3572 32.8915 20.3784Z" fill="#FEC86A"/>
<path d="M16.7721 11.2287C16.7342 11.2571 16.6964 11.2836 16.6567 11.3082C16.6067 11.3402 16.5549 11.3692 16.5015 11.3952C16.4444 11.4187 16.3856 11.4377 16.3256 11.452L16.2329 11.4728H16.1875C14.8347 11.5466 13.4781 11.4558 12.1273 11.522C11.2721 11.5617 11.1548 11.8285 11.6278 12.5115C11.6996 12.5533 11.7749 12.5888 11.8529 12.6175C12.4394 12.8331 13.0638 12.6496 13.6635 12.7158C13.8915 12.7112 14.1196 12.7201 14.3466 12.7423C14.4211 12.7576 14.49 12.7933 14.5454 12.8454C14.6009 12.8975 14.6408 12.964 14.6606 13.0375C14.6606 13.0545 14.672 13.0734 14.6758 13.0904C13.4989 12.7972 12.5265 13.168 11.6486 12.7953C11.1548 12.7026 10.8294 12.4377 10.9069 11.9042C10.9845 11.3706 11.3988 11.2477 11.8813 11.2533C13.3797 11.2685 14.8763 11.276 16.3729 11.2874L16.5621 11.2231L16.7721 11.2287Z" fill="#FEC86A"/>
<path d="M30.7078 12.7953C29.3512 12.7821 27.9928 12.7612 26.6362 12.7594C26.2257 12.7594 25.8302 12.7385 25.4727 12.5115C25.4767 12.4978 25.4799 12.4839 25.4821 12.4699C25.4948 12.4644 25.5082 12.4605 25.5218 12.4585C25.5933 12.4372 25.6669 12.4238 25.7413 12.4188C27.3344 12.5853 28.9407 12.3469 30.528 12.5739C30.593 12.6435 30.6531 12.7174 30.7078 12.7953Z" fill="#FEC86A"/>
<path d="M22.2529 22.0906C22.2148 22.0509 22.1788 22.0092 22.145 21.9657L22.0788 21.8693C21.6323 20.8987 21.0723 20.0586 19.8898 19.9016C19.5341 19.8543 19.1538 19.8108 19.0176 20.2251C18.8606 20.7019 19.2749 20.7681 19.5946 20.8987C20.9285 21.4417 21.3447 22.6961 20.6825 23.8521C20.6087 23.9816 20.5246 24.105 20.4309 24.221C20.3893 24.2714 20.3458 24.3225 20.3004 24.3742C20.1637 24.4945 20.0041 24.5859 19.8311 24.6429H19.7801L19.6457 24.658C19.0308 24.7451 18.6411 25.0043 18.8889 25.7686L18.906 25.8197C18.907 25.8336 18.907 25.8475 18.906 25.8613H18.8227C18.274 24.8529 18.5257 24.4878 19.7687 24.484L20.1471 24.2759C21.3126 22.8266 20.9436 21.6063 19.1652 21.0784C19.0726 21.0616 18.9844 21.0262 18.9059 20.9744C18.8275 20.9226 18.7603 20.8554 18.7085 20.7769C18.6567 20.6983 18.6213 20.6102 18.6045 20.5176C18.5877 20.4251 18.5899 20.3301 18.6108 20.2384C18.6751 19.737 19.0308 19.5875 19.4849 19.58C20.7462 19.561 21.6727 20.3103 22.2642 21.8276C22.2425 21.9136 22.2386 22.0031 22.2529 22.0906Z" fill="#FEC86A"/>
<path d="M30.9537 13.6959V13.7262C30.9527 13.7167 30.9527 13.7072 30.9537 13.6978C30.8345 13.5388 30.9026 13.3345 30.9083 13.1472C30.972 13.3228 30.9877 13.5122 30.9537 13.6959Z" fill="#FEC86A"/>
<path d="M35.1388 26.7127C35.1104 26.7223 35.0813 26.7299 35.0518 26.7354C34.9732 26.7548 34.8925 26.7643 34.8115 26.7638C33.2525 26.4743 33.1087 26.3116 33.1087 24.7432C33.1087 23.9296 33.086 23.1142 33.1276 22.3025C33.1308 22.227 33.139 22.1518 33.1522 22.0774C33.1549 22.0607 33.1587 22.0443 33.1636 22.0282V21.9979C33.1802 21.9302 33.2017 21.8638 33.2279 21.7993C33.2279 21.8693 33.2279 21.9412 33.2279 22.0112C33.2747 22.0256 33.3198 22.0453 33.3622 22.0698C33.3622 23.0347 33.3944 24.0053 33.3168 24.9645C33.2506 25.8008 33.4322 26.3381 34.3707 26.3968C34.6144 26.4332 34.8544 26.4915 35.0877 26.5708C35.1084 26.6168 35.1254 26.6642 35.1388 26.7127Z" fill="#FEC86A"/>
<path d="M33.4193 11.3952L33.3644 11.4085H33.336C33.2027 11.4233 33.0679 11.4163 32.9368 11.3877L32.829 11.3744C31.393 11.2041 29.9513 11.346 28.5134 11.3006C28.2089 11.3098 27.9041 11.2971 27.6014 11.2628H27.573C27.4961 11.2576 27.421 11.2369 27.3524 11.2017C27.2838 11.1666 27.223 11.1178 27.1738 11.0585C28.8766 11.0585 30.3561 11.049 31.83 11.0585C32.2254 11.0585 32.6492 10.9222 33.0106 11.2136L33.3568 11.2533C33.3806 11.2993 33.4015 11.3467 33.4193 11.3952Z" fill="#FEC86A"/>
<path d="M44.1753 30.1997C45.057 31.437 44.6124 32.8011 44.5537 34.1293C44.6464 34.3299 44.5348 34.4831 44.4308 34.6383C43.515 35.4821 42.8036 36.5511 41.6722 37.1622C39.7708 37.3268 37.9318 36.8935 36.0795 36.5946C35.5365 36.3221 35.8903 36.027 36.089 35.7791C36.4466 35.3402 36.8761 34.9656 37.2734 34.5626C39.0386 32.7709 40.8568 31.034 42.5823 29.2026C42.6621 29.1498 42.7553 29.1209 42.8509 29.1193C43.4185 29.3275 43.9861 29.5242 44.1753 30.1997Z" fill="#6C9BD2"/>
<path d="M36.2671 44.3631L36.0344 44.5296C35.2455 45.0347 34.5095 44.732 33.7754 44.3858C33.0052 44.2139 32.2541 43.9654 31.5334 43.6441C30.6725 43.6157 30.1125 43.0652 29.56 42.5089C29.5308 42.4211 29.5308 42.3262 29.56 42.2384C30.8012 41.0578 31.9894 39.8261 33.2116 38.6285C33.5143 38.3314 33.7792 37.9398 34.3014 38.0117C35.2265 38.6493 36.3239 38.6114 37.3664 38.7685C37.8944 38.8326 38.4177 38.9312 38.9329 39.0636C39.5989 39.4628 39.2111 39.8488 38.8894 40.1856C37.8753 41.2432 36.8234 42.2667 35.7922 43.3017C35.5582 43.5125 35.3417 43.7422 35.1452 43.9885C35.4971 44.2552 35.9985 43.9676 36.2671 44.3631Z" fill="#6C9BD2"/>
<path d="M45.3693 25.1878L45.3258 25.2332C44.6371 25.9692 43.9276 26.6844 43.1859 27.3674C42.9967 27.5339 42.7754 27.935 42.4821 27.6871H42.4727C42.8908 25.4413 43.3203 23.1955 42.8397 20.9006C42.771 21.0024 42.7078 21.1079 42.6505 21.2165L42.6392 21.1352C42.6382 21.1213 42.6382 21.1074 42.6392 21.0935C42.6414 21.0084 42.6541 20.9239 42.677 20.8419C42.7337 20.7511 42.7924 20.6622 42.8548 20.5751C42.87 20.5505 42.887 20.5278 42.904 20.5051C43.3897 19.8798 43.9544 19.3201 44.5841 18.8402L44.6295 18.8024L44.7052 18.7399C44.7696 18.716 44.8395 18.7111 44.9066 18.7258C44.9738 18.7406 45.0352 18.7744 45.0836 18.8232C45.602 20.7511 45.4771 22.7225 45.479 24.6883C45.5888 24.8794 45.4715 25.0308 45.3693 25.1878Z" fill="#FAAA69"/>
<path d="M36.7173 27.1498L36.6435 27.216C36.56 27.2474 36.4716 27.2641 36.3824 27.2652L36.3124 27.252L36.1951 27.2311C35.8147 27.1711 35.4504 27.0346 35.1242 26.83L35.0996 26.8149L35.0788 26.7846C35.0695 26.7682 35.0631 26.7503 35.0599 26.7317C35.0525 26.7035 35.0517 26.6739 35.0576 26.6454C35.0635 26.6168 35.076 26.59 35.0939 26.5671C35.1152 26.6129 35.1329 26.6604 35.1469 26.709C35.1469 26.709 35.1469 26.709 35.1469 26.7184C35.5937 26.7727 36.0245 26.9183 36.4127 27.146L36.6019 27.1044L36.7173 27.1498Z" fill="#F0BC63"/>
<path d="M45.0853 18.8156H44.7428C44.6908 18.819 44.639 18.8253 44.5877 18.8345C43.6114 18.9745 43.146 19.6235 42.9076 20.4995C42.8887 20.5657 42.8717 20.6338 42.8565 20.7019C42.8414 20.77 42.8565 20.8306 42.8565 20.8911C42.7878 20.9929 42.7246 21.0984 42.6673 21.2071L42.656 21.1257C42.655 21.1119 42.655 21.0979 42.656 21.0841C42.6582 20.999 42.6709 20.9145 42.6938 20.8325C42.7506 20.7416 42.8092 20.6527 42.8717 20.5657C42.8925 19.1467 43.4563 18.5848 44.6463 18.7929L44.722 18.7305C44.7846 18.7098 44.8515 18.7069 44.9156 18.7219C44.9797 18.7369 45.0384 18.7693 45.0853 18.8156Z" fill="#F0BC63"/>
<path d="M27.2311 43.3206C26.6048 44.0149 25.9388 44.6734 25.252 45.3109L25.2066 45.3545C25.0496 45.4585 24.8945 45.5739 24.692 45.4623C22.6046 45.5425 20.5144 45.4272 18.4485 45.118C18.2422 45.2277 18.0909 45.1974 18.0322 44.9458L18.089 44.9155C18.9347 44.4955 19.5193 43.769 20.1702 43.1276L20.2723 43.0292C20.314 42.9876 20.3575 42.9479 20.3991 42.91C20.4902 42.8804 20.5852 42.8644 20.681 42.8627C20.7367 42.8628 20.7923 42.8666 20.8475 42.8741C20.8021 42.9233 20.7548 42.9706 20.7075 43.0198C20.9572 43.296 21.2883 43.1881 21.5892 43.209C23.589 43.313 25.5623 43.0387 27.5092 42.6414C27.7608 42.8968 27.39 43.1427 27.2311 43.3206Z" fill="#FAAA69"/>
<path d="M18.3366 43.716C17.9866 44.0944 17.6612 44.4879 17.2166 44.7585L17.192 44.7736C17.1487 44.7888 17.1028 44.7947 17.0571 44.7907C17.0114 44.7868 16.9671 44.7733 16.9271 44.7509C15.3819 44.2626 13.8669 43.6833 12.3901 43.016C12.3454 42.9706 12.3129 42.9146 12.2955 42.8533C12.2896 42.829 12.2858 42.8044 12.2842 42.7795C12.602 42.0019 13.3134 41.5591 13.8356 40.9537L13.8659 40.9197L13.9018 40.8761C13.9902 40.8497 14.0833 40.8439 14.1743 40.8591L14.337 40.9424C14.255 40.9565 14.1711 40.9565 14.0891 40.9424C15.5157 41.947 17.1787 42.3613 18.8191 42.8343C18.9515 43.26 18.575 43.4682 18.3366 43.716Z" fill="#FAAA69"/>
<path d="M42.8643 39.4307C41.9466 42.0075 39.0216 44.2344 36.4126 44.3498C36.2877 43.9241 36.6264 43.7198 36.8534 43.4871C37.9981 42.3197 39.1862 41.1959 40.3063 40.0058C40.8417 39.4382 41.5191 39.408 42.1831 39.249C42.4348 39.2207 42.6788 39.215 42.8643 39.4307Z" fill="#6C9BD2"/>
<path d="M42.0943 39.4288C40.8834 39.5063 40.2364 40.4296 39.4853 41.1864C38.4522 42.2289 37.44 43.2922 36.4184 44.346L36.3465 44.3687H36.2727H34.7004L34.5869 44.1568C35.9567 42.8003 37.3303 41.4475 38.6906 40.0796C38.9082 39.8601 39.3282 39.7012 39.069 39.2434C39.3944 38.9842 39.7596 39.2244 40.1002 39.1601C40.5183 39.1601 40.9345 39.1601 41.3526 39.1601C41.6137 39.1866 41.8919 39.1923 42.0943 39.4288Z" fill="#6C9BD2"/>
<path d="M12.7684 40.3653C12.7626 40.3979 12.7551 40.4301 12.7457 40.4618C12.5433 41.3359 11.8111 41.7389 11.1356 42.1892H11.0997C11.0198 42.1895 10.9412 42.17 10.8707 42.1324C10.3788 41.7238 9.76015 41.4854 9.33445 40.9878C9.28715 40.2821 9.49905 39.7334 10.1783 39.3871C10.8859 39.0277 11.4346 39.3871 11.9851 39.7239C12.2614 39.9184 12.5232 40.1328 12.7684 40.3653Z" fill="#FAAA69"/>
<path d="M29.6183 42.4219L31.533 43.6441C30.1046 44.4614 28.5058 44.732 26.9393 45.1388C26.926 45.0972 26.9147 45.0536 26.9033 45.012C27.7396 44.0774 28.555 43.12 29.6183 42.4219Z" fill="#F9AA6A"/>
<path d="M44.1755 30.1997C43.7303 29.8705 43.2844 29.5425 42.8379 29.2158C43.3922 28.2698 44.2285 27.5963 45.0307 26.8887L45.1575 26.9246C44.8415 28.0182 44.7299 29.1761 44.1755 30.1997Z" fill="#F8AA6B"/>
<path d="M43.5713 37.1584C43.5903 37.2208 43.6111 37.2833 43.63 37.3476C43.3992 38.0533 43.4597 38.8612 42.8637 39.4288H42.0937H41.3369C41.5299 38.9151 41.8285 38.4477 42.2134 38.0566C42.5983 37.6656 43.0609 37.3596 43.5713 37.1584Z" fill="#5E85C4"/>
<path d="M33.0126 11.2212C32.9578 11.2827 32.894 11.3357 32.8234 11.3782C32.5131 11.5844 32.1347 11.5409 31.7771 11.5428C30.2105 11.5428 28.6421 11.5655 27.0774 11.5428C26.909 11.5428 26.7331 11.5144 26.5647 11.5106C26.489 11.5068 26.4133 11.5068 26.3376 11.5106C26.0065 11.5409 25.7322 11.6866 25.6395 12.188C25.6395 12.2182 25.6281 12.2485 25.6244 12.2826C25.6148 12.3052 25.604 12.3273 25.5922 12.3488C25.5702 12.3875 25.5449 12.4242 25.5165 12.4585C25.5011 12.4771 25.4847 12.4948 25.4673 12.5115C25.4714 12.4978 25.4745 12.4839 25.4768 12.4699C25.4768 12.4415 25.49 12.4131 25.4957 12.3828C25.333 11.346 25.4862 11.2117 26.7577 11.2741H27.5958H27.5674C27.4905 11.269 27.4154 11.2482 27.3468 11.2131C27.2782 11.1779 27.2174 11.1292 27.1682 11.0698C28.871 11.0698 30.3505 11.0603 31.8244 11.0698C32.2255 11.0717 32.6493 10.9298 33.0126 11.2212Z" fill="#F0BC63"/>
<path d="M16.3879 13.467C16.373 13.486 16.3566 13.5037 16.3387 13.5199V13.4518C16.3387 13.2229 16.3387 12.994 16.3481 12.7669L15.0483 12.7329L14.3483 12.7442C14.4223 12.7596 14.4906 12.7952 14.5457 12.8469C14.6007 12.8987 14.6405 12.9646 14.6605 13.0375C14.6605 13.0545 14.6718 13.0734 14.6756 13.0904C13.4988 12.7972 12.5263 13.168 11.6484 12.7953C11.7124 12.7287 11.785 12.6708 11.8641 12.6231C12.2785 12.3753 12.7704 12.4907 13.2264 12.4737C13.8129 12.4491 14.4013 12.4547 14.9878 12.4737C15.0843 12.4879 15.1816 12.4955 15.2792 12.4964H15.4532C15.7786 12.4964 16.1041 12.4964 16.3992 12.7064C16.4074 12.7179 16.415 12.7299 16.4219 12.7423C16.4293 12.7499 16.4351 12.7589 16.4389 12.7688C16.5141 12.8725 16.5503 12.9995 16.5409 13.1272C16.5316 13.255 16.4774 13.3753 16.3879 13.467Z" fill="#F0BC63"/>
<path d="M18.4439 11.2231L18.4174 11.259C18.3117 11.3782 18.1666 11.4554 18.0087 11.4766H17.9406C17.8914 11.4766 17.8422 11.4766 17.793 11.4898C17.3957 11.5258 16.9946 11.5712 16.6578 11.3006C16.6215 11.2737 16.5873 11.244 16.5557 11.2117L16.7732 11.2212L18.0693 11.2741L18.4174 11.2212L18.4439 11.2231Z" fill="#F0BC63"/>
<path d="M20.2399 13.4707C20.1786 13.9112 19.9658 14.3165 19.6382 14.6172C19.3106 14.9179 18.8885 15.0952 18.4444 15.1187C17.4284 15.2057 16.7303 14.6759 16.3311 13.5143V13.4461C16.3311 13.2172 16.3311 12.9883 16.3405 12.7612L16.3992 12.731C16.9668 12.4415 17.3262 11.9004 17.7917 11.4898C17.876 11.4123 17.9658 11.3408 18.0603 11.276L18.4085 11.2231H18.4425C19.801 11.645 20.414 12.415 20.2399 13.4707Z" fill="#4F4E4E"/>
<path d="M14.3439 40.9424C14.2619 40.9565 14.1781 40.9565 14.0961 40.9424H13.9069L13.8407 40.9537C13.4055 41.0332 13.1558 40.808 12.9911 40.441C12.9798 40.4164 12.9684 40.3918 12.959 40.3653L13.0498 40.4202C13.3241 40.5886 13.5966 40.7551 13.8709 40.9197L13.9069 40.8761C13.9952 40.8497 14.0884 40.8439 14.1793 40.8591L14.3439 40.9424Z" fill="#F0BC63"/>
<path d="M27.2326 28.005C27.208 28.6407 27.3499 29.2953 27.0339 29.8969C26.9699 29.882 26.9068 29.8637 26.8447 29.8421C26.9753 29.2631 26.8088 28.6615 26.9374 28.0806V26.2076V26.1905C26.9223 24.677 26.9078 23.1634 26.8939 21.6498C26.9681 21.7007 27.0322 21.7648 27.0831 21.839C27.2723 22.102 27.2364 22.4331 27.242 22.7434C27.2591 23.8029 27.2648 24.8624 27.2326 25.9219V26.096C27.2326 26.1338 27.2326 26.1716 27.2326 26.2095C27.261 26.6787 27.2326 27.1555 27.2326 27.619C27.2326 27.6852 27.2326 27.7495 27.2326 27.8082C27.2326 27.8669 27.2326 27.9444 27.2326 28.005Z" fill="#F0BC63"/>
<path d="M20.3869 26.4554C20.3906 26.4869 20.3906 26.5186 20.3869 26.55L20.315 26.4422L20.1448 26.1924L18.9944 25.8651H18.8223C18.8395 25.8279 18.8654 25.7955 18.8979 25.7705C18.9231 25.75 18.953 25.7364 18.985 25.7308C18.9983 25.7257 19.0123 25.7225 19.0266 25.7213H19.0569C19.4532 25.7385 19.8384 25.8578 20.175 26.0676L20.2148 26.1035C20.2326 26.1198 20.2491 26.1375 20.264 26.1565C20.3032 26.1957 20.3342 26.2424 20.3554 26.2937C20.3765 26.345 20.3872 26.4 20.3869 26.4554Z" fill="#F0BC63"/>
<path d="M32.8952 20.5203C32.8911 20.5402 32.8854 20.5598 32.8782 20.5789L32.865 20.5922C31.1792 22.4842 29.3137 24.2115 27.522 26.0089C27.4444 26.0973 27.3489 26.1682 27.242 26.217C27.194 26.2346 27.1429 26.2416 27.092 26.2377C27.041 26.2338 26.9916 26.219 26.9468 26.1943C26.9317 24.6808 26.9172 23.1672 26.9033 21.6536C27.1833 20.14 28.0726 19.194 29.5691 18.8818C30.9749 18.598 32.0609 19.1807 32.8763 20.3197C32.8844 20.34 32.8907 20.3609 32.8952 20.3822C32.9042 20.4278 32.9042 20.4747 32.8952 20.5203Z" fill="#6C9BD2"/>
<path d="M33.3609 22.0698C33.3025 22.0832 33.2411 22.0744 33.1887 22.0452C33.1789 22.0414 33.1699 22.0356 33.1623 22.0282C33.1452 22.0165 33.1294 22.0032 33.115 21.9885C32.9407 21.5447 32.8564 21.0707 32.8671 20.5941C32.8671 20.56 32.8671 20.5259 32.8671 20.4919C32.8633 20.4548 32.8633 20.4174 32.8671 20.3803C32.8671 20.3595 32.8671 20.3386 32.8671 20.3178C32.8751 20.3381 32.8815 20.359 32.886 20.3803C32.8955 20.4271 32.8955 20.4753 32.886 20.5222C33.1367 20.8988 33.2552 21.348 33.2228 21.7993C33.2228 21.8693 33.2228 21.9412 33.2228 22.0112C33.2709 22.0254 33.3173 22.045 33.3609 22.0698Z" fill="#F0BC63"/>
<path d="M22.2565 22.8304C22.3379 23.362 22.1449 23.8256 21.9519 24.291C21.9008 24.4121 21.8516 24.5351 21.8062 24.658C21.7863 24.5896 21.7736 24.5192 21.7684 24.448C21.7249 23.9031 22.0749 23.4112 22.0371 22.8701C22.0496 22.8365 22.0585 22.8016 22.0636 22.7661C22.0753 22.6884 22.0785 22.6098 22.073 22.5315C22.0367 22.3394 22.0618 22.1408 22.1449 21.9639C22.1765 21.9141 22.2161 21.87 22.2622 21.8333C22.2421 21.917 22.2389 22.0038 22.2527 22.0887C22.2868 22.3366 22.4173 22.5844 22.2565 22.8304Z" fill="#F0BC63"/>
<path d="M31.9394 14.9919L31.7596 14.8368L31.5345 14.6476C31.3626 14.5648 31.217 14.4362 31.1135 14.276C31.01 14.1157 30.9527 13.9301 30.948 13.7394C30.947 13.73 30.947 13.7205 30.948 13.711C30.8288 13.5521 30.8969 13.3478 30.9026 13.1605C30.8612 13.0461 30.8046 12.9379 30.7342 12.8388C30.7331 12.8269 30.7331 12.8148 30.7342 12.8029C31.228 12.8218 31.0936 13.2267 31.1693 13.5029C31.1664 13.5394 31.1664 13.5761 31.1693 13.6126C31.1885 13.9512 31.3368 14.2694 31.5837 14.5019C31.6024 14.5222 31.6227 14.5412 31.6442 14.5586L31.735 14.6476C31.7908 14.6961 31.8382 14.7537 31.875 14.8178C31.9106 14.8696 31.9327 14.9294 31.9394 14.9919Z" fill="#F0BC63"/>
<path d="M22.0104 29.0474C21.8171 29.5505 21.4845 29.9881 21.0516 30.309C20.6188 30.63 20.1034 30.8211 19.5659 30.86C19.074 30.9167 18.6748 30.7597 18.6086 30.2035C18.5537 29.7229 18.7808 29.4788 19.2803 29.3672C20.7806 29.0304 21.2025 27.9085 20.3776 26.55L20.3057 26.4422L20.1354 26.1924C20.1619 26.166 20.1865 26.1395 20.2111 26.1111C20.5517 25.744 20.8487 25.3259 21.3217 25.1064L21.3898 25.0762C22.2999 26.2814 22.6158 27.6058 22.0104 29.0474Z" fill="#4F4F4E"/>
<path d="M34.5257 12.1842C34.508 12.2107 34.4831 12.2315 34.4539 12.2442C34.4247 12.257 34.3925 12.2611 34.3611 12.2561L34.3138 12.2447L34.2986 12.2296L34.2665 12.1955C33.9838 11.9407 33.6835 11.7061 33.3678 11.4936C33.3639 11.4884 33.3607 11.4826 33.3583 11.4766C33.3471 11.4567 33.3401 11.4349 33.3375 11.4123C33.3257 11.361 33.3331 11.3071 33.3583 11.2609C33.3818 11.3044 33.4026 11.3492 33.4207 11.3952C33.4214 11.4009 33.4214 11.4066 33.4207 11.4123C33.6294 11.433 33.8283 11.5112 33.9953 11.6381C34.1623 11.765 34.2909 11.9357 34.3667 12.1312H34.3781C34.4287 12.1446 34.4781 12.1624 34.5257 12.1842Z" fill="#F0BC63"/>
<path d="M21.9516 24.291C21.9005 24.4121 21.8513 24.5351 21.8059 24.658L21.3897 25.0762L21.3234 25.1746C21.0415 25.587 20.7767 26.0146 20.2602 26.1622C20.2191 26.1738 20.1774 26.1833 20.1353 26.1905L18.985 25.8632C18.9803 25.8199 18.9803 25.7761 18.985 25.7327C18.9944 25.2559 19.3785 24.991 19.649 24.6618C19.6951 24.6078 19.7368 24.5502 19.7739 24.4897L20.1523 24.2815C20.3581 24.1745 20.5407 24.0279 20.6896 23.8502C21.0056 23.4945 21.2459 23.0612 21.6527 22.8058C21.7681 22.732 21.9327 22.4785 22.0802 22.5296C22.1465 22.5504 22.2108 22.6355 22.2694 22.8285C22.3376 23.362 22.1446 23.8218 21.9516 24.291Z" fill="#4F4F4E"/>
<path d="M31.94 14.9919L31.7603 14.8368L31.5352 14.6476C31.5768 14.6192 31.6165 14.5908 31.6562 14.5586C32.6022 13.8586 33.255 12.8275 34.2653 12.1993L34.3694 12.135H34.3807C34.4299 12.1474 34.478 12.1638 34.5245 12.1842C35.1337 14.2351 34.1858 15.2643 31.94 14.9919Z" fill="#4F4F4E"/>
<path d="M13.9033 40.9424C13.6725 41.8127 12.734 42.1192 12.3651 42.8779L12.297 42.8533C11.8591 42.7124 11.4529 42.4875 11.1013 42.1911C11.0672 42.1627 11.0331 42.1324 11.001 42.1003C11.65 41.6411 12.2244 41.0846 12.7038 40.4504L12.7719 40.3653H12.9611L13.0519 40.4202C13.3262 40.5886 13.5987 40.7551 13.873 40.9197L13.9033 40.9424Z" fill="#FAAA69"/>
<path d="M16.3629 11.2836C16.3542 11.3404 16.3422 11.3966 16.327 11.452C16.1964 11.9458 15.8426 12.2372 15.4453 12.4907C15.3167 12.5739 15.1823 12.6534 15.0499 12.7329L14.3498 12.7442L11.633 12.7915C11.1391 12.6988 10.8137 12.4339 10.8913 11.9004C10.9689 11.3668 11.3832 11.2439 11.8657 11.2495C13.3679 11.2647 14.8645 11.2723 16.3629 11.2836Z" fill="#4E4E4E"/>
<path d="M18.0655 11.2817C18.0239 11.3479 17.9841 11.4141 17.9444 11.4823C17.5849 12.082 17.2501 12.7083 16.4214 12.7631H16.3457L15.0459 12.7291L15.2673 12.485C15.5738 12.1463 15.8803 11.8096 16.1849 11.4709C16.2435 11.4066 16.3022 11.3441 16.3589 11.2817L16.5481 11.2174L16.7657 11.2268L18.0655 11.2817Z" fill="#4F4E4E"/>
<path d="M33.4268 11.4123L33.3663 11.4936C32.7476 12.3166 32.1592 13.1756 31.181 13.6089C31.1072 13.6429 31.0316 13.6732 30.954 13.7016C30.8348 13.5426 30.9029 13.3383 30.9086 13.151C30.9166 13.082 30.9055 13.0122 30.8764 12.9491C30.8474 12.886 30.8016 12.8322 30.744 12.7934H30.7156C29.359 12.7802 28.0006 12.7594 26.644 12.7575C26.2335 12.7575 25.8381 12.7366 25.4805 12.5096C25.4845 12.496 25.4877 12.4821 25.4899 12.468C25.4899 12.4396 25.5032 12.4112 25.5088 12.381C25.5543 12.3147 25.6016 12.2485 25.6526 12.1918C25.8465 11.9291 26.0824 11.7002 26.3508 11.5144C26.4824 11.4216 26.6232 11.3424 26.7708 11.2779H27.609L33.0125 11.2212L33.3587 11.2609C33.3822 11.3044 33.403 11.3492 33.4211 11.3952C33.4238 11.4006 33.4257 11.4064 33.4268 11.4123Z" fill="#4E4E4E"/>
<path d="M22.257 22.8304C22.199 22.7962 22.1346 22.7743 22.0678 22.7661C21.7821 22.7396 21.7083 23.1161 21.5002 23.2372C21.084 23.485 20.8967 24.0318 20.4313 24.221C20.3401 24.2574 20.2436 24.2785 20.1456 24.2834C21.311 22.8342 20.9421 21.6138 19.1636 21.086C19.0711 21.0692 18.9829 21.0338 18.9044 20.9819C18.8259 20.9301 18.7587 20.8629 18.7069 20.7844C18.6551 20.7059 18.6198 20.6177 18.603 20.5252C18.5862 20.4326 18.5883 20.3376 18.6093 20.2459C18.6736 19.7446 19.0293 19.5951 19.4834 19.5875C20.7447 19.5686 21.6711 20.3178 22.2627 21.8352C22.2426 21.9189 22.2394 22.0057 22.2532 22.0906C22.2873 22.3366 22.4178 22.5844 22.257 22.8304Z" fill="#4F4F4E"/>
<path d="M19.7801 24.6486C19.763 25.1386 19.2768 25.36 19.0535 25.7289C19.0256 25.7715 19.0027 25.8172 18.9854 25.8651H18.8227C18.274 24.8567 18.5257 24.4915 19.7687 24.4878C19.7782 24.5408 19.782 24.5947 19.7801 24.6486Z" fill="#52514F"/>
<path d="M35.1431 26.7222C35.1376 26.7601 35.1287 26.7975 35.1166 26.8338C35.0453 27.0018 34.9358 27.1508 34.7969 27.269C33.1319 28.9377 31.4707 30.6083 29.7944 32.2657C29.7436 32.3166 29.6899 32.3646 29.6336 32.4095C29.5967 32.4394 29.5582 32.4672 29.5182 32.4928C29.3779 32.5822 29.2197 32.6397 29.0547 32.6611H29.0168H28.9052C27.4124 32.7425 27.4049 32.7936 27.1911 34.398C27.1842 34.4522 27.1715 34.5055 27.1532 34.5569C27.1418 34.6024 27.1247 34.6463 27.1022 34.6875C27.094 34.7098 27.0839 34.7313 27.0719 34.7518C26.964 34.8691 26.8543 34.9618 26.7275 34.8558C26.9432 33.2458 26.8278 31.63 26.8032 30.0161C26.8221 29.9575 26.8392 29.9007 26.8524 29.8421C26.983 29.2631 26.8165 28.6615 26.9451 28.0806C27.0328 27.9211 27.1327 27.7687 27.2441 27.6247C27.612 27.1867 28.0083 26.7734 28.4303 26.3873C29.7169 25.0913 31.0053 23.7953 32.3108 22.5163C32.5397 22.2931 32.727 21.9374 33.1224 21.9866C33.1404 21.988 33.1581 21.9912 33.1754 21.996C33.1953 21.9989 33.2149 22.0033 33.2341 22.0093C33.2809 22.0237 33.326 22.0434 33.3684 22.0679C33.3684 23.0328 33.4006 24.0034 33.323 24.9627C33.2568 25.7989 33.4384 26.3362 34.3768 26.3949C34.6206 26.4313 34.8606 26.4896 35.0939 26.5689C35.1152 26.6148 35.1329 26.6623 35.1469 26.7108C35.1469 26.7108 35.1431 26.7184 35.1431 26.7222Z" fill="#6C9BD2"/>
<path d="M42.6616 29.2442C42.6333 29.6775 42.2719 29.8761 42.0146 30.1372C39.9611 32.2336 37.9065 34.3185 35.8505 36.3921C35.8505 36.3921 35.8505 36.4016 35.8372 36.4035C35.7801 36.463 35.705 36.5022 35.6235 36.5151H35.5724H35.474C34.3388 36.4432 34.1931 36.5851 34.2631 37.7203C34.2631 37.7544 34.2631 37.7903 34.2631 37.8263C34.2631 37.8622 34.2631 37.8641 34.2631 37.883C34.2543 37.9267 34.239 37.9688 34.2177 38.0079C34.198 38.0457 34.1718 38.0796 34.1401 38.1082C32.9236 39.2926 31.7127 40.4788 30.4924 41.6556C30.2275 41.9111 30.0232 42.2667 29.5861 42.2743L29.5426 42.2913C29.463 42.3053 29.3811 42.2995 29.3043 42.2744C29.2274 42.2493 29.1579 42.2058 29.1018 42.1476L29.0734 42.1211C29.0246 42.0758 28.9791 42.0271 28.9372 41.9754C29.0448 41.9868 29.149 42.0196 29.2437 42.0719L28.8501 41.474C28.8249 41.5149 28.785 41.5447 28.7385 41.5573C28.7356 41.5207 28.7356 41.484 28.7385 41.4475C28.7972 41.1164 29.0394 40.9045 29.2607 40.6907C33.0876 36.8576 36.9176 33.0276 40.7507 29.2007C40.8821 29.0604 41.0273 28.9336 41.184 28.8223L41.2199 28.7996L41.3335 28.8412L42.0808 28.9945C42.0414 28.9136 42.0091 28.8294 41.9843 28.7428L42.1035 28.7769L42.1622 28.7977C42.3627 28.8791 42.5595 28.9661 42.6314 29.1761C42.6434 29.1979 42.6535 29.2207 42.6616 29.2442Z" fill="#6C9BD2"/>
<path d="M35.661 36.3997H35.8502C37.5209 36.5889 39.1934 36.7913 40.8659 36.9673C41.2106 36.9881 41.5562 36.9881 41.9008 36.9673L41.9349 37.096C41.53 37.7052 40.9227 38.1195 40.4345 38.6474C40.2207 38.8782 39.9615 39.0674 40.0069 39.4307L39.0609 39.2415C37.8539 39.1015 36.6468 38.969 35.4416 38.8158C34.9232 38.7495 34.541 38.4109 34.1475 38.1025V37.9133C34.479 37.2612 35.009 36.7313 35.661 36.3997Z" fill="#5E85C4"/>
<path d="M45.0946 26.9076C45.0946 26.9246 45.0852 26.9436 45.0814 26.9606C44.4367 27.7642 43.71 28.4985 42.9132 29.1515C42.8886 29.1742 42.8621 29.195 42.8356 29.2158C42.7716 29.2173 42.708 29.2268 42.6464 29.2442L42.5631 29.2064L42.075 28.9793C42.0356 28.8984 42.0033 28.8142 41.9785 28.7277L42.0977 28.7618C42.1776 28.3936 42.3034 28.0371 42.4723 27.7004L42.4856 27.6871C43.4316 26.8042 44.3776 25.9213 45.3235 25.0383C45.3235 25.1008 45.3235 25.1632 45.333 25.2275C45.33 25.7958 45.2498 26.361 45.0946 26.9076Z" fill="#FAAA69"/>
<path d="M44.3646 34.5058C44.376 35.2456 43.7175 35.728 43.6286 36.4281C43.0459 36.5908 42.6221 37.2568 41.8975 36.9711V36.9578C42.642 36.0657 43.468 35.2449 44.3646 34.5058Z" fill="#6C9BD2"/>
<path d="M29.6184 42.4219L29.5579 42.4957C28.7796 43.4319 27.9149 44.2928 26.9753 45.0669L26.9223 45.0801C26.3783 45.2313 25.8164 45.309 25.2517 45.3109C25.1893 45.3109 25.1249 45.311 25.0625 45.3015L27.5221 42.6527L27.9005 42.4635L29.0773 42.1267C29.0285 42.0815 28.983 42.0328 28.9411 41.9811C29.0487 41.9924 29.1529 42.0252 29.2476 42.0775L29.556 42.2667L29.59 42.2876C29.607 42.3159 29.607 42.3632 29.6184 42.4219Z" fill="#FAAA69"/>
<path d="M41.2197 28.7845L41.3332 28.8261L41.1838 28.8072C39.6342 28.5972 38.2342 27.9633 36.7963 27.4166C36.757 27.3985 36.722 27.3723 36.6936 27.3397C36.6652 27.3071 36.6441 27.2688 36.6317 27.2274C36.6168 27.1911 36.6048 27.1538 36.5957 27.1157L36.713 27.1574L41.2197 28.7845Z" fill="#FEC86A"/>
<path d="M42.1036 28.7618C42.0922 28.8338 42.0846 28.9065 42.0809 28.9793C42.0415 28.8984 42.0092 28.8142 41.9844 28.7277L42.1036 28.7618Z" fill="#FEC86A"/>
<path d="M42.8399 20.893C42.7712 20.9948 42.708 21.1003 42.6507 21.209L42.6394 21.1276C42.6384 21.1137 42.6384 21.0998 42.6394 21.086C42.7018 21.0198 42.7699 20.9573 42.8399 20.893Z" fill="#FEC86A"/>
<path d="M44.7426 18.8137C44.1909 19.5187 43.5555 20.154 42.8506 20.7057C42.8506 20.6603 42.8506 20.6168 42.8506 20.5732C42.8714 19.1543 43.4352 18.5923 44.6253 18.8005C44.6593 18.7986 44.6953 18.8061 44.7426 18.8137Z" fill="#FAAA69"/>
<path d="M41.3368 28.8261C41.1117 29.0853 40.8998 29.3577 40.6595 29.5999C36.9588 33.3044 33.2568 37.0083 29.5535 40.7115C29.3114 40.9537 29.09 41.2186 28.8592 41.4683C28.8339 41.5093 28.794 41.539 28.7475 41.5516H28.7154C28.6824 41.5508 28.65 41.5424 28.6208 41.527C28.6454 41.4929 28.6719 41.4608 28.6984 41.4267C28.3805 40.7551 27.9851 40.2764 27.1167 40.2385C26.1536 40.1969 25.5463 39.548 25.2133 38.6568L25.2247 38.2936L25.1963 38.2311L25.2549 38.163C26.3247 36.9309 27.4757 35.7716 28.7002 34.6931L28.7684 34.6307L28.8289 34.5758C28.9116 34.5384 28.9978 34.5092 29.0862 34.4888C29.1259 34.4793 29.1638 34.4718 29.2035 34.4661C29.2712 34.4563 29.3395 34.4512 29.4078 34.451C29.7598 34.451 30.1173 34.538 30.4674 34.4377C30.562 34.0593 30.2914 33.7604 30.3444 33.416V33.4028C30.3444 33.4028 30.3444 33.4028 30.3444 33.3914V33.3763C30.348 33.3124 30.3582 33.249 30.3747 33.1871C30.4538 32.9286 30.6008 32.696 30.8003 32.5136C32.4502 30.8429 34.1151 29.1875 35.7782 27.5282C35.897 27.4047 36.035 27.3012 36.1868 27.2217C36.2574 27.1855 36.3316 27.157 36.4082 27.1365L36.5974 27.0949L36.7147 27.1365L41.2176 28.7712L41.3368 28.8261Z" fill="#6C9BD2"/>
<path d="M36.4177 27.1498L36.3136 27.2557C34.597 28.9964 32.8835 30.7383 31.1731 32.4814C30.9177 32.7406 30.5658 32.9449 30.5563 33.3763C30.5288 33.3986 30.4956 33.4127 30.4605 33.417C30.4254 33.4214 30.3898 33.4158 30.3577 33.4009H30.3463L30.3274 33.3896C30.1622 33.0166 29.8835 32.7054 29.5309 32.5003C29.4968 32.4738 29.4628 32.4511 29.4287 32.4284C31.2488 30.4854 33.1011 28.5745 35.0857 26.796L35.1576 26.7298C35.6019 26.7825 36.0307 26.9254 36.4177 27.1498Z" fill="#6C9BD2"/>
<path d="M20.8549 42.8741C20.8095 42.9233 20.7622 42.9706 20.7149 43.0198C20.6979 42.9691 20.6883 42.9162 20.6865 42.8627C20.7422 42.8628 20.7978 42.8666 20.853 42.8741H20.8549Z" fill="#FEC86A"/>
<path d="M28.7118 41.561C28.6788 41.5603 28.6464 41.5518 28.6172 41.5364C28.6418 41.5024 28.6683 41.4702 28.6948 41.4362C28.7036 41.4773 28.7093 41.519 28.7118 41.561Z" fill="#FEC86A"/>
<path d="M20.8544 42.8741C20.809 42.9233 20.7617 42.9706 20.7144 43.0198H20.336C20.2847 43.0592 20.2295 43.0934 20.1714 43.1219C19.793 43.3111 19.4298 43.2071 19.0722 42.9611C19.0399 42.9163 19.0126 42.8681 18.9908 42.8173C18.99 42.8104 18.99 42.8034 18.9908 42.7965L19.0211 42.8173C19.4268 42.9554 19.8526 43.0251 20.2811 43.0235C20.3228 42.9819 20.3663 42.9422 20.4079 42.9043C20.499 42.8747 20.594 42.8588 20.6898 42.857C20.7455 42.8571 20.8011 42.8609 20.8563 42.8684L20.8544 42.8741Z" fill="#F0BC63"/>
<path d="M25.2554 38.1725C25.246 38.216 25.2365 38.2595 25.2251 38.303L25.1968 38.2406C25.0076 37.7733 25.1873 37.2719 25.0908 36.7951C25.1219 36.8124 25.1516 36.8321 25.1797 36.8538C25.346 37.2738 25.3726 37.7362 25.2554 38.1725Z" fill="#F0BC63"/>
<path d="M20.3367 43.0254C19.7918 43.9052 19.2866 44.8342 18.0833 44.9174H18.0474C17.7605 44.9392 17.473 44.8837 17.2149 44.7566C17.1842 44.7414 17.1545 44.7244 17.126 44.7055L18.8288 42.8287C18.8473 42.8077 18.8728 42.7941 18.9006 42.7902C18.9284 42.7864 18.9566 42.7927 18.9801 42.8079L19.0104 42.8287C19.4161 42.9668 19.8419 43.0365 20.2705 43.0349L20.3367 43.0254Z" fill="#FAAA69"/>
<path d="M44.7901 17.1544C44.801 17.1145 44.8037 17.0727 44.7978 17.0317C44.792 16.9907 44.7777 16.9513 44.7561 16.916C44.2696 15.3762 43.6915 13.8669 43.0249 12.3961C42.9808 12.3453 42.9219 12.3095 42.8565 12.2939C42.7488 11.917 42.5588 11.5687 42.3003 11.2741C42.3797 11.0982 42.2492 10.9847 42.1357 10.8655C41.3037 9.62148 40.401 8.4263 39.432 7.28584C39.4064 7.2628 39.3766 7.24507 39.3441 7.2337C39.3116 7.22233 39.2772 7.21754 39.2428 7.21962C39.0629 6.93212 38.8203 6.68894 38.5333 6.50823C38.5806 6.31903 38.4368 6.23768 38.2968 6.14876C37.1617 5.17881 35.9709 4.27605 34.7304 3.44511C34.6682 3.41728 34.5993 3.40745 34.5318 3.41673C34.2808 3.16806 33.9679 2.99104 33.6255 2.904H33.6142C33.6211 2.847 33.6077 2.78939 33.5763 2.74129C32.0329 2.03052 30.4542 1.39904 28.8464 0.849304C28.8131 0.819185 28.7726 0.79828 28.7288 0.788655C28.685 0.779031 28.6394 0.781026 28.5966 0.794441L28.5153 0.836065C28.1538 0.694168 27.7683 0.623497 27.3801 0.627945H27.3593C27.3647 0.574284 27.352 0.52035 27.3233 0.474695C25.2577 0.161183 23.1681 0.0345379 21.0798 0.0962977C20.9038 -0.0758729 20.7449 0.01305 20.5859 0.128461L20.5519 0.164409C19.937 -0.170472 19.3751 0.092514 18.8207 0.421719L18.6164 0.508749C9.47621 2.1245 2.06909 9.53919 0.508201 18.6283L0.443874 18.6188C0.231972 19.2545 -0.239132 19.8656 0.160077 20.5562L0.127913 20.5884C0.0143942 20.7454 -0.0764207 20.9044 0.0957499 21.0803C0.0350942 23.1686 0.161733 25.2582 0.474147 27.3239C0.434415 27.5131 0.510093 27.5566 0.6501 27.5301C0.639383 27.8649 0.704041 28.1979 0.839299 28.5045C0.824163 28.5309 0.809028 28.5574 0.795784 28.5858C0.78237 28.6286 0.780377 28.6742 0.790001 28.718C0.799626 28.7618 0.820531 28.8023 0.85065 28.8355C1.39959 30.4437 2.03109 32.0224 2.74264 33.5655C2.79026 33.5962 2.84728 33.609 2.90345 33.6015C2.90254 33.6058 2.90254 33.6103 2.90345 33.6147C2.99512 33.9561 3.17298 34.2681 3.41997 34.521C3.41247 34.5853 3.42159 34.6504 3.44645 34.7102C4.28253 35.9462 5.18573 37.1356 6.15199 38.2728C6.23902 38.4185 6.32605 38.5585 6.51147 38.5131C6.69446 38.7989 6.93795 39.0411 7.22475 39.2225C7.22126 39.257 7.22538 39.2918 7.23682 39.3245C7.24826 39.3572 7.26675 39.387 7.29097 39.4117L9.33053 40.984C9.28323 40.2783 9.49513 39.7296 10.1744 39.3834C10.882 39.0239 11.4306 39.3834 11.9812 39.7201C12.2574 39.914 12.5192 40.1278 12.7645 40.3596H12.9537L13.0445 40.4145C13.3188 40.5829 13.5913 40.7494 13.8656 40.914L13.9016 40.8705C13.9899 40.8441 14.0831 40.8382 14.174 40.8534L14.3367 40.9367C14.2547 40.9508 14.1709 40.9508 14.0889 40.9367C15.5154 41.9413 17.1785 42.3557 18.8188 42.8287C18.8374 42.8077 18.8629 42.7941 18.8907 42.7902C18.9184 42.7864 18.9466 42.7927 18.9702 42.8079L19.0005 42.8287C19.4061 42.9668 19.832 43.0365 20.2605 43.0349C20.3021 42.9933 20.3457 42.9535 20.3873 42.9157C20.4784 42.8861 20.5734 42.8701 20.6692 42.8684C20.7249 42.8685 20.7805 42.8723 20.8357 42.8798C20.7903 42.9289 20.743 42.9762 20.6957 43.0254C20.9454 43.3017 21.2765 43.1938 21.5773 43.2146C23.5772 43.3187 25.5505 43.0444 27.4974 42.647H27.5257L27.9041 42.4578L29.081 42.1211C29.0321 42.0758 28.9866 42.0271 28.9447 41.9754C29.0523 41.9868 29.1565 42.0196 29.2512 42.0719L28.8501 41.474C28.8249 41.5149 28.785 41.5447 28.7385 41.5573H28.7063C28.6733 41.5565 28.641 41.5481 28.6117 41.5327C28.6363 41.4986 28.6628 41.4664 28.6893 41.4324C28.3715 40.7607 27.976 40.2821 27.1076 40.2442C26.1446 40.2026 25.5373 39.5536 25.2043 38.6625L25.2156 38.2993L25.1873 38.2368C24.9981 37.7695 25.1778 37.2681 25.0813 36.7913H25.0662H25.0775C25.3575 35.9286 25.6678 35.0886 26.7122 34.8804C26.7113 34.8774 26.7113 34.8741 26.7122 34.871C26.9279 33.2609 26.8125 31.6451 26.7879 30.0313L26.7765 29.8421C26.7956 29.8522 26.816 29.8599 26.8371 29.8648C26.9676 29.2858 26.8011 28.6842 26.9298 28.1034V26.2303V26.2133C26.9146 24.6997 26.9001 23.1861 26.8863 21.6725C27.1663 20.1589 28.0555 19.2129 29.5521 18.9007C30.9578 18.6169 32.0438 19.1997 32.8593 20.3386C32.8673 20.3589 32.8736 20.3798 32.8782 20.4011C32.8877 20.4479 32.8877 20.4962 32.8782 20.543C33.1288 20.9196 33.2473 21.3688 33.2149 21.8201C33.2149 21.8901 33.2149 21.962 33.2149 22.032C33.2618 22.0464 33.3068 22.0661 33.3493 22.0906C33.3493 23.0555 33.3814 24.0261 33.3039 24.9854C33.2377 25.8216 33.4193 26.3589 34.3577 26.4176C34.6014 26.4541 34.8414 26.5123 35.0748 26.5917C35.096 26.6375 35.1137 26.685 35.1277 26.7336C35.1277 26.7336 35.1277 26.7336 35.1277 26.743C35.5745 26.7973 36.0053 26.9429 36.3935 27.1706L36.5827 27.129L36.7 27.1706L41.2029 28.8053L41.3164 28.8469L42.0638 29.0002C42.0243 28.9192 41.9921 28.835 41.9673 28.7485L42.0865 28.7826C42.1683 28.4068 42.298 28.0431 42.4724 27.7004C42.4724 27.7004 42.4724 27.6871 42.4724 27.6795C42.8906 25.4338 43.32 23.188 42.8395 20.893C42.7707 20.9948 42.7076 21.1003 42.6503 21.209L42.6389 21.1276C42.638 21.1137 42.638 21.0998 42.6389 21.086C42.6412 21.0009 42.6539 20.9164 42.6768 20.8343C42.7335 20.7435 42.7922 20.6546 42.8546 20.5676C42.8754 19.1486 43.4392 18.5867 44.6293 18.7948L44.705 18.7324C44.7694 18.7084 44.8393 18.7035 44.9064 18.7183C44.9735 18.733 45.035 18.7668 45.0834 18.8156L45.1174 18.4372C45.1988 17.9566 45.2877 17.4628 44.7901 17.1544ZM16.3384 13.5199V13.4518C16.3384 13.2229 16.3384 12.994 16.3479 12.7669L15.0481 12.7329L14.3481 12.7442C14.4221 12.7596 14.4904 12.7952 14.5454 12.8469C14.6005 12.8987 14.6402 12.9646 14.6602 13.0375C14.6602 13.0545 14.6716 13.0734 14.6754 13.0905C14.7284 13.1056 14.7832 13.1188 14.8362 13.1359L14.6735 13.2551C14.6856 13.2008 14.6856 13.1447 14.6735 13.0905C13.4967 12.7972 12.5242 13.168 11.6463 12.7953C11.1525 12.7026 10.8271 12.4377 10.9047 11.9042C10.9822 11.3706 11.3966 11.2477 11.879 11.2533C13.3775 11.2685 14.874 11.276 16.3706 11.2874L16.5598 11.2231L16.7774 11.2325L18.0734 11.2855L18.4215 11.2325H18.4556C19.8064 11.6544 20.4194 12.4245 20.2454 13.4802C20.1818 13.9198 19.9674 14.3237 19.6388 14.6226C19.3102 14.9215 18.8879 15.0969 18.4442 15.1187C17.4358 15.2114 16.7414 14.6816 16.3384 13.5199ZM21.952 24.291C21.9009 24.4121 21.8517 24.5351 21.8063 24.658L21.39 25.0762C22.3001 26.2889 22.616 27.6077 22.0106 29.0493C21.8173 29.5524 21.4847 29.99 21.0519 30.3109C20.619 30.6319 20.1037 30.823 19.5662 30.8619C19.0742 30.9186 18.675 30.7616 18.6088 30.2053C18.554 29.7248 18.781 29.4807 19.2805 29.3691C20.7808 29.0323 21.2027 27.9104 20.3778 26.5519L20.3059 26.4441L20.1357 26.1943L18.9853 25.867H18.8226C18.2739 24.8586 18.5256 24.4934 19.7686 24.4897L20.147 24.2815C21.3125 22.8323 20.9435 21.612 19.1651 21.0841C19.0725 21.0673 18.9843 21.0319 18.9058 20.9801C18.8274 20.9282 18.7602 20.861 18.7084 20.7825C18.6566 20.704 18.6212 20.6158 18.6044 20.5233C18.5876 20.4307 18.5898 20.3357 18.6107 20.244C18.675 19.7427 19.0307 19.5932 19.4848 19.5856C20.7461 19.5667 21.6726 20.3159 22.2641 21.8333C22.244 21.917 22.2408 22.0038 22.2547 22.0887C22.2887 22.3347 22.4098 22.5825 22.2547 22.8285C22.3379 23.362 22.1449 23.8218 21.952 24.291ZM31.9397 14.9919L31.76 14.8368L31.5349 14.6476C31.363 14.5648 31.2174 14.4362 31.1139 14.276C31.0104 14.1157 30.9531 13.9301 30.9483 13.7394C30.9474 13.73 30.9474 13.7205 30.9483 13.711C30.8292 13.5521 30.8973 13.3478 30.9029 13.1605C30.8616 13.0461 30.8049 12.9379 30.7346 12.8388C30.7281 12.8257 30.7198 12.8136 30.71 12.8029C29.3534 12.7896 27.995 12.7688 26.6384 12.7669C26.2278 12.7669 25.8324 12.7461 25.4748 12.5191C25.4789 12.5054 25.482 12.4915 25.4843 12.4774C25.4843 12.4491 25.4975 12.4207 25.5032 12.3904C25.3405 11.3536 25.4938 11.2193 26.7652 11.2817H27.6033H27.5749C27.498 11.2766 27.4229 11.2558 27.3543 11.2206C27.2857 11.1855 27.2249 11.1368 27.1757 11.0774H27.0452L27.1379 10.9866C27.1423 11.0196 27.1553 11.051 27.1757 11.0774C28.8785 11.0774 30.3581 11.0679 31.8319 11.0774C32.2273 11.0774 32.6511 10.9412 33.0125 11.2325L33.3587 11.2723C33.3822 11.3157 33.4031 11.3606 33.4212 11.4066C33.4219 11.4122 33.4219 11.418 33.4212 11.4236C33.6299 11.4444 33.8288 11.5225 33.9957 11.6494C34.1627 11.7763 34.2913 11.947 34.3672 12.1426H34.3785C34.4277 12.155 34.4758 12.1714 34.5223 12.1918C35.1334 14.2351 34.1855 15.2643 31.9397 14.9919Z" fill="#FEC86A"/>
<path d="M14.3445 40.9424C14.2625 40.9565 14.1787 40.9565 14.0967 40.9424L14.1818 40.861L14.3445 40.9424Z" fill="#FEC86A"/>
<path d="M19.0115 42.823H18.9888H18.8317H18.8223C18.8408 42.802 18.8663 42.7884 18.8941 42.7846C18.9219 42.7807 18.9501 42.787 18.9736 42.8022L19.0115 42.823Z" fill="#FEC86A"/>
<path d="M26.7177 34.8672C26.0252 35.378 25.6109 36.1254 25.083 36.7781C25.363 35.9154 25.6733 35.0791 26.7177 34.8672Z" fill="#FEC86A"/>
<path d="M41.8932 36.9711C42.5251 36.9711 42.9319 36.2427 43.6243 36.4281C43.6073 36.6703 43.5884 36.9143 43.5714 37.1584C42.7589 37.8486 42.0081 38.6083 41.3275 39.4288H40.0031C39.7306 39.2169 39.7004 39.0315 39.9879 38.7741C40.6407 38.1857 41.2612 37.5727 41.8932 36.9711Z" fill="#5E85C4"/>
<path d="M26.7693 11.2741C26.705 11.3498 26.6407 11.4293 26.5801 11.5069C26.3058 11.8436 26.0333 12.1842 25.6076 12.3488L25.5111 12.3828C25.339 11.346 25.4922 11.2117 26.7693 11.2741Z" fill="#4E4D4B"/>
<path d="M33.2323 21.7974C33.2323 21.8674 33.2323 21.9393 33.2323 22.0093L33.1945 22.0433L33.1566 22.0755C31.312 23.6875 29.6867 25.5189 27.9215 27.2084C27.7002 27.4203 27.4693 27.6209 27.2404 27.8214C27.1401 27.9066 27.0512 27.9936 26.9434 28.0806V26.2076V26.1906L27.2366 25.9314C28.8864 24.4613 30.3603 22.8096 31.9533 21.2846C32.2447 21.0065 32.4793 20.6603 32.8672 20.4919L32.8899 20.5222C33.1421 20.8976 33.2626 21.3461 33.2323 21.7974Z" fill="#6C9BD2"/>
<path d="M34.3687 12.1312C34.346 12.1653 34.3214 12.1974 34.2968 12.2296C33.6724 13.0696 32.8494 13.7186 32.138 14.4716C32.0349 14.5779 31.8944 14.6397 31.7464 14.6438C31.6758 14.6485 31.605 14.6485 31.5345 14.6438C31.3626 14.561 31.217 14.4324 31.1135 14.2722C31.01 14.112 30.9527 13.9263 30.948 13.7356C30.947 13.7262 30.947 13.7167 30.948 13.7072L31.1655 13.5067L33.3508 11.4879L33.4208 11.4236C33.6286 11.443 33.827 11.5194 33.9942 11.6442C34.1614 11.769 34.291 11.9375 34.3687 12.1312Z" fill="#4E4E4E"/>
<path d="M28.8501 34.7026C27.7241 35.9825 26.5117 37.1836 25.2212 38.2974L25.1929 38.2349C25.0037 37.7676 25.1834 37.2662 25.0869 36.7895C25.0869 36.7895 25.0869 36.7781 25.0869 36.7724C25.3669 35.9097 25.6772 35.0696 26.7216 34.8615L26.9713 34.6912C27.0258 34.6429 27.0847 34.5999 27.1473 34.5626L27.1965 34.538L27.2513 34.5096L27.3251 34.4983C27.8189 34.4188 28.3146 34.3223 28.763 34.6383C28.7935 34.6577 28.8225 34.6792 28.8501 34.7026Z" fill="#6C9BD2"/>
<path d="M28.8502 34.7026H27.1475C27.4691 33.6052 28.3886 33.0585 29.2286 32.4322C29.2917 32.4322 29.3548 32.4284 29.4178 32.4209C30.1254 32.349 30.4622 32.6441 30.3638 33.3668C30.1122 33.9988 29.5976 34.362 29.0394 34.6912L28.8502 34.7026Z" fill="#6588C1"/>
<path d="M29.2283 32.4322L27.1472 34.7026C27.0904 34.7026 27.0317 34.7026 26.975 34.7026C26.9277 32.4133 26.9277 32.4133 29.2283 32.4322Z" fill="#6588C1"/>
<path d="M35.6614 36.3997C35.2358 36.9774 34.7256 37.4877 34.1478 37.9133C33.8413 37.393 33.8716 36.8557 34.2689 36.4375C34.6663 36.0194 35.1847 36.1897 35.6614 36.3997Z" fill="#5E85C4"/>
<path d="M28.8497 41.474C28.8244 41.5149 28.7845 41.5447 28.7381 41.5573H28.7059C28.6729 41.5565 28.6405 41.548 28.6113 41.5327C28.6359 41.4986 28.6624 41.4664 28.6889 41.4324H28.7324L28.8497 41.474Z" fill="#F0BA64"/>
<path d="M29.2489 42.0624L29.0786 42.1116C29.0298 42.0663 28.9843 42.0177 28.9424 41.9659C29.05 41.9773 29.1542 42.0101 29.2489 42.0624Z" fill="#F0BA64"/>
<path d="M29.0391 34.6893C29.4046 34.178 29.8521 33.7305 30.3635 33.365H30.5527C30.4278 33.8739 31.1543 34.3431 30.8024 34.7215C30.4845 35.064 29.8961 34.5626 29.4099 34.6818C29.2871 34.6997 29.1625 34.7023 29.0391 34.6893Z" fill="#6588C1"/>
</svg>
