<svg width="24" height="24" viewBox="0 0 24 24" fill="none" xmlns="http://www.w3.org/2000/svg">
<path d="M2.103 22.5938V14.3413H8.23203V10.182H15.7673V12.743H21.8963V22.5938H23.9995V24H0V22.5938H2.103ZM15.7673 22.5937H20.4901V14.1492H15.7673V22.5937ZM9.6383 22.5937H14.3611V11.5882H9.63825L9.6383 22.5937ZM3.50923 22.5937H8.23203V15.7475H3.50923V22.5937Z" fill="white"/>
<path d="M14.7663 8.5143L11.9999 7.61685L9.2334 8.5143L9.23204 5.60591L7.52367 3.25222L10.2892 2.35219L11.9999 0L13.7105 2.35214L16.4761 3.25217L14.7677 5.60586L14.7663 8.5143ZM12.8415 3.54813L11.9999 2.39086L11.1583 3.54813L9.79757 3.99095L10.6382 5.14902L10.6388 6.58L11.9999 6.13844L13.3611 6.58L13.3617 5.14902L14.2023 3.99095L12.8415 3.54813Z" fill="white"/>
</svg>
