<svg width="24" height="24" viewBox="0 0 24 24" fill="none" xmlns="http://www.w3.org/2000/svg">
<circle cx="12" cy="12" r="12" fill="#FFCBD2"/>
<path d="M11.9945 4C10.4516 4 9.19629 5.25532 9.19629 6.79826V12.2978C9.19629 13.8406 10.4516 15.0959 11.9945 15.0959C13.5375 15.0959 14.7928 13.8493 14.7928 12.3171V6.79826C14.7928 5.25532 13.5375 4 11.9945 4ZM13.6267 12.3169C13.6267 13.2061 12.8945 13.9298 11.9945 13.9298C11.0946 13.9298 10.3622 13.1978 10.3622 12.2977V6.79826C10.3622 5.89816 11.0944 5.16594 11.9945 5.16594C12.8946 5.16594 13.6269 5.89816 13.6267 6.79826V12.3169Z" fill="#E20000"/>
<path d="M12.5776 16.7671H11.4116V19.3905H12.5776V16.7671Z" fill="#E20000"/>
<path d="M13.5298 18.8075H10.4594C10.1374 18.8075 9.87646 19.0685 9.87646 19.3905C9.87646 19.7125 10.1374 19.9735 10.4594 19.9735H13.5298C13.8518 19.9735 14.1127 19.7125 14.1127 19.3905C14.1127 19.0685 13.8518 18.8075 13.5298 18.8075Z" fill="#E20000"/>
<path d="M16.4053 11.326C16.0833 11.326 15.8223 11.587 15.8223 11.909V12.3754C15.8223 14.4861 14.1049 16.2036 11.9941 16.2036C9.88321 16.2036 8.16594 14.4861 8.16594 12.3754V11.909C8.16594 11.587 7.90497 11.326 7.58297 11.326C7.26097 11.326 7 11.587 7 11.909V12.3754C7 15.1291 9.24037 17.3695 11.9941 17.3695C14.7479 17.3695 16.9883 15.1291 16.9883 12.3754V11.909C16.9883 11.587 16.7273 11.326 16.4053 11.326Z" fill="#E20000"/>
</svg>
