<svg width="22" height="23" viewBox="0 0 22 23" fill="none" xmlns="http://www.w3.org/2000/svg">
<path d="M7.18999 1.91096C7.5551 1.44593 8.08028 1.13352 8.66318 1.03461C9.24608 0.935709 9.84492 1.0574 10.343 1.37596C10.6286 1.58129 10.8921 1.8159 11.129 2.07595C11.2245 2.14742 11.2921 2.24999 11.32 2.36596C11.3265 2.42943 11.315 2.49344 11.2869 2.55071C11.2588 2.60799 11.2151 2.65623 11.161 2.68995C10.8276 2.93995 10.4943 3.18962 10.161 3.43896C10.42 3.79096 10.687 4.13896 10.943 4.48796C10.9806 4.54174 11.0008 4.6058 11.0008 4.67146C11.0008 4.73711 10.9806 4.80117 10.943 4.85496C10.771 5.11696 10.595 5.37595 10.423 5.63795C10.577 5.86795 10.73 6.09895 10.884 6.32895C11.0073 6.56639 11.0834 6.82552 11.108 7.09196C11.173 6.92896 11.236 6.76595 11.308 6.60395C11.22 6.31295 11.116 6.02795 11.024 5.73895C11.0049 5.68318 11.0019 5.62319 11.0151 5.56575C11.0284 5.50832 11.0574 5.45574 11.099 5.41396C11.358 5.14996 11.623 4.88996 11.883 4.62696C11.72 4.37896 11.553 4.13395 11.39 3.88495C11.3492 3.82727 11.3285 3.75785 11.3308 3.68727C11.3332 3.61669 11.3585 3.54881 11.403 3.49396C11.672 3.13096 11.945 2.76996 12.216 2.40796C12.048 2.18496 11.876 1.96595 11.711 1.74195C11.6858 1.70553 11.6684 1.66425 11.6601 1.62076C11.6517 1.57726 11.6525 1.5325 11.6624 1.48932C11.6722 1.44614 11.691 1.40549 11.7174 1.36996C11.7439 1.33443 11.7775 1.3048 11.816 1.28296C12.1998 1.07577 12.6332 0.978143 13.0688 1.00076C13.5044 1.02337 13.9254 1.16536 14.2857 1.41117C14.646 1.65699 14.9318 1.99717 15.1117 2.3945C15.2917 2.79183 15.3589 3.231 15.306 3.66396C15.2391 4.20142 14.9924 4.70046 14.606 5.07995C13.488 6.19929 12.3693 7.31796 11.25 8.43596C11.219 8.47057 11.1811 8.49827 11.1387 8.51723C11.0963 8.53619 11.0504 8.54599 11.004 8.54599C10.9575 8.54599 10.9116 8.53619 10.8692 8.51723C10.8269 8.49827 10.7889 8.47057 10.758 8.43596C9.63998 7.31729 8.52165 6.19862 7.40299 5.07995C6.98377 4.6699 6.73063 4.11957 6.69206 3.53442C6.6535 2.94928 6.83222 2.37048 7.19399 1.90895L7.18999 1.91096Z" fill="#E94057"/>
<path d="M1.20599 6.01495C1.96458 4.64506 3.04282 3.47866 4.34899 2.61496C4.46699 2.79396 4.58699 2.97195 4.70299 3.15195C3.48533 3.96275 2.47933 5.0531 1.76899 6.33195C1.58299 6.22095 1.39299 6.11895 1.20599 6.01495Z" fill="#E94057"/>
<path d="M17.653 2.60896C18.9589 3.47606 20.0375 4.64416 20.798 6.01495C20.609 6.11995 20.421 6.22695 20.23 6.32795C19.5212 5.048 18.5153 3.95705 17.297 3.14695C17.415 2.96895 17.534 2.78796 17.653 2.60896Z" fill="#E94057"/>
<path d="M1.96999 8.28996C1.99558 8.2346 2.03628 8.18758 2.0874 8.15433C2.13853 8.12107 2.198 8.10292 2.25899 8.10196C2.69199 8.09496 3.12599 8.10196 3.55899 8.10196C3.62591 8.10306 3.69096 8.12423 3.7457 8.16275C3.80044 8.20126 3.84235 8.25534 3.86599 8.31796C3.97799 8.54996 4.10399 8.77496 4.20299 9.01796C4.30299 8.77996 4.42899 8.55496 4.54099 8.31796C4.56498 8.25518 4.60725 8.20104 4.66234 8.16253C4.71742 8.12403 4.78278 8.10293 4.84999 8.10196C5.23998 8.10196 5.63099 8.10196 6.02099 8.10196C6.11722 8.09165 6.21447 8.10681 6.30299 8.14595C6.39649 8.21686 6.46623 8.3145 6.50299 8.42595C6.58799 8.60795 6.68899 8.78195 6.76699 8.96695C6.78335 9.01543 6.78878 9.06694 6.7829 9.11777C6.77702 9.16859 6.75998 9.21749 6.73299 9.26095C6.58499 9.56095 6.43299 9.85495 6.28699 10.153C6.67632 10.2631 7.03839 10.4534 7.35005 10.7114C7.66171 10.9695 7.91611 11.2897 8.09698 11.6517C8.27785 12.0136 8.38122 12.4093 8.40048 12.8135C8.41974 13.2177 8.35447 13.6214 8.20885 13.999C8.06322 14.3765 7.84043 14.7195 7.55472 15.006C7.26902 15.2925 6.92668 15.5163 6.54958 15.663C6.17249 15.8098 5.76893 15.8762 5.3647 15.8581C4.96047 15.84 4.56447 15.7378 4.20199 15.558C3.58179 15.8662 2.87191 15.9429 2.20017 15.7742C1.52844 15.6056 0.939 15.2026 0.537987 14.638C0.161983 14.1097 -0.0266095 13.4709 0.00220087 12.8231C0.0310112 12.1753 0.275569 11.5558 0.696985 11.063C1.07221 10.6257 1.56779 10.3085 2.12199 10.151C1.97499 9.85095 1.82199 9.55095 1.67499 9.25795C1.646 9.21068 1.62862 9.15723 1.62427 9.10196C1.61993 9.04668 1.62874 8.99117 1.64999 8.93995C1.74999 8.72095 1.86599 8.50796 1.97299 8.29196L1.96999 8.28996ZM3.70199 10.151C3.8736 10.2012 4.04082 10.2655 4.20199 10.343C4.36321 10.2651 4.53041 10.2002 4.70199 10.149C4.53699 9.81395 4.36299 9.48395 4.20699 9.14395C4.03099 9.47495 3.86999 9.81595 3.69999 10.151H3.70199ZM2.34499 10.759C1.90156 10.8736 1.50337 11.1201 1.20303 11.4659C0.902691 11.8117 0.71434 12.2405 0.66287 12.6956C0.6114 13.1507 0.699232 13.6107 0.914762 14.0148C1.13029 14.4189 1.46337 14.7482 1.86999 14.959C2.39098 15.2255 2.99416 15.2827 3.55599 15.119C3.25084 14.8461 3.00671 14.5119 2.83957 14.1382C2.67242 13.7646 2.58603 13.3598 2.58603 12.9505C2.58603 12.5411 2.67242 12.1364 2.83957 11.7627C3.00671 11.389 3.25084 11.0548 3.55599 10.7819C3.1623 10.6643 2.74403 10.6561 2.34599 10.7579L2.34499 10.759ZM4.84599 10.78C5.15118 11.053 5.39534 11.3874 5.5625 11.7612C5.72966 12.135 5.81606 12.5399 5.81606 12.9494C5.81606 13.359 5.72966 13.7639 5.5625 14.1377C5.39534 14.5115 5.15118 14.8459 4.84599 15.119C5.18364 15.2192 5.54003 15.2391 5.88678 15.1774C6.23353 15.1156 6.56107 14.9737 6.84333 14.763C7.12559 14.5523 7.35478 14.2787 7.51266 13.9639C7.67054 13.649 7.75276 13.3017 7.75276 12.9494C7.75276 12.5972 7.67054 12.2499 7.51266 11.935C7.35478 11.6202 7.12559 11.3466 6.84333 11.1359C6.56107 10.9252 6.23353 10.7833 5.88678 10.7216C5.54003 10.6598 5.18364 10.6798 4.84599 10.78ZM3.23399 13.07C3.2533 13.4135 3.35026 13.7482 3.51757 14.0489C3.68489 14.3496 3.91821 14.6084 4.19999 14.806C4.49891 14.5973 4.74303 14.3196 4.91159 13.9964C5.08016 13.6731 5.16818 13.314 5.16818 12.9494C5.16818 12.5849 5.08016 12.2258 4.91159 11.9026C4.74303 11.5793 4.49891 11.3016 4.19999 11.093C3.88533 11.3139 3.63191 11.6111 3.46348 11.9567C3.29505 12.3023 3.21712 12.685 3.23699 13.069L3.23399 13.07Z" fill="#E94057"/>
<path d="M15.403 8.53696C15.7012 8.25761 16.0943 8.1018 16.503 8.10095H19.411C19.706 8.07744 20.0029 8.11141 20.285 8.20096C20.5958 8.31536 20.8643 8.52189 21.0546 8.79297C21.2449 9.06405 21.348 9.38675 21.35 9.71796C21.35 11.118 21.35 12.518 21.35 13.918C21.4834 13.9112 21.6172 13.9152 21.75 13.9299C21.8183 13.9475 21.8789 13.9871 21.9225 14.0426C21.9661 14.0981 21.9901 14.1664 21.991 14.237C21.991 14.6703 21.991 15.1036 21.991 15.537C21.9902 15.6138 21.9618 15.6879 21.911 15.7455C21.8601 15.8032 21.7902 15.8406 21.714 15.851C21.619 15.86 21.524 15.851 21.43 15.856H14.598C14.5529 15.8605 14.5073 15.8557 14.4642 15.8418C14.4211 15.8278 14.3813 15.8051 14.3473 15.7751C14.3134 15.745 14.2861 15.7082 14.2671 15.6671C14.2481 15.6259 14.2379 15.5813 14.237 15.536C14.237 15.1033 14.237 14.6699 14.237 14.2359C14.2369 14.1587 14.2649 14.0841 14.3159 14.0261C14.3669 13.9681 14.4374 13.9307 14.514 13.921C14.636 13.91 14.759 13.921 14.882 13.921C14.882 12.521 14.882 11.1209 14.882 9.72095C14.882 9.49926 14.9277 9.27997 15.0164 9.07677C15.105 8.87356 15.2346 8.69081 15.397 8.53995L15.403 8.53696ZM15.591 9.38095C15.5329 9.56843 15.5118 9.76543 15.529 9.96095C15.529 11.2816 15.529 12.602 15.529 13.922C16.8217 13.922 18.1147 13.922 19.408 13.922C19.408 12.522 19.408 11.122 19.408 9.72196C19.4057 9.47337 19.3087 9.23502 19.1365 9.05565C18.9644 8.87628 18.7303 8.76944 18.482 8.75696C17.821 8.75696 17.16 8.75696 16.5 8.75696C16.3026 8.75748 16.11 8.81801 15.9479 8.93053C15.7857 9.04305 15.6616 9.20223 15.592 9.38695L15.591 9.38095ZM14.884 14.575V15.2209H21.353V14.575H14.884Z" fill="#E94057"/>
<path d="M15.681 9.45296C16.543 9.45296 17.405 9.45296 18.267 9.45296V10.099C17.405 10.099 16.543 10.099 15.681 10.099V9.45296Z" fill="#E94057"/>
<path d="M15.974 10.923C16.62 10.923 17.267 10.923 17.913 10.923V11.569C17.266 11.569 16.619 11.569 15.972 11.569C15.973 11.355 15.972 11.139 15.974 10.923Z" fill="#E94057"/>
<path d="M15.975 12.393H17.914C17.914 12.609 17.914 12.825 17.914 13.041C17.267 13.041 16.62 13.041 15.973 13.041L15.975 12.393Z" fill="#E94057"/>
<path d="M10.245 15.6249C10.5304 15.3666 10.8991 15.2194 11.284 15.2099C11.514 15.2099 11.744 15.2099 11.974 15.2099C12.0581 15.2105 12.1386 15.244 12.1983 15.3033C12.2579 15.3625 12.2919 15.4429 12.293 15.527C12.298 16.094 12.293 16.661 12.293 17.227C12.298 17.5593 12.2014 17.8851 12.016 18.161C11.8816 18.3386 11.7313 18.5036 11.567 18.6539C11.95 18.8179 12.335 18.978 12.716 19.147C12.9186 19.2387 13.1001 19.3712 13.2493 19.5362C13.3985 19.7012 13.5121 19.8952 13.583 20.106C13.6473 20.3386 13.6852 20.5778 13.696 20.8189C13.769 21.5189 13.835 22.2269 13.908 22.9309C13.694 22.9559 13.479 22.975 13.265 22.997C13.181 22.179 13.103 21.3599 13.019 20.5419C13.0037 20.3705 12.9434 20.2061 12.8439 20.0656C12.7445 19.9251 12.6096 19.8134 12.453 19.742C11.9697 19.5326 11.4857 19.3246 11.001 19.118C10.517 19.326 10.033 19.5319 9.54999 19.7409C9.39324 19.8123 9.25819 19.924 9.1586 20.0645C9.059 20.205 8.99841 20.3694 8.98298 20.541C8.89965 21.3603 8.81831 22.1799 8.73898 22.9999C8.52398 22.9799 8.30799 22.959 8.09399 22.934C8.17799 22.111 8.25799 21.286 8.34199 20.463C8.3653 20.2307 8.43858 20.0062 8.55682 19.805C8.67506 19.6037 8.83546 19.4304 9.02699 19.2969C9.20775 19.184 9.39978 19.0901 9.59999 19.0169C9.87799 18.8969 10.158 18.779 10.436 18.657C10.1891 18.4502 9.98727 18.1949 9.84299 17.907C9.71583 17.5478 9.67072 17.1648 9.71098 16.786C9.71603 16.5662 9.76602 16.3499 9.85786 16.1502C9.9497 15.9505 10.0815 15.7718 10.245 15.6249Z" fill="#E94057"/>
<path d="M1.02899 17.619L1.60798 17.3289C2.5914 19.2808 4.24448 20.8136 6.26499 21.6469C6.18432 21.8469 6.10265 22.0469 6.01999 22.2469C3.85438 21.3539 2.08268 19.7111 1.02899 17.619Z" fill="#E94057"/>
<path d="M15.736 21.6479C17.6437 20.8579 19.2277 19.4452 20.23 17.6399C20.42 17.7419 20.6087 17.8463 20.796 17.953C19.7221 19.8865 18.0254 21.3996 15.982 22.246C15.899 22.047 15.818 21.8469 15.736 21.6479Z" fill="#E94057"/>
</svg>
