<svg width="48" height="48" viewBox="0 0 48 48" fill="none" xmlns="http://www.w3.org/2000/svg">
<path d="M24 0C28.7468 0 33.3869 1.40758 37.3337 4.04473C41.2805 6.68188 44.3566 10.4302 46.1731 14.8156C47.9896 19.201 48.4649 24.0266 47.5388 28.6822C46.6128 33.3377 44.327 37.6141 40.9706 40.9706C37.6141 44.327 33.3377 46.6128 28.6822 47.5388C24.0266 48.4649 19.201 47.9896 14.8156 46.1731C10.4302 44.3566 6.68188 41.2805 4.04473 37.3337C1.40758 33.3869 0 28.7468 0 24C0 17.6348 2.52856 11.5303 7.02944 7.02944C11.5303 2.52856 17.6348 0 24 0V0Z" fill="white"/>
<path d="M30.3865 17.6487C28.9839 16.2415 27.1554 15.3375 25.1857 15.0775C23.216 14.8175 21.2155 15.216 19.4959 16.2111C17.7762 17.2062 16.4338 18.742 15.6777 20.5793C14.9216 22.4166 14.7942 24.4524 15.3154 26.3697C15.8366 28.2869 16.977 29.978 18.5592 31.1797C20.1414 32.3814 22.0766 33.0263 24.0634 33.0138C26.0501 33.0014 27.9771 32.3324 29.5441 31.111C31.1111 29.8896 32.2304 28.1843 32.7275 26.2607H30.3865C29.9731 27.4272 29.247 28.4577 28.2876 29.2394C27.3281 30.0211 26.1722 30.5241 24.9462 30.6933C23.7203 30.8625 22.4714 30.6915 21.336 30.1988C20.2007 29.7062 19.2226 28.911 18.5087 27.9C17.7948 26.8891 17.3725 25.7014 17.288 24.4667C17.2035 23.232 17.46 21.9978 18.0295 20.899C18.5991 19.8002 19.4597 18.8791 20.5173 18.2364C21.5749 17.5937 22.7889 17.2541 24.0265 17.2547C24.9114 17.2557 25.7873 17.433 26.6029 17.7764C27.4184 18.1199 28.1574 18.6224 28.7765 19.2547L25.1515 22.8837H33.0315V15.0037L30.3865 17.6487Z" fill="#8A2387"/>
</svg>
