<svg width="20" height="20" viewBox="0 0 20 20" fill="none" xmlns="http://www.w3.org/2000/svg">
<path d="M6.67969 20H4.6875C2.10281 20 0 17.8972 0 15.3125V4.6875C0 2.10281 2.10281 0 4.6875 0H15.3125C17.8972 0 20 2.10281 20 4.6875V11.7578C19.9587 12.7944 18.4784 12.7936 18.4375 11.7578V4.6875C18.4375 2.96438 17.0356 1.5625 15.3125 1.5625H4.6875C2.96438 1.5625 1.5625 2.96438 1.5625 4.6875V15.3125C1.5625 17.0356 2.96438 18.4375 4.6875 18.4375H6.67969C7.71625 18.4788 7.71547 19.9591 6.67969 20ZM12.7734 4.29688C12.7734 3.86539 12.4237 3.51562 11.9922 3.51562H8.00781C6.97125 3.55687 6.97203 5.03723 8.00781 5.07812H11.9922C12.4237 5.07812 12.7734 4.72836 12.7734 4.29688ZM15.0391 16.25C15.0391 16.7893 14.6018 17.2266 14.0625 17.2266C12.7671 17.1751 12.7675 15.3247 14.0625 15.2734C14.6018 15.2734 15.0391 15.7107 15.0391 16.25ZM20 16.25C20 16.9839 19.6404 17.6714 19.0379 18.0891C15.4362 20.6073 12.6054 20.6032 9.00895 18.0891C7.7348 17.2305 7.73508 15.2692 9.00895 14.4109C12.6107 11.8927 15.4415 11.8968 19.0379 14.4109C19.6404 14.8286 20 15.5161 20 16.25ZM18.4375 16.25C18.4375 16.025 18.3318 15.8227 18.1476 15.695C15.0524 13.5462 12.9915 13.5484 9.8993 15.695C9.51492 15.9513 9.51402 16.5484 9.8993 16.805C12.9945 18.9538 15.0554 18.9515 18.1476 16.805C18.3318 16.6773 18.4375 16.475 18.4375 16.25Z" fill="#E94057"/>
</svg>
