<svg width="28" height="28" viewBox="0 0 28 28" fill="none" xmlns="http://www.w3.org/2000/svg">
<g clip-path="url(#clip0_277_87)">
<path d="M13.4896 2.51647C13.2574 2.28426 13.2711 1.90145 13.5221 1.68932C16.3406 -0.693 20.5631 -0.555641 23.2199 2.10119C25.877 4.75823 26.0141 8.98049 23.6318 11.7992C23.4196 12.0503 23.037 12.0639 22.8046 11.8315L13.4896 2.51647Z" fill="#82CD64"/>
<path d="M23.2217 2.1012C22.2751 1.15464 21.1297 0.529362 19.9199 0.222172C20.6097 0.560978 21.257 1.01514 21.8308 1.58872C24.4842 4.24234 24.6228 8.45649 22.2497 11.275L22.8062 11.8315C23.0386 12.0639 23.4212 12.0501 23.6333 11.7993C26.0156 8.9805 25.8785 4.75824 23.2217 2.1012Z" fill="#5DB33A"/>
<path d="M14.6289 3.65424C16.5697 1.71326 19.7279 1.71326 21.6686 3.65424C23.6096 5.595 23.6096 8.75321 21.6686 10.694L14.6289 3.65424Z" fill="#FFF2B2"/>
<path d="M21.6674 3.65424C20.8317 2.81854 19.7704 2.34366 18.6777 2.22745C19.1815 2.46521 19.6538 2.79141 20.0697 3.20734C21.8146 4.95221 21.9897 7.68039 20.5974 9.62393L21.6674 10.694C23.6084 8.75321 23.6082 5.595 21.6674 3.65424Z" fill="#FFEA84"/>
<path d="M17.8037 26.981L19.9073 6.99636C19.9423 6.66375 19.6815 6.37408 19.3469 6.37408H3.29787C2.96333 6.37408 2.7025 6.66375 2.73753 6.99636L4.84108 26.981C4.90218 27.5601 5.39052 28 5.97307 28H16.6717C17.2541 28 17.7426 27.5601 17.8037 26.981Z" fill="#DEF4F8"/>
<path d="M18.9476 6.37408L16.7785 26.981C16.7176 27.5604 16.229 28 15.6465 28H16.671C17.2534 28 17.7419 27.5601 17.803 26.981L19.9066 6.99636C19.9416 6.66375 19.6808 6.37408 19.3462 6.37408H18.9476Z" fill="#BCE8F1"/>
<path d="M4.83659 9.38125L5.83613 19.8451C6.0034 21.5971 7.47526 22.935 9.2353 22.935H13.4082C15.1683 22.935 16.6399 21.5973 16.8074 19.8451L17.8067 9.38125C17.8383 9.05035 17.5784 8.76431 17.246 8.76431H5.39735C5.06517 8.76431 4.80497 9.05035 4.83659 9.38125Z" fill="#FFE046"/>
<path d="M16.2174 8.76431L15.1589 19.8449C14.9915 21.5971 13.5198 22.935 11.7598 22.935H13.4094C15.1694 22.935 16.6413 21.5971 16.8085 19.8449L17.8081 9.38125C17.8397 9.05035 17.5795 8.76431 17.2473 8.76431H16.2174Z" fill="#FFD508"/>
</g>
<defs>
<clipPath id="clip0_277_87">
<rect width="28" height="28" fill="white"/>
</clipPath>
</defs>
</svg>
