<svg width="16" height="14" viewBox="0 0 16 14" fill="none" xmlns="http://www.w3.org/2000/svg">
<path d="M15.2174 7.30861C15.3892 7.02904 15.2948 6.6275 14.9901 6.48244C14.9901 6.48244 1.81106 0.1794 1.80822 0.178995C1.6032 0.0849918 1.35077 0.117812 1.17937 0.272997C1.01527 0.42251 0.948824 0.682638 1.0254 0.892118L3.03714 6.42653C3.03714 6.42653 6.71378 6.42653 6.72027 6.42653C7.4496 6.42653 7.46783 7.57279 6.72026 7.57239L3.03714 7.57239C3.03714 7.57239 1.02702 13.1003 1.02419 13.1096C0.958143 13.3191 1.01082 13.5468 1.1579 13.7077C1.31754 13.8827 1.60036 13.9095 1.81024 13.8195C1.81024 13.8195 14.9816 7.52012 14.9897 7.51607C15.0853 7.4715 15.1627 7.39735 15.2174 7.30861Z" fill="white"/>
</svg>
