<svg width="16" height="16" viewBox="0 0 16 16" fill="none" xmlns="http://www.w3.org/2000/svg">
<path d="M15.4429 0.993405C15.3667 0.674234 15.016 0.457061 14.6979 0.569945C14.6979 0.569945 0.922044 5.43199 0.919752 5.43371C0.708309 5.51222 0.553021 5.71392 0.541561 5.94484C0.531247 6.1666 0.668198 6.39753 0.870473 6.4915L6.2064 8.9824C6.2064 8.9824 8.80618 6.38263 8.81077 6.37804C9.32648 5.86233 10.1499 6.65997 9.62101 7.18829L7.01665 9.79265C7.01665 9.79265 9.50412 15.1229 9.5087 15.1314C9.61012 15.3263 9.80839 15.45 10.0261 15.4598C10.2628 15.4707 10.4817 15.2896 10.5665 15.0776C10.5665 15.0776 15.4257 1.30971 15.4285 1.30111C15.4646 1.20198 15.4669 1.09483 15.4429 0.993405V0.993405Z" fill="white"/>
</svg>
