<svg width="22" height="19" viewBox="0 0 22 19" fill="none" xmlns="http://www.w3.org/2000/svg">
<path d="M2.79395 15.7143C2.79395 15.8532 2.84913 15.9864 2.94737 16.0847C3.0456 16.1829 3.17883 16.2381 3.31775 16.2381H4.49633C4.61314 16.2381 4.72661 16.1991 4.81869 16.1272C4.91076 16.0553 4.97617 15.9547 5.00451 15.8414L5.82196 12.5714H2.79395V15.7143Z" fill="white"/>
<path d="M6.28613 12.0949C8.01235 12.3578 11.8126 13.7131 14.3179 16.0126V2.14618C11.8126 4.44562 8.01235 5.80097 6.28613 6.06379V12.0949Z" fill="white"/>
<path d="M16.2376 0C15.8673 0.000415924 15.5123 0.147715 15.2504 0.40958C14.9885 0.671445 14.8412 1.02649 14.8408 1.39683V16.7619C14.8408 17.1324 14.988 17.4877 15.2499 17.7496C15.5119 18.0116 15.8672 18.1587 16.2376 18.1587C16.6081 18.1587 16.9634 18.0116 17.2254 17.7496C17.4873 17.4877 17.6345 17.1324 17.6345 16.7619V1.39683C17.6341 1.02649 17.4868 0.671445 17.2249 0.40958C16.963 0.147715 16.608 0.000415924 16.2376 0Z" fill="white"/>
<path d="M2.79395 6.11111H5.7622V12.0476H2.79395V6.11111Z" fill="white"/>
<path d="M0 7.68254V10.4762C0.000462149 10.8928 0.166171 11.2923 0.460771 11.5869C0.755371 11.8815 1.1548 12.0472 1.57143 12.0476H2.26984V6.11111H1.57143C1.1548 6.11158 0.755371 6.27729 0.460771 6.57189C0.166171 6.86649 0.000462149 7.26592 0 7.68254Z" fill="white"/>
<path d="M21.4759 8.55556H19.7299C19.5909 8.55556 19.4577 8.61074 19.3595 8.70898C19.2612 8.80721 19.2061 8.94044 19.2061 9.07937C19.2061 9.21829 19.2612 9.35152 19.3595 9.44976C19.4577 9.54799 19.5909 9.60318 19.7299 9.60318H21.4759C21.6148 9.60318 21.7481 9.54799 21.8463 9.44976C21.9445 9.35152 21.9997 9.21829 21.9997 9.07937C21.9997 8.94044 21.9445 8.80721 21.8463 8.70898C21.7481 8.61074 21.6148 8.55556 21.4759 8.55556Z" fill="white"/>
<path d="M18.868 5.82023C18.9465 5.82022 19.0239 5.80249 19.0946 5.76837L20.6683 5.01177C20.7935 4.95157 20.8897 4.8441 20.9356 4.713C20.9816 4.5819 20.9736 4.43791 20.9134 4.3127C20.8532 4.1875 20.7457 4.09134 20.6146 4.04537C20.4835 3.99941 20.3395 4.0074 20.2143 4.0676L18.6408 4.82425C18.5337 4.87566 18.4473 4.96194 18.3957 5.06891C18.3442 5.17589 18.3305 5.29722 18.3569 5.413C18.3833 5.52878 18.4483 5.63215 18.5412 5.70614C18.6341 5.78013 18.7494 5.82036 18.8682 5.82023H18.868Z" fill="white"/>
<path d="M20.6688 13.147L19.0953 12.3904C18.9702 12.3313 18.8269 12.324 18.6965 12.3702C18.5661 12.4164 18.4593 12.5123 18.3994 12.637C18.3395 12.7616 18.3313 12.9049 18.3766 13.0356C18.4219 13.1663 18.517 13.2737 18.6413 13.3345L20.2149 14.0911C20.3401 14.1513 20.4841 14.1593 20.6152 14.1134C20.7463 14.0674 20.8537 13.9712 20.9139 13.846C20.9741 13.7208 20.9821 13.5768 20.9362 13.4457C20.8902 13.3146 20.794 13.2072 20.6688 13.147Z" fill="white"/>
</svg>
