<svg width="23" height="22" viewBox="0 0 23 22" fill="none" xmlns="http://www.w3.org/2000/svg">
<path d="M10.1828 18.9941L10.1696 19.6276C10.1465 20.7319 11.023 21.6459 12.1273 21.669L20.2287 21.8386C21.333 21.8617 22.247 20.9852 22.2701 19.8809L22.5566 6.19165C22.5798 5.08733 21.7033 4.17335 20.5989 4.15024L13.1855 3.99506L15.9879 15.5249C16.2487 16.5983 15.5901 17.6798 14.5168 17.9407L10.1828 18.9941Z" fill="white"/>
<path d="M0.472327 4.80197C0.211451 3.72865 0.870067 2.64707 1.94339 2.38619L9.81733 0.472388C10.8906 0.211512 11.9722 0.870128 12.2331 1.94345L15.4669 15.2483C15.7278 16.3216 15.0692 17.4032 13.9959 17.6641L6.12192 19.5779C5.0486 19.8388 3.96702 19.1802 3.70614 18.1068L0.472327 4.80197Z" fill="white"/>
</svg>
