<svg width="18" height="18" viewBox="0 0 18 18" fill="none" xmlns="http://www.w3.org/2000/svg">
<path d="M16.282 9.818C16.1001 11.4699 15.3606 13.0104 14.1855 14.1855C13.0104 15.3606 11.4699 16.1001 9.818 16.282V17.182C9.818 17.2894 9.79684 17.3958 9.75573 17.495C9.71463 17.5943 9.65437 17.6845 9.57841 17.7604C9.50245 17.8364 9.41228 17.8966 9.31304 17.9377C9.21379 17.9788 9.10742 18 9 18C8.89258 18 8.78621 17.9788 8.68696 17.9377C8.58772 17.8966 8.49755 17.8364 8.42159 17.7604C8.34563 17.6845 8.28537 17.5943 8.24427 17.495C8.20316 17.3958 8.182 17.2894 8.182 17.182V16.282C6.51996 16.1271 4.96428 15.3964 3.78395 14.216C2.60362 13.0357 1.87285 11.48 1.718 9.818H0.818C0.710579 9.818 0.604209 9.79684 0.504965 9.75573C0.405721 9.71463 0.315545 9.65437 0.239587 9.57841C0.163628 9.50245 0.103375 9.41228 0.0622666 9.31304C0.0211582 9.21379 0 9.10742 0 9C0 8.89258 0.0211582 8.78621 0.0622666 8.68696C0.103375 8.58772 0.163628 8.49755 0.239587 8.42159C0.315545 8.34563 0.405721 8.28537 0.504965 8.24427C0.604209 8.20316 0.710579 8.182 0.818 8.182H1.718C1.87285 6.51996 2.60362 4.96428 3.78395 3.78395C4.96428 2.60362 6.51996 1.87285 8.182 1.718V0.818C8.182 0.710579 8.20316 0.604209 8.24427 0.504965C8.28537 0.405721 8.34563 0.315545 8.42159 0.239587C8.49755 0.163628 8.58772 0.103375 8.68696 0.0622666C8.78621 0.0211582 8.89258 0 9 0C9.10742 0 9.21379 0.0211582 9.31304 0.0622666C9.41228 0.103375 9.50245 0.163628 9.57841 0.239587C9.65437 0.315545 9.71463 0.405721 9.75573 0.504965C9.79684 0.604209 9.818 0.710579 9.818 0.818V1.718C11.4699 1.89994 13.0104 2.63944 14.1855 3.81454C15.3606 4.98963 16.1001 6.53015 16.282 8.182H17.182C17.2894 8.182 17.3958 8.20316 17.495 8.24427C17.5943 8.28537 17.6845 8.34563 17.7604 8.42159C17.8364 8.49755 17.8966 8.58772 17.9377 8.68696C17.9788 8.78621 18 8.89258 18 9C18 9.10742 17.9788 9.21379 17.9377 9.31304C17.8966 9.41228 17.8364 9.50245 17.7604 9.57841C17.6845 9.65437 17.5943 9.71463 17.495 9.75573C17.3958 9.79684 17.2894 9.818 17.182 9.818H16.282ZM9 14.727C10.1327 14.727 11.24 14.3911 12.1818 13.7618C13.1236 13.1325 13.8576 12.2381 14.2911 11.1916C14.7245 10.1452 14.8379 8.99365 14.617 7.88272C14.396 6.77179 13.8505 5.75133 13.0496 4.9504C12.2487 4.14946 11.2282 3.60402 10.1173 3.38304C9.00635 3.16207 7.85484 3.27548 6.80837 3.70894C5.7619 4.14241 4.86746 4.87645 4.23817 5.81825C3.60888 6.76005 3.273 7.86731 3.273 9C3.26835 9.75338 3.41331 10.5002 3.69948 11.1971C3.98564 11.894 4.40731 12.5272 4.94004 13.06C5.47277 13.5927 6.10596 14.0144 6.80289 14.3005C7.49982 14.5867 8.24662 14.7316 9 14.727ZM9 12.272C8.35262 12.272 7.71978 12.08 7.18151 11.7203C6.64325 11.3606 6.22374 10.8494 5.97605 10.2513C5.72835 9.65317 5.66359 8.99503 5.78996 8.3601C5.91633 7.72517 6.22816 7.14198 6.68599 6.68429C7.14383 6.22659 7.72712 5.91494 8.36208 5.78877C8.99705 5.66259 9.65517 5.72755 10.2532 5.97543C10.8513 6.22331 11.3624 6.64297 11.7219 7.18135C12.0814 7.71972 12.2732 8.35262 12.273 9C12.2706 9.86732 11.925 10.6984 11.3117 11.3117C10.6984 11.925 9.86732 12.2706 9 12.273V12.272ZM9 10.636C9.32357 10.636 9.63987 10.54 9.90891 10.3603C10.178 10.1805 10.3876 9.92501 10.5115 9.62607C10.6353 9.32713 10.6677 8.99819 10.6046 8.68083C10.5414 8.36348 10.3856 8.07197 10.1568 7.84317C9.92803 7.61437 9.63652 7.45856 9.31917 7.39544C9.00181 7.33231 8.67287 7.36471 8.37393 7.48853C8.07499 7.61236 7.81948 7.82205 7.63972 8.09109C7.45995 8.36013 7.364 8.67643 7.364 9C7.36532 9.43349 7.53811 9.84885 7.84463 10.1554C8.15115 10.4619 8.56651 10.6347 9 10.636Z" fill="#E20000"/>
</svg>
