<svg width="22" height="22" viewBox="0 0 22 22" fill="none" xmlns="http://www.w3.org/2000/svg">
<path d="M22 10.3555H20.6891C20.5672 8.47278 19.9113 6.69452 18.773 5.17841L18.327 4.58441L16.4346 6.47693L17.3461 7.38842L18.1647 6.56978C18.8766 7.71529 19.2958 9.00323 19.3969 10.3555H18.1328V11.6446H19.3969C19.2958 12.9968 18.8766 14.2848 18.1647 15.4303L17.3461 14.6116L16.4346 15.5231L18.327 17.4157L18.773 16.8217C19.9113 15.3055 20.5672 13.5272 20.6891 11.6445H22V10.3555Z" fill="#333333"/>
<path d="M14.6112 17.3461L15.4299 18.1647C14.2844 18.8766 12.9964 19.2958 11.6441 19.397V18.1328H10.3551V19.397C9.00285 19.2958 7.71486 18.8766 6.56936 18.1647L7.388 17.3461L6.4765 16.4346L4.58398 18.3271L5.17798 18.773C6.69414 19.9113 8.4724 20.5672 10.3551 20.6892V22H11.6441V20.6892C13.5268 20.5672 15.3051 19.9113 16.8212 18.773L17.4152 18.3271L15.5227 16.4346L14.6112 17.3461Z" fill="#333333"/>
<path d="M4.6539 14.6116L3.83526 15.4303C3.12336 14.2847 2.70415 12.9968 2.60305 11.6445H3.86719V10.3555H2.60305C2.70415 9.00324 3.1234 7.71526 3.83526 6.56975L4.6539 7.38839L5.5654 6.4769L3.67293 4.58438L3.227 5.17838C2.08871 6.69453 1.43279 8.47279 1.31085 10.3555H0V11.6445H1.31085C1.43279 13.5272 2.08871 15.3055 3.227 16.8216L3.67293 17.4156L5.5654 15.5231L4.6539 14.6116Z" fill="#333333"/>
<path d="M7.38795 4.6539L6.56931 3.83526C7.71482 3.12336 9.00281 2.70415 10.355 2.60305V3.86719H11.6441V2.60305C12.9963 2.70415 14.2843 3.1234 15.4298 3.83526L14.6112 4.6539L15.5227 5.5654L17.4152 3.67293L16.8212 3.227C15.305 2.08871 13.5268 1.43279 11.6441 1.31085V0H10.355V1.31085C8.47236 1.43279 6.69409 2.08871 5.17798 3.22695L4.58398 3.67288L6.4765 5.56536L7.38795 4.6539Z" fill="#333333"/>
<path d="M11 7.87648C9.75614 7.87648 8.74414 8.88848 8.74414 10.1323C8.74414 11.3762 9.75614 12.3882 11 12.3882C12.2439 12.3882 13.2559 11.3762 13.2559 10.1323C13.2559 8.88848 12.2439 7.87648 11 7.87648ZM11 11.0991C10.4669 11.0991 10.0332 10.6654 10.0332 10.1323C10.0332 9.59927 10.4669 9.16554 11 9.16554C11.5331 9.16554 11.9668 9.59927 11.9668 10.1323C11.9668 10.6654 11.5331 11.0991 11 11.0991Z" fill="#333333"/>
<path d="M11 5.29834C8.33452 5.29834 6.16602 7.46689 6.16602 10.1323C6.16602 11.4236 6.66884 12.6375 7.58188 13.5505L11 16.9686L14.4182 13.5504C15.3312 12.6374 15.834 11.4235 15.834 10.1323C15.834 7.46684 13.6655 5.29834 11 5.29834ZM13.5067 12.639L11 15.1456L8.49338 12.6389C7.82384 11.9694 7.45508 11.0792 7.45508 10.1323C7.45508 8.17763 9.04535 6.58736 11 6.58736C12.9546 6.58736 14.5449 8.17763 14.5449 10.1323C14.5449 11.0792 14.1762 11.9695 13.5067 12.639Z" fill="#333333"/>
</svg>
