<svg width="18" height="21" viewBox="0 0 18 21" fill="none" xmlns="http://www.w3.org/2000/svg">
<path d="M8.605 10.987H8.74C9.29966 10.9988 9.85532 10.8899 10.3692 10.6678C10.883 10.4458 11.3431 10.1157 11.718 9.69999C13.344 7.86699 13.074 4.72599 13.044 4.42599C13.0717 3.66408 12.8968 2.90845 12.5369 2.23628C12.1771 1.5641 11.6454 0.999454 10.996 0.59999C10.3017 0.210838 9.51993 0.00438492 8.724 -1.01337e-05H8.652C7.858 -0.00234831 7.07635 0.196504 6.38 0.57799C5.72274 0.976113 5.18388 1.54272 4.81922 2.21911C4.45456 2.8955 4.27738 3.65709 4.30601 4.42499C4.27601 4.72499 4.00599 7.86599 5.63199 9.69899C6.00558 10.1151 6.46463 10.4456 6.97774 10.6679C7.49086 10.8902 8.04593 10.999 8.605 10.987ZM5.433 4.49999C5.572 1.47299 7.722 1.14699 8.643 1.14699H8.69401C9.83401 1.17199 11.773 1.63699 11.904 4.49999C11.9017 4.5112 11.9017 4.52278 11.904 4.53399C11.904 4.56399 12.204 7.43399 10.861 8.94599C10.5868 9.24657 10.2498 9.48305 9.87389 9.63861C9.49797 9.79416 9.09239 9.86497 8.686 9.84599H8.644C8.2382 9.865 7.8332 9.79418 7.45792 9.63861C7.08264 9.48304 6.74633 9.24654 6.473 8.94599C5.142 7.44599 5.429 4.55899 5.433 4.53399V4.49999Z" fill="#E94057"/>
<path d="M17.353 16.197V16.078C17.328 15.242 17.273 13.287 15.44 12.662L15.398 12.649C14.1519 12.3049 12.9684 11.7648 11.892 11.049C11.8308 11.0052 11.7615 10.9741 11.6881 10.9573C11.6148 10.9404 11.5389 10.9383 11.4647 10.951C11.3905 10.9637 11.3196 10.9909 11.256 11.0311C11.1924 11.0713 11.1374 11.1237 11.0942 11.1853C11.051 11.2469 11.0203 11.3164 11.0041 11.3899C10.9879 11.4634 10.9864 11.5393 10.9996 11.6134C11.0129 11.6875 11.0407 11.7582 11.0815 11.8214C11.1222 11.8847 11.1751 11.9393 11.237 11.982C12.4187 12.7735 13.7209 13.3682 15.093 13.743C16.077 14.093 16.187 15.143 16.217 16.108C16.2148 16.1433 16.2148 16.1787 16.217 16.214C16.2243 16.6491 16.1945 17.084 16.128 17.514C13.8284 18.7018 11.2687 19.2968 8.681 19.245C6.09199 19.2924 3.53173 18.6963 1.23 17.51C1.16139 17.0802 1.1316 16.6451 1.141 16.21V16.102C1.171 15.139 1.28 14.088 2.265 13.737C3.63633 13.3602 4.93825 12.7657 6.121 11.976C6.18293 11.9332 6.23579 11.8787 6.27653 11.8154C6.31726 11.7522 6.34507 11.6814 6.35835 11.6074C6.37163 11.5333 6.37011 11.4574 6.35388 11.3839C6.33765 11.3104 6.30704 11.2409 6.26381 11.1793C6.22057 11.1177 6.16558 11.0653 6.10198 11.0251C6.03839 10.9849 5.96747 10.9576 5.8933 10.945C5.81913 10.9323 5.74319 10.9344 5.66985 10.9513C5.59651 10.9681 5.52723 10.9993 5.466 11.043C4.39069 11.7609 3.2069 12.3011 1.96 12.643L1.918 12.656C0.0849967 13.285 0.0299985 15.24 0.0049985 16.072C0.00721161 16.1073 0.00721161 16.1427 0.0049985 16.178V16.191C-0.0190852 16.8358 0.0533828 17.4806 0.219999 18.104C0.262383 18.2143 0.339633 18.3077 0.439996 18.37C2.95617 19.7736 5.805 20.4709 8.685 20.388C11.565 20.4689 14.4135 19.7721 16.931 18.371C17.0303 18.3074 17.1072 18.2144 17.151 18.105C17.3083 17.4818 17.3763 16.8393 17.353 16.197Z" fill="#E94057"/>
</svg>
